M48
METRIC,LZ,000.000
;FILE_FORMAT=3:3
;TYPE=PLATED
;Layer: PTH_Through
;EasyEDA v6.4.31, 2022-02-21 16:35:37
;86a35107d0e148c68cbe8ff221d4d82a,63e7e6c6506342ae886175fa881d857f,10
;Gerber Generator version 0.2
;Holesize 1 = 0.306 mm
T01C0.306
;Holesize 2 = 0.500 mm
T02C0.500
;Holesize 3 = 0.800 mm
T03C0.800
;Holesize 4 = 0.900 mm
T04C0.900
;Holesize 5 = 0.901 mm
T05C0.901
;Holesize 6 = 0.915 mm
T06C0.915
;Holesize 7 = 1.000 mm
T07C1.000
;Holesize 8 = 1.042 mm
T08C1.042
;Holesize 9 = 1.200 mm
T09C1.200
;Holesize 10 = 1.400 mm
T10C1.400
%
G05
G90
T01
X078029Y-041323
X078509Y-030010
X099726Y-030482
T02
X118742Y-046736G85X118748Y-046736
X118742Y-048006G85X118748Y-048006
X118742Y-049276G85X118748Y-049276
X118742Y-050546G85X118748Y-050546
X118742Y-051816G85X118748Y-051816
X118742Y-053086G85X118748Y-053086
X118742Y-054356G85X118748Y-054356
X118742Y-055626G85X118748Y-055626
T03
X076708Y-048117
X076708Y-046117
X076962Y-054086
X076962Y-052086
X068072Y-055245
X065532Y-055245
X062992Y-055245
T04
X088265Y-032385
X078105Y-032385
X088519Y-037084
X078359Y-037084
T05
X092456Y-032512
X094996Y-032512
X092583Y-037211
X095123Y-037211
X070612Y-055245
X063119Y-049784
X063119Y-052324
X063119Y-047244
T06
X094107Y-055626
X096647Y-055626
X085725Y-049149
X085725Y-046609
T07
X080613Y-055880
X089313Y-055880
T08
X101981Y-027556G85X101981Y-027562
X099441Y-027556G85X099441Y-027562
X096901Y-027556G85X096901Y-027562
X094361Y-027556G85X094361Y-027562
X091821Y-027556G85X091821Y-027562
X089281Y-027556G85X089281Y-027562
X086741Y-027556G85X086741Y-027562
X084201Y-027556G85X084201Y-027562
X081661Y-027556G85X081661Y-027562
X079121Y-027556G85X079121Y-027562
X076581Y-027556G85X076581Y-027562
X074041Y-027556G85X074041Y-027562
X071501Y-027556G85X071501Y-027562
X068961Y-027556G85X068961Y-027562
X066421Y-027556G85X066421Y-027562
X066421Y-042796G85X066421Y-042802
X068961Y-042796G85X068961Y-042802
X071501Y-042796G85X071501Y-042802
X074041Y-042796G85X074041Y-042802
X076581Y-042796G85X076581Y-042802
X079121Y-042796G85X079121Y-042802
X081661Y-042796G85X081661Y-042802
X084201Y-042796G85X084201Y-042802
X086741Y-042796G85X086741Y-042802
X089281Y-042796G85X089281Y-042802
X091821Y-042796G85X091821Y-042802
X094361Y-042796G85X094361Y-042802
X096901Y-042796G85X096901Y-042802
X099441Y-042796G85X099441Y-042802
X101981Y-042796G85X101981Y-042802
T09
X111800Y-028056
X116800Y-028056
X111800Y-042556
X114300Y-042556
X116800Y-042556
T10
X108600Y-035756G85X108600Y-034356
X120000Y-035756G85X120000Y-034356
M30
