G04 Layer: BottomLayer*
G04 EasyEDA v6.4.31, 2022-02-21 16:35:37*
G04 86a35107d0e148c68cbe8ff221d4d82a,63e7e6c6506342ae886175fa881d857f,10*
G04 Gerber Generator version 0.2*
G04 Scale: 100 percent, Rotated: No, Reflected: No *
G04 Dimensions in millimeters *
G04 leading zeros omitted , absolute positions ,4 integer and 5 decimal *
%FSLAX45Y45*%
%MOMM*%

%ADD11C,0.5000*%
%ADD12C,0.3000*%
%ADD13C,0.6100*%
%ADD16C,1.5240*%
%ADD17C,1.3000*%
%ADD18C,1.8000*%
%ADD19C,1.6510*%
%ADD20C,1.8796*%
%ADD21R,1.5240X2.0320*%
%ADD22C,2.4000*%

%LPD*%
G36*
X5966968Y-6425692D02*
G01*
X5963056Y-6424930D01*
X5959805Y-6422694D01*
X5957570Y-6419443D01*
X5956808Y-6415532D01*
X5956808Y-2093468D01*
X5957570Y-2089556D01*
X5959805Y-2086305D01*
X5963056Y-2084070D01*
X5966968Y-2083307D01*
X12143232Y-2083307D01*
X12147143Y-2084070D01*
X12150394Y-2086305D01*
X12152630Y-2089556D01*
X12153392Y-2093468D01*
X12153392Y-3374237D01*
X12152630Y-3378098D01*
X12150394Y-3381400D01*
X12147143Y-3383584D01*
X12143232Y-3384397D01*
X12139320Y-3383584D01*
X12136069Y-3381400D01*
X12133834Y-3378098D01*
X12131446Y-3372307D01*
X12123521Y-3357981D01*
X12114072Y-3344621D01*
X12103150Y-3332429D01*
X12090958Y-3321558D01*
X12077598Y-3312058D01*
X12063323Y-3304184D01*
X12048185Y-3297885D01*
X12032488Y-3293364D01*
X12016333Y-3290620D01*
X12000026Y-3289706D01*
X11983669Y-3290620D01*
X11967514Y-3293364D01*
X11951817Y-3297885D01*
X11936679Y-3304184D01*
X11922404Y-3312058D01*
X11909044Y-3321558D01*
X11896852Y-3332429D01*
X11885930Y-3344621D01*
X11876481Y-3357981D01*
X11868556Y-3372307D01*
X11862308Y-3387445D01*
X11857786Y-3403142D01*
X11855043Y-3419297D01*
X11854078Y-3435908D01*
X11854078Y-3575304D01*
X11855043Y-3591966D01*
X11857786Y-3608070D01*
X11862308Y-3623767D01*
X11868556Y-3638905D01*
X11876481Y-3653231D01*
X11885930Y-3666591D01*
X11896852Y-3678783D01*
X11909044Y-3689654D01*
X11922404Y-3699154D01*
X11936679Y-3707028D01*
X11951817Y-3713327D01*
X11967514Y-3717848D01*
X11983669Y-3720592D01*
X12000026Y-3721506D01*
X12016333Y-3720592D01*
X12032488Y-3717848D01*
X12048185Y-3713327D01*
X12063323Y-3707028D01*
X12077598Y-3699154D01*
X12090958Y-3689654D01*
X12103150Y-3678783D01*
X12114072Y-3666591D01*
X12123521Y-3653231D01*
X12131446Y-3638905D01*
X12133834Y-3633114D01*
X12136069Y-3629812D01*
X12139320Y-3627628D01*
X12143232Y-3626815D01*
X12147143Y-3627628D01*
X12150394Y-3629812D01*
X12152630Y-3633114D01*
X12153392Y-3636975D01*
X12153392Y-6415532D01*
X12152630Y-6419443D01*
X12150394Y-6422694D01*
X12147143Y-6424930D01*
X12143232Y-6425692D01*
X10949178Y-6425692D01*
X10946180Y-6425234D01*
X10943437Y-6423914D01*
X10939881Y-6420154D01*
X10572292Y-6052566D01*
X10569397Y-6050076D01*
X10562945Y-6046520D01*
X10557560Y-6044996D01*
X10553293Y-6044692D01*
X7582306Y-6044692D01*
X7578496Y-6044996D01*
X7571435Y-6047028D01*
X7566558Y-6049772D01*
X7563307Y-6052566D01*
X7193127Y-6422694D01*
X7189825Y-6424930D01*
X7185964Y-6425692D01*
G37*

%LPC*%
G36*
X11853621Y-6271818D02*
G01*
X11871706Y-6270447D01*
X11889486Y-6267196D01*
X11906910Y-6262116D01*
X11923674Y-6255308D01*
X11939625Y-6246774D01*
X11954662Y-6236665D01*
X11968581Y-6225082D01*
X11981230Y-6212128D01*
X11992457Y-6197904D01*
X12002160Y-6182614D01*
X12010288Y-6166459D01*
X12016638Y-6149492D01*
X12021261Y-6131966D01*
X12024055Y-6114084D01*
X12024969Y-6096000D01*
X12024055Y-6077915D01*
X12021261Y-6060033D01*
X12016638Y-6042507D01*
X12010288Y-6025540D01*
X12002160Y-6009386D01*
X11992457Y-5994095D01*
X11981230Y-5979871D01*
X11968581Y-5966917D01*
X11954662Y-5955334D01*
X11939625Y-5945225D01*
X11923674Y-5936691D01*
X11906910Y-5929884D01*
X11889486Y-5924804D01*
X11871706Y-5921552D01*
X11853621Y-5920181D01*
X11835536Y-5920638D01*
X11817553Y-5922975D01*
X11799925Y-5927090D01*
X11782856Y-5933084D01*
X11766448Y-5940755D01*
X11750903Y-5950051D01*
X11736425Y-5960922D01*
X11723116Y-5973216D01*
X11711178Y-5986830D01*
X11700662Y-6001613D01*
X11691772Y-6017361D01*
X11684508Y-6033973D01*
X11679021Y-6051194D01*
X11675313Y-6068923D01*
X11673433Y-6086957D01*
X11673433Y-6105042D01*
X11675313Y-6123076D01*
X11679021Y-6140805D01*
X11684508Y-6158026D01*
X11691772Y-6174638D01*
X11700662Y-6190386D01*
X11711178Y-6205169D01*
X11723116Y-6218783D01*
X11736425Y-6231077D01*
X11750903Y-6241948D01*
X11766448Y-6251244D01*
X11782856Y-6258915D01*
X11799925Y-6264910D01*
X11817553Y-6269024D01*
X11835536Y-6271361D01*
G37*
G36*
X6265621Y-6271818D02*
G01*
X6283706Y-6270447D01*
X6301486Y-6267196D01*
X6318910Y-6262116D01*
X6335674Y-6255308D01*
X6351625Y-6246774D01*
X6366662Y-6236665D01*
X6380581Y-6225082D01*
X6393230Y-6212128D01*
X6404457Y-6197904D01*
X6414160Y-6182614D01*
X6422288Y-6166459D01*
X6428638Y-6149492D01*
X6433261Y-6131966D01*
X6436055Y-6114084D01*
X6436969Y-6096000D01*
X6436055Y-6077915D01*
X6433261Y-6060033D01*
X6428638Y-6042507D01*
X6422288Y-6025540D01*
X6414160Y-6009386D01*
X6404457Y-5994095D01*
X6393230Y-5979871D01*
X6380581Y-5966917D01*
X6366662Y-5955334D01*
X6351625Y-5945225D01*
X6335674Y-5936691D01*
X6318910Y-5929884D01*
X6301486Y-5924804D01*
X6283706Y-5921552D01*
X6265621Y-5920181D01*
X6247536Y-5920638D01*
X6229553Y-5922975D01*
X6211925Y-5927090D01*
X6194856Y-5933084D01*
X6178448Y-5940755D01*
X6162903Y-5950051D01*
X6148425Y-5960922D01*
X6135116Y-5973216D01*
X6123178Y-5986830D01*
X6112662Y-6001613D01*
X6103772Y-6017361D01*
X6096508Y-6033973D01*
X6091021Y-6051194D01*
X6087313Y-6068923D01*
X6085433Y-6086957D01*
X6085433Y-6105042D01*
X6087313Y-6123076D01*
X6091021Y-6140805D01*
X6096508Y-6158026D01*
X6103772Y-6174638D01*
X6112662Y-6190386D01*
X6123178Y-6205169D01*
X6135116Y-6218783D01*
X6148425Y-6231077D01*
X6162903Y-6241948D01*
X6178448Y-6251244D01*
X6194856Y-6258915D01*
X6211925Y-6264910D01*
X6229553Y-6269024D01*
X6247536Y-6271361D01*
G37*
G36*
X10656214Y-5715914D02*
G01*
X11697970Y-5715914D01*
X11702592Y-5715711D01*
X11707012Y-5715152D01*
X11711330Y-5714187D01*
X11715597Y-5712866D01*
X11719661Y-5711139D01*
X11723624Y-5709107D01*
X11727383Y-5706719D01*
X11730888Y-5704027D01*
X11734342Y-5700877D01*
X11761419Y-5673801D01*
X11764568Y-5670346D01*
X11767261Y-5666841D01*
X11769648Y-5663082D01*
X11771680Y-5659120D01*
X11773408Y-5655056D01*
X11774728Y-5650788D01*
X11775694Y-5646470D01*
X11776252Y-5642051D01*
X11776456Y-5637428D01*
X11776456Y-5453329D01*
X11777218Y-5449417D01*
X11779453Y-5446166D01*
X11841378Y-5384190D01*
X11844274Y-5382158D01*
X11847728Y-5381244D01*
X11851284Y-5381599D01*
X11857431Y-5383326D01*
X11862968Y-5384393D01*
X11866727Y-5384850D01*
X11874804Y-5385308D01*
X11921439Y-5385308D01*
X11925350Y-5386070D01*
X11928602Y-5388305D01*
X11930837Y-5391556D01*
X11931599Y-5395468D01*
X11931599Y-5403850D01*
X12045848Y-5403850D01*
X12041835Y-5396179D01*
X12039752Y-5392826D01*
X12033961Y-5385308D01*
X12028017Y-5379212D01*
X12025884Y-5375910D01*
X12025122Y-5372100D01*
X12025884Y-5368290D01*
X12028017Y-5364988D01*
X12033961Y-5358892D01*
X12039752Y-5351373D01*
X12044629Y-5342991D01*
X12046305Y-5339435D01*
X12049556Y-5330494D01*
X12051030Y-5324957D01*
X12052452Y-5315305D01*
X12052706Y-5311495D01*
X12052706Y-5305704D01*
X12052452Y-5301894D01*
X12051030Y-5292242D01*
X12049556Y-5286705D01*
X12046305Y-5277764D01*
X12044629Y-5274208D01*
X12039752Y-5265826D01*
X12033961Y-5258308D01*
X12028017Y-5252212D01*
X12025884Y-5248910D01*
X12025122Y-5245100D01*
X12025884Y-5241290D01*
X12028017Y-5237988D01*
X12033961Y-5231892D01*
X12039752Y-5224373D01*
X12044629Y-5215991D01*
X12046305Y-5212435D01*
X12049556Y-5203494D01*
X12051030Y-5197957D01*
X12052452Y-5188305D01*
X12052706Y-5184495D01*
X12052706Y-5178704D01*
X12052452Y-5174894D01*
X12051030Y-5165242D01*
X12049556Y-5159705D01*
X12046305Y-5150764D01*
X12044629Y-5147208D01*
X12039752Y-5138826D01*
X12033961Y-5131308D01*
X12028017Y-5125212D01*
X12025884Y-5121910D01*
X12025122Y-5118100D01*
X12025884Y-5114290D01*
X12028017Y-5110988D01*
X12033961Y-5104892D01*
X12039752Y-5097373D01*
X12044629Y-5088991D01*
X12046305Y-5085435D01*
X12049556Y-5076494D01*
X12051030Y-5070957D01*
X12052452Y-5061305D01*
X12052706Y-5057495D01*
X12052706Y-5051704D01*
X12052452Y-5047894D01*
X12051030Y-5038242D01*
X12049556Y-5032705D01*
X12046305Y-5023764D01*
X12044629Y-5020208D01*
X12039752Y-5011826D01*
X12033961Y-5004308D01*
X12028017Y-4998212D01*
X12025884Y-4994910D01*
X12025122Y-4991100D01*
X12025884Y-4987290D01*
X12028017Y-4983988D01*
X12033961Y-4977892D01*
X12039752Y-4970373D01*
X12044629Y-4961991D01*
X12046305Y-4958435D01*
X12049556Y-4949494D01*
X12051030Y-4943957D01*
X12052452Y-4934305D01*
X12052706Y-4930495D01*
X12052706Y-4924704D01*
X12052452Y-4920894D01*
X12051030Y-4911242D01*
X12049556Y-4905705D01*
X12046305Y-4896764D01*
X12044629Y-4893208D01*
X12039752Y-4884826D01*
X12033961Y-4877308D01*
X12028017Y-4871212D01*
X12025884Y-4867910D01*
X12025122Y-4864100D01*
X12025884Y-4860290D01*
X12028017Y-4856988D01*
X12033961Y-4850892D01*
X12039752Y-4843373D01*
X12044629Y-4834991D01*
X12046305Y-4831435D01*
X12049556Y-4822494D01*
X12051030Y-4816957D01*
X12052452Y-4807305D01*
X12052706Y-4803495D01*
X12052706Y-4797704D01*
X12052452Y-4793894D01*
X12051030Y-4784242D01*
X12049556Y-4778705D01*
X12046305Y-4769764D01*
X12044629Y-4766208D01*
X12039752Y-4757826D01*
X12033961Y-4750308D01*
X12028017Y-4744212D01*
X12025884Y-4740910D01*
X12025122Y-4737100D01*
X12025884Y-4733290D01*
X12028017Y-4729988D01*
X12033961Y-4723892D01*
X12039752Y-4716373D01*
X12044629Y-4707991D01*
X12046305Y-4704435D01*
X12049556Y-4695494D01*
X12051030Y-4689957D01*
X12052452Y-4680305D01*
X12052706Y-4676495D01*
X12052706Y-4670704D01*
X12052452Y-4666894D01*
X12051030Y-4657242D01*
X12049556Y-4651705D01*
X12046305Y-4642764D01*
X12044629Y-4639208D01*
X12039752Y-4630826D01*
X12036348Y-4626203D01*
X12033910Y-4623257D01*
X12029948Y-4619040D01*
X12027154Y-4616399D01*
X12022734Y-4612741D01*
X12019635Y-4610455D01*
X12011304Y-4605477D01*
X12006072Y-4603038D01*
X12002414Y-4601616D01*
X11996978Y-4599838D01*
X11993270Y-4598873D01*
X11987631Y-4597806D01*
X11983872Y-4597349D01*
X11975795Y-4596892D01*
X11874804Y-4596892D01*
X11866727Y-4597349D01*
X11862968Y-4597806D01*
X11857329Y-4598873D01*
X11853621Y-4599838D01*
X11844477Y-4603038D01*
X11839397Y-4605477D01*
X11833707Y-4608728D01*
X11830100Y-4609998D01*
X11826240Y-4609846D01*
X11822734Y-4608220D01*
X11820093Y-4605426D01*
X11818620Y-4601870D01*
X11817248Y-4594707D01*
X11815978Y-4590643D01*
X11814302Y-4586528D01*
X11812219Y-4582617D01*
X11809831Y-4578858D01*
X11807139Y-4575302D01*
X11803989Y-4571898D01*
X11679428Y-4447336D01*
X11676024Y-4444187D01*
X11672468Y-4441494D01*
X11668709Y-4439107D01*
X11664797Y-4437024D01*
X11660682Y-4435348D01*
X11656466Y-4434027D01*
X11652097Y-4433062D01*
X11647728Y-4432452D01*
X11643055Y-4432249D01*
X10980166Y-4432249D01*
X10976254Y-4431487D01*
X10973003Y-4429302D01*
X9394647Y-2850946D01*
X9392412Y-2847644D01*
X9391650Y-2843733D01*
X9391650Y-2813050D01*
X9370161Y-2813050D01*
X9366300Y-2812288D01*
X9362998Y-2810052D01*
X9360763Y-2806801D01*
X9360001Y-2802890D01*
X9360001Y-2708910D01*
X9360763Y-2704998D01*
X9362998Y-2701747D01*
X9366300Y-2699512D01*
X9370161Y-2698750D01*
X9391650Y-2698750D01*
X9391650Y-2638856D01*
X9385046Y-2642108D01*
X9373971Y-2649524D01*
X9372346Y-2650947D01*
X9369044Y-2652877D01*
X9365234Y-2653436D01*
X9361525Y-2652572D01*
X9358376Y-2650388D01*
X9356242Y-2647188D01*
X9353194Y-2640787D01*
X9350806Y-2637028D01*
X9348114Y-2633472D01*
X9344964Y-2630068D01*
X9277096Y-2562199D01*
X9273692Y-2559050D01*
X9270136Y-2556357D01*
X9266377Y-2553970D01*
X9262465Y-2551938D01*
X9258350Y-2550210D01*
X9254134Y-2548890D01*
X9249765Y-2547924D01*
X9245396Y-2547366D01*
X9240723Y-2547162D01*
X7816138Y-2547162D01*
X7811516Y-2547366D01*
X7807096Y-2547924D01*
X7802778Y-2548890D01*
X7798511Y-2550210D01*
X7794447Y-2551938D01*
X7790484Y-2553970D01*
X7786725Y-2556357D01*
X7783220Y-2559050D01*
X7779766Y-2562199D01*
X7708087Y-2633929D01*
X7704988Y-2636012D01*
X7701330Y-2636875D01*
X7697622Y-2636367D01*
X7684516Y-2631897D01*
X7671409Y-2629306D01*
X7658100Y-2628392D01*
X7644790Y-2629306D01*
X7631684Y-2631897D01*
X7619034Y-2636164D01*
X7607046Y-2642108D01*
X7595971Y-2649524D01*
X7585913Y-2658313D01*
X7577124Y-2668371D01*
X7569708Y-2679446D01*
X7563764Y-2691434D01*
X7559497Y-2704084D01*
X7556906Y-2717190D01*
X7555992Y-2730855D01*
X7555992Y-2780944D01*
X7556906Y-2794609D01*
X7559497Y-2807716D01*
X7563764Y-2820365D01*
X7569708Y-2832354D01*
X7577124Y-2843428D01*
X7585913Y-2853486D01*
X7595971Y-2862275D01*
X7607046Y-2869692D01*
X7619034Y-2875635D01*
X7631684Y-2879902D01*
X7644790Y-2882493D01*
X7658100Y-2883408D01*
X7671409Y-2882493D01*
X7684516Y-2879902D01*
X7697165Y-2875635D01*
X7709153Y-2869692D01*
X7720228Y-2862275D01*
X7730286Y-2853486D01*
X7739075Y-2843428D01*
X7746492Y-2832354D01*
X7752435Y-2820365D01*
X7756702Y-2807716D01*
X7759293Y-2794609D01*
X7760208Y-2780944D01*
X7760208Y-2730703D01*
X7760817Y-2726436D01*
X7763154Y-2722829D01*
X7798917Y-2687066D01*
X7802727Y-2684678D01*
X7807198Y-2684170D01*
X7811465Y-2685643D01*
X7814665Y-2688793D01*
X7816189Y-2693060D01*
X7815732Y-2697530D01*
X7813497Y-2704084D01*
X7810906Y-2717190D01*
X7809992Y-2730855D01*
X7809992Y-2780944D01*
X7810906Y-2794609D01*
X7813497Y-2807716D01*
X7817764Y-2820365D01*
X7823708Y-2832354D01*
X7831124Y-2843428D01*
X7839913Y-2853486D01*
X7849971Y-2862275D01*
X7861046Y-2869692D01*
X7873034Y-2875635D01*
X7885684Y-2879902D01*
X7898790Y-2882493D01*
X7912100Y-2883408D01*
X7925409Y-2882493D01*
X7938516Y-2879902D01*
X7951622Y-2875432D01*
X7955330Y-2874924D01*
X7958988Y-2875788D01*
X7962087Y-2877870D01*
X8652814Y-3568649D01*
X8656269Y-3571798D01*
X8659774Y-3574491D01*
X8663533Y-3576878D01*
X8667496Y-3578910D01*
X8671560Y-3580637D01*
X8675827Y-3581958D01*
X8680145Y-3582924D01*
X8684564Y-3583482D01*
X8689187Y-3583686D01*
X8790686Y-3583686D01*
X8795004Y-3584651D01*
X8798458Y-3587343D01*
X8800490Y-3591204D01*
X8800693Y-3595624D01*
X8799017Y-3599687D01*
X8795766Y-3602634D01*
X8785707Y-3608476D01*
X8773922Y-3617366D01*
X8763304Y-3627628D01*
X8754059Y-3639159D01*
X8746286Y-3651707D01*
X8740140Y-3665118D01*
X8735669Y-3679139D01*
X8732926Y-3693668D01*
X8732012Y-3708400D01*
X8732926Y-3723132D01*
X8735669Y-3737660D01*
X8740140Y-3751681D01*
X8746286Y-3765092D01*
X8754059Y-3777640D01*
X8763304Y-3789172D01*
X8773922Y-3799433D01*
X8785707Y-3808323D01*
X8798458Y-3815689D01*
X8812072Y-3821429D01*
X8826246Y-3825494D01*
X8840825Y-3827779D01*
X8855608Y-3828237D01*
X8870289Y-3826865D01*
X8884716Y-3823715D01*
X8898636Y-3818788D01*
X8911844Y-3812184D01*
X8924137Y-3804056D01*
X8935364Y-3794455D01*
X8945270Y-3783533D01*
X8953804Y-3771493D01*
X8960815Y-3758488D01*
X8966149Y-3744722D01*
X8969705Y-3730447D01*
X8970619Y-3723284D01*
X8972143Y-3719068D01*
X8975344Y-3715918D01*
X8979611Y-3714445D01*
X8984081Y-3714953D01*
X8987891Y-3717340D01*
X9255201Y-3984701D01*
X9257436Y-3988003D01*
X9258198Y-3991864D01*
X9258198Y-4163822D01*
X9257284Y-4168089D01*
X9254642Y-4171543D01*
X9250781Y-4173575D01*
X9246463Y-4173829D01*
X9242399Y-4172254D01*
X9233154Y-4166108D01*
X9221165Y-4160164D01*
X9208516Y-4155897D01*
X9195409Y-4153306D01*
X9182100Y-4152392D01*
X9168790Y-4153306D01*
X9155684Y-4155897D01*
X9143034Y-4160164D01*
X9131046Y-4166108D01*
X9119971Y-4173524D01*
X9109913Y-4182313D01*
X9101124Y-4192371D01*
X9093708Y-4203446D01*
X9087764Y-4215434D01*
X9083497Y-4228084D01*
X9080906Y-4241190D01*
X9079992Y-4254855D01*
X9079992Y-4304944D01*
X9080906Y-4318609D01*
X9083497Y-4331716D01*
X9087764Y-4344365D01*
X9093708Y-4356354D01*
X9101124Y-4367428D01*
X9109913Y-4377486D01*
X9119971Y-4386275D01*
X9131046Y-4393692D01*
X9143034Y-4399635D01*
X9155684Y-4403902D01*
X9168790Y-4406493D01*
X9182100Y-4407408D01*
X9195409Y-4406493D01*
X9208516Y-4403902D01*
X9221165Y-4399635D01*
X9233154Y-4393692D01*
X9242399Y-4387545D01*
X9246463Y-4385970D01*
X9250781Y-4386224D01*
X9254642Y-4388256D01*
X9257284Y-4391710D01*
X9258198Y-4395978D01*
X9258198Y-4539081D01*
X9258401Y-4543755D01*
X9258960Y-4548124D01*
X9259925Y-4552492D01*
X9261246Y-4556709D01*
X9262973Y-4560824D01*
X9265005Y-4564735D01*
X9267393Y-4568494D01*
X9270085Y-4572050D01*
X9273235Y-4575454D01*
X9959746Y-5261965D01*
X9963150Y-5265115D01*
X9966706Y-5267807D01*
X9970465Y-5270195D01*
X9974376Y-5272227D01*
X9978491Y-5273954D01*
X9982708Y-5275275D01*
X9986619Y-5276138D01*
X9989820Y-5277408D01*
X9992360Y-5279694D01*
X9994036Y-5282692D01*
X9994595Y-5286044D01*
X9994595Y-5308346D01*
X9993833Y-5312206D01*
X9991648Y-5315508D01*
X9988346Y-5317744D01*
X9984435Y-5318506D01*
X9038132Y-5318506D01*
X9034272Y-5317744D01*
X9030970Y-5315508D01*
X8672068Y-4956606D01*
X8669883Y-4953406D01*
X8669070Y-4949596D01*
X8673185Y-4931867D01*
X8674506Y-4918303D01*
X8674049Y-4904689D01*
X8671814Y-4891227D01*
X8667750Y-4878222D01*
X8662009Y-4865827D01*
X8654694Y-4854346D01*
X8645906Y-4843932D01*
X8635746Y-4834788D01*
X8624519Y-4827066D01*
X8612378Y-4820920D01*
X8599474Y-4816449D01*
X8586114Y-4813706D01*
X8572500Y-4812792D01*
X8558885Y-4813706D01*
X8545525Y-4816449D01*
X8532622Y-4820920D01*
X8520480Y-4827066D01*
X8509254Y-4834788D01*
X8499094Y-4843932D01*
X8490305Y-4854346D01*
X8482990Y-4865827D01*
X8477250Y-4878222D01*
X8473186Y-4891227D01*
X8470950Y-4904689D01*
X8470493Y-4918303D01*
X8471814Y-4931867D01*
X8475014Y-4945126D01*
X8479891Y-4957876D01*
X8486444Y-4969814D01*
X8494522Y-4980787D01*
X8504021Y-4990592D01*
X8514740Y-4999075D01*
X8526627Y-5006086D01*
X8529269Y-5008372D01*
X8530996Y-5011420D01*
X8531606Y-5014823D01*
X8531606Y-5055666D01*
X8530844Y-5059527D01*
X8528608Y-5062829D01*
X8113674Y-5477764D01*
X8110423Y-5479948D01*
X8106613Y-5480761D01*
X8102752Y-5479999D01*
X8097113Y-5477764D01*
X8082991Y-5474157D01*
X8068564Y-5472328D01*
X8054035Y-5472328D01*
X8039557Y-5474157D01*
X8025485Y-5477764D01*
X8011972Y-5483148D01*
X7999222Y-5490159D01*
X7987436Y-5498693D01*
X7976819Y-5508650D01*
X7967522Y-5519877D01*
X7959750Y-5532170D01*
X7953552Y-5545328D01*
X7949031Y-5559196D01*
X7946339Y-5573471D01*
X7945424Y-5588000D01*
X7946339Y-5602528D01*
X7949031Y-5616803D01*
X7953552Y-5630672D01*
X7959750Y-5643829D01*
X7967522Y-5656122D01*
X7976819Y-5667349D01*
X7987436Y-5677306D01*
X7999222Y-5685840D01*
X8011972Y-5692851D01*
X8025485Y-5698236D01*
X8039557Y-5701842D01*
X8054035Y-5703671D01*
X8068564Y-5703671D01*
X8082991Y-5701842D01*
X8097113Y-5698236D01*
X8110626Y-5692851D01*
X8123377Y-5685840D01*
X8135162Y-5677306D01*
X8145780Y-5667349D01*
X8155025Y-5656122D01*
X8162848Y-5643829D01*
X8169046Y-5630672D01*
X8173516Y-5616803D01*
X8176259Y-5602528D01*
X8177174Y-5588000D01*
X8176259Y-5573471D01*
X8173516Y-5559196D01*
X8169198Y-5545785D01*
X8168690Y-5542127D01*
X8169554Y-5538520D01*
X8171688Y-5535472D01*
X8601049Y-5106060D01*
X8606485Y-5099507D01*
X8610244Y-5092446D01*
X8612581Y-5084775D01*
X8613394Y-5076291D01*
X8613394Y-5038191D01*
X8614206Y-5034280D01*
X8616391Y-5031028D01*
X8619693Y-5028793D01*
X8623554Y-5028031D01*
X8627465Y-5028793D01*
X8630767Y-5031028D01*
X8987739Y-5387949D01*
X8994292Y-5393385D01*
X9001353Y-5397144D01*
X9009024Y-5399481D01*
X9017508Y-5400294D01*
X9984435Y-5400294D01*
X9988346Y-5401106D01*
X9991648Y-5403291D01*
X9993833Y-5406593D01*
X9994595Y-5410454D01*
X9994595Y-5434380D01*
X9995306Y-5440680D01*
X9997236Y-5446166D01*
X10000284Y-5451043D01*
X10004399Y-5455158D01*
X10009276Y-5458256D01*
X10014762Y-5460136D01*
X10021062Y-5460847D01*
X10349941Y-5460847D01*
X10356240Y-5460136D01*
X10361726Y-5458256D01*
X10366603Y-5455158D01*
X10370718Y-5451043D01*
X10373817Y-5446166D01*
X10375696Y-5440680D01*
X10376408Y-5434380D01*
X10376408Y-5330748D01*
X10377170Y-5326837D01*
X10379405Y-5323535D01*
X10382707Y-5321350D01*
X10386568Y-5320588D01*
X10390479Y-5321350D01*
X10393781Y-5323535D01*
X10465409Y-5395214D01*
X10467594Y-5398465D01*
X10468356Y-5402376D01*
X10468356Y-5528106D01*
X10468559Y-5532729D01*
X10469168Y-5537149D01*
X10470134Y-5541467D01*
X10471454Y-5545734D01*
X10473131Y-5549798D01*
X10475214Y-5553760D01*
X10477601Y-5557520D01*
X10480294Y-5561025D01*
X10483443Y-5564479D01*
X10619841Y-5700877D01*
X10623245Y-5704027D01*
X10626801Y-5706719D01*
X10630560Y-5709107D01*
X10634472Y-5711139D01*
X10638586Y-5712866D01*
X10642803Y-5714187D01*
X10647172Y-5715152D01*
X10651540Y-5715711D01*
G37*
G36*
X8924036Y-5703671D02*
G01*
X8938564Y-5703671D01*
X8953042Y-5701842D01*
X8967114Y-5698236D01*
X8980627Y-5692851D01*
X8993378Y-5685840D01*
X9005163Y-5677306D01*
X9015780Y-5667349D01*
X9025077Y-5656122D01*
X9032849Y-5643829D01*
X9039047Y-5630672D01*
X9043568Y-5616803D01*
X9046260Y-5602528D01*
X9047175Y-5588000D01*
X9046260Y-5573471D01*
X9043568Y-5559196D01*
X9039047Y-5545328D01*
X9032849Y-5532170D01*
X9025077Y-5519877D01*
X9015780Y-5508650D01*
X9005163Y-5498693D01*
X8993378Y-5490159D01*
X8980627Y-5483148D01*
X8967114Y-5477764D01*
X8953042Y-5474157D01*
X8938564Y-5472328D01*
X8924036Y-5472328D01*
X8909608Y-5474157D01*
X8895486Y-5477764D01*
X8881973Y-5483148D01*
X8869222Y-5490159D01*
X8857437Y-5498693D01*
X8846820Y-5508650D01*
X8837574Y-5519877D01*
X8829751Y-5532170D01*
X8823553Y-5545328D01*
X8819083Y-5559196D01*
X8816340Y-5573471D01*
X8815425Y-5588000D01*
X8816340Y-5602528D01*
X8819083Y-5616803D01*
X8823553Y-5630672D01*
X8829751Y-5643829D01*
X8837574Y-5656122D01*
X8846820Y-5667349D01*
X8857437Y-5677306D01*
X8869222Y-5685840D01*
X8881973Y-5692851D01*
X8895486Y-5698236D01*
X8909608Y-5701842D01*
G37*
G36*
X9410700Y-5664708D02*
G01*
X9424314Y-5663793D01*
X9437674Y-5661050D01*
X9450578Y-5656580D01*
X9462719Y-5650433D01*
X9473946Y-5642711D01*
X9484106Y-5633567D01*
X9492894Y-5623153D01*
X9500209Y-5611672D01*
X9505950Y-5599277D01*
X9510014Y-5586272D01*
X9512249Y-5572810D01*
X9512706Y-5559196D01*
X9511385Y-5545632D01*
X9508185Y-5532374D01*
X9503308Y-5519623D01*
X9496755Y-5507685D01*
X9488678Y-5496712D01*
X9479178Y-5486908D01*
X9468459Y-5478424D01*
X9456724Y-5471464D01*
X9444177Y-5466181D01*
X9431020Y-5462574D01*
X9417507Y-5460746D01*
X9403892Y-5460746D01*
X9390380Y-5462574D01*
X9377222Y-5466181D01*
X9364675Y-5471464D01*
X9352940Y-5478424D01*
X9342221Y-5486908D01*
X9332722Y-5496712D01*
X9324644Y-5507685D01*
X9318091Y-5519623D01*
X9313214Y-5532374D01*
X9310014Y-5545632D01*
X9308693Y-5559196D01*
X9309150Y-5572810D01*
X9311386Y-5586272D01*
X9315450Y-5599277D01*
X9321190Y-5611672D01*
X9328505Y-5623153D01*
X9337294Y-5633567D01*
X9347454Y-5642711D01*
X9358680Y-5650433D01*
X9370822Y-5656580D01*
X9383725Y-5661050D01*
X9397085Y-5663793D01*
G37*
G36*
X9620250Y-5654243D02*
G01*
X9620250Y-5607050D01*
X9573056Y-5607050D01*
X9575190Y-5611672D01*
X9582505Y-5623153D01*
X9591294Y-5633567D01*
X9601454Y-5642711D01*
X9612680Y-5650433D01*
G37*
G36*
X9709150Y-5654243D02*
G01*
X9716719Y-5650433D01*
X9727946Y-5642711D01*
X9738106Y-5633567D01*
X9746894Y-5623153D01*
X9754209Y-5611672D01*
X9756343Y-5607050D01*
X9709150Y-5607050D01*
G37*
G36*
X11874804Y-5639308D02*
G01*
X11975795Y-5639308D01*
X11983872Y-5638850D01*
X11987631Y-5638393D01*
X11993270Y-5637326D01*
X11997080Y-5636310D01*
X12005970Y-5633161D01*
X12011202Y-5630773D01*
X12014809Y-5628792D01*
X12019635Y-5625744D01*
X12022734Y-5623458D01*
X12027154Y-5619800D01*
X12029948Y-5617159D01*
X12033910Y-5612942D01*
X12036348Y-5609996D01*
X12039752Y-5605373D01*
X12041886Y-5601970D01*
X12046305Y-5593435D01*
X12048388Y-5588101D01*
X12051030Y-5578957D01*
X12052452Y-5569305D01*
X12052706Y-5565495D01*
X12052706Y-5559704D01*
X12052452Y-5555894D01*
X12051030Y-5546242D01*
X12049556Y-5540705D01*
X12046305Y-5531764D01*
X12044629Y-5528208D01*
X12039752Y-5519826D01*
X12033961Y-5512308D01*
X12028017Y-5506212D01*
X12025884Y-5502910D01*
X12025122Y-5499100D01*
X12025884Y-5495290D01*
X12028017Y-5491988D01*
X12033961Y-5485892D01*
X12039752Y-5478373D01*
X12041886Y-5474970D01*
X12045848Y-5467350D01*
X11931599Y-5467350D01*
X11931599Y-5475732D01*
X11930837Y-5479643D01*
X11928602Y-5482894D01*
X11925350Y-5485130D01*
X11921439Y-5485892D01*
X11874804Y-5485892D01*
X11866727Y-5486349D01*
X11862968Y-5486806D01*
X11857329Y-5487873D01*
X11853621Y-5488838D01*
X11844477Y-5492038D01*
X11839295Y-5494528D01*
X11832996Y-5498185D01*
X11828932Y-5499658D01*
X11825427Y-5499404D01*
X11824716Y-5502910D01*
X11822582Y-5506212D01*
X11816638Y-5512308D01*
X11810847Y-5519826D01*
X11805970Y-5528208D01*
X11804294Y-5531764D01*
X11801043Y-5540705D01*
X11799570Y-5546242D01*
X11798147Y-5555894D01*
X11797893Y-5559704D01*
X11797893Y-5565495D01*
X11798147Y-5569305D01*
X11799570Y-5578957D01*
X11802211Y-5588101D01*
X11804294Y-5593435D01*
X11808714Y-5601970D01*
X11810847Y-5605373D01*
X11814251Y-5609996D01*
X11816689Y-5612942D01*
X11820652Y-5617159D01*
X11823446Y-5619800D01*
X11827865Y-5623458D01*
X11831015Y-5625744D01*
X11835892Y-5628843D01*
X11844578Y-5633161D01*
X11848084Y-5634532D01*
X11853519Y-5636310D01*
X11857329Y-5637326D01*
X11862968Y-5638393D01*
X11866727Y-5638850D01*
G37*
G36*
X6299200Y-5626608D02*
G01*
X6312814Y-5625693D01*
X6326174Y-5622950D01*
X6339078Y-5618480D01*
X6351219Y-5612333D01*
X6362446Y-5604611D01*
X6372606Y-5595467D01*
X6381394Y-5585053D01*
X6388709Y-5573572D01*
X6394450Y-5561177D01*
X6398514Y-5548172D01*
X6400749Y-5534710D01*
X6401206Y-5521096D01*
X6399885Y-5507532D01*
X6396685Y-5494274D01*
X6391808Y-5481523D01*
X6385255Y-5469585D01*
X6377178Y-5458612D01*
X6367678Y-5448808D01*
X6356959Y-5440324D01*
X6345224Y-5433364D01*
X6332677Y-5428081D01*
X6319520Y-5424474D01*
X6306007Y-5422646D01*
X6292392Y-5422646D01*
X6278524Y-5424576D01*
X6274968Y-5424881D01*
X6271564Y-5423966D01*
X6268618Y-5421934D01*
X6241034Y-5394299D01*
X6238798Y-5391048D01*
X6238036Y-5387136D01*
X6238036Y-5324602D01*
X6239002Y-5320284D01*
X6241745Y-5316778D01*
X6245707Y-5314746D01*
X6250178Y-5314645D01*
X6254242Y-5316423D01*
X6256985Y-5318455D01*
X6267450Y-5324195D01*
X6267450Y-5276850D01*
X6248196Y-5276850D01*
X6244336Y-5276088D01*
X6241034Y-5273852D01*
X6238798Y-5270601D01*
X6238036Y-5266690D01*
X6238036Y-5198110D01*
X6238798Y-5194198D01*
X6241034Y-5190947D01*
X6244336Y-5188712D01*
X6248196Y-5187950D01*
X6267450Y-5187950D01*
X6267450Y-5140604D01*
X6256985Y-5146344D01*
X6254242Y-5148376D01*
X6250178Y-5150154D01*
X6245707Y-5150053D01*
X6241745Y-5148021D01*
X6239002Y-5144516D01*
X6238036Y-5140198D01*
X6238036Y-5070602D01*
X6239002Y-5066284D01*
X6241745Y-5062778D01*
X6245707Y-5060746D01*
X6250178Y-5060645D01*
X6254242Y-5062423D01*
X6256985Y-5064455D01*
X6268923Y-5071008D01*
X6281674Y-5075885D01*
X6294932Y-5079085D01*
X6308496Y-5080406D01*
X6322110Y-5079949D01*
X6335572Y-5077714D01*
X6348577Y-5073650D01*
X6360972Y-5067909D01*
X6372453Y-5060594D01*
X6382867Y-5051806D01*
X6392011Y-5041646D01*
X6399733Y-5030419D01*
X6405880Y-5018278D01*
X6407861Y-5012537D01*
X6409131Y-5010048D01*
X7051649Y-4367580D01*
X7055561Y-4363974D01*
X7059117Y-4362805D01*
X7062876Y-4362958D01*
X7066330Y-4364532D01*
X7069124Y-4367428D01*
X7077913Y-4377486D01*
X7087971Y-4386275D01*
X7099046Y-4393692D01*
X7111034Y-4399635D01*
X7123684Y-4403902D01*
X7136790Y-4406493D01*
X7150100Y-4407408D01*
X7163409Y-4406493D01*
X7176516Y-4403902D01*
X7189165Y-4399635D01*
X7201153Y-4393692D01*
X7212228Y-4386275D01*
X7222286Y-4377486D01*
X7231075Y-4367428D01*
X7238492Y-4356354D01*
X7244435Y-4344365D01*
X7248702Y-4331716D01*
X7251293Y-4318609D01*
X7252208Y-4304944D01*
X7252208Y-4254855D01*
X7251293Y-4241190D01*
X7248702Y-4228084D01*
X7244435Y-4215434D01*
X7238492Y-4203446D01*
X7231075Y-4192371D01*
X7222286Y-4182313D01*
X7212228Y-4173524D01*
X7201153Y-4166108D01*
X7189165Y-4160164D01*
X7176516Y-4155897D01*
X7163409Y-4153306D01*
X7150100Y-4152392D01*
X7136790Y-4153306D01*
X7123684Y-4155897D01*
X7111034Y-4160164D01*
X7099046Y-4166108D01*
X7087971Y-4173524D01*
X7080859Y-4179722D01*
X7077557Y-4181652D01*
X7073747Y-4182211D01*
X7069988Y-4181348D01*
X7066838Y-4179112D01*
X7064756Y-4175861D01*
X7063994Y-4172102D01*
X7063994Y-3849928D01*
X7064806Y-3846017D01*
X7066991Y-3842715D01*
X7673543Y-3236163D01*
X7676743Y-3233978D01*
X7680553Y-3233166D01*
X7684363Y-3233826D01*
X7687614Y-3235858D01*
X7689900Y-3238957D01*
X7690916Y-3242716D01*
X7691526Y-3253232D01*
X7694269Y-3267760D01*
X7695996Y-3273247D01*
X7696453Y-3276904D01*
X7695590Y-3280460D01*
X7693507Y-3283508D01*
X7650022Y-3326993D01*
X7646873Y-3330397D01*
X7644180Y-3333953D01*
X7641793Y-3337712D01*
X7639710Y-3341624D01*
X7638034Y-3345738D01*
X7636713Y-3349955D01*
X7635748Y-3354324D01*
X7635138Y-3358692D01*
X7634935Y-3363366D01*
X7634935Y-4015028D01*
X7635138Y-4019651D01*
X7635748Y-4024071D01*
X7636713Y-4028389D01*
X7638034Y-4032656D01*
X7639710Y-4036720D01*
X7641793Y-4040682D01*
X7644180Y-4044442D01*
X7646873Y-4047947D01*
X7650022Y-4051401D01*
X7732064Y-4133392D01*
X7733893Y-4135932D01*
X7734909Y-4138929D01*
X7734909Y-4142028D01*
X7734401Y-4145737D01*
X7734198Y-4150360D01*
X7734198Y-4163822D01*
X7733284Y-4168089D01*
X7730642Y-4171543D01*
X7726781Y-4173575D01*
X7722463Y-4173829D01*
X7718399Y-4172254D01*
X7709153Y-4166108D01*
X7697165Y-4160164D01*
X7684516Y-4155897D01*
X7671409Y-4153306D01*
X7658100Y-4152392D01*
X7644790Y-4153306D01*
X7631684Y-4155897D01*
X7619034Y-4160164D01*
X7607046Y-4166108D01*
X7595971Y-4173524D01*
X7585913Y-4182313D01*
X7577124Y-4192371D01*
X7569708Y-4203446D01*
X7563764Y-4215434D01*
X7559497Y-4228084D01*
X7556906Y-4241190D01*
X7555992Y-4254855D01*
X7555992Y-4304944D01*
X7556906Y-4318609D01*
X7559497Y-4331716D01*
X7563764Y-4344365D01*
X7569708Y-4356354D01*
X7577124Y-4367428D01*
X7585913Y-4377486D01*
X7595971Y-4386275D01*
X7607046Y-4393692D01*
X7619034Y-4399635D01*
X7631684Y-4403902D01*
X7644790Y-4406493D01*
X7658100Y-4407408D01*
X7671409Y-4406493D01*
X7684516Y-4403902D01*
X7697165Y-4399635D01*
X7709153Y-4393692D01*
X7718399Y-4387545D01*
X7722463Y-4385970D01*
X7726781Y-4386224D01*
X7730642Y-4388256D01*
X7733284Y-4391710D01*
X7734198Y-4395978D01*
X7734198Y-4525822D01*
X7733334Y-4529886D01*
X7730947Y-4533290D01*
X7727391Y-4535424D01*
X7723276Y-4535932D01*
X7719263Y-4534763D01*
X7709662Y-4529683D01*
X7709662Y-4572863D01*
X7724038Y-4572863D01*
X7727899Y-4573625D01*
X7731201Y-4575810D01*
X7733436Y-4579112D01*
X7734198Y-4583023D01*
X7734198Y-4640376D01*
X7733436Y-4644288D01*
X7731201Y-4647590D01*
X7727899Y-4649774D01*
X7724038Y-4650536D01*
X7709662Y-4650536D01*
X7709662Y-4696663D01*
X7708900Y-4700524D01*
X7706664Y-4703826D01*
X7691678Y-4718761D01*
X7688021Y-4721098D01*
X7683804Y-4721707D01*
X7670800Y-4720793D01*
X7658150Y-4721707D01*
X7645755Y-4724349D01*
X7633817Y-4728667D01*
X7622641Y-4734610D01*
X7612380Y-4742078D01*
X7603286Y-4750866D01*
X7595463Y-4760874D01*
X7589113Y-4771847D01*
X7584389Y-4783632D01*
X7581290Y-4795926D01*
X7579969Y-4808524D01*
X7580426Y-4821224D01*
X7582611Y-4833670D01*
X7586522Y-4845761D01*
X7592110Y-4857140D01*
X7599172Y-4867656D01*
X7607655Y-4877054D01*
X7617409Y-4885232D01*
X7628128Y-4891938D01*
X7639710Y-4897120D01*
X7651902Y-4900574D01*
X7664450Y-4902352D01*
X7677150Y-4902352D01*
X7689697Y-4900574D01*
X7701889Y-4897120D01*
X7718450Y-4889855D01*
X7722616Y-4890160D01*
X7726375Y-4892090D01*
X7728966Y-4895392D01*
X7730032Y-4899456D01*
X7729372Y-4903571D01*
X7727086Y-4907076D01*
X7569708Y-5064506D01*
X7566406Y-5066690D01*
X7562494Y-5067452D01*
X7223810Y-5067452D01*
X7215378Y-5068316D01*
X7207707Y-5070602D01*
X7200646Y-5074412D01*
X7194042Y-5079796D01*
X6848856Y-5424982D01*
X6845960Y-5427014D01*
X6842506Y-5427929D01*
X6839000Y-5427624D01*
X6827520Y-5424474D01*
X6814007Y-5422646D01*
X6800392Y-5422646D01*
X6786880Y-5424474D01*
X6773722Y-5428081D01*
X6761175Y-5433364D01*
X6749440Y-5440324D01*
X6738721Y-5448808D01*
X6729222Y-5458612D01*
X6721144Y-5469585D01*
X6714591Y-5481523D01*
X6709714Y-5494274D01*
X6706514Y-5507532D01*
X6705193Y-5521096D01*
X6705650Y-5534710D01*
X6707886Y-5548172D01*
X6711950Y-5561177D01*
X6717690Y-5573572D01*
X6725005Y-5585053D01*
X6733794Y-5595467D01*
X6743953Y-5604611D01*
X6755180Y-5612333D01*
X6767322Y-5618480D01*
X6780225Y-5622950D01*
X6793585Y-5625693D01*
X6807200Y-5626608D01*
X6820814Y-5625693D01*
X6834174Y-5622950D01*
X6847078Y-5618480D01*
X6859219Y-5612333D01*
X6870446Y-5604611D01*
X6880606Y-5595467D01*
X6889394Y-5585053D01*
X6896709Y-5573572D01*
X6902450Y-5561177D01*
X6906514Y-5548172D01*
X6908749Y-5534710D01*
X6909206Y-5521096D01*
X6907885Y-5507532D01*
X6904481Y-5493613D01*
X6903770Y-5489803D01*
X6904583Y-5485993D01*
X6906768Y-5482793D01*
X7237272Y-5152237D01*
X7240574Y-5150053D01*
X7244486Y-5149291D01*
X7531455Y-5149291D01*
X7535367Y-5150053D01*
X7538618Y-5152237D01*
X7540853Y-5155539D01*
X7541615Y-5159451D01*
X7540853Y-5163312D01*
X7538618Y-5166614D01*
X7224674Y-5480608D01*
X7221372Y-5482844D01*
X7217460Y-5483606D01*
X7160971Y-5483606D01*
X7157415Y-5482945D01*
X7154316Y-5481116D01*
X7152030Y-5478322D01*
X7147255Y-5469585D01*
X7139178Y-5458612D01*
X7129678Y-5448808D01*
X7118959Y-5440324D01*
X7107224Y-5433364D01*
X7094677Y-5428081D01*
X7081520Y-5424474D01*
X7068007Y-5422646D01*
X7054392Y-5422646D01*
X7040880Y-5424474D01*
X7027722Y-5428081D01*
X7015175Y-5433364D01*
X7003440Y-5440324D01*
X6992721Y-5448808D01*
X6983222Y-5458612D01*
X6975144Y-5469585D01*
X6968591Y-5481523D01*
X6963714Y-5494274D01*
X6960514Y-5507532D01*
X6959193Y-5521096D01*
X6959650Y-5534710D01*
X6961886Y-5548172D01*
X6965950Y-5561177D01*
X6971690Y-5573572D01*
X6979005Y-5585053D01*
X6987794Y-5595467D01*
X6997953Y-5604611D01*
X7009180Y-5612333D01*
X7021322Y-5618480D01*
X7034225Y-5622950D01*
X7047585Y-5625693D01*
X7061200Y-5626608D01*
X7074814Y-5625693D01*
X7088174Y-5622950D01*
X7101078Y-5618480D01*
X7113219Y-5612333D01*
X7124446Y-5604611D01*
X7134606Y-5595467D01*
X7143394Y-5585053D01*
X7150709Y-5573572D01*
X7151776Y-5571286D01*
X7154011Y-5568188D01*
X7157212Y-5566105D01*
X7160971Y-5565394D01*
X7238136Y-5565394D01*
X7246569Y-5564581D01*
X7254240Y-5562244D01*
X7261301Y-5558485D01*
X7267905Y-5553049D01*
X7648244Y-5172710D01*
X7651546Y-5170525D01*
X7655407Y-5169763D01*
X7657338Y-5169763D01*
X7657338Y-5167833D01*
X7658150Y-5163921D01*
X7660335Y-5160619D01*
X7668666Y-5152288D01*
X7671968Y-5150104D01*
X7675880Y-5149291D01*
X7724902Y-5149291D01*
X7728762Y-5150104D01*
X7732064Y-5152288D01*
X7734300Y-5155590D01*
X7735062Y-5159451D01*
X7735062Y-5169763D01*
X7778292Y-5169763D01*
X7775448Y-5164531D01*
X7774127Y-5160518D01*
X7774584Y-5156301D01*
X7776718Y-5152644D01*
X7780121Y-5150205D01*
X7784236Y-5149291D01*
X7814767Y-5149291D01*
X7818678Y-5150104D01*
X7821980Y-5152288D01*
X7824165Y-5155590D01*
X7824927Y-5159451D01*
X7824165Y-5163362D01*
X7821980Y-5166664D01*
X7744155Y-5244490D01*
X7740853Y-5246674D01*
X7736941Y-5247436D01*
X7735062Y-5247436D01*
X7735062Y-5249367D01*
X7734300Y-5253228D01*
X7732064Y-5256530D01*
X7666786Y-5321808D01*
X7663078Y-5324195D01*
X7659217Y-5325567D01*
X7648041Y-5331510D01*
X7637780Y-5338978D01*
X7628686Y-5347766D01*
X7620863Y-5357774D01*
X7614513Y-5368747D01*
X7609789Y-5380532D01*
X7606690Y-5392826D01*
X7605369Y-5405424D01*
X7605826Y-5418124D01*
X7608011Y-5430570D01*
X7611922Y-5442661D01*
X7617510Y-5454040D01*
X7624572Y-5464556D01*
X7633055Y-5473954D01*
X7642809Y-5482132D01*
X7653528Y-5488838D01*
X7665110Y-5494020D01*
X7677302Y-5497474D01*
X7689850Y-5499252D01*
X7702550Y-5499252D01*
X7715097Y-5497474D01*
X7727289Y-5494020D01*
X7738872Y-5488838D01*
X7749641Y-5482132D01*
X7759344Y-5473954D01*
X7767828Y-5464556D01*
X7774889Y-5454040D01*
X7780477Y-5442661D01*
X7784388Y-5430570D01*
X7786573Y-5418124D01*
X7787030Y-5405424D01*
X7785709Y-5392826D01*
X7782661Y-5380532D01*
X7777886Y-5368747D01*
X7776667Y-5366613D01*
X7775346Y-5362397D01*
X7775905Y-5358028D01*
X7778242Y-5354320D01*
X8513165Y-4619447D01*
X8516467Y-4617212D01*
X8520379Y-4616450D01*
X8528050Y-4616450D01*
X8528050Y-4608779D01*
X8528812Y-4604867D01*
X8531047Y-4601565D01*
X8605164Y-4527448D01*
X8608466Y-4525213D01*
X8612327Y-4524451D01*
X8680500Y-4524451D01*
X8685123Y-4524248D01*
X8689543Y-4523689D01*
X8693861Y-4522724D01*
X8698128Y-4521403D01*
X8702192Y-4519676D01*
X8706154Y-4517644D01*
X8709914Y-4515256D01*
X8713419Y-4512564D01*
X8716873Y-4509414D01*
X8836964Y-4389323D01*
X8840063Y-4385919D01*
X8843518Y-4381246D01*
X8846667Y-4378452D01*
X8850630Y-4377182D01*
X8854744Y-4377588D01*
X8858402Y-4379671D01*
X8865971Y-4386275D01*
X8877046Y-4393692D01*
X8889034Y-4399635D01*
X8901684Y-4403902D01*
X8914790Y-4406493D01*
X8928100Y-4407408D01*
X8941409Y-4406493D01*
X8954516Y-4403902D01*
X8967165Y-4399635D01*
X8979154Y-4393692D01*
X8990228Y-4386275D01*
X9000286Y-4377486D01*
X9009075Y-4367428D01*
X9016492Y-4356354D01*
X9022435Y-4344365D01*
X9026702Y-4331716D01*
X9029293Y-4318609D01*
X9030208Y-4304944D01*
X9030208Y-4254855D01*
X9029293Y-4241190D01*
X9026702Y-4228084D01*
X9022435Y-4215434D01*
X9016492Y-4203446D01*
X9009075Y-4192371D01*
X9000286Y-4182313D01*
X8990228Y-4173524D01*
X8979154Y-4166108D01*
X8967165Y-4160164D01*
X8954516Y-4155897D01*
X8941409Y-4153306D01*
X8928100Y-4152392D01*
X8914790Y-4153306D01*
X8901684Y-4155897D01*
X8889034Y-4160164D01*
X8877046Y-4166108D01*
X8865971Y-4173524D01*
X8863584Y-4175607D01*
X8860383Y-4177487D01*
X8856776Y-4178147D01*
X8853119Y-4177436D01*
X8850020Y-4175455D01*
X8847785Y-4172508D01*
X8845143Y-4167225D01*
X8842806Y-4163568D01*
X8840114Y-4160012D01*
X8836964Y-4156608D01*
X8352891Y-3672535D01*
X8349488Y-3669385D01*
X8345931Y-3666693D01*
X8342172Y-3664305D01*
X8338261Y-3662273D01*
X8334146Y-3660546D01*
X8329930Y-3659225D01*
X8325561Y-3658260D01*
X8321192Y-3657701D01*
X8316518Y-3657498D01*
X7950453Y-3657498D01*
X7946847Y-3656837D01*
X7943748Y-3654958D01*
X7941513Y-3652113D01*
X7937804Y-3645306D01*
X7929270Y-3633266D01*
X7919364Y-3622344D01*
X7908137Y-3612743D01*
X7895844Y-3604615D01*
X7882636Y-3598011D01*
X7868716Y-3593084D01*
X7854289Y-3589934D01*
X7839608Y-3588613D01*
X7824825Y-3589020D01*
X7810246Y-3591306D01*
X7796072Y-3595370D01*
X7782458Y-3601110D01*
X7769707Y-3608476D01*
X7757922Y-3617366D01*
X7754010Y-3621176D01*
X7750708Y-3623310D01*
X7746847Y-3624021D01*
X7742986Y-3623208D01*
X7739684Y-3621024D01*
X7737551Y-3617722D01*
X7736789Y-3613861D01*
X7736789Y-3388410D01*
X7737551Y-3384550D01*
X7739735Y-3381248D01*
X7765491Y-3355492D01*
X7768437Y-3353460D01*
X7771892Y-3352546D01*
X7775448Y-3352901D01*
X7784846Y-3355594D01*
X7799425Y-3357879D01*
X7814208Y-3358337D01*
X7828889Y-3356965D01*
X7843316Y-3353815D01*
X7857236Y-3348888D01*
X7870444Y-3342284D01*
X7882737Y-3334156D01*
X7893964Y-3324555D01*
X7903870Y-3313633D01*
X7912404Y-3301593D01*
X7919415Y-3288588D01*
X7924749Y-3274822D01*
X7928305Y-3260547D01*
X7930134Y-3245866D01*
X7930134Y-3231134D01*
X7928305Y-3216452D01*
X7924749Y-3202178D01*
X7919415Y-3188411D01*
X7912404Y-3175406D01*
X7903870Y-3163366D01*
X7893964Y-3152444D01*
X7882737Y-3142843D01*
X7870444Y-3134715D01*
X7857236Y-3128111D01*
X7843316Y-3123184D01*
X7828889Y-3120034D01*
X7814564Y-3118713D01*
X7810906Y-3117646D01*
X7807858Y-3115310D01*
X7805928Y-3112058D01*
X7805318Y-3108299D01*
X7806181Y-3104591D01*
X7808315Y-3101441D01*
X7849920Y-3059836D01*
X7852765Y-3057804D01*
X7856220Y-3056890D01*
X7860690Y-3056483D01*
X7870190Y-3053943D01*
X7879080Y-3049778D01*
X7887106Y-3044190D01*
X7894066Y-3037230D01*
X7899704Y-3029153D01*
X7903870Y-3020263D01*
X7906410Y-3010763D01*
X7907274Y-3001010D01*
X7906410Y-2991205D01*
X7903870Y-2981706D01*
X7899704Y-2972816D01*
X7894066Y-2964738D01*
X7887106Y-2957779D01*
X7879080Y-2952191D01*
X7870190Y-2948025D01*
X7860690Y-2945485D01*
X7850886Y-2944622D01*
X7841081Y-2945485D01*
X7831581Y-2948025D01*
X7822692Y-2952191D01*
X7814665Y-2957779D01*
X7807706Y-2964738D01*
X7802067Y-2972816D01*
X7797901Y-2981706D01*
X7795361Y-2991205D01*
X7795006Y-2995676D01*
X7794091Y-2999079D01*
X7792059Y-3001975D01*
X6994550Y-3799484D01*
X6989114Y-3806088D01*
X6985355Y-3813149D01*
X6983018Y-3820820D01*
X6982206Y-3829253D01*
X6982206Y-4172102D01*
X6981444Y-4175861D01*
X6979361Y-4179112D01*
X6976211Y-4181348D01*
X6972452Y-4182211D01*
X6968642Y-4181652D01*
X6965340Y-4179722D01*
X6958228Y-4173524D01*
X6947153Y-4166108D01*
X6935165Y-4160164D01*
X6922516Y-4155897D01*
X6909409Y-4153306D01*
X6896100Y-4152392D01*
X6882790Y-4153306D01*
X6869684Y-4155897D01*
X6857034Y-4160164D01*
X6845046Y-4166108D01*
X6833971Y-4173524D01*
X6823913Y-4182313D01*
X6815124Y-4192371D01*
X6807708Y-4203446D01*
X6801764Y-4215434D01*
X6797497Y-4228084D01*
X6794906Y-4241190D01*
X6793992Y-4254855D01*
X6793992Y-4304944D01*
X6794906Y-4318609D01*
X6797497Y-4331716D01*
X6801764Y-4344365D01*
X6807708Y-4356354D01*
X6815124Y-4367428D01*
X6823913Y-4377486D01*
X6833971Y-4386275D01*
X6845046Y-4393692D01*
X6857034Y-4399635D01*
X6869684Y-4403902D01*
X6876034Y-4405172D01*
X6880047Y-4406900D01*
X6882942Y-4410151D01*
X6884212Y-4414316D01*
X6883603Y-4418634D01*
X6881266Y-4422343D01*
X6397853Y-4905705D01*
X6394450Y-4907940D01*
X6390436Y-4908651D01*
X6386423Y-4907737D01*
X6382867Y-4904994D01*
X6372453Y-4896205D01*
X6360972Y-4888890D01*
X6348577Y-4883150D01*
X6335572Y-4879086D01*
X6322110Y-4876850D01*
X6308496Y-4876393D01*
X6294932Y-4877714D01*
X6281674Y-4880914D01*
X6268923Y-4885791D01*
X6256985Y-4892344D01*
X6254242Y-4894376D01*
X6250178Y-4896154D01*
X6245707Y-4896053D01*
X6241745Y-4894021D01*
X6239002Y-4890516D01*
X6238036Y-4886198D01*
X6238036Y-4874463D01*
X6238798Y-4870551D01*
X6241034Y-4867300D01*
X6281470Y-4826812D01*
X6284264Y-4824831D01*
X6287566Y-4823917D01*
X6291021Y-4824120D01*
X6294932Y-4825085D01*
X6308496Y-4826406D01*
X6322110Y-4825949D01*
X6335572Y-4823714D01*
X6348577Y-4819650D01*
X6360972Y-4813909D01*
X6372453Y-4806594D01*
X6382867Y-4797806D01*
X6392011Y-4787646D01*
X6399733Y-4776419D01*
X6405880Y-4764278D01*
X6410350Y-4751374D01*
X6413093Y-4738014D01*
X6414008Y-4724400D01*
X6413093Y-4710785D01*
X6410350Y-4697425D01*
X6405880Y-4684522D01*
X6399733Y-4672380D01*
X6392011Y-4661154D01*
X6382867Y-4650994D01*
X6372453Y-4642205D01*
X6360972Y-4634890D01*
X6348577Y-4629150D01*
X6335572Y-4625086D01*
X6322110Y-4622850D01*
X6308496Y-4622393D01*
X6294932Y-4623714D01*
X6281674Y-4626914D01*
X6268923Y-4631791D01*
X6256985Y-4638344D01*
X6246012Y-4646422D01*
X6236208Y-4655921D01*
X6227724Y-4666640D01*
X6220764Y-4678375D01*
X6215481Y-4690922D01*
X6211874Y-4704080D01*
X6210046Y-4717592D01*
X6210046Y-4731207D01*
X6211976Y-4745075D01*
X6212281Y-4748631D01*
X6211366Y-4752035D01*
X6209334Y-4754981D01*
X6151270Y-4812995D01*
X6148120Y-4816449D01*
X6145428Y-4819954D01*
X6143040Y-4823714D01*
X6141008Y-4827676D01*
X6139281Y-4831740D01*
X6137960Y-4836007D01*
X6136995Y-4840325D01*
X6136436Y-4844745D01*
X6136233Y-4849368D01*
X6136233Y-5412232D01*
X6136436Y-5416854D01*
X6136995Y-5421274D01*
X6137960Y-5425592D01*
X6139281Y-5429859D01*
X6141008Y-5433923D01*
X6143040Y-5437886D01*
X6145428Y-5441645D01*
X6148120Y-5445150D01*
X6151270Y-5448604D01*
X6196787Y-5494070D01*
X6198768Y-5496864D01*
X6199682Y-5500166D01*
X6199479Y-5503621D01*
X6198514Y-5507532D01*
X6197193Y-5521096D01*
X6197650Y-5534710D01*
X6199886Y-5548172D01*
X6203950Y-5561177D01*
X6209690Y-5573572D01*
X6217005Y-5585053D01*
X6225794Y-5595467D01*
X6235954Y-5604611D01*
X6247180Y-5612333D01*
X6259322Y-5618480D01*
X6272225Y-5622950D01*
X6285585Y-5625693D01*
G37*
G36*
X6597650Y-5616143D02*
G01*
X6605219Y-5612333D01*
X6616446Y-5604611D01*
X6626606Y-5595467D01*
X6635394Y-5585053D01*
X6642709Y-5573572D01*
X6644843Y-5568950D01*
X6597650Y-5568950D01*
G37*
G36*
X6508750Y-5616143D02*
G01*
X6508750Y-5568950D01*
X6461556Y-5568950D01*
X6463690Y-5573572D01*
X6471005Y-5585053D01*
X6479794Y-5595467D01*
X6489954Y-5604611D01*
X6501180Y-5612333D01*
G37*
G36*
X9572904Y-5518150D02*
G01*
X9620250Y-5518150D01*
X9620250Y-5470804D01*
X9618675Y-5471464D01*
X9606940Y-5478424D01*
X9596221Y-5486908D01*
X9586722Y-5496712D01*
X9578644Y-5507685D01*
G37*
G36*
X9709150Y-5518150D02*
G01*
X9756495Y-5518150D01*
X9750755Y-5507685D01*
X9742678Y-5496712D01*
X9733178Y-5486908D01*
X9722459Y-5478424D01*
X9710724Y-5471464D01*
X9709150Y-5470804D01*
G37*
G36*
X11817400Y-5486654D02*
G01*
X11817400Y-5467350D01*
X11804751Y-5467350D01*
X11808714Y-5474970D01*
X11810847Y-5478373D01*
G37*
G36*
X6461404Y-5480050D02*
G01*
X6508750Y-5480050D01*
X6508750Y-5432704D01*
X6507175Y-5433364D01*
X6495440Y-5440324D01*
X6484721Y-5448808D01*
X6475222Y-5458612D01*
X6467144Y-5469585D01*
G37*
G36*
X6597650Y-5480050D02*
G01*
X6644995Y-5480050D01*
X6639255Y-5469585D01*
X6631178Y-5458612D01*
X6621678Y-5448808D01*
X6610959Y-5440324D01*
X6599224Y-5433364D01*
X6597650Y-5432704D01*
G37*
G36*
X6356350Y-5324043D02*
G01*
X6360972Y-5321909D01*
X6372453Y-5314594D01*
X6382867Y-5305806D01*
X6392011Y-5295646D01*
X6399733Y-5284419D01*
X6403543Y-5276850D01*
X6356350Y-5276850D01*
G37*
G36*
X7657338Y-5290566D02*
G01*
X7657338Y-5247436D01*
X7614259Y-5247436D01*
X7617510Y-5254040D01*
X7624572Y-5264556D01*
X7633055Y-5273954D01*
X7642809Y-5282133D01*
X7653528Y-5288838D01*
G37*
G36*
X6356350Y-5187950D02*
G01*
X6403543Y-5187950D01*
X6399733Y-5180380D01*
X6392011Y-5169154D01*
X6382867Y-5158994D01*
X6372453Y-5150205D01*
X6360972Y-5142890D01*
X6356350Y-5140756D01*
G37*
G36*
X8616950Y-4752695D02*
G01*
X8618524Y-4752035D01*
X8630259Y-4745075D01*
X8640978Y-4736592D01*
X8650478Y-4726787D01*
X8658555Y-4715814D01*
X8664295Y-4705350D01*
X8616950Y-4705350D01*
G37*
G36*
X8528050Y-4752695D02*
G01*
X8528050Y-4705350D01*
X8480704Y-4705350D01*
X8486444Y-4715814D01*
X8494522Y-4726787D01*
X8504021Y-4736592D01*
X8514740Y-4745075D01*
X8526475Y-4752035D01*
G37*
G36*
X7631938Y-4693666D02*
G01*
X7631938Y-4650536D01*
X7588859Y-4650536D01*
X7592110Y-4657140D01*
X7599172Y-4667656D01*
X7607655Y-4677054D01*
X7617409Y-4685233D01*
X7628128Y-4691938D01*
G37*
G36*
X8616950Y-4616450D02*
G01*
X8664143Y-4616450D01*
X8662009Y-4611827D01*
X8654694Y-4600346D01*
X8645906Y-4589932D01*
X8635746Y-4580788D01*
X8624519Y-4573066D01*
X8616950Y-4569256D01*
G37*
G36*
X7588707Y-4572863D02*
G01*
X7631938Y-4572863D01*
X7631938Y-4529683D01*
X7622641Y-4534611D01*
X7612380Y-4542078D01*
X7603286Y-4550867D01*
X7595463Y-4560874D01*
X7589113Y-4571847D01*
G37*
G36*
X7404100Y-4407408D02*
G01*
X7417409Y-4406493D01*
X7430516Y-4403902D01*
X7443165Y-4399635D01*
X7455153Y-4393692D01*
X7466228Y-4386275D01*
X7476286Y-4377486D01*
X7485075Y-4367428D01*
X7492492Y-4356354D01*
X7498435Y-4344365D01*
X7502702Y-4331716D01*
X7505293Y-4318609D01*
X7506208Y-4304944D01*
X7506208Y-4254855D01*
X7505293Y-4241190D01*
X7502702Y-4228084D01*
X7498435Y-4215434D01*
X7492492Y-4203446D01*
X7485075Y-4192371D01*
X7476286Y-4182313D01*
X7466228Y-4173524D01*
X7455153Y-4166108D01*
X7443165Y-4160164D01*
X7430516Y-4155897D01*
X7417409Y-4153306D01*
X7404100Y-4152392D01*
X7390790Y-4153306D01*
X7377684Y-4155897D01*
X7365034Y-4160164D01*
X7353046Y-4166108D01*
X7341971Y-4173524D01*
X7331913Y-4182313D01*
X7323124Y-4192371D01*
X7315708Y-4203446D01*
X7309764Y-4215434D01*
X7305497Y-4228084D01*
X7302906Y-4241190D01*
X7301992Y-4254855D01*
X7301992Y-4304944D01*
X7302906Y-4318609D01*
X7305497Y-4331716D01*
X7309764Y-4344365D01*
X7315708Y-4356354D01*
X7323124Y-4367428D01*
X7331913Y-4377486D01*
X7341971Y-4386275D01*
X7353046Y-4393692D01*
X7365034Y-4399635D01*
X7377684Y-4403902D01*
X7390790Y-4406493D01*
G37*
G36*
X6642100Y-4407408D02*
G01*
X6655409Y-4406493D01*
X6668516Y-4403902D01*
X6681165Y-4399635D01*
X6693153Y-4393692D01*
X6704228Y-4386275D01*
X6714286Y-4377486D01*
X6723075Y-4367428D01*
X6730492Y-4356354D01*
X6736435Y-4344365D01*
X6740702Y-4331716D01*
X6743293Y-4318609D01*
X6744208Y-4304944D01*
X6744208Y-4254855D01*
X6743293Y-4241190D01*
X6740702Y-4228084D01*
X6736435Y-4215434D01*
X6730492Y-4203446D01*
X6723075Y-4192371D01*
X6714286Y-4182313D01*
X6704228Y-4173524D01*
X6693153Y-4166108D01*
X6681165Y-4160164D01*
X6668516Y-4155897D01*
X6655409Y-4153306D01*
X6642100Y-4152392D01*
X6628790Y-4153306D01*
X6615684Y-4155897D01*
X6603034Y-4160164D01*
X6591046Y-4166108D01*
X6579971Y-4173524D01*
X6569913Y-4182313D01*
X6561124Y-4192371D01*
X6553708Y-4203446D01*
X6547764Y-4215434D01*
X6543497Y-4228084D01*
X6540906Y-4241190D01*
X6539992Y-4254855D01*
X6539992Y-4304944D01*
X6540906Y-4318609D01*
X6543497Y-4331716D01*
X6547764Y-4344365D01*
X6553708Y-4356354D01*
X6561124Y-4367428D01*
X6569913Y-4377486D01*
X6579971Y-4386275D01*
X6591046Y-4393692D01*
X6603034Y-4399635D01*
X6615684Y-4403902D01*
X6628790Y-4406493D01*
G37*
G36*
X11672722Y-4371238D02*
G01*
X11687302Y-4371238D01*
X11701729Y-4369409D01*
X11715800Y-4365802D01*
X11729364Y-4360468D01*
X11742115Y-4353458D01*
X11753900Y-4344873D01*
X11764467Y-4334916D01*
X11773763Y-4323689D01*
X11781586Y-4311446D01*
X11787784Y-4298238D01*
X11792254Y-4284421D01*
X11794998Y-4270095D01*
X11795912Y-4255617D01*
X11794998Y-4241088D01*
X11792254Y-4226763D01*
X11787784Y-4212945D01*
X11781586Y-4199737D01*
X11773763Y-4187494D01*
X11764467Y-4176268D01*
X11753900Y-4166311D01*
X11742115Y-4157726D01*
X11729364Y-4150715D01*
X11715800Y-4145381D01*
X11701729Y-4141774D01*
X11687302Y-4139946D01*
X11672722Y-4139946D01*
X11658295Y-4141774D01*
X11644223Y-4145381D01*
X11630660Y-4150715D01*
X11617909Y-4157726D01*
X11606123Y-4166311D01*
X11595557Y-4176268D01*
X11586260Y-4187494D01*
X11578437Y-4199737D01*
X11572240Y-4212945D01*
X11567769Y-4226763D01*
X11565026Y-4241088D01*
X11564112Y-4255566D01*
X11565128Y-4270451D01*
X11567769Y-4284421D01*
X11572240Y-4298238D01*
X11578437Y-4311446D01*
X11586260Y-4323689D01*
X11595557Y-4334916D01*
X11606123Y-4344873D01*
X11617909Y-4353458D01*
X11630660Y-4360468D01*
X11644223Y-4365802D01*
X11658295Y-4369409D01*
G37*
G36*
X11172748Y-4371238D02*
G01*
X11187277Y-4371238D01*
X11201704Y-4369409D01*
X11215827Y-4365802D01*
X11229340Y-4360468D01*
X11242090Y-4353458D01*
X11253876Y-4344873D01*
X11264493Y-4334916D01*
X11273790Y-4323689D01*
X11281562Y-4311446D01*
X11287760Y-4298238D01*
X11292281Y-4284421D01*
X11294973Y-4270095D01*
X11295888Y-4255617D01*
X11294922Y-4240682D01*
X11292281Y-4226763D01*
X11287760Y-4212945D01*
X11281562Y-4199737D01*
X11273790Y-4187494D01*
X11264493Y-4176268D01*
X11253876Y-4166311D01*
X11242090Y-4157726D01*
X11229340Y-4150715D01*
X11215827Y-4145381D01*
X11201704Y-4141774D01*
X11187277Y-4139946D01*
X11172748Y-4139946D01*
X11158321Y-4141774D01*
X11144199Y-4145381D01*
X11138560Y-4147616D01*
X11134699Y-4148328D01*
X11130889Y-4147515D01*
X11127638Y-4145330D01*
X10031476Y-3049219D01*
X10029444Y-3046323D01*
X10028529Y-3042920D01*
X10028174Y-3038449D01*
X10025634Y-3028950D01*
X10021468Y-3020060D01*
X10015829Y-3011982D01*
X10008870Y-3005023D01*
X10000843Y-2999435D01*
X9991953Y-2995269D01*
X9982454Y-2992729D01*
X9972649Y-2991866D01*
X9962845Y-2992729D01*
X9953345Y-2995269D01*
X9944455Y-2999435D01*
X9936429Y-3005023D01*
X9929469Y-3011982D01*
X9923830Y-3020060D01*
X9919665Y-3028950D01*
X9917125Y-3038449D01*
X9916261Y-3048254D01*
X9917125Y-3058007D01*
X9919665Y-3067507D01*
X9923830Y-3076397D01*
X9929469Y-3084474D01*
X9936429Y-3091434D01*
X9944455Y-3097022D01*
X9953345Y-3101187D01*
X9962845Y-3103727D01*
X9967315Y-3104134D01*
X9970770Y-3105048D01*
X9973614Y-3107080D01*
X11069624Y-4203090D01*
X11071758Y-4206138D01*
X11072622Y-4209694D01*
X11072114Y-4213402D01*
X11067745Y-4226763D01*
X11065052Y-4241088D01*
X11064138Y-4255617D01*
X11065052Y-4270095D01*
X11067745Y-4284421D01*
X11072266Y-4298238D01*
X11078464Y-4311446D01*
X11086236Y-4323689D01*
X11095532Y-4334916D01*
X11106150Y-4344873D01*
X11117935Y-4353458D01*
X11130686Y-4360468D01*
X11144199Y-4365802D01*
X11158321Y-4369409D01*
G37*
G36*
X11378641Y-4359351D02*
G01*
X11378641Y-4306925D01*
X11326317Y-4306925D01*
X11328450Y-4311446D01*
X11336223Y-4323689D01*
X11345519Y-4334916D01*
X11356136Y-4344873D01*
X11367922Y-4353458D01*
G37*
G36*
X11481358Y-4359351D02*
G01*
X11492077Y-4353458D01*
X11503863Y-4344873D01*
X11514480Y-4334916D01*
X11523776Y-4323689D01*
X11531549Y-4311446D01*
X11533682Y-4306925D01*
X11481358Y-4306925D01*
G37*
G36*
X11326317Y-4204258D02*
G01*
X11378641Y-4204258D01*
X11378641Y-4151833D01*
X11367922Y-4157726D01*
X11356136Y-4166311D01*
X11345519Y-4176268D01*
X11336223Y-4187494D01*
X11328450Y-4199737D01*
G37*
G36*
X11481358Y-4204258D02*
G01*
X11533682Y-4204258D01*
X11531549Y-4199737D01*
X11523776Y-4187494D01*
X11514480Y-4176268D01*
X11503863Y-4166311D01*
X11492077Y-4157726D01*
X11481358Y-4151833D01*
G37*
G36*
X10860024Y-3721506D02*
G01*
X10876330Y-3720592D01*
X10892485Y-3717848D01*
X10908182Y-3713327D01*
X10923320Y-3707028D01*
X10937595Y-3699154D01*
X10950956Y-3689654D01*
X10963148Y-3678783D01*
X10974070Y-3666591D01*
X10983518Y-3653231D01*
X10991443Y-3638905D01*
X10997692Y-3623767D01*
X11002213Y-3608070D01*
X11004956Y-3591966D01*
X11005921Y-3575304D01*
X11005921Y-3435908D01*
X11004956Y-3419297D01*
X11002213Y-3403142D01*
X10997692Y-3387445D01*
X10991443Y-3372307D01*
X10983518Y-3357981D01*
X10974070Y-3344621D01*
X10963148Y-3332429D01*
X10950956Y-3321558D01*
X10937595Y-3312058D01*
X10923320Y-3304184D01*
X10908182Y-3297885D01*
X10892485Y-3293364D01*
X10876330Y-3290620D01*
X10860024Y-3289706D01*
X10843666Y-3290620D01*
X10827512Y-3293364D01*
X10811814Y-3297885D01*
X10796676Y-3304184D01*
X10782401Y-3312058D01*
X10769041Y-3321558D01*
X10756849Y-3332429D01*
X10745927Y-3344621D01*
X10736478Y-3357981D01*
X10728553Y-3372307D01*
X10722305Y-3387445D01*
X10717784Y-3403142D01*
X10715040Y-3419297D01*
X10714075Y-3435908D01*
X10714075Y-3575304D01*
X10715040Y-3591966D01*
X10717784Y-3608070D01*
X10722305Y-3623767D01*
X10728553Y-3638905D01*
X10736478Y-3653231D01*
X10745927Y-3666591D01*
X10756849Y-3678783D01*
X10769041Y-3689654D01*
X10782401Y-3699154D01*
X10796676Y-3707028D01*
X10811814Y-3713327D01*
X10827512Y-3717848D01*
X10843666Y-3720592D01*
G37*
G36*
X11172748Y-2921254D02*
G01*
X11187277Y-2921254D01*
X11201704Y-2919425D01*
X11215827Y-2915818D01*
X11229340Y-2910484D01*
X11242090Y-2903474D01*
X11253876Y-2894888D01*
X11264493Y-2884932D01*
X11273790Y-2873705D01*
X11281562Y-2861462D01*
X11287760Y-2848254D01*
X11292281Y-2834436D01*
X11294973Y-2820111D01*
X11295888Y-2805633D01*
X11294973Y-2791104D01*
X11292281Y-2776778D01*
X11287760Y-2762961D01*
X11281562Y-2749753D01*
X11273790Y-2737510D01*
X11264493Y-2726283D01*
X11253876Y-2716326D01*
X11242090Y-2707741D01*
X11229340Y-2700731D01*
X11215827Y-2695397D01*
X11201704Y-2691790D01*
X11187277Y-2689961D01*
X11172748Y-2689961D01*
X11158321Y-2691790D01*
X11144199Y-2695397D01*
X11130686Y-2700731D01*
X11117935Y-2707741D01*
X11106150Y-2716326D01*
X11095532Y-2726283D01*
X11086236Y-2737510D01*
X11078464Y-2749753D01*
X11072266Y-2762961D01*
X11067745Y-2776778D01*
X11065052Y-2791104D01*
X11064138Y-2805633D01*
X11065052Y-2820111D01*
X11067745Y-2834436D01*
X11072266Y-2848254D01*
X11078464Y-2861462D01*
X11086236Y-2873705D01*
X11095532Y-2884932D01*
X11106150Y-2894888D01*
X11117935Y-2903474D01*
X11130686Y-2910484D01*
X11144199Y-2915818D01*
X11158321Y-2919425D01*
G37*
G36*
X11628678Y-2909366D02*
G01*
X11628678Y-2856941D01*
X11576354Y-2856941D01*
X11578437Y-2861462D01*
X11586260Y-2873705D01*
X11595557Y-2884932D01*
X11606123Y-2894888D01*
X11617909Y-2903474D01*
G37*
G36*
X11731345Y-2909366D02*
G01*
X11742115Y-2903474D01*
X11753900Y-2894888D01*
X11764467Y-2884932D01*
X11773763Y-2873705D01*
X11781586Y-2861462D01*
X11783669Y-2856941D01*
X11731345Y-2856941D01*
G37*
G36*
X9944100Y-2883408D02*
G01*
X9957409Y-2882493D01*
X9970516Y-2879902D01*
X9983165Y-2875635D01*
X9995154Y-2869692D01*
X10006228Y-2862275D01*
X10016286Y-2853486D01*
X10025075Y-2843428D01*
X10032492Y-2832354D01*
X10038435Y-2820365D01*
X10042702Y-2807716D01*
X10045293Y-2794609D01*
X10046208Y-2780944D01*
X10046208Y-2730855D01*
X10045293Y-2717190D01*
X10042702Y-2704084D01*
X10038435Y-2691434D01*
X10032492Y-2679446D01*
X10025075Y-2668371D01*
X10016286Y-2658313D01*
X10006228Y-2649524D01*
X9995154Y-2642108D01*
X9983165Y-2636164D01*
X9970516Y-2631897D01*
X9957409Y-2629306D01*
X9944100Y-2628392D01*
X9930790Y-2629306D01*
X9917684Y-2631897D01*
X9905034Y-2636164D01*
X9893046Y-2642108D01*
X9881971Y-2649524D01*
X9871913Y-2658313D01*
X9863124Y-2668371D01*
X9855708Y-2679446D01*
X9849764Y-2691434D01*
X9845497Y-2704084D01*
X9842906Y-2717190D01*
X9841992Y-2730855D01*
X9841992Y-2780944D01*
X9842906Y-2794609D01*
X9845497Y-2807716D01*
X9849764Y-2820365D01*
X9855708Y-2832354D01*
X9863124Y-2843428D01*
X9871913Y-2853486D01*
X9881971Y-2862275D01*
X9893046Y-2869692D01*
X9905034Y-2875635D01*
X9917684Y-2879902D01*
X9930790Y-2882493D01*
G37*
G36*
X6896100Y-2883408D02*
G01*
X6909409Y-2882493D01*
X6922516Y-2879902D01*
X6935165Y-2875635D01*
X6947153Y-2869692D01*
X6958228Y-2862275D01*
X6968286Y-2853486D01*
X6977075Y-2843428D01*
X6984492Y-2832354D01*
X6990435Y-2820365D01*
X6994702Y-2807716D01*
X6997293Y-2794609D01*
X6998208Y-2780944D01*
X6998208Y-2730855D01*
X6997293Y-2717190D01*
X6994702Y-2704084D01*
X6990435Y-2691434D01*
X6984492Y-2679446D01*
X6977075Y-2668371D01*
X6968286Y-2658313D01*
X6958228Y-2649524D01*
X6947153Y-2642108D01*
X6935165Y-2636164D01*
X6922516Y-2631897D01*
X6909409Y-2629306D01*
X6896100Y-2628392D01*
X6882790Y-2629306D01*
X6869684Y-2631897D01*
X6857034Y-2636164D01*
X6845046Y-2642108D01*
X6833971Y-2649524D01*
X6823913Y-2658313D01*
X6815124Y-2668371D01*
X6807708Y-2679446D01*
X6801764Y-2691434D01*
X6797497Y-2704084D01*
X6794906Y-2717190D01*
X6793992Y-2730855D01*
X6793992Y-2780944D01*
X6794906Y-2794609D01*
X6797497Y-2807716D01*
X6801764Y-2820365D01*
X6807708Y-2832354D01*
X6815124Y-2843428D01*
X6823913Y-2853486D01*
X6833971Y-2862275D01*
X6845046Y-2869692D01*
X6857034Y-2875635D01*
X6869684Y-2879902D01*
X6882790Y-2882493D01*
G37*
G36*
X9690100Y-2883408D02*
G01*
X9703409Y-2882493D01*
X9716516Y-2879902D01*
X9729165Y-2875635D01*
X9741154Y-2869692D01*
X9752228Y-2862275D01*
X9762286Y-2853486D01*
X9771075Y-2843428D01*
X9778492Y-2832354D01*
X9784435Y-2820365D01*
X9788702Y-2807716D01*
X9791293Y-2794609D01*
X9792208Y-2780944D01*
X9792208Y-2730855D01*
X9791293Y-2717190D01*
X9788702Y-2704084D01*
X9784435Y-2691434D01*
X9778492Y-2679446D01*
X9771075Y-2668371D01*
X9762286Y-2658313D01*
X9752228Y-2649524D01*
X9741154Y-2642108D01*
X9729165Y-2636164D01*
X9716516Y-2631897D01*
X9703409Y-2629306D01*
X9690100Y-2628392D01*
X9676790Y-2629306D01*
X9663684Y-2631897D01*
X9651034Y-2636164D01*
X9639046Y-2642108D01*
X9627971Y-2649524D01*
X9617913Y-2658313D01*
X9609124Y-2668371D01*
X9601708Y-2679446D01*
X9595764Y-2691434D01*
X9591497Y-2704084D01*
X9588906Y-2717190D01*
X9587992Y-2730855D01*
X9587992Y-2780944D01*
X9588906Y-2794609D01*
X9591497Y-2807716D01*
X9595764Y-2820365D01*
X9601708Y-2832354D01*
X9609124Y-2843428D01*
X9617913Y-2853486D01*
X9627971Y-2862275D01*
X9639046Y-2869692D01*
X9651034Y-2875635D01*
X9663684Y-2879902D01*
X9676790Y-2882493D01*
G37*
G36*
X7404100Y-2883408D02*
G01*
X7417409Y-2882493D01*
X7430516Y-2879902D01*
X7443165Y-2875635D01*
X7455153Y-2869692D01*
X7466228Y-2862275D01*
X7476286Y-2853486D01*
X7485075Y-2843428D01*
X7492492Y-2832354D01*
X7498435Y-2820365D01*
X7502702Y-2807716D01*
X7505293Y-2794609D01*
X7506208Y-2780944D01*
X7506208Y-2730855D01*
X7505293Y-2717190D01*
X7502702Y-2704084D01*
X7498435Y-2691434D01*
X7492492Y-2679446D01*
X7485075Y-2668371D01*
X7476286Y-2658313D01*
X7466228Y-2649524D01*
X7455153Y-2642108D01*
X7443165Y-2636164D01*
X7430516Y-2631897D01*
X7417409Y-2629306D01*
X7404100Y-2628392D01*
X7390790Y-2629306D01*
X7377684Y-2631897D01*
X7365034Y-2636164D01*
X7353046Y-2642108D01*
X7341971Y-2649524D01*
X7331913Y-2658313D01*
X7323124Y-2668371D01*
X7315708Y-2679446D01*
X7309764Y-2691434D01*
X7305497Y-2704084D01*
X7302906Y-2717190D01*
X7301992Y-2730855D01*
X7301992Y-2780944D01*
X7302906Y-2794609D01*
X7305497Y-2807716D01*
X7309764Y-2820365D01*
X7315708Y-2832354D01*
X7323124Y-2843428D01*
X7331913Y-2853486D01*
X7341971Y-2862275D01*
X7353046Y-2869692D01*
X7365034Y-2875635D01*
X7377684Y-2879902D01*
X7390790Y-2882493D01*
G37*
G36*
X7150100Y-2883408D02*
G01*
X7163409Y-2882493D01*
X7176516Y-2879902D01*
X7189165Y-2875635D01*
X7201153Y-2869692D01*
X7212228Y-2862275D01*
X7222286Y-2853486D01*
X7231075Y-2843428D01*
X7238492Y-2832354D01*
X7244435Y-2820365D01*
X7248702Y-2807716D01*
X7251293Y-2794609D01*
X7252208Y-2780944D01*
X7252208Y-2730855D01*
X7251293Y-2717190D01*
X7248702Y-2704084D01*
X7244435Y-2691434D01*
X7238492Y-2679446D01*
X7231075Y-2668371D01*
X7222286Y-2658313D01*
X7212228Y-2649524D01*
X7201153Y-2642108D01*
X7189165Y-2636164D01*
X7176516Y-2631897D01*
X7163409Y-2629306D01*
X7150100Y-2628392D01*
X7136790Y-2629306D01*
X7123684Y-2631897D01*
X7111034Y-2636164D01*
X7099046Y-2642108D01*
X7087971Y-2649524D01*
X7077913Y-2658313D01*
X7069124Y-2668371D01*
X7061708Y-2679446D01*
X7055764Y-2691434D01*
X7051497Y-2704084D01*
X7048906Y-2717190D01*
X7047992Y-2730855D01*
X7047992Y-2780944D01*
X7048906Y-2794609D01*
X7051497Y-2807716D01*
X7055764Y-2820365D01*
X7061708Y-2832354D01*
X7069124Y-2843428D01*
X7077913Y-2853486D01*
X7087971Y-2862275D01*
X7099046Y-2869692D01*
X7111034Y-2875635D01*
X7123684Y-2879902D01*
X7136790Y-2882493D01*
G37*
G36*
X6642100Y-2883408D02*
G01*
X6655409Y-2882493D01*
X6668516Y-2879902D01*
X6681165Y-2875635D01*
X6693153Y-2869692D01*
X6704228Y-2862275D01*
X6714286Y-2853486D01*
X6723075Y-2843428D01*
X6730492Y-2832354D01*
X6736435Y-2820365D01*
X6740702Y-2807716D01*
X6743293Y-2794609D01*
X6744208Y-2780944D01*
X6744208Y-2730855D01*
X6743293Y-2717190D01*
X6740702Y-2704084D01*
X6736435Y-2691434D01*
X6730492Y-2679446D01*
X6723075Y-2668371D01*
X6714286Y-2658313D01*
X6704228Y-2649524D01*
X6693153Y-2642108D01*
X6681165Y-2636164D01*
X6668516Y-2631897D01*
X6655409Y-2629306D01*
X6642100Y-2628392D01*
X6628790Y-2629306D01*
X6615684Y-2631897D01*
X6603034Y-2636164D01*
X6591046Y-2642108D01*
X6579971Y-2649524D01*
X6569913Y-2658313D01*
X6561124Y-2668371D01*
X6553708Y-2679446D01*
X6547764Y-2691434D01*
X6543497Y-2704084D01*
X6540906Y-2717190D01*
X6539992Y-2730855D01*
X6539992Y-2780944D01*
X6540906Y-2794609D01*
X6543497Y-2807716D01*
X6547764Y-2820365D01*
X6553708Y-2832354D01*
X6561124Y-2843428D01*
X6569913Y-2853486D01*
X6579971Y-2862275D01*
X6591046Y-2869692D01*
X6603034Y-2875635D01*
X6615684Y-2879902D01*
X6628790Y-2882493D01*
G37*
G36*
X10122458Y-2883408D02*
G01*
X10273741Y-2883408D01*
X10280040Y-2882696D01*
X10285526Y-2880766D01*
X10290403Y-2877718D01*
X10294518Y-2873603D01*
X10297566Y-2868726D01*
X10299496Y-2863240D01*
X10300208Y-2856941D01*
X10300208Y-2654858D01*
X10299496Y-2648559D01*
X10297566Y-2643073D01*
X10294518Y-2638196D01*
X10290403Y-2634081D01*
X10285526Y-2631033D01*
X10280040Y-2629103D01*
X10273741Y-2628392D01*
X10122458Y-2628392D01*
X10116159Y-2629103D01*
X10110673Y-2631033D01*
X10105796Y-2634081D01*
X10101681Y-2638196D01*
X10098633Y-2643073D01*
X10096703Y-2648559D01*
X10095992Y-2654858D01*
X10095992Y-2856941D01*
X10096703Y-2863240D01*
X10098633Y-2868726D01*
X10101681Y-2873603D01*
X10105796Y-2877718D01*
X10110673Y-2880766D01*
X10116159Y-2882696D01*
G37*
G36*
X9480550Y-2872943D02*
G01*
X9487154Y-2869692D01*
X9498228Y-2862275D01*
X9508286Y-2853486D01*
X9517075Y-2843428D01*
X9524492Y-2832354D01*
X9530435Y-2820365D01*
X9532874Y-2813050D01*
X9480550Y-2813050D01*
G37*
G36*
X11576354Y-2754274D02*
G01*
X11628678Y-2754274D01*
X11628678Y-2701848D01*
X11617909Y-2707741D01*
X11606123Y-2716326D01*
X11595557Y-2726283D01*
X11586260Y-2737510D01*
X11578437Y-2749753D01*
G37*
G36*
X11731345Y-2754274D02*
G01*
X11783669Y-2754274D01*
X11781586Y-2749753D01*
X11773763Y-2737510D01*
X11764467Y-2726283D01*
X11753900Y-2716326D01*
X11742115Y-2707741D01*
X11731345Y-2701848D01*
G37*
G36*
X9480550Y-2698750D02*
G01*
X9532874Y-2698750D01*
X9530435Y-2691434D01*
X9524492Y-2679446D01*
X9517075Y-2668371D01*
X9508286Y-2658313D01*
X9498228Y-2649524D01*
X9487154Y-2642108D01*
X9480550Y-2638856D01*
G37*
G36*
X6265621Y-2576118D02*
G01*
X6283706Y-2574747D01*
X6301486Y-2571496D01*
X6318910Y-2566416D01*
X6335674Y-2559608D01*
X6351625Y-2551074D01*
X6366662Y-2540965D01*
X6380581Y-2529382D01*
X6393230Y-2516428D01*
X6404457Y-2502204D01*
X6414160Y-2486914D01*
X6422288Y-2470759D01*
X6428638Y-2453792D01*
X6433261Y-2436266D01*
X6436055Y-2418384D01*
X6436969Y-2400300D01*
X6436055Y-2382215D01*
X6433261Y-2364333D01*
X6428638Y-2346807D01*
X6422288Y-2329840D01*
X6414160Y-2313686D01*
X6404457Y-2298395D01*
X6393230Y-2284171D01*
X6380581Y-2271217D01*
X6366662Y-2259634D01*
X6351625Y-2249525D01*
X6335674Y-2240991D01*
X6318910Y-2234184D01*
X6301486Y-2229104D01*
X6283706Y-2225852D01*
X6265621Y-2224481D01*
X6247536Y-2224938D01*
X6229553Y-2227275D01*
X6211925Y-2231390D01*
X6194856Y-2237384D01*
X6178448Y-2245055D01*
X6162903Y-2254351D01*
X6148425Y-2265222D01*
X6135116Y-2277516D01*
X6123178Y-2291130D01*
X6112662Y-2305913D01*
X6103772Y-2321661D01*
X6096508Y-2338273D01*
X6091021Y-2355494D01*
X6087313Y-2373223D01*
X6085433Y-2391257D01*
X6085433Y-2409342D01*
X6087313Y-2427376D01*
X6091021Y-2445105D01*
X6096508Y-2462326D01*
X6103772Y-2478938D01*
X6112662Y-2494686D01*
X6123178Y-2509469D01*
X6135116Y-2523083D01*
X6148425Y-2535377D01*
X6162903Y-2546248D01*
X6178448Y-2555544D01*
X6194856Y-2563215D01*
X6211925Y-2569210D01*
X6229553Y-2573324D01*
X6247536Y-2575661D01*
G37*
G36*
X11853621Y-2576118D02*
G01*
X11871706Y-2574747D01*
X11889486Y-2571496D01*
X11906910Y-2566416D01*
X11923674Y-2559608D01*
X11939625Y-2551074D01*
X11954662Y-2540965D01*
X11968581Y-2529382D01*
X11981230Y-2516428D01*
X11992457Y-2502204D01*
X12002160Y-2486914D01*
X12010288Y-2470759D01*
X12016638Y-2453792D01*
X12021261Y-2436266D01*
X12024055Y-2418384D01*
X12024969Y-2400300D01*
X12024055Y-2382215D01*
X12021261Y-2364333D01*
X12016638Y-2346807D01*
X12010288Y-2329840D01*
X12002160Y-2313686D01*
X11992457Y-2298395D01*
X11981230Y-2284171D01*
X11968581Y-2271217D01*
X11954662Y-2259634D01*
X11939625Y-2249525D01*
X11923674Y-2240991D01*
X11906910Y-2234184D01*
X11889486Y-2229104D01*
X11871706Y-2225852D01*
X11853621Y-2224481D01*
X11835536Y-2224938D01*
X11817553Y-2227275D01*
X11799925Y-2231390D01*
X11782856Y-2237384D01*
X11766448Y-2245055D01*
X11750903Y-2254351D01*
X11736425Y-2265222D01*
X11723116Y-2277516D01*
X11711178Y-2291130D01*
X11700662Y-2305913D01*
X11691772Y-2321661D01*
X11684508Y-2338273D01*
X11679021Y-2355494D01*
X11675313Y-2373223D01*
X11673433Y-2391257D01*
X11673433Y-2409342D01*
X11675313Y-2427376D01*
X11679021Y-2445105D01*
X11684508Y-2462326D01*
X11691772Y-2478938D01*
X11700662Y-2494686D01*
X11711178Y-2509469D01*
X11723116Y-2523083D01*
X11736425Y-2535377D01*
X11750903Y-2546248D01*
X11766448Y-2555544D01*
X11782856Y-2563215D01*
X11799925Y-2569210D01*
X11817553Y-2573324D01*
X11835536Y-2575661D01*
G37*

%LPD*%
G36*
X10929213Y-5614111D02*
G01*
X10925302Y-5613349D01*
X10922000Y-5611114D01*
X10919815Y-5607812D01*
X10919053Y-5603951D01*
X10919053Y-5364784D01*
X10649000Y-5364784D01*
X10649000Y-5561482D01*
X10648188Y-5565394D01*
X10646003Y-5568696D01*
X10642701Y-5570880D01*
X10638840Y-5571642D01*
X10634929Y-5570880D01*
X10631627Y-5568696D01*
X10573156Y-5510174D01*
X10570972Y-5506923D01*
X10570210Y-5503011D01*
X10570210Y-5377281D01*
X10570006Y-5372658D01*
X10569397Y-5368239D01*
X10568432Y-5363921D01*
X10567111Y-5359654D01*
X10565434Y-5355590D01*
X10563352Y-5351627D01*
X10560964Y-5347868D01*
X10558272Y-5344363D01*
X10555122Y-5340908D01*
X10404449Y-5190236D01*
X10401046Y-5187086D01*
X10397490Y-5184394D01*
X10393730Y-5182006D01*
X10389971Y-5180025D01*
X10382961Y-5177383D01*
X10379557Y-5175199D01*
X10377220Y-5171897D01*
X10376408Y-5167884D01*
X10376408Y-5149545D01*
X10274350Y-5149545D01*
X10274350Y-5165039D01*
X10273588Y-5168900D01*
X10271404Y-5172202D01*
X10268102Y-5174437D01*
X10264190Y-5175199D01*
X10106812Y-5175199D01*
X10102951Y-5174437D01*
X10099649Y-5172202D01*
X10097414Y-5168900D01*
X10096652Y-5165039D01*
X10096652Y-5149545D01*
X9995509Y-5149545D01*
X9991648Y-5148732D01*
X9988346Y-5146548D01*
X9362998Y-4521200D01*
X9360763Y-4517898D01*
X9360001Y-4514037D01*
X9360001Y-4395978D01*
X9360916Y-4391710D01*
X9363557Y-4388256D01*
X9367418Y-4386224D01*
X9371736Y-4385970D01*
X9375800Y-4387545D01*
X9385046Y-4393692D01*
X9397034Y-4399635D01*
X9409684Y-4403902D01*
X9422790Y-4406493D01*
X9436100Y-4407408D01*
X9449409Y-4406493D01*
X9462516Y-4403902D01*
X9475622Y-4399432D01*
X9479330Y-4398924D01*
X9482988Y-4399788D01*
X9486087Y-4401870D01*
X9921595Y-4837379D01*
X9923780Y-4840681D01*
X9924542Y-4844542D01*
X9924542Y-4850942D01*
X9925354Y-4860239D01*
X9927691Y-4868773D01*
X9931400Y-4876850D01*
X9936480Y-4884115D01*
X9942779Y-4890363D01*
X9950043Y-4895443D01*
X9958070Y-4899202D01*
X9966655Y-4901488D01*
X9975900Y-4902301D01*
X9984435Y-4902301D01*
X9988346Y-4903063D01*
X9991648Y-4905298D01*
X9993833Y-4908600D01*
X9994595Y-4912461D01*
X9994595Y-4926380D01*
X9995306Y-4932680D01*
X9997236Y-4938166D01*
X10000284Y-4943043D01*
X10004399Y-4947158D01*
X10009276Y-4950256D01*
X10014762Y-4952136D01*
X10021062Y-4952847D01*
X10349941Y-4952847D01*
X10356240Y-4952136D01*
X10361726Y-4950256D01*
X10366603Y-4947158D01*
X10370718Y-4943043D01*
X10373817Y-4938166D01*
X10375696Y-4932680D01*
X10376408Y-4926380D01*
X10376408Y-4776419D01*
X10375696Y-4770120D01*
X10373817Y-4764633D01*
X10370718Y-4759756D01*
X10366603Y-4755642D01*
X10361726Y-4752543D01*
X10356240Y-4750663D01*
X10349941Y-4749952D01*
X10021062Y-4749952D01*
X10014762Y-4750663D01*
X10009276Y-4752543D01*
X10004399Y-4755642D01*
X10001300Y-4758740D01*
X9997998Y-4760925D01*
X9994138Y-4761738D01*
X9990226Y-4760925D01*
X9986924Y-4758740D01*
X9646666Y-4418482D01*
X9644278Y-4414672D01*
X9643770Y-4410202D01*
X9645243Y-4405934D01*
X9648393Y-4402734D01*
X9652660Y-4401210D01*
X9657130Y-4401667D01*
X9663684Y-4403902D01*
X9676790Y-4406493D01*
X9690100Y-4407408D01*
X9703409Y-4406493D01*
X9716516Y-4403902D01*
X9729165Y-4399635D01*
X9741154Y-4393692D01*
X9752228Y-4386275D01*
X9762286Y-4377486D01*
X9771075Y-4367428D01*
X9778492Y-4356354D01*
X9784435Y-4344365D01*
X9788702Y-4331716D01*
X9791293Y-4318609D01*
X9792208Y-4304944D01*
X9792208Y-4254855D01*
X9791293Y-4241190D01*
X9788702Y-4228084D01*
X9784435Y-4215434D01*
X9778492Y-4203446D01*
X9771075Y-4192371D01*
X9762286Y-4182313D01*
X9752228Y-4173524D01*
X9741154Y-4166108D01*
X9729165Y-4160164D01*
X9716516Y-4155897D01*
X9703409Y-4153306D01*
X9690100Y-4152392D01*
X9676790Y-4153306D01*
X9663684Y-4155897D01*
X9651034Y-4160164D01*
X9639046Y-4166108D01*
X9627971Y-4173524D01*
X9617913Y-4182313D01*
X9609124Y-4192371D01*
X9601708Y-4203446D01*
X9595764Y-4215434D01*
X9591497Y-4228084D01*
X9588906Y-4241190D01*
X9587992Y-4254855D01*
X9587992Y-4304944D01*
X9588906Y-4318609D01*
X9591497Y-4331716D01*
X9593732Y-4338269D01*
X9594189Y-4342739D01*
X9592665Y-4347006D01*
X9589465Y-4350156D01*
X9585198Y-4351629D01*
X9580727Y-4351121D01*
X9576917Y-4348734D01*
X9541154Y-4312970D01*
X9538817Y-4309364D01*
X9538208Y-4304944D01*
X9538208Y-4254855D01*
X9537293Y-4241190D01*
X9534702Y-4228084D01*
X9530435Y-4215434D01*
X9524492Y-4203446D01*
X9517075Y-4192371D01*
X9508286Y-4182313D01*
X9498228Y-4173524D01*
X9487154Y-4166108D01*
X9475165Y-4160164D01*
X9462516Y-4155897D01*
X9449409Y-4153306D01*
X9436100Y-4152392D01*
X9422790Y-4153306D01*
X9409684Y-4155897D01*
X9397034Y-4160164D01*
X9385046Y-4166108D01*
X9375800Y-4172254D01*
X9371736Y-4173829D01*
X9367418Y-4173575D01*
X9363557Y-4171543D01*
X9360916Y-4168089D01*
X9360001Y-4163822D01*
X9360001Y-3966819D01*
X9359798Y-3962146D01*
X9359239Y-3957777D01*
X9358274Y-3953408D01*
X9356953Y-3949192D01*
X9355226Y-3945077D01*
X9353194Y-3941165D01*
X9350806Y-3937406D01*
X9348114Y-3933850D01*
X9344964Y-3930446D01*
X9260789Y-3846271D01*
X9258604Y-3843070D01*
X9257792Y-3839311D01*
X9258452Y-3835501D01*
X9260484Y-3832199D01*
X9263583Y-3829913D01*
X9267291Y-3828948D01*
X9272473Y-3828592D01*
X9286341Y-3825849D01*
X9299803Y-3821277D01*
X9312503Y-3815029D01*
X9324289Y-3807104D01*
X9334957Y-3797757D01*
X9344304Y-3787089D01*
X9352229Y-3775303D01*
X9358477Y-3762603D01*
X9363049Y-3749141D01*
X9365792Y-3735273D01*
X9366758Y-3721100D01*
X9365792Y-3706926D01*
X9363049Y-3693058D01*
X9358477Y-3679596D01*
X9352229Y-3666896D01*
X9344304Y-3655110D01*
X9334957Y-3644442D01*
X9324289Y-3635095D01*
X9312503Y-3627170D01*
X9299803Y-3620922D01*
X9286341Y-3616350D01*
X9272473Y-3613607D01*
X9258300Y-3612642D01*
X9244126Y-3613607D01*
X9230258Y-3616350D01*
X9216796Y-3620922D01*
X9204096Y-3627170D01*
X9192310Y-3635095D01*
X9181642Y-3644442D01*
X9172295Y-3655110D01*
X9164370Y-3666896D01*
X9158122Y-3679596D01*
X9153550Y-3693058D01*
X9150807Y-3706926D01*
X9150451Y-3712108D01*
X9149486Y-3715816D01*
X9147200Y-3718915D01*
X9143898Y-3720947D01*
X9140088Y-3721608D01*
X9136329Y-3720795D01*
X9133128Y-3718610D01*
X8911437Y-3496919D01*
X8908034Y-3493770D01*
X8904478Y-3491077D01*
X8900718Y-3488690D01*
X8896807Y-3486658D01*
X8892692Y-3484930D01*
X8888476Y-3483610D01*
X8884107Y-3482644D01*
X8879738Y-3482086D01*
X8875064Y-3481882D01*
X8714282Y-3481882D01*
X8710371Y-3481120D01*
X8707120Y-3478885D01*
X8122666Y-2894482D01*
X8120278Y-2890672D01*
X8119770Y-2886202D01*
X8121243Y-2881934D01*
X8124393Y-2878734D01*
X8128660Y-2877210D01*
X8133130Y-2877667D01*
X8139684Y-2879902D01*
X8152790Y-2882493D01*
X8166100Y-2883408D01*
X8179409Y-2882493D01*
X8192516Y-2879902D01*
X8205165Y-2875635D01*
X8217153Y-2869692D01*
X8228228Y-2862275D01*
X8238286Y-2853486D01*
X8247075Y-2843428D01*
X8254492Y-2832354D01*
X8260435Y-2820365D01*
X8264702Y-2807716D01*
X8267293Y-2794609D01*
X8268208Y-2780944D01*
X8268208Y-2730855D01*
X8267293Y-2717190D01*
X8264702Y-2704084D01*
X8260435Y-2691434D01*
X8254492Y-2679446D01*
X8247075Y-2668371D01*
X8244890Y-2665831D01*
X8242909Y-2662478D01*
X8242350Y-2658668D01*
X8243265Y-2654960D01*
X8245500Y-2651810D01*
X8248751Y-2649728D01*
X8252510Y-2648966D01*
X8333689Y-2648966D01*
X8337448Y-2649728D01*
X8340699Y-2651810D01*
X8342934Y-2654960D01*
X8343849Y-2658668D01*
X8343290Y-2662478D01*
X8341309Y-2665831D01*
X8339124Y-2668371D01*
X8331708Y-2679446D01*
X8325764Y-2691434D01*
X8321497Y-2704084D01*
X8318906Y-2717190D01*
X8317992Y-2730855D01*
X8317992Y-2780944D01*
X8318906Y-2794609D01*
X8321497Y-2807716D01*
X8325764Y-2820365D01*
X8331708Y-2832354D01*
X8339124Y-2843428D01*
X8347913Y-2853486D01*
X8357971Y-2862275D01*
X8369046Y-2869692D01*
X8381034Y-2875635D01*
X8393684Y-2879902D01*
X8406790Y-2882493D01*
X8420100Y-2883408D01*
X8433409Y-2882493D01*
X8446516Y-2879902D01*
X8459165Y-2875635D01*
X8471154Y-2869692D01*
X8482228Y-2862275D01*
X8492286Y-2853486D01*
X8501075Y-2843428D01*
X8508492Y-2832354D01*
X8514435Y-2820365D01*
X8518702Y-2807716D01*
X8521293Y-2794609D01*
X8522208Y-2780944D01*
X8522208Y-2730855D01*
X8521293Y-2717190D01*
X8518702Y-2704084D01*
X8514435Y-2691434D01*
X8508492Y-2679446D01*
X8501075Y-2668371D01*
X8498890Y-2665831D01*
X8496909Y-2662478D01*
X8496350Y-2658668D01*
X8497265Y-2654960D01*
X8499500Y-2651810D01*
X8502751Y-2649728D01*
X8506510Y-2648966D01*
X8587689Y-2648966D01*
X8591448Y-2649728D01*
X8594699Y-2651810D01*
X8596934Y-2654960D01*
X8597849Y-2658668D01*
X8597290Y-2662478D01*
X8595309Y-2665831D01*
X8593124Y-2668371D01*
X8585708Y-2679446D01*
X8579764Y-2691434D01*
X8575497Y-2704084D01*
X8572906Y-2717190D01*
X8571992Y-2730855D01*
X8571992Y-2780944D01*
X8572906Y-2794609D01*
X8575497Y-2807716D01*
X8579764Y-2820365D01*
X8585708Y-2832354D01*
X8593124Y-2843428D01*
X8601913Y-2853486D01*
X8611971Y-2862275D01*
X8623046Y-2869692D01*
X8635034Y-2875635D01*
X8647684Y-2879902D01*
X8660790Y-2882493D01*
X8674100Y-2883408D01*
X8687409Y-2882493D01*
X8700516Y-2879902D01*
X8713165Y-2875635D01*
X8725154Y-2869692D01*
X8736228Y-2862275D01*
X8746286Y-2853486D01*
X8755075Y-2843428D01*
X8762492Y-2832354D01*
X8768435Y-2820365D01*
X8772702Y-2807716D01*
X8775293Y-2794609D01*
X8776208Y-2780944D01*
X8776208Y-2730855D01*
X8775293Y-2717190D01*
X8772702Y-2704084D01*
X8768435Y-2691434D01*
X8762492Y-2679446D01*
X8755075Y-2668371D01*
X8752890Y-2665831D01*
X8750909Y-2662478D01*
X8750350Y-2658668D01*
X8751265Y-2654960D01*
X8753500Y-2651810D01*
X8756751Y-2649728D01*
X8760510Y-2648966D01*
X8841689Y-2648966D01*
X8845448Y-2649728D01*
X8848699Y-2651810D01*
X8850934Y-2654960D01*
X8851849Y-2658668D01*
X8851290Y-2662478D01*
X8849309Y-2665831D01*
X8847124Y-2668371D01*
X8839708Y-2679446D01*
X8833764Y-2691434D01*
X8829497Y-2704084D01*
X8826906Y-2717190D01*
X8825992Y-2730855D01*
X8825992Y-2780944D01*
X8826906Y-2794609D01*
X8829497Y-2807716D01*
X8833764Y-2820365D01*
X8839708Y-2832354D01*
X8847124Y-2843428D01*
X8855913Y-2853486D01*
X8865971Y-2862275D01*
X8877046Y-2869692D01*
X8889034Y-2875635D01*
X8901684Y-2879902D01*
X8914790Y-2882493D01*
X8928100Y-2883408D01*
X8941409Y-2882493D01*
X8954516Y-2879902D01*
X8967165Y-2875635D01*
X8979154Y-2869692D01*
X8990228Y-2862275D01*
X9000286Y-2853486D01*
X9009075Y-2843428D01*
X9016492Y-2832354D01*
X9022435Y-2820365D01*
X9026702Y-2807716D01*
X9029293Y-2794609D01*
X9030208Y-2780944D01*
X9030208Y-2730855D01*
X9029293Y-2717190D01*
X9026702Y-2704084D01*
X9022435Y-2691434D01*
X9016492Y-2679446D01*
X9009075Y-2668371D01*
X9006890Y-2665831D01*
X9004909Y-2662478D01*
X9004350Y-2658668D01*
X9005265Y-2654960D01*
X9007500Y-2651810D01*
X9010751Y-2649728D01*
X9014510Y-2648966D01*
X9095689Y-2648966D01*
X9099448Y-2649728D01*
X9102699Y-2651810D01*
X9104934Y-2654960D01*
X9105849Y-2658668D01*
X9105290Y-2662478D01*
X9103309Y-2665831D01*
X9101124Y-2668371D01*
X9093708Y-2679446D01*
X9087764Y-2691434D01*
X9083497Y-2704084D01*
X9080906Y-2717190D01*
X9079992Y-2730855D01*
X9079992Y-2780944D01*
X9080906Y-2794609D01*
X9083497Y-2807716D01*
X9087764Y-2820365D01*
X9093708Y-2832354D01*
X9101124Y-2843428D01*
X9109913Y-2853486D01*
X9119971Y-2862275D01*
X9131046Y-2869692D01*
X9143034Y-2875635D01*
X9155684Y-2879902D01*
X9168790Y-2882493D01*
X9182100Y-2883408D01*
X9195409Y-2882493D01*
X9208516Y-2879902D01*
X9221165Y-2875635D01*
X9233154Y-2869692D01*
X9244228Y-2862275D01*
X9248597Y-2858516D01*
X9252458Y-2856382D01*
X9256826Y-2856077D01*
X9260941Y-2857703D01*
X9263989Y-2860903D01*
X9267494Y-2866694D01*
X9270085Y-2870149D01*
X9273235Y-2873552D01*
X9544253Y-3144570D01*
X9546437Y-3147872D01*
X9547250Y-3151733D01*
X9547250Y-3203600D01*
X9599066Y-3203600D01*
X9602927Y-3204362D01*
X9606229Y-3206546D01*
X10918698Y-4519015D01*
X10922152Y-4522165D01*
X10925657Y-4524857D01*
X10929416Y-4527245D01*
X10933379Y-4529328D01*
X10937443Y-4531004D01*
X10941710Y-4532325D01*
X10946028Y-4533290D01*
X10950448Y-4533900D01*
X10955070Y-4534103D01*
X11618010Y-4534103D01*
X11621871Y-4534865D01*
X11625173Y-4537049D01*
X11644172Y-4556048D01*
X11646357Y-4559350D01*
X11647119Y-4563211D01*
X11646357Y-4567123D01*
X11644172Y-4570425D01*
X11640870Y-4572609D01*
X11636959Y-4573371D01*
X11432743Y-4573371D01*
X11432743Y-4846015D01*
X11707063Y-4846015D01*
X11710974Y-4846777D01*
X11714276Y-4848961D01*
X11716461Y-4852263D01*
X11717223Y-4856175D01*
X11717223Y-5099050D01*
X11717426Y-5103672D01*
X11718036Y-5108092D01*
X11719001Y-5112410D01*
X11720322Y-5116626D01*
X11722150Y-5121046D01*
X11724081Y-5124704D01*
X11726468Y-5128463D01*
X11729161Y-5131968D01*
X11732310Y-5135422D01*
X11799620Y-5202732D01*
X11801906Y-5206238D01*
X11804294Y-5212435D01*
X11805970Y-5215991D01*
X11810847Y-5224373D01*
X11816638Y-5231892D01*
X11822582Y-5237988D01*
X11824716Y-5241290D01*
X11825478Y-5245100D01*
X11824716Y-5248910D01*
X11822582Y-5252212D01*
X11816638Y-5258308D01*
X11810847Y-5265826D01*
X11808764Y-5269128D01*
X11805259Y-5275732D01*
X11803481Y-5278120D01*
X11719763Y-5361838D01*
X11716461Y-5364022D01*
X11712600Y-5364784D01*
X11432743Y-5364784D01*
X11432743Y-5603951D01*
X11431981Y-5607812D01*
X11429746Y-5611114D01*
X11426444Y-5613349D01*
X11422583Y-5614111D01*
G37*

%LPC*%
G36*
X10274350Y-5061254D02*
G01*
X10376408Y-5061254D01*
X10376408Y-5030419D01*
X10375696Y-5024120D01*
X10373817Y-5018633D01*
X10370718Y-5013756D01*
X10366603Y-5009642D01*
X10361726Y-5006543D01*
X10356240Y-5004663D01*
X10349941Y-5003952D01*
X10274350Y-5003952D01*
G37*
G36*
X9994595Y-5061254D02*
G01*
X10096652Y-5061254D01*
X10096652Y-5003952D01*
X10021062Y-5003952D01*
X10014762Y-5004663D01*
X10009276Y-5006543D01*
X10004399Y-5009642D01*
X10000284Y-5013756D01*
X9997236Y-5018633D01*
X9995306Y-5024120D01*
X9994595Y-5030419D01*
G37*
G36*
X10649000Y-4846015D02*
G01*
X10919053Y-4846015D01*
X10919053Y-4573371D01*
X10675467Y-4573371D01*
X10669117Y-4574082D01*
X10663682Y-4576013D01*
X10658754Y-4579112D01*
X10654690Y-4583176D01*
X10651591Y-4588103D01*
X10649712Y-4593539D01*
X10649000Y-4599889D01*
G37*
G36*
X10198100Y-4407408D02*
G01*
X10211409Y-4406493D01*
X10224516Y-4403902D01*
X10237165Y-4399635D01*
X10249154Y-4393692D01*
X10260228Y-4386275D01*
X10270286Y-4377486D01*
X10279075Y-4367428D01*
X10286492Y-4356354D01*
X10292435Y-4344365D01*
X10296702Y-4331716D01*
X10299293Y-4318609D01*
X10300208Y-4304944D01*
X10300208Y-4254855D01*
X10299293Y-4241190D01*
X10296702Y-4228084D01*
X10292435Y-4215434D01*
X10286492Y-4203446D01*
X10279075Y-4192371D01*
X10270286Y-4182313D01*
X10260228Y-4173524D01*
X10249154Y-4166108D01*
X10237165Y-4160164D01*
X10224516Y-4155897D01*
X10211409Y-4153306D01*
X10198100Y-4152392D01*
X10184790Y-4153306D01*
X10171684Y-4155897D01*
X10159034Y-4160164D01*
X10147046Y-4166108D01*
X10135971Y-4173524D01*
X10125913Y-4182313D01*
X10117124Y-4192371D01*
X10109708Y-4203446D01*
X10103764Y-4215434D01*
X10099497Y-4228084D01*
X10096906Y-4241190D01*
X10095992Y-4254855D01*
X10095992Y-4304944D01*
X10096906Y-4318609D01*
X10099497Y-4331716D01*
X10103764Y-4344365D01*
X10109708Y-4356354D01*
X10117124Y-4367428D01*
X10125913Y-4377486D01*
X10135971Y-4386275D01*
X10147046Y-4393692D01*
X10159034Y-4399635D01*
X10171684Y-4403902D01*
X10184790Y-4406493D01*
G37*
G36*
X9988550Y-4396943D02*
G01*
X9995154Y-4393692D01*
X10006228Y-4386275D01*
X10016286Y-4377486D01*
X10025075Y-4367428D01*
X10032492Y-4356354D01*
X10038435Y-4344365D01*
X10040874Y-4337050D01*
X9988550Y-4337050D01*
G37*
G36*
X9899650Y-4396943D02*
G01*
X9899650Y-4337050D01*
X9847326Y-4337050D01*
X9849764Y-4344365D01*
X9855708Y-4356354D01*
X9863124Y-4367428D01*
X9871913Y-4377486D01*
X9881971Y-4386275D01*
X9893046Y-4393692D01*
G37*
G36*
X9847326Y-4222750D02*
G01*
X9899650Y-4222750D01*
X9899650Y-4162856D01*
X9893046Y-4166108D01*
X9881971Y-4173524D01*
X9871913Y-4182313D01*
X9863124Y-4192371D01*
X9855708Y-4203446D01*
X9849764Y-4215434D01*
G37*
G36*
X9988550Y-4222750D02*
G01*
X10040874Y-4222750D01*
X10038435Y-4215434D01*
X10032492Y-4203446D01*
X10025075Y-4192371D01*
X10016286Y-4182313D01*
X10006228Y-4173524D01*
X9995154Y-4166108D01*
X9988550Y-4162856D01*
G37*
G36*
X9559950Y-3818280D02*
G01*
X9566503Y-3815029D01*
X9578289Y-3807104D01*
X9588957Y-3797757D01*
X9598304Y-3787089D01*
X9606229Y-3775303D01*
X9609480Y-3768750D01*
X9559950Y-3768750D01*
G37*
G36*
X9464700Y-3818280D02*
G01*
X9464700Y-3768750D01*
X9415119Y-3768750D01*
X9418370Y-3775303D01*
X9426295Y-3787089D01*
X9435642Y-3797757D01*
X9446310Y-3807104D01*
X9458096Y-3815029D01*
G37*
G36*
X9415119Y-3673500D02*
G01*
X9464700Y-3673500D01*
X9464700Y-3623919D01*
X9458096Y-3627170D01*
X9446310Y-3635095D01*
X9435642Y-3644442D01*
X9426295Y-3655110D01*
X9418370Y-3666896D01*
G37*
G36*
X9559950Y-3673500D02*
G01*
X9609480Y-3673500D01*
X9606229Y-3666896D01*
X9598304Y-3655110D01*
X9588957Y-3644442D01*
X9578289Y-3635095D01*
X9566503Y-3627170D01*
X9559950Y-3623919D01*
G37*
G36*
X9245600Y-3359658D02*
G01*
X9259773Y-3358692D01*
X9273641Y-3355949D01*
X9287103Y-3351377D01*
X9299803Y-3345129D01*
X9311589Y-3337204D01*
X9322257Y-3327857D01*
X9331604Y-3317189D01*
X9339529Y-3305403D01*
X9345777Y-3292703D01*
X9350349Y-3279241D01*
X9353092Y-3265373D01*
X9354058Y-3251200D01*
X9353092Y-3237026D01*
X9350349Y-3223158D01*
X9345777Y-3209696D01*
X9339529Y-3196996D01*
X9331604Y-3185210D01*
X9322257Y-3174542D01*
X9311589Y-3165195D01*
X9299803Y-3157270D01*
X9287103Y-3151022D01*
X9273641Y-3146450D01*
X9259773Y-3143707D01*
X9245600Y-3142742D01*
X9231426Y-3143707D01*
X9217558Y-3146450D01*
X9204096Y-3151022D01*
X9191396Y-3157270D01*
X9179610Y-3165195D01*
X9168942Y-3174542D01*
X9159595Y-3185210D01*
X9151670Y-3196996D01*
X9145422Y-3209696D01*
X9140850Y-3223158D01*
X9138107Y-3237026D01*
X9137142Y-3251200D01*
X9138107Y-3265373D01*
X9140850Y-3279241D01*
X9145422Y-3292703D01*
X9151670Y-3305403D01*
X9159595Y-3317189D01*
X9168942Y-3327857D01*
X9179610Y-3337204D01*
X9191396Y-3345129D01*
X9204096Y-3351377D01*
X9217558Y-3355949D01*
X9231426Y-3358692D01*
G37*
G36*
X8830208Y-3358337D02*
G01*
X8844889Y-3356965D01*
X8859316Y-3353815D01*
X8873236Y-3348888D01*
X8886444Y-3342284D01*
X8898737Y-3334156D01*
X8909964Y-3324555D01*
X8919870Y-3313633D01*
X8928404Y-3301593D01*
X8935415Y-3288588D01*
X8940749Y-3274822D01*
X8944305Y-3260547D01*
X8946134Y-3245866D01*
X8946134Y-3231134D01*
X8944305Y-3216452D01*
X8940749Y-3202178D01*
X8935415Y-3188411D01*
X8928404Y-3175406D01*
X8919870Y-3163366D01*
X8909964Y-3152444D01*
X8898737Y-3142843D01*
X8886444Y-3134715D01*
X8873236Y-3128111D01*
X8859316Y-3123184D01*
X8844889Y-3120034D01*
X8830208Y-3118713D01*
X8815425Y-3119120D01*
X8800846Y-3121406D01*
X8786672Y-3125470D01*
X8773058Y-3131210D01*
X8760307Y-3138576D01*
X8748522Y-3147466D01*
X8737904Y-3157728D01*
X8728659Y-3169259D01*
X8720886Y-3181807D01*
X8714740Y-3195218D01*
X8710269Y-3209239D01*
X8707526Y-3223768D01*
X8706612Y-3238500D01*
X8707526Y-3253232D01*
X8710269Y-3267760D01*
X8714740Y-3281781D01*
X8720886Y-3295192D01*
X8728659Y-3307740D01*
X8737904Y-3319272D01*
X8748522Y-3329533D01*
X8760307Y-3338423D01*
X8773058Y-3345789D01*
X8786672Y-3351529D01*
X8800846Y-3355594D01*
X8815425Y-3357879D01*
G37*
G36*
X9452000Y-3348380D02*
G01*
X9452000Y-3298850D01*
X9402419Y-3298850D01*
X9405670Y-3305403D01*
X9413595Y-3317189D01*
X9422942Y-3327857D01*
X9433610Y-3337204D01*
X9445396Y-3345129D01*
G37*
G36*
X9547250Y-3348380D02*
G01*
X9553803Y-3345129D01*
X9565589Y-3337204D01*
X9576257Y-3327857D01*
X9585604Y-3317189D01*
X9593529Y-3305403D01*
X9596780Y-3298850D01*
X9547250Y-3298850D01*
G37*
G36*
X9402419Y-3203600D02*
G01*
X9452000Y-3203600D01*
X9452000Y-3154019D01*
X9445396Y-3157270D01*
X9433610Y-3165195D01*
X9422942Y-3174542D01*
X9413595Y-3185210D01*
X9405670Y-3196996D01*
G37*

%LPD*%
D11*
X7912100Y-2755900D02*
G01*
X8688984Y-3532784D01*
X8875293Y-3532784D01*
X9309100Y-3966590D01*
X9309100Y-4539310D01*
X9995890Y-5226100D01*
X10368305Y-5226100D01*
X10519283Y-5377078D01*
X10519283Y-5528310D01*
X10655985Y-5665012D01*
X11698173Y-5665012D01*
X11725554Y-5637631D01*
X11725554Y-5428030D01*
X11844985Y-5308600D01*
X11874500Y-5308600D01*
X7810500Y-3238500D02*
G01*
X7685862Y-3363137D01*
X7685862Y-4015231D01*
X7802930Y-4132300D01*
X7670800Y-4811699D02*
G01*
X7785100Y-4697399D01*
X7785100Y-4150131D01*
X7802930Y-4132300D01*
X10185501Y-4851400D02*
G01*
X9975468Y-4851400D01*
X9436100Y-4279900D02*
G01*
X9975468Y-4819269D01*
X9975468Y-4851400D01*
X6311900Y-4724400D02*
G01*
X6187135Y-4849164D01*
X6187135Y-5412435D01*
X6299200Y-5524500D01*
D12*
X8061299Y-5588000D02*
G01*
X8572500Y-5076799D01*
X8572500Y-4914900D01*
X10185501Y-5359400D02*
G01*
X9017000Y-5359400D01*
X8572500Y-4914900D01*
D11*
X7658100Y-2755900D02*
G01*
X7815935Y-2598064D01*
X9240951Y-2598064D01*
X9309100Y-2666212D01*
X9309100Y-2837408D01*
X10954867Y-4483176D01*
X11643283Y-4483176D01*
X11768150Y-4608042D01*
X11768150Y-5099253D01*
X11850497Y-5181600D01*
X11874500Y-5181600D01*
D12*
X6311900Y-4978400D02*
G01*
X6383020Y-4978400D01*
X7023100Y-4338320D01*
X7023100Y-3828770D01*
X7850886Y-3000984D01*
X8420100Y-4279900D02*
G01*
X8412124Y-4279900D01*
X7583652Y-5108371D01*
X7223328Y-5108371D01*
X6807200Y-5524500D01*
X7061200Y-5524500D02*
G01*
X7238618Y-5524500D01*
X7654721Y-5108397D01*
X7845602Y-5108397D01*
X8674100Y-4279900D01*
D11*
X7835900Y-3708400D02*
G01*
X8316747Y-3708400D01*
X8801100Y-4192752D01*
X8801100Y-4353153D01*
X8680704Y-4473549D01*
X8587054Y-4473549D01*
X7696200Y-5364403D01*
X7696200Y-5408599D01*
D12*
X11180013Y-4255592D02*
G01*
X9972649Y-3048228D01*
G36*
X10350510Y-5029850D02*
G01*
X10020510Y-5029850D01*
X10020510Y-5180949D01*
X10350510Y-5180949D01*
G37*
G36*
X10350510Y-5283850D02*
G01*
X10020510Y-5283850D01*
X10020510Y-5434949D01*
X10350510Y-5434949D01*
G37*
G36*
X10350510Y-4775850D02*
G01*
X10020510Y-4775850D01*
X10020510Y-4926949D01*
X10350510Y-4926949D01*
G37*
G36*
X11676890Y-4599299D02*
G01*
X10674891Y-4599299D01*
X10674891Y-5611500D01*
X11676890Y-5611500D01*
G37*
D16*
G01*
X9410700Y-5562600D03*
G01*
X9664700Y-5562600D03*
G01*
X8572500Y-4914900D03*
G01*
X8572500Y-4660900D03*
D17*
G01*
X7670800Y-4811699D03*
G01*
X7670800Y-4611700D03*
G01*
X7696200Y-5408599D03*
G01*
X7696200Y-5208600D03*
D18*
G01*
X8061299Y-5588000D03*
G01*
X8931300Y-5588000D03*
D19*
G01*
X9245600Y-3251200D03*
G01*
X9499600Y-3251200D03*
G01*
X9258300Y-3721100D03*
G01*
X9512300Y-3721100D03*
D20*
G01*
X8826500Y-3238500D03*
G01*
X7810500Y-3238500D03*
G01*
X8851900Y-3708400D03*
G01*
X7835900Y-3708400D03*
D18*
G01*
X11180013Y-2805607D03*
G01*
X11680012Y-2805607D03*
G01*
X11180013Y-4255592D03*
G01*
X11430000Y-4255592D03*
G01*
X11680012Y-4255592D03*
D21*
G01*
X10198100Y-2755900D03*
G36*
X11874500Y-4724400D02*
G01*
X11868124Y-4723993D01*
X11861876Y-4722799D01*
X11855805Y-4720844D01*
X11850039Y-4718126D01*
X11844629Y-4714697D01*
X11839727Y-4710633D01*
X11835358Y-4705985D01*
X11831599Y-4700828D01*
X11828525Y-4695240D01*
X11826189Y-4689297D01*
X11824588Y-4683125D01*
X11823801Y-4676800D01*
X11823801Y-4670399D01*
X11824588Y-4664075D01*
X11826189Y-4657902D01*
X11828525Y-4651959D01*
X11831599Y-4646371D01*
X11835358Y-4641214D01*
X11839727Y-4636566D01*
X11844629Y-4632502D01*
X11850039Y-4629073D01*
X11855805Y-4626355D01*
X11861876Y-4624400D01*
X11868124Y-4623206D01*
X11874500Y-4622800D01*
X11976100Y-4622800D01*
X11982475Y-4623206D01*
X11988723Y-4624400D01*
X11994794Y-4626355D01*
X12000585Y-4629073D01*
X12005970Y-4632502D01*
X12010872Y-4636566D01*
X12015241Y-4641214D01*
X12019000Y-4646371D01*
X12022074Y-4651959D01*
X12024410Y-4657902D01*
X12026011Y-4664075D01*
X12026798Y-4670399D01*
X12026798Y-4676800D01*
X12026011Y-4683125D01*
X12024410Y-4689297D01*
X12022074Y-4695240D01*
X12019000Y-4700828D01*
X12015241Y-4705985D01*
X12010872Y-4710633D01*
X12005970Y-4714697D01*
X12000585Y-4718126D01*
X11994794Y-4720844D01*
X11988723Y-4722799D01*
X11982475Y-4723993D01*
X11976100Y-4724400D01*
G37*
G36*
X11874500Y-4851400D02*
G01*
X11868124Y-4850993D01*
X11861876Y-4849799D01*
X11855805Y-4847844D01*
X11850039Y-4845126D01*
X11844629Y-4841697D01*
X11839727Y-4837633D01*
X11835358Y-4832985D01*
X11831599Y-4827828D01*
X11828525Y-4822240D01*
X11826189Y-4816297D01*
X11824588Y-4810125D01*
X11823801Y-4803800D01*
X11823801Y-4797399D01*
X11824588Y-4791075D01*
X11826189Y-4784902D01*
X11828525Y-4778959D01*
X11831599Y-4773371D01*
X11835358Y-4768214D01*
X11839727Y-4763566D01*
X11844629Y-4759502D01*
X11850039Y-4756073D01*
X11855805Y-4753355D01*
X11861876Y-4751400D01*
X11868124Y-4750206D01*
X11874500Y-4749800D01*
X11976100Y-4749800D01*
X11982475Y-4750206D01*
X11988723Y-4751400D01*
X11994794Y-4753355D01*
X12000585Y-4756073D01*
X12005970Y-4759502D01*
X12010872Y-4763566D01*
X12015241Y-4768214D01*
X12019000Y-4773371D01*
X12022074Y-4778959D01*
X12024410Y-4784902D01*
X12026011Y-4791075D01*
X12026798Y-4797399D01*
X12026798Y-4803800D01*
X12026011Y-4810125D01*
X12024410Y-4816297D01*
X12022074Y-4822240D01*
X12019000Y-4827828D01*
X12015241Y-4832985D01*
X12010872Y-4837633D01*
X12005970Y-4841697D01*
X12000585Y-4845126D01*
X11994794Y-4847844D01*
X11988723Y-4849799D01*
X11982475Y-4850993D01*
X11976100Y-4851400D01*
G37*
G36*
X11874500Y-4978400D02*
G01*
X11868124Y-4977993D01*
X11861876Y-4976799D01*
X11855805Y-4974844D01*
X11850039Y-4972126D01*
X11844629Y-4968697D01*
X11839727Y-4964633D01*
X11835358Y-4959985D01*
X11831599Y-4954828D01*
X11828525Y-4949240D01*
X11826189Y-4943297D01*
X11824588Y-4937125D01*
X11823801Y-4930800D01*
X11823801Y-4924399D01*
X11824588Y-4918075D01*
X11826189Y-4911902D01*
X11828525Y-4905959D01*
X11831599Y-4900371D01*
X11835358Y-4895214D01*
X11839727Y-4890566D01*
X11844629Y-4886502D01*
X11850039Y-4883073D01*
X11855805Y-4880355D01*
X11861876Y-4878400D01*
X11868124Y-4877206D01*
X11874500Y-4876800D01*
X11976100Y-4876800D01*
X11982475Y-4877206D01*
X11988723Y-4878400D01*
X11994794Y-4880355D01*
X12000585Y-4883073D01*
X12005970Y-4886502D01*
X12010872Y-4890566D01*
X12015241Y-4895214D01*
X12019000Y-4900371D01*
X12022074Y-4905959D01*
X12024410Y-4911902D01*
X12026011Y-4918075D01*
X12026798Y-4924399D01*
X12026798Y-4930800D01*
X12026011Y-4937125D01*
X12024410Y-4943297D01*
X12022074Y-4949240D01*
X12019000Y-4954828D01*
X12015241Y-4959985D01*
X12010872Y-4964633D01*
X12005970Y-4968697D01*
X12000585Y-4972126D01*
X11994794Y-4974844D01*
X11988723Y-4976799D01*
X11982475Y-4977993D01*
X11976100Y-4978400D01*
G37*
G36*
X11874500Y-5105400D02*
G01*
X11868124Y-5104993D01*
X11861876Y-5103799D01*
X11855805Y-5101844D01*
X11850039Y-5099126D01*
X11844629Y-5095697D01*
X11839727Y-5091633D01*
X11835358Y-5086985D01*
X11831599Y-5081828D01*
X11828525Y-5076240D01*
X11826189Y-5070297D01*
X11824588Y-5064125D01*
X11823801Y-5057800D01*
X11823801Y-5051399D01*
X11824588Y-5045075D01*
X11826189Y-5038902D01*
X11828525Y-5032959D01*
X11831599Y-5027371D01*
X11835358Y-5022214D01*
X11839727Y-5017566D01*
X11844629Y-5013502D01*
X11850039Y-5010073D01*
X11855805Y-5007355D01*
X11861876Y-5005400D01*
X11868124Y-5004206D01*
X11874500Y-5003800D01*
X11976100Y-5003800D01*
X11982475Y-5004206D01*
X11988723Y-5005400D01*
X11994794Y-5007355D01*
X12000585Y-5010073D01*
X12005970Y-5013502D01*
X12010872Y-5017566D01*
X12015241Y-5022214D01*
X12019000Y-5027371D01*
X12022074Y-5032959D01*
X12024410Y-5038902D01*
X12026011Y-5045075D01*
X12026798Y-5051399D01*
X12026798Y-5057800D01*
X12026011Y-5064125D01*
X12024410Y-5070297D01*
X12022074Y-5076240D01*
X12019000Y-5081828D01*
X12015241Y-5086985D01*
X12010872Y-5091633D01*
X12005970Y-5095697D01*
X12000585Y-5099126D01*
X11994794Y-5101844D01*
X11988723Y-5103799D01*
X11982475Y-5104993D01*
X11976100Y-5105400D01*
G37*
G36*
X11874500Y-5232400D02*
G01*
X11868124Y-5231993D01*
X11861876Y-5230799D01*
X11855805Y-5228844D01*
X11850039Y-5226126D01*
X11844629Y-5222697D01*
X11839727Y-5218633D01*
X11835358Y-5213985D01*
X11831599Y-5208828D01*
X11828525Y-5203240D01*
X11826189Y-5197297D01*
X11824588Y-5191125D01*
X11823801Y-5184800D01*
X11823801Y-5178399D01*
X11824588Y-5172075D01*
X11826189Y-5165902D01*
X11828525Y-5159959D01*
X11831599Y-5154371D01*
X11835358Y-5149214D01*
X11839727Y-5144566D01*
X11844629Y-5140502D01*
X11850039Y-5137073D01*
X11855805Y-5134355D01*
X11861876Y-5132400D01*
X11868124Y-5131206D01*
X11874500Y-5130800D01*
X11976100Y-5130800D01*
X11982475Y-5131206D01*
X11988723Y-5132400D01*
X11994794Y-5134355D01*
X12000585Y-5137073D01*
X12005970Y-5140502D01*
X12010872Y-5144566D01*
X12015241Y-5149214D01*
X12019000Y-5154371D01*
X12022074Y-5159959D01*
X12024410Y-5165902D01*
X12026011Y-5172075D01*
X12026798Y-5178399D01*
X12026798Y-5184800D01*
X12026011Y-5191125D01*
X12024410Y-5197297D01*
X12022074Y-5203240D01*
X12019000Y-5208828D01*
X12015241Y-5213985D01*
X12010872Y-5218633D01*
X12005970Y-5222697D01*
X12000585Y-5226126D01*
X11994794Y-5228844D01*
X11988723Y-5230799D01*
X11982475Y-5231993D01*
X11976100Y-5232400D01*
G37*
G36*
X11874500Y-5359400D02*
G01*
X11868124Y-5358993D01*
X11861876Y-5357799D01*
X11855805Y-5355818D01*
X11850039Y-5353126D01*
X11844629Y-5349697D01*
X11839727Y-5345633D01*
X11835358Y-5340985D01*
X11831599Y-5335828D01*
X11828525Y-5330240D01*
X11826189Y-5324297D01*
X11824588Y-5318125D01*
X11823801Y-5311800D01*
X11823801Y-5305399D01*
X11824588Y-5299075D01*
X11826189Y-5292902D01*
X11828525Y-5286959D01*
X11831599Y-5281371D01*
X11835358Y-5276214D01*
X11839727Y-5271566D01*
X11844629Y-5267502D01*
X11850039Y-5264073D01*
X11855805Y-5261355D01*
X11861876Y-5259400D01*
X11868124Y-5258206D01*
X11874500Y-5257800D01*
X11976100Y-5257800D01*
X11982475Y-5258206D01*
X11988723Y-5259400D01*
X11994794Y-5261355D01*
X12000585Y-5264073D01*
X12005970Y-5267502D01*
X12010872Y-5271566D01*
X12015241Y-5276214D01*
X12019000Y-5281371D01*
X12022074Y-5286959D01*
X12024410Y-5292902D01*
X12026011Y-5299075D01*
X12026798Y-5305399D01*
X12026798Y-5311800D01*
X12026011Y-5318125D01*
X12024410Y-5324297D01*
X12022074Y-5330240D01*
X12019000Y-5335828D01*
X12015241Y-5340985D01*
X12010872Y-5345633D01*
X12005970Y-5349697D01*
X12000585Y-5353126D01*
X11994794Y-5355818D01*
X11988723Y-5357799D01*
X11982475Y-5358993D01*
X11976100Y-5359400D01*
G37*
G36*
X11874500Y-5486400D02*
G01*
X11868124Y-5485993D01*
X11861876Y-5484799D01*
X11855805Y-5482818D01*
X11850039Y-5480126D01*
X11844629Y-5476697D01*
X11839727Y-5472633D01*
X11835358Y-5467985D01*
X11831599Y-5462828D01*
X11828525Y-5457215D01*
X11826189Y-5451297D01*
X11824588Y-5445125D01*
X11823801Y-5438800D01*
X11823801Y-5432399D01*
X11824588Y-5426075D01*
X11826189Y-5419902D01*
X11828525Y-5413959D01*
X11831599Y-5408371D01*
X11835358Y-5403214D01*
X11839727Y-5398566D01*
X11844629Y-5394502D01*
X11850039Y-5391073D01*
X11855805Y-5388355D01*
X11861876Y-5386400D01*
X11868124Y-5385206D01*
X11874500Y-5384800D01*
X11976100Y-5384800D01*
X11982475Y-5385206D01*
X11988723Y-5386400D01*
X11994794Y-5388355D01*
X12000585Y-5391073D01*
X12005970Y-5394502D01*
X12010872Y-5398566D01*
X12015241Y-5403214D01*
X12019000Y-5408371D01*
X12022074Y-5413959D01*
X12024410Y-5419902D01*
X12026011Y-5426075D01*
X12026798Y-5432399D01*
X12026798Y-5438800D01*
X12026011Y-5445125D01*
X12024410Y-5451297D01*
X12022074Y-5457215D01*
X12019000Y-5462828D01*
X12015241Y-5467985D01*
X12010872Y-5472633D01*
X12005970Y-5476697D01*
X12000585Y-5480126D01*
X11994794Y-5482818D01*
X11988723Y-5484799D01*
X11982475Y-5485993D01*
X11976100Y-5486400D01*
G37*
G36*
X11874500Y-5613400D02*
G01*
X11868124Y-5612993D01*
X11861876Y-5611799D01*
X11855805Y-5609818D01*
X11850039Y-5607126D01*
X11844629Y-5603697D01*
X11839727Y-5599633D01*
X11835358Y-5594985D01*
X11831599Y-5589828D01*
X11828525Y-5584215D01*
X11826189Y-5578297D01*
X11824588Y-5572125D01*
X11823801Y-5565800D01*
X11823801Y-5559399D01*
X11824588Y-5553075D01*
X11826189Y-5546902D01*
X11828525Y-5540959D01*
X11831599Y-5535371D01*
X11835358Y-5530214D01*
X11839727Y-5525566D01*
X11844629Y-5521502D01*
X11850039Y-5518073D01*
X11855805Y-5515355D01*
X11861876Y-5513400D01*
X11868124Y-5512206D01*
X11874500Y-5511800D01*
X11976100Y-5511800D01*
X11982475Y-5512206D01*
X11988723Y-5513400D01*
X11994794Y-5515355D01*
X12000585Y-5518073D01*
X12005970Y-5521502D01*
X12010872Y-5525566D01*
X12015241Y-5530214D01*
X12019000Y-5535371D01*
X12022074Y-5540959D01*
X12024410Y-5546902D01*
X12026011Y-5553075D01*
X12026798Y-5559399D01*
X12026798Y-5565800D01*
X12026011Y-5572125D01*
X12024410Y-5578297D01*
X12022074Y-5584215D01*
X12019000Y-5589828D01*
X12015241Y-5594985D01*
X12010872Y-5599633D01*
X12005970Y-5603697D01*
X12000585Y-5607126D01*
X11994794Y-5609818D01*
X11988723Y-5611799D01*
X11982475Y-5612993D01*
X11976100Y-5613400D01*
G37*
D16*
G01*
X7061200Y-5524500D03*
G01*
X6807200Y-5524500D03*
G01*
X6553200Y-5524500D03*
G01*
X6299200Y-5524500D03*
G01*
X6311900Y-4978400D03*
G01*
X6311900Y-5232400D03*
G01*
X6311900Y-4724400D03*
D13*
G01*
X7802930Y-4132300D03*
G01*
X7850886Y-3000984D03*
G01*
X9972649Y-3048228D03*
D22*
X10859998Y-3435606D02*
G01*
X10859998Y-3575606D01*
X12000001Y-3435606D02*
G01*
X12000001Y-3575606D01*
D16*
X9944100Y-2730500D02*
G01*
X9944100Y-2781300D01*
X9690100Y-2730500D02*
G01*
X9690100Y-2781300D01*
X9436100Y-2730500D02*
G01*
X9436100Y-2781300D01*
X9182100Y-2730500D02*
G01*
X9182100Y-2781300D01*
X8928100Y-2730500D02*
G01*
X8928100Y-2781300D01*
X8674100Y-2730500D02*
G01*
X8674100Y-2781300D01*
X8420100Y-2730500D02*
G01*
X8420100Y-2781300D01*
X8166100Y-2730500D02*
G01*
X8166100Y-2781300D01*
X7912100Y-2730500D02*
G01*
X7912100Y-2781300D01*
X7658100Y-2730500D02*
G01*
X7658100Y-2781300D01*
X7404100Y-2730500D02*
G01*
X7404100Y-2781300D01*
X7150100Y-2730500D02*
G01*
X7150100Y-2781300D01*
X6896100Y-2730500D02*
G01*
X6896100Y-2781300D01*
X6642100Y-2730500D02*
G01*
X6642100Y-2781300D01*
X6642100Y-4254500D02*
G01*
X6642100Y-4305300D01*
X6896100Y-4254500D02*
G01*
X6896100Y-4305300D01*
X7150100Y-4254500D02*
G01*
X7150100Y-4305300D01*
X7404100Y-4254500D02*
G01*
X7404100Y-4305300D01*
X7658100Y-4254500D02*
G01*
X7658100Y-4305300D01*
X7912100Y-4254500D02*
G01*
X7912100Y-4305300D01*
X8166100Y-4254500D02*
G01*
X8166100Y-4305300D01*
X8420100Y-4254500D02*
G01*
X8420100Y-4305300D01*
X8674100Y-4254500D02*
G01*
X8674100Y-4305300D01*
X8928100Y-4254500D02*
G01*
X8928100Y-4305300D01*
X9182100Y-4254500D02*
G01*
X9182100Y-4305300D01*
X9436100Y-4254500D02*
G01*
X9436100Y-4305300D01*
X9690100Y-4254500D02*
G01*
X9690100Y-4305300D01*
X9944100Y-4254500D02*
G01*
X9944100Y-4305300D01*
X10198100Y-4254500D02*
G01*
X10198100Y-4305300D01*
M02*
