G04 Layer: TopLayer*
G04 EasyEDA v6.4.31, 2022-02-21 16:35:37*
G04 86a35107d0e148c68cbe8ff221d4d82a,63e7e6c6506342ae886175fa881d857f,10*
G04 Gerber Generator version 0.2*
G04 Scale: 100 percent, Rotated: No, Reflected: No *
G04 Dimensions in millimeters *
G04 leading zeros omitted , absolute positions ,4 integer and 5 decimal *
%FSLAX45Y45*%
%MOMM*%

%ADD11C,0.5000*%
%ADD12C,0.3000*%
%ADD13C,0.6100*%
%ADD14R,1.1000X2.5000*%
%ADD16C,1.5240*%
%ADD17C,1.3000*%
%ADD18C,1.8000*%
%ADD19C,1.6510*%
%ADD20C,1.8796*%
%ADD21R,1.5240X2.0320*%
%ADD22C,2.4000*%

%LPD*%
G36*
X9268815Y-2862478D02*
G01*
X9265056Y-2861716D01*
X9261805Y-2859633D01*
X9259570Y-2856484D01*
X9258706Y-2852724D01*
X9259265Y-2848914D01*
X9261195Y-2845612D01*
X9263075Y-2843428D01*
X9270492Y-2832354D01*
X9276435Y-2820365D01*
X9280702Y-2807716D01*
X9283293Y-2794609D01*
X9284208Y-2780944D01*
X9284208Y-2730855D01*
X9283344Y-2717393D01*
X9283954Y-2713177D01*
X9286290Y-2709570D01*
X9335008Y-2660802D01*
X9338310Y-2658618D01*
X9343136Y-2657856D01*
X9347352Y-2658770D01*
X9350857Y-2661412D01*
X9352889Y-2665222D01*
X9353143Y-2669590D01*
X9351568Y-2673654D01*
X9347708Y-2679446D01*
X9341764Y-2691434D01*
X9339326Y-2698750D01*
X9391650Y-2698750D01*
X9391650Y-2668016D01*
X9392412Y-2664104D01*
X9394647Y-2660802D01*
X9397898Y-2658618D01*
X9401810Y-2657856D01*
X9470390Y-2657856D01*
X9474301Y-2658618D01*
X9477552Y-2660802D01*
X9479788Y-2664104D01*
X9480550Y-2668016D01*
X9480550Y-2698750D01*
X9532874Y-2698750D01*
X9530435Y-2691434D01*
X9524492Y-2679446D01*
X9520631Y-2673654D01*
X9519056Y-2669590D01*
X9519310Y-2665222D01*
X9521342Y-2661412D01*
X9524847Y-2658770D01*
X9529064Y-2657856D01*
X9597136Y-2657856D01*
X9601352Y-2658770D01*
X9604857Y-2661412D01*
X9606889Y-2665222D01*
X9607143Y-2669590D01*
X9605568Y-2673654D01*
X9601708Y-2679446D01*
X9595764Y-2691434D01*
X9591497Y-2704084D01*
X9588906Y-2717190D01*
X9587992Y-2730855D01*
X9587992Y-2780944D01*
X9588906Y-2794609D01*
X9591497Y-2807716D01*
X9595764Y-2820365D01*
X9601708Y-2832354D01*
X9609124Y-2843428D01*
X9611004Y-2845612D01*
X9612934Y-2848914D01*
X9613493Y-2852724D01*
X9612630Y-2856484D01*
X9610394Y-2859633D01*
X9607143Y-2861716D01*
X9603384Y-2862478D01*
X9522815Y-2862478D01*
X9519056Y-2861716D01*
X9515805Y-2859633D01*
X9513570Y-2856484D01*
X9512706Y-2852724D01*
X9513265Y-2848914D01*
X9515195Y-2845612D01*
X9517075Y-2843428D01*
X9524492Y-2832354D01*
X9530435Y-2820365D01*
X9532874Y-2813050D01*
X9480550Y-2813050D01*
X9480550Y-2852318D01*
X9479788Y-2856179D01*
X9477552Y-2859481D01*
X9474301Y-2861716D01*
X9470390Y-2862478D01*
X9401810Y-2862478D01*
X9397898Y-2861716D01*
X9394647Y-2859481D01*
X9392412Y-2856179D01*
X9391650Y-2852318D01*
X9391650Y-2813050D01*
X9339326Y-2813050D01*
X9341764Y-2820365D01*
X9347708Y-2832354D01*
X9355124Y-2843428D01*
X9357004Y-2845612D01*
X9358934Y-2848914D01*
X9359493Y-2852724D01*
X9358630Y-2856484D01*
X9356394Y-2859633D01*
X9353143Y-2861716D01*
X9349384Y-2862478D01*
G37*

%LPD*%
G36*
X11362588Y-4876698D02*
G01*
X11358727Y-4875936D01*
X11355425Y-4873701D01*
X9831120Y-3349396D01*
X9827717Y-3346246D01*
X9824161Y-3343554D01*
X9820402Y-3341166D01*
X9816490Y-3339134D01*
X9812375Y-3337407D01*
X9808159Y-3336086D01*
X9803790Y-3335121D01*
X9799421Y-3334562D01*
X9794748Y-3334359D01*
X9593021Y-3334359D01*
X9589211Y-3333597D01*
X9586010Y-3331514D01*
X9583775Y-3328365D01*
X9582861Y-3324656D01*
X9583420Y-3320846D01*
X9585604Y-3317189D01*
X9593529Y-3305403D01*
X9596780Y-3298850D01*
X9547250Y-3298850D01*
X9547250Y-3324199D01*
X9546437Y-3328060D01*
X9544253Y-3331362D01*
X9540951Y-3333597D01*
X9537090Y-3334359D01*
X9462160Y-3334359D01*
X9458248Y-3333597D01*
X9454946Y-3331362D01*
X9452762Y-3328060D01*
X9452000Y-3324199D01*
X9452000Y-3298850D01*
X9402419Y-3298850D01*
X9405670Y-3305403D01*
X9413798Y-3317494D01*
X9415780Y-3320846D01*
X9416338Y-3324656D01*
X9415424Y-3328365D01*
X9413189Y-3331514D01*
X9409988Y-3333597D01*
X9406178Y-3334359D01*
X9339021Y-3334359D01*
X9335211Y-3333597D01*
X9332010Y-3331514D01*
X9329775Y-3328365D01*
X9328861Y-3324656D01*
X9329420Y-3320846D01*
X9331604Y-3317189D01*
X9339529Y-3305403D01*
X9345777Y-3292703D01*
X9350349Y-3279241D01*
X9353092Y-3265373D01*
X9354058Y-3251200D01*
X9353092Y-3237026D01*
X9350349Y-3223158D01*
X9345777Y-3209696D01*
X9339529Y-3196996D01*
X9331604Y-3185210D01*
X9322257Y-3174542D01*
X9311589Y-3165195D01*
X9299803Y-3157270D01*
X9287103Y-3151022D01*
X9273641Y-3146450D01*
X9259773Y-3143707D01*
X9245600Y-3142742D01*
X9231426Y-3143707D01*
X9217558Y-3146450D01*
X9204096Y-3151022D01*
X9191396Y-3157270D01*
X9179610Y-3165195D01*
X9168942Y-3174542D01*
X9159595Y-3185210D01*
X9154312Y-3193084D01*
X9152026Y-3195472D01*
X9149130Y-3197047D01*
X9145828Y-3197606D01*
X8945930Y-3197606D01*
X8941968Y-3196793D01*
X8938615Y-3194507D01*
X8936431Y-3191103D01*
X8935415Y-3188411D01*
X8928404Y-3175406D01*
X8919870Y-3163366D01*
X8909964Y-3152444D01*
X8898737Y-3142843D01*
X8886444Y-3134715D01*
X8873236Y-3128111D01*
X8859316Y-3123184D01*
X8844889Y-3120034D01*
X8830208Y-3118713D01*
X8815425Y-3119120D01*
X8800846Y-3121406D01*
X8786672Y-3125470D01*
X8773058Y-3131210D01*
X8760307Y-3138576D01*
X8748522Y-3147466D01*
X8737904Y-3157728D01*
X8728659Y-3169259D01*
X8720886Y-3181807D01*
X8714740Y-3195218D01*
X8710269Y-3209239D01*
X8707526Y-3223768D01*
X8706612Y-3238500D01*
X8707526Y-3253232D01*
X8710269Y-3267760D01*
X8714740Y-3281781D01*
X8720886Y-3295192D01*
X8728659Y-3307740D01*
X8736787Y-3317798D01*
X8738565Y-3321151D01*
X8738971Y-3324910D01*
X8738006Y-3328568D01*
X8735771Y-3331616D01*
X8732570Y-3333648D01*
X8728862Y-3334359D01*
X7908036Y-3334359D01*
X7904225Y-3333597D01*
X7900974Y-3331464D01*
X7898739Y-3328314D01*
X7897875Y-3324504D01*
X7898485Y-3320694D01*
X7900517Y-3317341D01*
X7903870Y-3313633D01*
X7912404Y-3301593D01*
X7919415Y-3288588D01*
X7924749Y-3274822D01*
X7928305Y-3260547D01*
X7930134Y-3245866D01*
X7930134Y-3231134D01*
X7928305Y-3216452D01*
X7924749Y-3202178D01*
X7919415Y-3188411D01*
X7912404Y-3175406D01*
X7903870Y-3163366D01*
X7893964Y-3152444D01*
X7882737Y-3142843D01*
X7870444Y-3134715D01*
X7857236Y-3128111D01*
X7843316Y-3123184D01*
X7828889Y-3120034D01*
X7814208Y-3118713D01*
X7799425Y-3119120D01*
X7784846Y-3121406D01*
X7770672Y-3125470D01*
X7757058Y-3131210D01*
X7744307Y-3138576D01*
X7732522Y-3147466D01*
X7721904Y-3157728D01*
X7712659Y-3169259D01*
X7704886Y-3181807D01*
X7698740Y-3195218D01*
X7694269Y-3209239D01*
X7691526Y-3223768D01*
X7690612Y-3238500D01*
X7691526Y-3253232D01*
X7694269Y-3267760D01*
X7698740Y-3281781D01*
X7704886Y-3295192D01*
X7712659Y-3307740D01*
X7720787Y-3317798D01*
X7722565Y-3321151D01*
X7722971Y-3324910D01*
X7722006Y-3328568D01*
X7719771Y-3331616D01*
X7716570Y-3333648D01*
X7712862Y-3334359D01*
X7550759Y-3334359D01*
X7546848Y-3333597D01*
X7543596Y-3331362D01*
X7106666Y-2894482D01*
X7104278Y-2890672D01*
X7103770Y-2886202D01*
X7105243Y-2881934D01*
X7108393Y-2878734D01*
X7112660Y-2877210D01*
X7117130Y-2877667D01*
X7123684Y-2879902D01*
X7136790Y-2882493D01*
X7150100Y-2883408D01*
X7163409Y-2882493D01*
X7176516Y-2879902D01*
X7189165Y-2875635D01*
X7201153Y-2869692D01*
X7212228Y-2862275D01*
X7222286Y-2853486D01*
X7231075Y-2843428D01*
X7238492Y-2832354D01*
X7244435Y-2820365D01*
X7248702Y-2807716D01*
X7251293Y-2794609D01*
X7252208Y-2780944D01*
X7252208Y-2730855D01*
X7251293Y-2717190D01*
X7248702Y-2704084D01*
X7244435Y-2691434D01*
X7238492Y-2679446D01*
X7231075Y-2668371D01*
X7222286Y-2658313D01*
X7212228Y-2649524D01*
X7201153Y-2642108D01*
X7189165Y-2636164D01*
X7176516Y-2631897D01*
X7163409Y-2629306D01*
X7150100Y-2628392D01*
X7136790Y-2629306D01*
X7123684Y-2631897D01*
X7111034Y-2636164D01*
X7099046Y-2642108D01*
X7087971Y-2649524D01*
X7077913Y-2658313D01*
X7069124Y-2668371D01*
X7061708Y-2679446D01*
X7055764Y-2691434D01*
X7051497Y-2704084D01*
X7048906Y-2717190D01*
X7047992Y-2730855D01*
X7047992Y-2780944D01*
X7048906Y-2794609D01*
X7051497Y-2807716D01*
X7053732Y-2814269D01*
X7054189Y-2818739D01*
X7052665Y-2823006D01*
X7049465Y-2826156D01*
X7045198Y-2827629D01*
X7040727Y-2827121D01*
X7036917Y-2824734D01*
X7001154Y-2788970D01*
X6998817Y-2785364D01*
X6998208Y-2780944D01*
X6998208Y-2730855D01*
X6997293Y-2717190D01*
X6994702Y-2704084D01*
X6990435Y-2691434D01*
X6984492Y-2679446D01*
X6977075Y-2668371D01*
X6968286Y-2658313D01*
X6958228Y-2649524D01*
X6947153Y-2642108D01*
X6935165Y-2636164D01*
X6922516Y-2631897D01*
X6909409Y-2629306D01*
X6896100Y-2628392D01*
X6882790Y-2629306D01*
X6869684Y-2631897D01*
X6863130Y-2634132D01*
X6858660Y-2634589D01*
X6854393Y-2633065D01*
X6851243Y-2629865D01*
X6849770Y-2625598D01*
X6850278Y-2621127D01*
X6852666Y-2617317D01*
X6863689Y-2606294D01*
X6866991Y-2604109D01*
X6870852Y-2603347D01*
X9252305Y-2603347D01*
X9256166Y-2604109D01*
X9259468Y-2606294D01*
X9261652Y-2609596D01*
X9262465Y-2613507D01*
X9261652Y-2617368D01*
X9259468Y-2620670D01*
X9241586Y-2638552D01*
X9238081Y-2640838D01*
X9233966Y-2641549D01*
X9229902Y-2640482D01*
X9221165Y-2636164D01*
X9208516Y-2631897D01*
X9195409Y-2629306D01*
X9182100Y-2628392D01*
X9168790Y-2629306D01*
X9155684Y-2631897D01*
X9143034Y-2636164D01*
X9131046Y-2642108D01*
X9119971Y-2649524D01*
X9109913Y-2658313D01*
X9101124Y-2668371D01*
X9093708Y-2679446D01*
X9087764Y-2691434D01*
X9083497Y-2704084D01*
X9080906Y-2717190D01*
X9079992Y-2730855D01*
X9079992Y-2780944D01*
X9080906Y-2794609D01*
X9083497Y-2807716D01*
X9087764Y-2820365D01*
X9093708Y-2832354D01*
X9099397Y-2840888D01*
X9100972Y-2844850D01*
X9100769Y-2849067D01*
X9098889Y-2852877D01*
X9095638Y-2855569D01*
X9091523Y-2856687D01*
X9087307Y-2856026D01*
X9083751Y-2853690D01*
X9032290Y-2802229D01*
X9029954Y-2798622D01*
X9029344Y-2794406D01*
X9030208Y-2780944D01*
X9030208Y-2730855D01*
X9029293Y-2717190D01*
X9026702Y-2704084D01*
X9022435Y-2691434D01*
X9016492Y-2679446D01*
X9009075Y-2668371D01*
X9000286Y-2658313D01*
X8990228Y-2649524D01*
X8979154Y-2642108D01*
X8967165Y-2636164D01*
X8954516Y-2631897D01*
X8941409Y-2629306D01*
X8928100Y-2628392D01*
X8914790Y-2629306D01*
X8901684Y-2631897D01*
X8889034Y-2636164D01*
X8877046Y-2642108D01*
X8865971Y-2649524D01*
X8855913Y-2658313D01*
X8847124Y-2668371D01*
X8839708Y-2679446D01*
X8833764Y-2691434D01*
X8829497Y-2704084D01*
X8826906Y-2717190D01*
X8825992Y-2730855D01*
X8825992Y-2780944D01*
X8826906Y-2794609D01*
X8829497Y-2807716D01*
X8833764Y-2820365D01*
X8839708Y-2832354D01*
X8845397Y-2840888D01*
X8846972Y-2844850D01*
X8846769Y-2849067D01*
X8844889Y-2852877D01*
X8841638Y-2855569D01*
X8837523Y-2856687D01*
X8833307Y-2856026D01*
X8829751Y-2853690D01*
X8778290Y-2802229D01*
X8775954Y-2798622D01*
X8775344Y-2794406D01*
X8776208Y-2780944D01*
X8776208Y-2730855D01*
X8775293Y-2717190D01*
X8772702Y-2704084D01*
X8768435Y-2691434D01*
X8762492Y-2679446D01*
X8755075Y-2668371D01*
X8746286Y-2658313D01*
X8736228Y-2649524D01*
X8725154Y-2642108D01*
X8713165Y-2636164D01*
X8700516Y-2631897D01*
X8687409Y-2629306D01*
X8674100Y-2628392D01*
X8660790Y-2629306D01*
X8647684Y-2631897D01*
X8635034Y-2636164D01*
X8623046Y-2642108D01*
X8611971Y-2649524D01*
X8601913Y-2658313D01*
X8593124Y-2668371D01*
X8585708Y-2679446D01*
X8579764Y-2691434D01*
X8575497Y-2704084D01*
X8572906Y-2717190D01*
X8571992Y-2730855D01*
X8571992Y-2780944D01*
X8572906Y-2794609D01*
X8575497Y-2807716D01*
X8579764Y-2820365D01*
X8585708Y-2832354D01*
X8593124Y-2843428D01*
X8601913Y-2853486D01*
X8611971Y-2862275D01*
X8623046Y-2869692D01*
X8635034Y-2875635D01*
X8647684Y-2879902D01*
X8660790Y-2882493D01*
X8674100Y-2883408D01*
X8687409Y-2882493D01*
X8700516Y-2879902D01*
X8713165Y-2875635D01*
X8721902Y-2871317D01*
X8725966Y-2870250D01*
X8730081Y-2870962D01*
X8733586Y-2873248D01*
X8937142Y-3076803D01*
X8943746Y-3082188D01*
X8950807Y-3085998D01*
X8958478Y-3088284D01*
X8966911Y-3089148D01*
X9929977Y-3089148D01*
X9933025Y-3089605D01*
X9935768Y-3090976D01*
X9944455Y-3097022D01*
X9953345Y-3101187D01*
X9962845Y-3103727D01*
X9972649Y-3104591D01*
X9982454Y-3103727D01*
X9991953Y-3101187D01*
X10000843Y-3097022D01*
X10008870Y-3091434D01*
X10015829Y-3084474D01*
X10021468Y-3076397D01*
X10025634Y-3067507D01*
X10028174Y-3058007D01*
X10029037Y-3048254D01*
X10028174Y-3038449D01*
X10025634Y-3028950D01*
X10021468Y-3020060D01*
X10015829Y-3011982D01*
X10008870Y-3005023D01*
X10000843Y-2999435D01*
X9991953Y-2995269D01*
X9982454Y-2992729D01*
X9972649Y-2991866D01*
X9962845Y-2992729D01*
X9953345Y-2995269D01*
X9944455Y-2999435D01*
X9935768Y-3005480D01*
X9933025Y-3006852D01*
X9929977Y-3007309D01*
X8987586Y-3007309D01*
X8983675Y-3006547D01*
X8980373Y-3004362D01*
X8855710Y-2879648D01*
X8853373Y-2876092D01*
X8852712Y-2871876D01*
X8853830Y-2867761D01*
X8856522Y-2864510D01*
X8860332Y-2862630D01*
X8864549Y-2862427D01*
X8868511Y-2864002D01*
X8877046Y-2869692D01*
X8889034Y-2875635D01*
X8901684Y-2879902D01*
X8914790Y-2882493D01*
X8928100Y-2883408D01*
X8941409Y-2882493D01*
X8954516Y-2879902D01*
X8967165Y-2875635D01*
X8975902Y-2871317D01*
X8979966Y-2870250D01*
X8984081Y-2870962D01*
X8987586Y-2873248D01*
X9046311Y-2931922D01*
X9052864Y-2937357D01*
X9059926Y-2941116D01*
X9067596Y-2943453D01*
X9076080Y-2944266D01*
X10551566Y-2944266D01*
X10555478Y-2945079D01*
X10558780Y-2947263D01*
X10884865Y-3273348D01*
X10887100Y-3276752D01*
X10887862Y-3280765D01*
X10886948Y-3284728D01*
X10884611Y-3288029D01*
X10881106Y-3290112D01*
X10877092Y-3290722D01*
X10859973Y-3289706D01*
X10843666Y-3290620D01*
X10827512Y-3293364D01*
X10811814Y-3297885D01*
X10796676Y-3304184D01*
X10782401Y-3312058D01*
X10769041Y-3321558D01*
X10756849Y-3332429D01*
X10745927Y-3344621D01*
X10736478Y-3357981D01*
X10728553Y-3372307D01*
X10722305Y-3387445D01*
X10717784Y-3403142D01*
X10715040Y-3419297D01*
X10714075Y-3435908D01*
X10714075Y-3575304D01*
X10715040Y-3591966D01*
X10717784Y-3608070D01*
X10722305Y-3623767D01*
X10728553Y-3638905D01*
X10736478Y-3653231D01*
X10745927Y-3666591D01*
X10756849Y-3678783D01*
X10769041Y-3689654D01*
X10782401Y-3699154D01*
X10796676Y-3707028D01*
X10811814Y-3713327D01*
X10827512Y-3717848D01*
X10843666Y-3720592D01*
X10860024Y-3721506D01*
X10876330Y-3720592D01*
X10892485Y-3717848D01*
X10908182Y-3713327D01*
X10923320Y-3707028D01*
X10937595Y-3699154D01*
X10950956Y-3689654D01*
X10963148Y-3678783D01*
X10974070Y-3666591D01*
X10983518Y-3653231D01*
X10991443Y-3638905D01*
X10997692Y-3623767D01*
X11002213Y-3608070D01*
X11004956Y-3591966D01*
X11005921Y-3575304D01*
X11005921Y-3435908D01*
X11004905Y-3418484D01*
X11005464Y-3414471D01*
X11007598Y-3411016D01*
X11010900Y-3408629D01*
X11014862Y-3407765D01*
X11018824Y-3408476D01*
X11022228Y-3410712D01*
X11636146Y-4024629D01*
X11638330Y-4027932D01*
X11639092Y-4031792D01*
X11639092Y-4140504D01*
X11638330Y-4144416D01*
X11636044Y-4147769D01*
X11632692Y-4149953D01*
X11630660Y-4150715D01*
X11617909Y-4157726D01*
X11606123Y-4166311D01*
X11595557Y-4176268D01*
X11586260Y-4187494D01*
X11578437Y-4199737D01*
X11572240Y-4212945D01*
X11567769Y-4226763D01*
X11565026Y-4241088D01*
X11564112Y-4255566D01*
X11565128Y-4270451D01*
X11567769Y-4284421D01*
X11572240Y-4298238D01*
X11578437Y-4311446D01*
X11586260Y-4323689D01*
X11595557Y-4334916D01*
X11606123Y-4344873D01*
X11617909Y-4353458D01*
X11630660Y-4360468D01*
X11644223Y-4365802D01*
X11658295Y-4369409D01*
X11672722Y-4371238D01*
X11687302Y-4371238D01*
X11701729Y-4369409D01*
X11711178Y-4367022D01*
X11715343Y-4366818D01*
X11719204Y-4368342D01*
X11722201Y-4371238D01*
X11723725Y-4375150D01*
X11723573Y-4379315D01*
X11721795Y-4386224D01*
X11721236Y-4390491D01*
X11721033Y-4395165D01*
X11721033Y-4721809D01*
X11721236Y-4726432D01*
X11721846Y-4730851D01*
X11722811Y-4735169D01*
X11724132Y-4739436D01*
X11725808Y-4743500D01*
X11727891Y-4747463D01*
X11730278Y-4751222D01*
X11732971Y-4754727D01*
X11736120Y-4758182D01*
X11799570Y-4821631D01*
X11801856Y-4825136D01*
X11804294Y-4831435D01*
X11805970Y-4834991D01*
X11810847Y-4843373D01*
X11816638Y-4850892D01*
X11822633Y-4857038D01*
X11824766Y-4860340D01*
X11825478Y-4864303D01*
X11824665Y-4868164D01*
X11822379Y-4871466D01*
X11819839Y-4873853D01*
X11816588Y-4875936D01*
X11812828Y-4876698D01*
G37*

%LPC*%
G36*
X11172748Y-4371238D02*
G01*
X11187277Y-4371238D01*
X11201704Y-4369409D01*
X11215827Y-4365802D01*
X11229340Y-4360468D01*
X11242090Y-4353458D01*
X11253876Y-4344873D01*
X11264493Y-4334916D01*
X11273790Y-4323689D01*
X11281562Y-4311446D01*
X11287760Y-4298238D01*
X11292281Y-4284421D01*
X11294973Y-4270095D01*
X11295888Y-4255617D01*
X11294922Y-4240682D01*
X11292281Y-4226763D01*
X11287760Y-4212945D01*
X11281562Y-4199737D01*
X11273790Y-4187494D01*
X11264493Y-4176268D01*
X11253876Y-4166311D01*
X11242090Y-4157726D01*
X11229340Y-4150715D01*
X11215827Y-4145381D01*
X11201704Y-4141774D01*
X11187277Y-4139946D01*
X11172748Y-4139946D01*
X11158321Y-4141774D01*
X11144199Y-4145381D01*
X11130686Y-4150715D01*
X11117935Y-4157726D01*
X11106150Y-4166311D01*
X11095532Y-4176268D01*
X11086236Y-4187494D01*
X11078464Y-4199737D01*
X11072266Y-4212945D01*
X11067745Y-4226763D01*
X11065052Y-4241088D01*
X11064138Y-4255617D01*
X11065052Y-4270095D01*
X11067745Y-4284421D01*
X11072266Y-4298238D01*
X11078464Y-4311446D01*
X11086236Y-4323689D01*
X11095532Y-4334916D01*
X11106150Y-4344873D01*
X11117935Y-4353458D01*
X11130686Y-4360468D01*
X11144199Y-4365802D01*
X11158321Y-4369409D01*
G37*
G36*
X11378641Y-4359351D02*
G01*
X11378641Y-4306925D01*
X11326317Y-4306925D01*
X11328450Y-4311446D01*
X11336223Y-4323689D01*
X11345519Y-4334916D01*
X11356136Y-4344873D01*
X11367922Y-4353458D01*
G37*
G36*
X11481358Y-4359351D02*
G01*
X11492077Y-4353458D01*
X11503863Y-4344873D01*
X11514480Y-4334916D01*
X11523776Y-4323689D01*
X11531549Y-4311446D01*
X11533682Y-4306925D01*
X11481358Y-4306925D01*
G37*
G36*
X11326317Y-4204258D02*
G01*
X11378641Y-4204258D01*
X11378641Y-4151833D01*
X11367922Y-4157726D01*
X11356136Y-4166311D01*
X11345519Y-4176268D01*
X11336223Y-4187494D01*
X11328450Y-4199737D01*
G37*
G36*
X11481358Y-4204258D02*
G01*
X11533682Y-4204258D01*
X11531549Y-4199737D01*
X11523776Y-4187494D01*
X11514480Y-4176268D01*
X11503863Y-4166311D01*
X11492077Y-4157726D01*
X11481358Y-4151833D01*
G37*
G36*
X9402419Y-3203600D02*
G01*
X9452000Y-3203600D01*
X9452000Y-3154019D01*
X9445396Y-3157270D01*
X9433610Y-3165195D01*
X9422942Y-3174542D01*
X9413595Y-3185210D01*
X9405670Y-3196996D01*
G37*
G36*
X9547250Y-3203600D02*
G01*
X9596780Y-3203600D01*
X9593529Y-3196996D01*
X9585604Y-3185210D01*
X9576257Y-3174542D01*
X9565589Y-3165195D01*
X9553803Y-3157270D01*
X9547250Y-3154019D01*
G37*
G36*
X7850886Y-3057347D02*
G01*
X7860690Y-3056483D01*
X7870190Y-3053943D01*
X7879080Y-3049778D01*
X7887766Y-3043732D01*
X7890509Y-3042361D01*
X7893558Y-3041904D01*
X8174532Y-3041904D01*
X8182965Y-3041040D01*
X8190636Y-3038754D01*
X8197697Y-3034944D01*
X8204301Y-3029559D01*
X8360613Y-2873248D01*
X8364118Y-2870962D01*
X8368233Y-2870250D01*
X8372297Y-2871317D01*
X8381034Y-2875635D01*
X8393684Y-2879902D01*
X8406790Y-2882493D01*
X8420100Y-2883408D01*
X8433409Y-2882493D01*
X8446516Y-2879902D01*
X8459165Y-2875635D01*
X8471154Y-2869692D01*
X8482228Y-2862275D01*
X8492286Y-2853486D01*
X8501075Y-2843428D01*
X8508492Y-2832354D01*
X8514435Y-2820365D01*
X8518702Y-2807716D01*
X8521293Y-2794609D01*
X8522208Y-2780944D01*
X8522208Y-2730855D01*
X8521293Y-2717190D01*
X8518702Y-2704084D01*
X8514435Y-2691434D01*
X8508492Y-2679446D01*
X8501075Y-2668371D01*
X8492286Y-2658313D01*
X8482228Y-2649524D01*
X8471154Y-2642108D01*
X8459165Y-2636164D01*
X8446516Y-2631897D01*
X8433409Y-2629306D01*
X8420100Y-2628392D01*
X8406790Y-2629306D01*
X8393684Y-2631897D01*
X8381034Y-2636164D01*
X8369046Y-2642108D01*
X8357971Y-2649524D01*
X8347913Y-2658313D01*
X8339124Y-2668371D01*
X8331708Y-2679446D01*
X8325764Y-2691434D01*
X8321497Y-2704084D01*
X8318906Y-2717190D01*
X8317992Y-2730855D01*
X8317992Y-2780944D01*
X8318855Y-2794406D01*
X8318246Y-2798622D01*
X8315909Y-2802229D01*
X8264448Y-2853690D01*
X8260892Y-2856026D01*
X8256676Y-2856687D01*
X8252561Y-2855569D01*
X8249310Y-2852877D01*
X8247430Y-2849067D01*
X8247227Y-2844850D01*
X8248802Y-2840888D01*
X8254492Y-2832354D01*
X8260435Y-2820365D01*
X8264702Y-2807716D01*
X8267293Y-2794609D01*
X8268208Y-2780944D01*
X8268208Y-2730855D01*
X8267293Y-2717190D01*
X8264702Y-2704084D01*
X8260435Y-2691434D01*
X8254492Y-2679446D01*
X8247075Y-2668371D01*
X8238286Y-2658313D01*
X8228228Y-2649524D01*
X8217153Y-2642108D01*
X8205165Y-2636164D01*
X8192516Y-2631897D01*
X8179409Y-2629306D01*
X8166100Y-2628392D01*
X8152790Y-2629306D01*
X8139684Y-2631897D01*
X8127034Y-2636164D01*
X8115046Y-2642108D01*
X8103971Y-2649524D01*
X8093913Y-2658313D01*
X8085124Y-2668371D01*
X8077708Y-2679446D01*
X8071764Y-2691434D01*
X8067497Y-2704084D01*
X8064906Y-2717190D01*
X8063992Y-2730855D01*
X8063992Y-2780944D01*
X8064906Y-2794609D01*
X8067497Y-2807716D01*
X8071764Y-2820365D01*
X8077708Y-2832354D01*
X8085124Y-2843428D01*
X8093913Y-2853486D01*
X8103971Y-2862275D01*
X8115046Y-2869692D01*
X8127034Y-2875635D01*
X8139684Y-2879902D01*
X8152790Y-2882493D01*
X8166100Y-2883408D01*
X8179409Y-2882493D01*
X8192516Y-2879902D01*
X8205165Y-2875635D01*
X8217153Y-2869692D01*
X8225688Y-2864002D01*
X8229650Y-2862427D01*
X8233867Y-2862630D01*
X8237677Y-2864510D01*
X8240369Y-2867761D01*
X8241487Y-2871876D01*
X8240826Y-2876092D01*
X8238490Y-2879648D01*
X8161070Y-2957118D01*
X8157768Y-2959303D01*
X8153857Y-2960065D01*
X7893558Y-2960065D01*
X7890509Y-2959608D01*
X7887766Y-2958236D01*
X7879080Y-2952191D01*
X7870190Y-2948025D01*
X7860690Y-2945485D01*
X7850886Y-2944622D01*
X7841081Y-2945485D01*
X7831581Y-2948025D01*
X7822692Y-2952191D01*
X7814665Y-2957779D01*
X7807706Y-2964738D01*
X7802067Y-2972816D01*
X7797901Y-2981706D01*
X7795361Y-2991205D01*
X7794498Y-3001010D01*
X7795361Y-3010763D01*
X7797901Y-3020263D01*
X7802067Y-3029153D01*
X7807706Y-3037230D01*
X7814665Y-3044190D01*
X7822692Y-3049778D01*
X7831581Y-3053943D01*
X7841081Y-3056483D01*
G37*
G36*
X7404100Y-2883408D02*
G01*
X7417409Y-2882493D01*
X7430516Y-2879902D01*
X7443165Y-2875635D01*
X7455153Y-2869692D01*
X7466228Y-2862275D01*
X7476286Y-2853486D01*
X7485075Y-2843428D01*
X7492492Y-2832354D01*
X7498435Y-2820365D01*
X7502702Y-2807716D01*
X7505293Y-2794609D01*
X7506208Y-2780944D01*
X7506208Y-2730855D01*
X7505293Y-2717190D01*
X7502702Y-2704084D01*
X7498435Y-2691434D01*
X7492492Y-2679446D01*
X7485075Y-2668371D01*
X7476286Y-2658313D01*
X7466228Y-2649524D01*
X7455153Y-2642108D01*
X7443165Y-2636164D01*
X7430516Y-2631897D01*
X7417409Y-2629306D01*
X7404100Y-2628392D01*
X7390790Y-2629306D01*
X7377684Y-2631897D01*
X7365034Y-2636164D01*
X7353046Y-2642108D01*
X7341971Y-2649524D01*
X7331913Y-2658313D01*
X7323124Y-2668371D01*
X7315708Y-2679446D01*
X7309764Y-2691434D01*
X7305497Y-2704084D01*
X7302906Y-2717190D01*
X7301992Y-2730855D01*
X7301992Y-2780944D01*
X7302906Y-2794609D01*
X7305497Y-2807716D01*
X7309764Y-2820365D01*
X7315708Y-2832354D01*
X7323124Y-2843428D01*
X7331913Y-2853486D01*
X7341971Y-2862275D01*
X7353046Y-2869692D01*
X7365034Y-2875635D01*
X7377684Y-2879902D01*
X7390790Y-2882493D01*
G37*
G36*
X7912100Y-2883408D02*
G01*
X7925409Y-2882493D01*
X7938516Y-2879902D01*
X7951165Y-2875635D01*
X7963153Y-2869692D01*
X7974228Y-2862275D01*
X7984286Y-2853486D01*
X7993075Y-2843428D01*
X8000492Y-2832354D01*
X8006435Y-2820365D01*
X8010702Y-2807716D01*
X8013293Y-2794609D01*
X8014208Y-2780944D01*
X8014208Y-2730855D01*
X8013293Y-2717190D01*
X8010702Y-2704084D01*
X8006435Y-2691434D01*
X8000492Y-2679446D01*
X7993075Y-2668371D01*
X7984286Y-2658313D01*
X7974228Y-2649524D01*
X7963153Y-2642108D01*
X7951165Y-2636164D01*
X7938516Y-2631897D01*
X7925409Y-2629306D01*
X7912100Y-2628392D01*
X7898790Y-2629306D01*
X7885684Y-2631897D01*
X7873034Y-2636164D01*
X7861046Y-2642108D01*
X7849971Y-2649524D01*
X7839913Y-2658313D01*
X7831124Y-2668371D01*
X7823708Y-2679446D01*
X7817764Y-2691434D01*
X7813497Y-2704084D01*
X7810906Y-2717190D01*
X7809992Y-2730855D01*
X7809992Y-2780944D01*
X7810906Y-2794609D01*
X7813497Y-2807716D01*
X7817764Y-2820365D01*
X7823708Y-2832354D01*
X7831124Y-2843428D01*
X7839913Y-2853486D01*
X7849971Y-2862275D01*
X7861046Y-2869692D01*
X7873034Y-2875635D01*
X7885684Y-2879902D01*
X7898790Y-2882493D01*
G37*
G36*
X7658100Y-2883408D02*
G01*
X7671409Y-2882493D01*
X7684516Y-2879902D01*
X7697165Y-2875635D01*
X7709153Y-2869692D01*
X7720228Y-2862275D01*
X7730286Y-2853486D01*
X7739075Y-2843428D01*
X7746492Y-2832354D01*
X7752435Y-2820365D01*
X7756702Y-2807716D01*
X7759293Y-2794609D01*
X7760208Y-2780944D01*
X7760208Y-2730855D01*
X7759293Y-2717190D01*
X7756702Y-2704084D01*
X7752435Y-2691434D01*
X7746492Y-2679446D01*
X7739075Y-2668371D01*
X7730286Y-2658313D01*
X7720228Y-2649524D01*
X7709153Y-2642108D01*
X7697165Y-2636164D01*
X7684516Y-2631897D01*
X7671409Y-2629306D01*
X7658100Y-2628392D01*
X7644790Y-2629306D01*
X7631684Y-2631897D01*
X7619034Y-2636164D01*
X7607046Y-2642108D01*
X7595971Y-2649524D01*
X7585913Y-2658313D01*
X7577124Y-2668371D01*
X7569708Y-2679446D01*
X7563764Y-2691434D01*
X7559497Y-2704084D01*
X7556906Y-2717190D01*
X7555992Y-2730855D01*
X7555992Y-2780944D01*
X7556906Y-2794609D01*
X7559497Y-2807716D01*
X7563764Y-2820365D01*
X7569708Y-2832354D01*
X7577124Y-2843428D01*
X7585913Y-2853486D01*
X7595971Y-2862275D01*
X7607046Y-2869692D01*
X7619034Y-2875635D01*
X7631684Y-2879902D01*
X7644790Y-2882493D01*
G37*

%LPD*%
G36*
X5966968Y-6425692D02*
G01*
X5963056Y-6424930D01*
X5959805Y-6422694D01*
X5957570Y-6419443D01*
X5956808Y-6415532D01*
X5956808Y-2093468D01*
X5957570Y-2089556D01*
X5959805Y-2086305D01*
X5963056Y-2084070D01*
X5966968Y-2083307D01*
X12143232Y-2083307D01*
X12147143Y-2084070D01*
X12150394Y-2086305D01*
X12152630Y-2089556D01*
X12153392Y-2093468D01*
X12153392Y-3374237D01*
X12152630Y-3378098D01*
X12150394Y-3381400D01*
X12147143Y-3383584D01*
X12143232Y-3384397D01*
X12139320Y-3383584D01*
X12136069Y-3381400D01*
X12133834Y-3378098D01*
X12131446Y-3372307D01*
X12123521Y-3357981D01*
X12114072Y-3344621D01*
X12103150Y-3332429D01*
X12090958Y-3321558D01*
X12077598Y-3312058D01*
X12063323Y-3304184D01*
X12048185Y-3297885D01*
X12032488Y-3293364D01*
X12016333Y-3290620D01*
X12000026Y-3289706D01*
X11983669Y-3290620D01*
X11967514Y-3293364D01*
X11951817Y-3297885D01*
X11936679Y-3304184D01*
X11922404Y-3312058D01*
X11909044Y-3321558D01*
X11896852Y-3332429D01*
X11887809Y-3342589D01*
X11884558Y-3344976D01*
X11880596Y-3345942D01*
X11876582Y-3345281D01*
X11873179Y-3343097D01*
X11870893Y-3339795D01*
X11870080Y-3335782D01*
X11870080Y-3244037D01*
X11869877Y-3239363D01*
X11869267Y-3234994D01*
X11868302Y-3230626D01*
X11866981Y-3226409D01*
X11865305Y-3222294D01*
X11863222Y-3218383D01*
X11860834Y-3214624D01*
X11858142Y-3211068D01*
X11854992Y-3207664D01*
X11163909Y-2516581D01*
X11160506Y-2513431D01*
X11156950Y-2510739D01*
X11153190Y-2508351D01*
X11149279Y-2506268D01*
X11145164Y-2504592D01*
X11140948Y-2503271D01*
X11136579Y-2502306D01*
X11132210Y-2501696D01*
X11127536Y-2501493D01*
X6845808Y-2501493D01*
X6841134Y-2501696D01*
X6836765Y-2502306D01*
X6832396Y-2503271D01*
X6828180Y-2504592D01*
X6824065Y-2506268D01*
X6820153Y-2508351D01*
X6816394Y-2510739D01*
X6812838Y-2513431D01*
X6809435Y-2516581D01*
X6692087Y-2633929D01*
X6688988Y-2636012D01*
X6685330Y-2636875D01*
X6681622Y-2636367D01*
X6668516Y-2631897D01*
X6655409Y-2629306D01*
X6642100Y-2628392D01*
X6628790Y-2629306D01*
X6615684Y-2631897D01*
X6603034Y-2636164D01*
X6591046Y-2642108D01*
X6579971Y-2649524D01*
X6569913Y-2658313D01*
X6561124Y-2668371D01*
X6553708Y-2679446D01*
X6547764Y-2691434D01*
X6543497Y-2704084D01*
X6540906Y-2717190D01*
X6539992Y-2730855D01*
X6539992Y-2780944D01*
X6540906Y-2794609D01*
X6543497Y-2807716D01*
X6547764Y-2820365D01*
X6553708Y-2832354D01*
X6561124Y-2843428D01*
X6569913Y-2853486D01*
X6579971Y-2862275D01*
X6591046Y-2869692D01*
X6603034Y-2875635D01*
X6615684Y-2879902D01*
X6628790Y-2882493D01*
X6642100Y-2883408D01*
X6655409Y-2882493D01*
X6668516Y-2879902D01*
X6681165Y-2875635D01*
X6693153Y-2869692D01*
X6704228Y-2862275D01*
X6714286Y-2853486D01*
X6723075Y-2843428D01*
X6730492Y-2832354D01*
X6736435Y-2820365D01*
X6740702Y-2807716D01*
X6743293Y-2794609D01*
X6744208Y-2780944D01*
X6744208Y-2730703D01*
X6744817Y-2726436D01*
X6747154Y-2722829D01*
X6782917Y-2687066D01*
X6786727Y-2684678D01*
X6791198Y-2684170D01*
X6795465Y-2685643D01*
X6798665Y-2688793D01*
X6800189Y-2693060D01*
X6799732Y-2697530D01*
X6797497Y-2704084D01*
X6794906Y-2717190D01*
X6793992Y-2730855D01*
X6793992Y-2780944D01*
X6794906Y-2794609D01*
X6797497Y-2807716D01*
X6801764Y-2820365D01*
X6807708Y-2832354D01*
X6815124Y-2843428D01*
X6823913Y-2853486D01*
X6833971Y-2862275D01*
X6845046Y-2869692D01*
X6857034Y-2875635D01*
X6869684Y-2879902D01*
X6882790Y-2882493D01*
X6896100Y-2883408D01*
X6909409Y-2882493D01*
X6922516Y-2879902D01*
X6935622Y-2875432D01*
X6939330Y-2874924D01*
X6942988Y-2875788D01*
X6946087Y-2877870D01*
X7489291Y-3421126D01*
X7492746Y-3424275D01*
X7496251Y-3426968D01*
X7500010Y-3429355D01*
X7503972Y-3431387D01*
X7508036Y-3433114D01*
X7512303Y-3434435D01*
X7516622Y-3435400D01*
X7521041Y-3435959D01*
X7525664Y-3436162D01*
X9769703Y-3436162D01*
X9773564Y-3436924D01*
X9776866Y-3439160D01*
X11301171Y-4963464D01*
X11304574Y-4966614D01*
X11308130Y-4969306D01*
X11311890Y-4971694D01*
X11315801Y-4973726D01*
X11319916Y-4975453D01*
X11324132Y-4976774D01*
X11328501Y-4977739D01*
X11332870Y-4978298D01*
X11337544Y-4978501D01*
X11812828Y-4978501D01*
X11816588Y-4979263D01*
X11819839Y-4981346D01*
X11822379Y-4983784D01*
X11824716Y-4987137D01*
X11825528Y-4991100D01*
X11824716Y-4995062D01*
X11822379Y-4998415D01*
X11819839Y-5000853D01*
X11816588Y-5002936D01*
X11812828Y-5003698D01*
X10529519Y-5003698D01*
X10525607Y-5002936D01*
X10522356Y-5000701D01*
X9918344Y-4396740D01*
X9914940Y-4393590D01*
X9911384Y-4390898D01*
X9905136Y-4387189D01*
X9902240Y-4384903D01*
X9900310Y-4381804D01*
X9899650Y-4378147D01*
X9899650Y-4337050D01*
X9847326Y-4337050D01*
X9849764Y-4344365D01*
X9855708Y-4356354D01*
X9862058Y-4365853D01*
X9863632Y-4369917D01*
X9863378Y-4374286D01*
X9861346Y-4378096D01*
X9857841Y-4380738D01*
X9853625Y-4381652D01*
X9780574Y-4381652D01*
X9776358Y-4380738D01*
X9772853Y-4378096D01*
X9770821Y-4374286D01*
X9770567Y-4369917D01*
X9772142Y-4365853D01*
X9778492Y-4356354D01*
X9784435Y-4344365D01*
X9788702Y-4331716D01*
X9791293Y-4318609D01*
X9792208Y-4304944D01*
X9792208Y-4254855D01*
X9791293Y-4241190D01*
X9788702Y-4228084D01*
X9784435Y-4215434D01*
X9778492Y-4203446D01*
X9771075Y-4192371D01*
X9762286Y-4182313D01*
X9752228Y-4173524D01*
X9741154Y-4166108D01*
X9729165Y-4160164D01*
X9716516Y-4155897D01*
X9703409Y-4153306D01*
X9690100Y-4152392D01*
X9676790Y-4153306D01*
X9663684Y-4155897D01*
X9651034Y-4160164D01*
X9639046Y-4166108D01*
X9627971Y-4173524D01*
X9617913Y-4182313D01*
X9609124Y-4192371D01*
X9601708Y-4203446D01*
X9595764Y-4215434D01*
X9591497Y-4228084D01*
X9588906Y-4241190D01*
X9587992Y-4254855D01*
X9587992Y-4304944D01*
X9588906Y-4318609D01*
X9591497Y-4331716D01*
X9595764Y-4344365D01*
X9601708Y-4356354D01*
X9608058Y-4365853D01*
X9609632Y-4369917D01*
X9609378Y-4374286D01*
X9607346Y-4378096D01*
X9603841Y-4380738D01*
X9599625Y-4381652D01*
X9526574Y-4381652D01*
X9522358Y-4380738D01*
X9518853Y-4378096D01*
X9516821Y-4374286D01*
X9516567Y-4369917D01*
X9518142Y-4365853D01*
X9524492Y-4356354D01*
X9530435Y-4344365D01*
X9534702Y-4331716D01*
X9537293Y-4318609D01*
X9538208Y-4304944D01*
X9538208Y-4254855D01*
X9537293Y-4241190D01*
X9534702Y-4228084D01*
X9530435Y-4215434D01*
X9524492Y-4203446D01*
X9517075Y-4192371D01*
X9508286Y-4182313D01*
X9498228Y-4173524D01*
X9487154Y-4166108D01*
X9475165Y-4160164D01*
X9462516Y-4155897D01*
X9449409Y-4153306D01*
X9436100Y-4152392D01*
X9422790Y-4153306D01*
X9409684Y-4155897D01*
X9396577Y-4160367D01*
X9392869Y-4160875D01*
X9389211Y-4160012D01*
X9386112Y-4157929D01*
X9324644Y-4096461D01*
X9321241Y-4093311D01*
X9317685Y-4090619D01*
X9313926Y-4088231D01*
X9310014Y-4086148D01*
X9305899Y-4084472D01*
X9301683Y-4083151D01*
X9297314Y-4082186D01*
X9292945Y-4081576D01*
X9288272Y-4081373D01*
X7828889Y-4081373D01*
X7824571Y-4080459D01*
X7822234Y-4079341D01*
X7812735Y-4076801D01*
X7802930Y-4075937D01*
X7793126Y-4076801D01*
X7783626Y-4079341D01*
X7774736Y-4083507D01*
X7766710Y-4089095D01*
X7759750Y-4096054D01*
X7754112Y-4104132D01*
X7749946Y-4113022D01*
X7747406Y-4122521D01*
X7746542Y-4132326D01*
X7747406Y-4142079D01*
X7749946Y-4151579D01*
X7754112Y-4160469D01*
X7759750Y-4168546D01*
X7766710Y-4175506D01*
X7774736Y-4181094D01*
X7783626Y-4185259D01*
X7793126Y-4187799D01*
X7802930Y-4188663D01*
X7813598Y-4187748D01*
X7817002Y-4188002D01*
X7820101Y-4189425D01*
X7822996Y-4192270D01*
X7824622Y-4195572D01*
X7824978Y-4199280D01*
X7823962Y-4202836D01*
X7817764Y-4215434D01*
X7813497Y-4228084D01*
X7810906Y-4241190D01*
X7809992Y-4254855D01*
X7809992Y-4304944D01*
X7810906Y-4318609D01*
X7813497Y-4331716D01*
X7817764Y-4344365D01*
X7823708Y-4356354D01*
X7830058Y-4365853D01*
X7831632Y-4369917D01*
X7831378Y-4374286D01*
X7829346Y-4378096D01*
X7825841Y-4380738D01*
X7821625Y-4381652D01*
X7748574Y-4381652D01*
X7744358Y-4380738D01*
X7740853Y-4378096D01*
X7738821Y-4374286D01*
X7738567Y-4369917D01*
X7740142Y-4365853D01*
X7746492Y-4356354D01*
X7752435Y-4344365D01*
X7756702Y-4331716D01*
X7759293Y-4318609D01*
X7760208Y-4304944D01*
X7760208Y-4254855D01*
X7759293Y-4241190D01*
X7756702Y-4228084D01*
X7752435Y-4215434D01*
X7746492Y-4203446D01*
X7739075Y-4192371D01*
X7730286Y-4182313D01*
X7720228Y-4173524D01*
X7709153Y-4166108D01*
X7697165Y-4160164D01*
X7684516Y-4155897D01*
X7671409Y-4153306D01*
X7658100Y-4152392D01*
X7644790Y-4153306D01*
X7631684Y-4155897D01*
X7619034Y-4160164D01*
X7607046Y-4166108D01*
X7595971Y-4173524D01*
X7585913Y-4182313D01*
X7577124Y-4192371D01*
X7569708Y-4203446D01*
X7563764Y-4215434D01*
X7559497Y-4228084D01*
X7556906Y-4241190D01*
X7555992Y-4254855D01*
X7555992Y-4304944D01*
X7556906Y-4318609D01*
X7559497Y-4331716D01*
X7563764Y-4344365D01*
X7569708Y-4356354D01*
X7576058Y-4365853D01*
X7577632Y-4369917D01*
X7577378Y-4374286D01*
X7575346Y-4378096D01*
X7571841Y-4380738D01*
X7567625Y-4381652D01*
X7494574Y-4381652D01*
X7490358Y-4380738D01*
X7486853Y-4378096D01*
X7484821Y-4374286D01*
X7484567Y-4369917D01*
X7486142Y-4365853D01*
X7492492Y-4356354D01*
X7498435Y-4344365D01*
X7502702Y-4331716D01*
X7505293Y-4318609D01*
X7506208Y-4304944D01*
X7506208Y-4254855D01*
X7505293Y-4241190D01*
X7502702Y-4228084D01*
X7498435Y-4215434D01*
X7492492Y-4203446D01*
X7485075Y-4192371D01*
X7476286Y-4182313D01*
X7466228Y-4173524D01*
X7455153Y-4166108D01*
X7443165Y-4160164D01*
X7430516Y-4155897D01*
X7417409Y-4153306D01*
X7404100Y-4152392D01*
X7390790Y-4153306D01*
X7377684Y-4155897D01*
X7365034Y-4160164D01*
X7353046Y-4166108D01*
X7341971Y-4173524D01*
X7331913Y-4182313D01*
X7323124Y-4192371D01*
X7315708Y-4203446D01*
X7309764Y-4215434D01*
X7305497Y-4228084D01*
X7302906Y-4241190D01*
X7301992Y-4254855D01*
X7301992Y-4304944D01*
X7302906Y-4318609D01*
X7305497Y-4331716D01*
X7309764Y-4344365D01*
X7315708Y-4356354D01*
X7322058Y-4365853D01*
X7323632Y-4369917D01*
X7323378Y-4374286D01*
X7321346Y-4378096D01*
X7317841Y-4380738D01*
X7313625Y-4381652D01*
X7240574Y-4381652D01*
X7236358Y-4380738D01*
X7232853Y-4378096D01*
X7230821Y-4374286D01*
X7230567Y-4369917D01*
X7232142Y-4365853D01*
X7238492Y-4356354D01*
X7244435Y-4344365D01*
X7248702Y-4331716D01*
X7251293Y-4318609D01*
X7252208Y-4304944D01*
X7252208Y-4254855D01*
X7251293Y-4241190D01*
X7248702Y-4228084D01*
X7244435Y-4215434D01*
X7238492Y-4203446D01*
X7231075Y-4192371D01*
X7222286Y-4182313D01*
X7212228Y-4173524D01*
X7201153Y-4166108D01*
X7189165Y-4160164D01*
X7176516Y-4155897D01*
X7163409Y-4153306D01*
X7150100Y-4152392D01*
X7136790Y-4153306D01*
X7123684Y-4155897D01*
X7111034Y-4160164D01*
X7099046Y-4166108D01*
X7087971Y-4173524D01*
X7077913Y-4182313D01*
X7069124Y-4192371D01*
X7061708Y-4203446D01*
X7055764Y-4215434D01*
X7051497Y-4228084D01*
X7048906Y-4241190D01*
X7047992Y-4254855D01*
X7047992Y-4304944D01*
X7048906Y-4318609D01*
X7051497Y-4331716D01*
X7055764Y-4344365D01*
X7061708Y-4356354D01*
X7068058Y-4365853D01*
X7069632Y-4369917D01*
X7069378Y-4374286D01*
X7067346Y-4378096D01*
X7063841Y-4380738D01*
X7059625Y-4381652D01*
X6986574Y-4381652D01*
X6982358Y-4380738D01*
X6978853Y-4378096D01*
X6976821Y-4374286D01*
X6976567Y-4369917D01*
X6978142Y-4365853D01*
X6984492Y-4356354D01*
X6990435Y-4344365D01*
X6994702Y-4331716D01*
X6997293Y-4318609D01*
X6998208Y-4304944D01*
X6998208Y-4254855D01*
X6997293Y-4241190D01*
X6994702Y-4228084D01*
X6990435Y-4215434D01*
X6984492Y-4203446D01*
X6977075Y-4192371D01*
X6968286Y-4182313D01*
X6958228Y-4173524D01*
X6947153Y-4166108D01*
X6935165Y-4160164D01*
X6922516Y-4155897D01*
X6909409Y-4153306D01*
X6896100Y-4152392D01*
X6882790Y-4153306D01*
X6869684Y-4155897D01*
X6857034Y-4160164D01*
X6845046Y-4166108D01*
X6833971Y-4173524D01*
X6823913Y-4182313D01*
X6815124Y-4192371D01*
X6807708Y-4203446D01*
X6801764Y-4215434D01*
X6797497Y-4228084D01*
X6794906Y-4241190D01*
X6793992Y-4254855D01*
X6793992Y-4304944D01*
X6794906Y-4318609D01*
X6797497Y-4331716D01*
X6799732Y-4338269D01*
X6800189Y-4342739D01*
X6798665Y-4347006D01*
X6795465Y-4350156D01*
X6791198Y-4351629D01*
X6786727Y-4351121D01*
X6782917Y-4348734D01*
X6747154Y-4312970D01*
X6744817Y-4309364D01*
X6744208Y-4304944D01*
X6744208Y-4254855D01*
X6743293Y-4241190D01*
X6740702Y-4228084D01*
X6736435Y-4215434D01*
X6730492Y-4203446D01*
X6723075Y-4192371D01*
X6714286Y-4182313D01*
X6704228Y-4173524D01*
X6693153Y-4166108D01*
X6681165Y-4160164D01*
X6668516Y-4155897D01*
X6655409Y-4153306D01*
X6642100Y-4152392D01*
X6628790Y-4153306D01*
X6615684Y-4155897D01*
X6603034Y-4160164D01*
X6591046Y-4166108D01*
X6579971Y-4173524D01*
X6569913Y-4182313D01*
X6561124Y-4192371D01*
X6553708Y-4203446D01*
X6547764Y-4215434D01*
X6543497Y-4228084D01*
X6540906Y-4241190D01*
X6539992Y-4254855D01*
X6539992Y-4304944D01*
X6540906Y-4318609D01*
X6543497Y-4331716D01*
X6547764Y-4344365D01*
X6553708Y-4356354D01*
X6561124Y-4367428D01*
X6569913Y-4377486D01*
X6579971Y-4386275D01*
X6591046Y-4393692D01*
X6603034Y-4399635D01*
X6615684Y-4403902D01*
X6628790Y-4406493D01*
X6642100Y-4407408D01*
X6655409Y-4406493D01*
X6668516Y-4403902D01*
X6681622Y-4399432D01*
X6685330Y-4398924D01*
X6688988Y-4399788D01*
X6692087Y-4401870D01*
X6758635Y-4468418D01*
X6762038Y-4471568D01*
X6765594Y-4474260D01*
X6769353Y-4476648D01*
X6773265Y-4478731D01*
X6777380Y-4480407D01*
X6781596Y-4481728D01*
X6785965Y-4482693D01*
X6790334Y-4483303D01*
X6795008Y-4483506D01*
X9194647Y-4483506D01*
X9198508Y-4484268D01*
X9201810Y-4486452D01*
X9203994Y-4489754D01*
X9204807Y-4493666D01*
X9204807Y-4721606D01*
X9205518Y-4727956D01*
X9207398Y-4733391D01*
X9210497Y-4738319D01*
X9214612Y-4742383D01*
X9219488Y-4745482D01*
X9224924Y-4747412D01*
X9231274Y-4748123D01*
X9590125Y-4748123D01*
X9596475Y-4747412D01*
X9601911Y-4745482D01*
X9606788Y-4742383D01*
X9610902Y-4738319D01*
X9614001Y-4733391D01*
X9615881Y-4727956D01*
X9616592Y-4721606D01*
X9616592Y-4682591D01*
X9617405Y-4678680D01*
X9619589Y-4675378D01*
X9622891Y-4673193D01*
X9626752Y-4672431D01*
X9630664Y-4673193D01*
X9633966Y-4675378D01*
X9701377Y-4742840D01*
X9703612Y-4746142D01*
X9704374Y-4750003D01*
X9704374Y-5038140D01*
X9703612Y-5042001D01*
X9701377Y-5045303D01*
X9698075Y-5047538D01*
X9694214Y-5048300D01*
X9691674Y-5048300D01*
X9688017Y-5047589D01*
X9684867Y-5045659D01*
X9682581Y-5042712D01*
X9681565Y-5039106D01*
X9680752Y-5031028D01*
X9678466Y-5023358D01*
X9674656Y-5016296D01*
X9669576Y-5010099D01*
X9663379Y-5005019D01*
X9656318Y-5001209D01*
X9648647Y-4998923D01*
X9640214Y-4998059D01*
X8717737Y-4998059D01*
X8713825Y-4997297D01*
X8710523Y-4995113D01*
X8672068Y-4956606D01*
X8669883Y-4953406D01*
X8669070Y-4949596D01*
X8673185Y-4931867D01*
X8674506Y-4918303D01*
X8674049Y-4904689D01*
X8671814Y-4891227D01*
X8667750Y-4878222D01*
X8662009Y-4865827D01*
X8654694Y-4854346D01*
X8645906Y-4843932D01*
X8635746Y-4834788D01*
X8624519Y-4827066D01*
X8612378Y-4820920D01*
X8599474Y-4816449D01*
X8586114Y-4813706D01*
X8572500Y-4812792D01*
X8558885Y-4813706D01*
X8545525Y-4816449D01*
X8532622Y-4820920D01*
X8520480Y-4827066D01*
X8509254Y-4834788D01*
X8499094Y-4843932D01*
X8490305Y-4854346D01*
X8482990Y-4865827D01*
X8477250Y-4878222D01*
X8473186Y-4891227D01*
X8470950Y-4904689D01*
X8470493Y-4918303D01*
X8471814Y-4931867D01*
X8475014Y-4945126D01*
X8479891Y-4957876D01*
X8486444Y-4969814D01*
X8494522Y-4980787D01*
X8504021Y-4990592D01*
X8514740Y-4999075D01*
X8526475Y-5006035D01*
X8539022Y-5011318D01*
X8552180Y-5014925D01*
X8565692Y-5016754D01*
X8579307Y-5016754D01*
X8592820Y-5014925D01*
X8604300Y-5011775D01*
X8607806Y-5011470D01*
X8611260Y-5012385D01*
X8614156Y-5014417D01*
X8667292Y-5067554D01*
X8673896Y-5072938D01*
X8680958Y-5076748D01*
X8688628Y-5079034D01*
X8697061Y-5079898D01*
X9089644Y-5079898D01*
X9093504Y-5080660D01*
X9096806Y-5082844D01*
X9099042Y-5086146D01*
X9099804Y-5090058D01*
X9099804Y-5130342D01*
X9146844Y-5130342D01*
X9146844Y-5090058D01*
X9147606Y-5086146D01*
X9149842Y-5082844D01*
X9153144Y-5080660D01*
X9157004Y-5079898D01*
X9204401Y-5079898D01*
X9208262Y-5080660D01*
X9211564Y-5082844D01*
X9213799Y-5086146D01*
X9214561Y-5090058D01*
X9214561Y-5130342D01*
X9261602Y-5130342D01*
X9261602Y-5090058D01*
X9262364Y-5086146D01*
X9264599Y-5082844D01*
X9267901Y-5080660D01*
X9271762Y-5079898D01*
X9319615Y-5079898D01*
X9323527Y-5080660D01*
X9326829Y-5082844D01*
X9329013Y-5086146D01*
X9329775Y-5090058D01*
X9329775Y-5323636D01*
X9330486Y-5329936D01*
X9332417Y-5335422D01*
X9337751Y-5343652D01*
X9338513Y-5347512D01*
X9337751Y-5351424D01*
X9335516Y-5354726D01*
X9332214Y-5356910D01*
X9328353Y-5357672D01*
X9263075Y-5357672D01*
X9259163Y-5356910D01*
X9255861Y-5354726D01*
X9253677Y-5351424D01*
X9252915Y-5347512D01*
X9253677Y-5343652D01*
X9258960Y-5335422D01*
X9260890Y-5329936D01*
X9261602Y-5323636D01*
X9261602Y-5268061D01*
X9214561Y-5268061D01*
X9214561Y-5347512D01*
X9213799Y-5351424D01*
X9211564Y-5354726D01*
X9208262Y-5356910D01*
X9204401Y-5357672D01*
X9157004Y-5357672D01*
X9153144Y-5356910D01*
X9149842Y-5354726D01*
X9147606Y-5351424D01*
X9146844Y-5347512D01*
X9146844Y-5268061D01*
X9099804Y-5268061D01*
X9099804Y-5323636D01*
X9100515Y-5329936D01*
X9102394Y-5335422D01*
X9107728Y-5343652D01*
X9108490Y-5347512D01*
X9107728Y-5351424D01*
X9105544Y-5354726D01*
X9102242Y-5356910D01*
X9098330Y-5357672D01*
X7776413Y-5357672D01*
X7773416Y-5357215D01*
X7770672Y-5355894D01*
X7768437Y-5353812D01*
X7763764Y-5347766D01*
X7754620Y-5338978D01*
X7744358Y-5331510D01*
X7733182Y-5325567D01*
X7721295Y-5321249D01*
X7708493Y-5318556D01*
X7696200Y-5317693D01*
X7683550Y-5318607D01*
X7671155Y-5321249D01*
X7659217Y-5325567D01*
X7648041Y-5331510D01*
X7637780Y-5338978D01*
X7628686Y-5347766D01*
X7620863Y-5357774D01*
X7614513Y-5368747D01*
X7609789Y-5380532D01*
X7606690Y-5392826D01*
X7605369Y-5405424D01*
X7605826Y-5418124D01*
X7608011Y-5430570D01*
X7611922Y-5442661D01*
X7617510Y-5454040D01*
X7624572Y-5464556D01*
X7633055Y-5473954D01*
X7642809Y-5482132D01*
X7653528Y-5488838D01*
X7665110Y-5494020D01*
X7677302Y-5497474D01*
X7689850Y-5499252D01*
X7702550Y-5499252D01*
X7715097Y-5497474D01*
X7727289Y-5494020D01*
X7738872Y-5488838D01*
X7749641Y-5482132D01*
X7759344Y-5473954D01*
X7770469Y-5461609D01*
X7773365Y-5460034D01*
X7776616Y-5459526D01*
X8018373Y-5459526D01*
X8022285Y-5460288D01*
X8025587Y-5462524D01*
X8027771Y-5465826D01*
X8028533Y-5469737D01*
X8027720Y-5473649D01*
X8025485Y-5476951D01*
X8022132Y-5479135D01*
X8011972Y-5483148D01*
X7999222Y-5490159D01*
X7987436Y-5498693D01*
X7976819Y-5508650D01*
X7967522Y-5519877D01*
X7959750Y-5532170D01*
X7953552Y-5545328D01*
X7949031Y-5559196D01*
X7946339Y-5573471D01*
X7945424Y-5588000D01*
X7946339Y-5602528D01*
X7949031Y-5616803D01*
X7953552Y-5630672D01*
X7959750Y-5643829D01*
X7967522Y-5656122D01*
X7976819Y-5667349D01*
X7987436Y-5677306D01*
X7999222Y-5685840D01*
X8011972Y-5692851D01*
X8025485Y-5698236D01*
X8039557Y-5701842D01*
X8054035Y-5703671D01*
X8068564Y-5703671D01*
X8082991Y-5701842D01*
X8097113Y-5698236D01*
X8110626Y-5692851D01*
X8123377Y-5685840D01*
X8135162Y-5677306D01*
X8145780Y-5667349D01*
X8155025Y-5656122D01*
X8162848Y-5643829D01*
X8169046Y-5630672D01*
X8173516Y-5616803D01*
X8176259Y-5602528D01*
X8177174Y-5588000D01*
X8176259Y-5573471D01*
X8173516Y-5559196D01*
X8169046Y-5545328D01*
X8162848Y-5532170D01*
X8155025Y-5519877D01*
X8145780Y-5508650D01*
X8135162Y-5498693D01*
X8123377Y-5490159D01*
X8110626Y-5483148D01*
X8100466Y-5479135D01*
X8097113Y-5476951D01*
X8094878Y-5473649D01*
X8094065Y-5469737D01*
X8094776Y-5465826D01*
X8097012Y-5462524D01*
X8100314Y-5460288D01*
X8104225Y-5459526D01*
X8888374Y-5459526D01*
X8892286Y-5460288D01*
X8895588Y-5462524D01*
X8897823Y-5465826D01*
X8898534Y-5469737D01*
X8897721Y-5473649D01*
X8895486Y-5476951D01*
X8892133Y-5479135D01*
X8881973Y-5483148D01*
X8869222Y-5490159D01*
X8857437Y-5498693D01*
X8846820Y-5508650D01*
X8837574Y-5519877D01*
X8829751Y-5532170D01*
X8823553Y-5545328D01*
X8819083Y-5559196D01*
X8816340Y-5573471D01*
X8815425Y-5588000D01*
X8816340Y-5602528D01*
X8819083Y-5616803D01*
X8823553Y-5630672D01*
X8829751Y-5643829D01*
X8837574Y-5656122D01*
X8846820Y-5667349D01*
X8857437Y-5677306D01*
X8869222Y-5685840D01*
X8881973Y-5692851D01*
X8895486Y-5698236D01*
X8909608Y-5701842D01*
X8924036Y-5703671D01*
X8938564Y-5703671D01*
X8953042Y-5701842D01*
X8967114Y-5698236D01*
X8980627Y-5692851D01*
X8993378Y-5685840D01*
X9005163Y-5677306D01*
X9015780Y-5667349D01*
X9025077Y-5656122D01*
X9033002Y-5643626D01*
X9035237Y-5641086D01*
X9038234Y-5639460D01*
X9041587Y-5638901D01*
X9339326Y-5638901D01*
X9342983Y-5639562D01*
X9358680Y-5650433D01*
X9370822Y-5656580D01*
X9383725Y-5661050D01*
X9397085Y-5663793D01*
X9410700Y-5664708D01*
X9424314Y-5663793D01*
X9437674Y-5661050D01*
X9450578Y-5656580D01*
X9462719Y-5650433D01*
X9473946Y-5642711D01*
X9484106Y-5633567D01*
X9492894Y-5623153D01*
X9500209Y-5611672D01*
X9505950Y-5599277D01*
X9510014Y-5586272D01*
X9512249Y-5572810D01*
X9512706Y-5559196D01*
X9511385Y-5545632D01*
X9508185Y-5532374D01*
X9503308Y-5519623D01*
X9496755Y-5507685D01*
X9488678Y-5496712D01*
X9479178Y-5486908D01*
X9468459Y-5478424D01*
X9456724Y-5471464D01*
X9444177Y-5466181D01*
X9431020Y-5462574D01*
X9417507Y-5460746D01*
X9415729Y-5460746D01*
X9411817Y-5459984D01*
X9408515Y-5457748D01*
X9406331Y-5454446D01*
X9405569Y-5450586D01*
X9406331Y-5446674D01*
X9408515Y-5443423D01*
X9417558Y-5434380D01*
X9420860Y-5432145D01*
X9424720Y-5431383D01*
X9729978Y-5431383D01*
X9733889Y-5432145D01*
X9737140Y-5434380D01*
X9901224Y-5598464D01*
X9904679Y-5601614D01*
X9908184Y-5604306D01*
X9911943Y-5606694D01*
X9915906Y-5608726D01*
X9919970Y-5610453D01*
X9924237Y-5611774D01*
X9928555Y-5612739D01*
X9932974Y-5613298D01*
X9937597Y-5613501D01*
X11812828Y-5613501D01*
X11816588Y-5614263D01*
X11819839Y-5616346D01*
X11823496Y-5619800D01*
X11827865Y-5623458D01*
X11831015Y-5625744D01*
X11835892Y-5628843D01*
X11844578Y-5633161D01*
X11848084Y-5634532D01*
X11853519Y-5636310D01*
X11857329Y-5637326D01*
X11862968Y-5638393D01*
X11866727Y-5638850D01*
X11874804Y-5639308D01*
X11975795Y-5639308D01*
X11983872Y-5638850D01*
X11987631Y-5638393D01*
X11993270Y-5637326D01*
X11997080Y-5636310D01*
X12005970Y-5633161D01*
X12011202Y-5630773D01*
X12014809Y-5628792D01*
X12019635Y-5625744D01*
X12022734Y-5623458D01*
X12027154Y-5619800D01*
X12029948Y-5617159D01*
X12033910Y-5612942D01*
X12036348Y-5609996D01*
X12039752Y-5605373D01*
X12041886Y-5601970D01*
X12046305Y-5593435D01*
X12048388Y-5588101D01*
X12051030Y-5578957D01*
X12052452Y-5569305D01*
X12052706Y-5565495D01*
X12052706Y-5559704D01*
X12052452Y-5555894D01*
X12051030Y-5546242D01*
X12049556Y-5540705D01*
X12046305Y-5531764D01*
X12044629Y-5528208D01*
X12039752Y-5519826D01*
X12033961Y-5512308D01*
X12028017Y-5506212D01*
X12025884Y-5502910D01*
X12025122Y-5499100D01*
X12025884Y-5495290D01*
X12028017Y-5491988D01*
X12033961Y-5485892D01*
X12039752Y-5478373D01*
X12041886Y-5474970D01*
X12045848Y-5467350D01*
X11931599Y-5467350D01*
X11931599Y-5475732D01*
X11930837Y-5479643D01*
X11928602Y-5482894D01*
X11925350Y-5485130D01*
X11921439Y-5485892D01*
X11874804Y-5485892D01*
X11866727Y-5486349D01*
X11862968Y-5486806D01*
X11857329Y-5487873D01*
X11853621Y-5488838D01*
X11844477Y-5492038D01*
X11839397Y-5494426D01*
X11832691Y-5498388D01*
X11828678Y-5499709D01*
X11825478Y-5499404D01*
X11824665Y-5503164D01*
X11822379Y-5506466D01*
X11819839Y-5508853D01*
X11816588Y-5510936D01*
X11812828Y-5511698D01*
X9962692Y-5511698D01*
X9958781Y-5510936D01*
X9955530Y-5508701D01*
X9809175Y-5362346D01*
X9806940Y-5359095D01*
X9806178Y-5355183D01*
X9806178Y-4724958D01*
X9805974Y-4720285D01*
X9805416Y-4715916D01*
X9804450Y-4711547D01*
X9803130Y-4707331D01*
X9801402Y-4703216D01*
X9799370Y-4699304D01*
X9796983Y-4695545D01*
X9794290Y-4691989D01*
X9791141Y-4688586D01*
X9671913Y-4569358D01*
X9668459Y-4566208D01*
X9664954Y-4563516D01*
X9661194Y-4561128D01*
X9657232Y-4559046D01*
X9653168Y-4557369D01*
X9648901Y-4556048D01*
X9644583Y-4555083D01*
X9640163Y-4554474D01*
X9635540Y-4554270D01*
X9626752Y-4554270D01*
X9622891Y-4553508D01*
X9619589Y-4551324D01*
X9617405Y-4548022D01*
X9616592Y-4544110D01*
X9616592Y-4493666D01*
X9617405Y-4489754D01*
X9619589Y-4486452D01*
X9622891Y-4484268D01*
X9626752Y-4483506D01*
X9856927Y-4483506D01*
X9860788Y-4484268D01*
X9864090Y-4486452D01*
X10468051Y-5090464D01*
X10471505Y-5093614D01*
X10475010Y-5096306D01*
X10478770Y-5098694D01*
X10482732Y-5100726D01*
X10486796Y-5102453D01*
X10491063Y-5103774D01*
X10495381Y-5104739D01*
X10499801Y-5105298D01*
X10504424Y-5105501D01*
X11812828Y-5105501D01*
X11816588Y-5106263D01*
X11819839Y-5108346D01*
X11822379Y-5110734D01*
X11824665Y-5114036D01*
X11825478Y-5117896D01*
X11824766Y-5121859D01*
X11822633Y-5125161D01*
X11816638Y-5131308D01*
X11810847Y-5138826D01*
X11805970Y-5147208D01*
X11804294Y-5150764D01*
X11801043Y-5159705D01*
X11799570Y-5165242D01*
X11798147Y-5174894D01*
X11797893Y-5178704D01*
X11797893Y-5184495D01*
X11798147Y-5188305D01*
X11799570Y-5197957D01*
X11801043Y-5203494D01*
X11804294Y-5212435D01*
X11805970Y-5215991D01*
X11810847Y-5224373D01*
X11816638Y-5231892D01*
X11822582Y-5237988D01*
X11824716Y-5241290D01*
X11825478Y-5245100D01*
X11824716Y-5248910D01*
X11822582Y-5252212D01*
X11816638Y-5258308D01*
X11810847Y-5265826D01*
X11805970Y-5274208D01*
X11804294Y-5277764D01*
X11801043Y-5286705D01*
X11799570Y-5292242D01*
X11798147Y-5301894D01*
X11797893Y-5305704D01*
X11797893Y-5311495D01*
X11798147Y-5315305D01*
X11799570Y-5324957D01*
X11801043Y-5330494D01*
X11804294Y-5339435D01*
X11805970Y-5342991D01*
X11810847Y-5351373D01*
X11816638Y-5358892D01*
X11822582Y-5364988D01*
X11824716Y-5368290D01*
X11825427Y-5371795D01*
X11828678Y-5371490D01*
X11832691Y-5372811D01*
X11839498Y-5376824D01*
X11848084Y-5380532D01*
X11853519Y-5382310D01*
X11857329Y-5383326D01*
X11862968Y-5384393D01*
X11866727Y-5384850D01*
X11874804Y-5385308D01*
X11921439Y-5385308D01*
X11925350Y-5386070D01*
X11928602Y-5388305D01*
X11930837Y-5391556D01*
X11931599Y-5395468D01*
X11931599Y-5403850D01*
X12045848Y-5403850D01*
X12041835Y-5396179D01*
X12039752Y-5392826D01*
X12033961Y-5385308D01*
X12028017Y-5379212D01*
X12025884Y-5375910D01*
X12025122Y-5372100D01*
X12025884Y-5368290D01*
X12028017Y-5364988D01*
X12033961Y-5358892D01*
X12039752Y-5351373D01*
X12044629Y-5342991D01*
X12046305Y-5339435D01*
X12049556Y-5330494D01*
X12051030Y-5324957D01*
X12052452Y-5315305D01*
X12052706Y-5311495D01*
X12052706Y-5305704D01*
X12052452Y-5301894D01*
X12051030Y-5292242D01*
X12049556Y-5286705D01*
X12046305Y-5277764D01*
X12044629Y-5274208D01*
X12039752Y-5265826D01*
X12033961Y-5258308D01*
X12028017Y-5252212D01*
X12025884Y-5248910D01*
X12025122Y-5245100D01*
X12025884Y-5241290D01*
X12028017Y-5237988D01*
X12033961Y-5231892D01*
X12039752Y-5224373D01*
X12044629Y-5215991D01*
X12046305Y-5212435D01*
X12049556Y-5203494D01*
X12051030Y-5197957D01*
X12052452Y-5188305D01*
X12052706Y-5184495D01*
X12052706Y-5178704D01*
X12052452Y-5174894D01*
X12051030Y-5165242D01*
X12049556Y-5159705D01*
X12046305Y-5150764D01*
X12044629Y-5147208D01*
X12039752Y-5138826D01*
X12033961Y-5131308D01*
X12028017Y-5125212D01*
X12025884Y-5121910D01*
X12025122Y-5118100D01*
X12025884Y-5114290D01*
X12028017Y-5110988D01*
X12033961Y-5104892D01*
X12039752Y-5097373D01*
X12044629Y-5088991D01*
X12046305Y-5085435D01*
X12049556Y-5076494D01*
X12051030Y-5070957D01*
X12052452Y-5061305D01*
X12052706Y-5057495D01*
X12052706Y-5051704D01*
X12052452Y-5047894D01*
X12051030Y-5038242D01*
X12049556Y-5032705D01*
X12046305Y-5023764D01*
X12044629Y-5020208D01*
X12039752Y-5011826D01*
X12033961Y-5004308D01*
X12028017Y-4998212D01*
X12025884Y-4994910D01*
X12025122Y-4991100D01*
X12025884Y-4987290D01*
X12028017Y-4983988D01*
X12033961Y-4977892D01*
X12039752Y-4970373D01*
X12044629Y-4961991D01*
X12046305Y-4958435D01*
X12049556Y-4949494D01*
X12051030Y-4943957D01*
X12052452Y-4934305D01*
X12052706Y-4930495D01*
X12052706Y-4924704D01*
X12052452Y-4920894D01*
X12051030Y-4911242D01*
X12049556Y-4905705D01*
X12046305Y-4896764D01*
X12044629Y-4893208D01*
X12039752Y-4884826D01*
X12033961Y-4877308D01*
X12028017Y-4871212D01*
X12025884Y-4867910D01*
X12025122Y-4864100D01*
X12025884Y-4860290D01*
X12028017Y-4856988D01*
X12033961Y-4850892D01*
X12039752Y-4843373D01*
X12044629Y-4834991D01*
X12046305Y-4831435D01*
X12049556Y-4822494D01*
X12051030Y-4816957D01*
X12052452Y-4807305D01*
X12052706Y-4803495D01*
X12052706Y-4797704D01*
X12052452Y-4793894D01*
X12051030Y-4784242D01*
X12049556Y-4778705D01*
X12046305Y-4769764D01*
X12044629Y-4766208D01*
X12039752Y-4757826D01*
X12033961Y-4750308D01*
X12028017Y-4744212D01*
X12025884Y-4740910D01*
X12025122Y-4737100D01*
X12025884Y-4733290D01*
X12028017Y-4729988D01*
X12033961Y-4723892D01*
X12039752Y-4716373D01*
X12044629Y-4707991D01*
X12046305Y-4704435D01*
X12049556Y-4695494D01*
X12051030Y-4689957D01*
X12052452Y-4680305D01*
X12052706Y-4676495D01*
X12052706Y-4670704D01*
X12052452Y-4666894D01*
X12051030Y-4657242D01*
X12049556Y-4651705D01*
X12046305Y-4642764D01*
X12044629Y-4639208D01*
X12039752Y-4630826D01*
X12036348Y-4626203D01*
X12033910Y-4623257D01*
X12029948Y-4619040D01*
X12027154Y-4616399D01*
X12022734Y-4612741D01*
X12019635Y-4610455D01*
X12011304Y-4605477D01*
X12006072Y-4603038D01*
X12002414Y-4601616D01*
X11996978Y-4599838D01*
X11993270Y-4598873D01*
X11987631Y-4597806D01*
X11983872Y-4597349D01*
X11975795Y-4596892D01*
X11874804Y-4596892D01*
X11866727Y-4597349D01*
X11862968Y-4597806D01*
X11857329Y-4598873D01*
X11853621Y-4599838D01*
X11848185Y-4601616D01*
X11844528Y-4603038D01*
X11837466Y-4606493D01*
X11833555Y-4607509D01*
X11829491Y-4606848D01*
X11826036Y-4604715D01*
X11823700Y-4601362D01*
X11822887Y-4597349D01*
X11822887Y-4420209D01*
X11823649Y-4416348D01*
X11825833Y-4413046D01*
X11854992Y-4383887D01*
X11858142Y-4380484D01*
X11860834Y-4376928D01*
X11863222Y-4373168D01*
X11865305Y-4369257D01*
X11866981Y-4365142D01*
X11868302Y-4360926D01*
X11869267Y-4356557D01*
X11869877Y-4352188D01*
X11870080Y-4347514D01*
X11870080Y-3675430D01*
X11870893Y-3671417D01*
X11873179Y-3668115D01*
X11876582Y-3665931D01*
X11880596Y-3665270D01*
X11884558Y-3666236D01*
X11887809Y-3668623D01*
X11896852Y-3678783D01*
X11909044Y-3689654D01*
X11922404Y-3699154D01*
X11936679Y-3707028D01*
X11951817Y-3713327D01*
X11967514Y-3717848D01*
X11983669Y-3720592D01*
X12000026Y-3721506D01*
X12016333Y-3720592D01*
X12032488Y-3717848D01*
X12048185Y-3713327D01*
X12063323Y-3707028D01*
X12077598Y-3699154D01*
X12090958Y-3689654D01*
X12103150Y-3678783D01*
X12114072Y-3666591D01*
X12123521Y-3653231D01*
X12131446Y-3638905D01*
X12133834Y-3633114D01*
X12136069Y-3629812D01*
X12139320Y-3627628D01*
X12143232Y-3626815D01*
X12147143Y-3627628D01*
X12150394Y-3629812D01*
X12152630Y-3633114D01*
X12153392Y-3636975D01*
X12153392Y-6415532D01*
X12152630Y-6419443D01*
X12150394Y-6422694D01*
X12147143Y-6424930D01*
X12143232Y-6425692D01*
X10949178Y-6425692D01*
X10946180Y-6425234D01*
X10943437Y-6423914D01*
X10939881Y-6420154D01*
X10572292Y-6052566D01*
X10569397Y-6050076D01*
X10562945Y-6046520D01*
X10557560Y-6044996D01*
X10553293Y-6044692D01*
X7582306Y-6044692D01*
X7578496Y-6044996D01*
X7571435Y-6047028D01*
X7566558Y-6049772D01*
X7563307Y-6052566D01*
X7193127Y-6422694D01*
X7189825Y-6424930D01*
X7185964Y-6425692D01*
G37*

%LPC*%
G36*
X11853621Y-6271818D02*
G01*
X11871706Y-6270447D01*
X11889486Y-6267196D01*
X11906910Y-6262116D01*
X11923674Y-6255308D01*
X11939625Y-6246774D01*
X11954662Y-6236665D01*
X11968581Y-6225082D01*
X11981230Y-6212128D01*
X11992457Y-6197904D01*
X12002160Y-6182614D01*
X12010288Y-6166459D01*
X12016638Y-6149492D01*
X12021261Y-6131966D01*
X12024055Y-6114084D01*
X12024969Y-6096000D01*
X12024055Y-6077915D01*
X12021261Y-6060033D01*
X12016638Y-6042507D01*
X12010288Y-6025540D01*
X12002160Y-6009386D01*
X11992457Y-5994095D01*
X11981230Y-5979871D01*
X11968581Y-5966917D01*
X11954662Y-5955334D01*
X11939625Y-5945225D01*
X11923674Y-5936691D01*
X11906910Y-5929884D01*
X11889486Y-5924804D01*
X11871706Y-5921552D01*
X11853621Y-5920181D01*
X11835536Y-5920638D01*
X11817553Y-5922975D01*
X11799925Y-5927090D01*
X11782856Y-5933084D01*
X11766448Y-5940755D01*
X11750903Y-5950051D01*
X11736425Y-5960922D01*
X11723116Y-5973216D01*
X11711178Y-5986830D01*
X11700662Y-6001613D01*
X11691772Y-6017361D01*
X11684508Y-6033973D01*
X11679021Y-6051194D01*
X11675313Y-6068923D01*
X11673433Y-6086957D01*
X11673433Y-6105042D01*
X11675313Y-6123076D01*
X11679021Y-6140805D01*
X11684508Y-6158026D01*
X11691772Y-6174638D01*
X11700662Y-6190386D01*
X11711178Y-6205169D01*
X11723116Y-6218783D01*
X11736425Y-6231077D01*
X11750903Y-6241948D01*
X11766448Y-6251244D01*
X11782856Y-6258915D01*
X11799925Y-6264910D01*
X11817553Y-6269024D01*
X11835536Y-6271361D01*
G37*
G36*
X6265621Y-6271818D02*
G01*
X6283706Y-6270447D01*
X6301486Y-6267196D01*
X6318910Y-6262116D01*
X6335674Y-6255308D01*
X6351625Y-6246774D01*
X6366662Y-6236665D01*
X6380581Y-6225082D01*
X6393230Y-6212128D01*
X6404457Y-6197904D01*
X6414160Y-6182614D01*
X6422288Y-6166459D01*
X6428638Y-6149492D01*
X6433261Y-6131966D01*
X6436055Y-6114084D01*
X6436969Y-6096000D01*
X6436055Y-6077915D01*
X6433261Y-6060033D01*
X6428638Y-6042507D01*
X6422288Y-6025540D01*
X6414160Y-6009386D01*
X6404457Y-5994095D01*
X6393230Y-5979871D01*
X6380581Y-5966917D01*
X6366662Y-5955334D01*
X6351625Y-5945225D01*
X6335674Y-5936691D01*
X6318910Y-5929884D01*
X6301486Y-5924804D01*
X6283706Y-5921552D01*
X6265621Y-5920181D01*
X6247536Y-5920638D01*
X6229553Y-5922975D01*
X6211925Y-5927090D01*
X6194856Y-5933084D01*
X6178448Y-5940755D01*
X6162903Y-5950051D01*
X6148425Y-5960922D01*
X6135116Y-5973216D01*
X6123178Y-5986830D01*
X6112662Y-6001613D01*
X6103772Y-6017361D01*
X6096508Y-6033973D01*
X6091021Y-6051194D01*
X6087313Y-6068923D01*
X6085433Y-6086957D01*
X6085433Y-6105042D01*
X6087313Y-6123076D01*
X6091021Y-6140805D01*
X6096508Y-6158026D01*
X6103772Y-6174638D01*
X6112662Y-6190386D01*
X6123178Y-6205169D01*
X6135116Y-6218783D01*
X6148425Y-6231077D01*
X6162903Y-6241948D01*
X6178448Y-6251244D01*
X6194856Y-6258915D01*
X6211925Y-6264910D01*
X6229553Y-6269024D01*
X6247536Y-6271361D01*
G37*
G36*
X9620250Y-5654243D02*
G01*
X9620250Y-5607050D01*
X9573056Y-5607050D01*
X9575190Y-5611672D01*
X9582505Y-5623153D01*
X9591294Y-5633567D01*
X9601454Y-5642711D01*
X9612680Y-5650433D01*
G37*
G36*
X9709150Y-5654243D02*
G01*
X9716719Y-5650433D01*
X9727946Y-5642711D01*
X9738106Y-5633567D01*
X9746894Y-5623153D01*
X9754209Y-5611672D01*
X9756343Y-5607050D01*
X9709150Y-5607050D01*
G37*
G36*
X6807200Y-5626608D02*
G01*
X6820814Y-5625693D01*
X6834174Y-5622950D01*
X6847078Y-5618480D01*
X6859219Y-5612333D01*
X6870446Y-5604611D01*
X6880606Y-5595467D01*
X6889394Y-5585053D01*
X6896709Y-5573572D01*
X6902450Y-5561177D01*
X6906514Y-5548172D01*
X6908749Y-5534710D01*
X6909206Y-5521096D01*
X6907885Y-5507532D01*
X6904685Y-5494274D01*
X6899808Y-5481523D01*
X6893255Y-5469585D01*
X6885178Y-5458612D01*
X6875678Y-5448808D01*
X6864959Y-5440324D01*
X6853224Y-5433364D01*
X6840677Y-5428081D01*
X6827520Y-5424474D01*
X6814007Y-5422646D01*
X6800392Y-5422646D01*
X6786880Y-5424474D01*
X6773722Y-5428081D01*
X6761175Y-5433364D01*
X6749440Y-5440324D01*
X6738721Y-5448808D01*
X6729222Y-5458612D01*
X6721144Y-5469585D01*
X6714591Y-5481523D01*
X6709714Y-5494274D01*
X6706514Y-5507532D01*
X6705193Y-5521096D01*
X6705650Y-5534710D01*
X6707886Y-5548172D01*
X6711950Y-5561177D01*
X6717690Y-5573572D01*
X6725005Y-5585053D01*
X6733794Y-5595467D01*
X6743953Y-5604611D01*
X6755180Y-5612333D01*
X6767322Y-5618480D01*
X6780225Y-5622950D01*
X6793585Y-5625693D01*
G37*
G36*
X7061200Y-5626608D02*
G01*
X7074814Y-5625693D01*
X7088174Y-5622950D01*
X7101078Y-5618480D01*
X7113219Y-5612333D01*
X7124446Y-5604611D01*
X7134606Y-5595467D01*
X7143394Y-5585053D01*
X7150709Y-5573572D01*
X7156450Y-5561177D01*
X7160514Y-5548172D01*
X7162749Y-5534710D01*
X7163206Y-5521096D01*
X7161885Y-5507532D01*
X7158685Y-5494274D01*
X7153808Y-5481523D01*
X7147255Y-5469585D01*
X7139178Y-5458612D01*
X7129678Y-5448808D01*
X7118959Y-5440324D01*
X7107224Y-5433364D01*
X7094677Y-5428081D01*
X7081520Y-5424474D01*
X7068007Y-5422646D01*
X7054392Y-5422646D01*
X7040880Y-5424474D01*
X7027722Y-5428081D01*
X7015175Y-5433364D01*
X7003440Y-5440324D01*
X6992721Y-5448808D01*
X6983222Y-5458612D01*
X6975144Y-5469585D01*
X6968591Y-5481523D01*
X6963714Y-5494274D01*
X6960514Y-5507532D01*
X6959193Y-5521096D01*
X6959650Y-5534710D01*
X6961886Y-5548172D01*
X6965950Y-5561177D01*
X6971690Y-5573572D01*
X6979005Y-5585053D01*
X6987794Y-5595467D01*
X6997953Y-5604611D01*
X7009180Y-5612333D01*
X7021322Y-5618480D01*
X7034225Y-5622950D01*
X7047585Y-5625693D01*
G37*
G36*
X6299200Y-5626608D02*
G01*
X6312814Y-5625693D01*
X6326174Y-5622950D01*
X6339078Y-5618480D01*
X6351219Y-5612333D01*
X6362446Y-5604611D01*
X6372606Y-5595467D01*
X6381394Y-5585053D01*
X6388709Y-5573572D01*
X6394450Y-5561177D01*
X6398514Y-5548172D01*
X6400749Y-5534710D01*
X6401206Y-5521096D01*
X6399885Y-5507532D01*
X6396685Y-5494274D01*
X6391808Y-5481523D01*
X6385255Y-5469585D01*
X6377178Y-5458612D01*
X6367678Y-5448808D01*
X6356959Y-5440324D01*
X6345224Y-5433364D01*
X6332677Y-5428081D01*
X6319520Y-5424474D01*
X6306007Y-5422646D01*
X6292392Y-5422646D01*
X6278880Y-5424474D01*
X6265722Y-5428081D01*
X6253175Y-5433364D01*
X6241440Y-5440324D01*
X6230721Y-5448808D01*
X6221222Y-5458612D01*
X6213144Y-5469585D01*
X6206591Y-5481523D01*
X6201714Y-5494274D01*
X6198514Y-5507532D01*
X6197193Y-5521096D01*
X6197650Y-5534710D01*
X6199886Y-5548172D01*
X6203950Y-5561177D01*
X6209690Y-5573572D01*
X6217005Y-5585053D01*
X6225794Y-5595467D01*
X6235954Y-5604611D01*
X6247180Y-5612333D01*
X6259322Y-5618480D01*
X6272225Y-5622950D01*
X6285585Y-5625693D01*
G37*
G36*
X6508750Y-5616143D02*
G01*
X6508750Y-5568950D01*
X6461556Y-5568950D01*
X6463690Y-5573572D01*
X6471005Y-5585053D01*
X6479794Y-5595467D01*
X6489954Y-5604611D01*
X6501180Y-5612333D01*
G37*
G36*
X6597650Y-5616143D02*
G01*
X6605219Y-5612333D01*
X6616446Y-5604611D01*
X6626606Y-5595467D01*
X6635394Y-5585053D01*
X6642709Y-5573572D01*
X6644843Y-5568950D01*
X6597650Y-5568950D01*
G37*
G36*
X9709150Y-5518150D02*
G01*
X9756495Y-5518150D01*
X9750755Y-5507685D01*
X9742678Y-5496712D01*
X9733178Y-5486908D01*
X9722459Y-5478424D01*
X9710724Y-5471464D01*
X9709150Y-5470804D01*
G37*
G36*
X9572904Y-5518150D02*
G01*
X9620250Y-5518150D01*
X9620250Y-5470804D01*
X9618675Y-5471464D01*
X9606940Y-5478424D01*
X9596221Y-5486908D01*
X9586722Y-5496712D01*
X9578644Y-5507685D01*
G37*
G36*
X11817400Y-5486654D02*
G01*
X11817400Y-5467350D01*
X11804751Y-5467350D01*
X11808714Y-5474970D01*
X11810847Y-5478373D01*
X11814251Y-5482996D01*
G37*
G36*
X6597650Y-5480050D02*
G01*
X6644995Y-5480050D01*
X6639255Y-5469585D01*
X6631178Y-5458612D01*
X6621678Y-5448808D01*
X6610959Y-5440324D01*
X6599224Y-5433364D01*
X6597650Y-5432704D01*
G37*
G36*
X6461404Y-5480050D02*
G01*
X6508750Y-5480050D01*
X6508750Y-5432704D01*
X6507175Y-5433364D01*
X6495440Y-5440324D01*
X6484721Y-5448808D01*
X6475222Y-5458612D01*
X6467144Y-5469585D01*
G37*
G36*
X11804751Y-5403850D02*
G01*
X11817400Y-5403850D01*
X11817400Y-5384546D01*
X11814251Y-5388203D01*
X11810847Y-5392826D01*
X11805970Y-5401208D01*
G37*
G36*
X6267450Y-5324195D02*
G01*
X6267450Y-5276850D01*
X6220104Y-5276850D01*
X6220764Y-5278424D01*
X6227724Y-5290159D01*
X6236208Y-5300878D01*
X6246012Y-5310378D01*
X6256985Y-5318455D01*
G37*
G36*
X6356350Y-5324043D02*
G01*
X6360972Y-5321909D01*
X6372453Y-5314594D01*
X6382867Y-5305806D01*
X6392011Y-5295646D01*
X6399733Y-5284419D01*
X6403543Y-5276850D01*
X6356350Y-5276850D01*
G37*
G36*
X7657338Y-5290566D02*
G01*
X7657338Y-5247436D01*
X7614259Y-5247436D01*
X7617510Y-5254040D01*
X7624572Y-5264556D01*
X7633055Y-5273954D01*
X7642809Y-5282133D01*
X7653528Y-5288838D01*
G37*
G36*
X7735062Y-5290566D02*
G01*
X7738872Y-5288838D01*
X7749641Y-5282133D01*
X7759344Y-5273954D01*
X7767828Y-5264556D01*
X7774889Y-5254040D01*
X7778140Y-5247436D01*
X7735062Y-5247436D01*
G37*
G36*
X6356350Y-5187950D02*
G01*
X6403543Y-5187950D01*
X6399733Y-5180380D01*
X6392011Y-5169154D01*
X6382867Y-5158994D01*
X6372453Y-5150205D01*
X6360972Y-5142890D01*
X6356350Y-5140756D01*
G37*
G36*
X6220104Y-5187950D02*
G01*
X6267450Y-5187950D01*
X6267450Y-5140604D01*
X6256985Y-5146344D01*
X6246012Y-5154422D01*
X6236208Y-5163921D01*
X6227724Y-5174640D01*
X6220764Y-5186375D01*
G37*
G36*
X7614107Y-5169763D02*
G01*
X7657338Y-5169763D01*
X7657338Y-5126583D01*
X7648041Y-5131511D01*
X7637780Y-5138978D01*
X7628686Y-5147767D01*
X7620863Y-5157774D01*
X7614513Y-5168747D01*
G37*
G36*
X7735062Y-5169763D02*
G01*
X7778292Y-5169763D01*
X7777886Y-5168747D01*
X7771536Y-5157774D01*
X7763764Y-5147767D01*
X7754620Y-5138978D01*
X7744358Y-5131511D01*
X7735062Y-5126583D01*
G37*
G36*
X6308496Y-5080406D02*
G01*
X6322110Y-5079949D01*
X6335572Y-5077714D01*
X6348577Y-5073650D01*
X6360972Y-5067909D01*
X6372453Y-5060594D01*
X6382867Y-5051806D01*
X6392011Y-5041646D01*
X6399733Y-5030419D01*
X6405880Y-5018278D01*
X6410350Y-5005374D01*
X6413093Y-4992014D01*
X6414008Y-4978400D01*
X6413093Y-4964785D01*
X6410350Y-4951425D01*
X6405880Y-4938522D01*
X6399733Y-4926380D01*
X6392011Y-4915154D01*
X6382867Y-4904994D01*
X6372453Y-4896205D01*
X6360972Y-4888890D01*
X6348577Y-4883150D01*
X6335572Y-4879086D01*
X6322110Y-4876850D01*
X6308496Y-4876393D01*
X6294932Y-4877714D01*
X6281674Y-4880914D01*
X6268923Y-4885791D01*
X6256985Y-4892344D01*
X6246012Y-4900422D01*
X6236208Y-4909921D01*
X6227724Y-4920640D01*
X6220764Y-4932375D01*
X6215481Y-4944922D01*
X6211874Y-4958080D01*
X6210046Y-4971592D01*
X6210046Y-4985207D01*
X6211874Y-4998720D01*
X6215481Y-5011877D01*
X6220764Y-5024424D01*
X6227724Y-5036159D01*
X6236208Y-5046878D01*
X6246012Y-5056378D01*
X6256985Y-5064455D01*
X6268923Y-5071008D01*
X6281674Y-5075885D01*
X6294932Y-5079085D01*
G37*
G36*
X7664450Y-4902352D02*
G01*
X7677150Y-4902352D01*
X7689697Y-4900574D01*
X7701889Y-4897120D01*
X7713472Y-4891938D01*
X7724241Y-4885232D01*
X7733944Y-4877054D01*
X7742428Y-4867656D01*
X7749489Y-4857140D01*
X7755077Y-4845761D01*
X7758988Y-4833670D01*
X7761173Y-4821224D01*
X7761630Y-4808524D01*
X7760309Y-4795926D01*
X7757261Y-4783632D01*
X7752486Y-4771847D01*
X7746136Y-4760874D01*
X7738364Y-4750866D01*
X7729220Y-4742078D01*
X7718958Y-4734610D01*
X7707782Y-4728667D01*
X7695895Y-4724349D01*
X7683093Y-4721656D01*
X7670800Y-4720793D01*
X7657744Y-4721707D01*
X7653477Y-4721098D01*
X7649870Y-4718761D01*
X7634935Y-4703826D01*
X7632750Y-4700524D01*
X7631938Y-4696663D01*
X7631938Y-4650536D01*
X7588859Y-4650536D01*
X7592415Y-4657801D01*
X7593482Y-4661306D01*
X7593380Y-4665776D01*
X7591348Y-4669739D01*
X7587843Y-4672533D01*
X7583525Y-4673498D01*
X6405829Y-4673498D01*
X6402628Y-4672990D01*
X6399733Y-4671466D01*
X6397498Y-4669078D01*
X6392011Y-4661154D01*
X6382867Y-4650994D01*
X6372453Y-4642205D01*
X6360972Y-4634890D01*
X6348577Y-4629150D01*
X6335572Y-4625086D01*
X6322110Y-4622850D01*
X6308496Y-4622393D01*
X6294932Y-4623714D01*
X6281674Y-4626914D01*
X6268923Y-4631791D01*
X6256985Y-4638344D01*
X6246012Y-4646422D01*
X6236208Y-4655921D01*
X6227724Y-4666640D01*
X6220764Y-4678375D01*
X6215481Y-4690922D01*
X6211874Y-4704080D01*
X6210046Y-4717592D01*
X6210046Y-4731207D01*
X6211874Y-4744720D01*
X6215481Y-4757877D01*
X6220764Y-4770424D01*
X6227724Y-4782159D01*
X6236208Y-4792878D01*
X6246012Y-4802378D01*
X6256985Y-4810455D01*
X6268923Y-4817008D01*
X6281674Y-4821885D01*
X6294932Y-4825085D01*
X6308496Y-4826406D01*
X6322110Y-4825949D01*
X6335572Y-4823714D01*
X6348577Y-4819650D01*
X6360972Y-4813909D01*
X6372453Y-4806594D01*
X6382867Y-4797806D01*
X6392011Y-4787646D01*
X6397498Y-4779721D01*
X6399733Y-4777333D01*
X6402628Y-4775809D01*
X6405829Y-4775301D01*
X7558227Y-4775301D01*
X7562088Y-4776063D01*
X7565390Y-4778298D01*
X7578039Y-4790948D01*
X7580426Y-4794707D01*
X7580934Y-4799177D01*
X7579969Y-4808524D01*
X7580426Y-4821224D01*
X7582611Y-4833670D01*
X7586522Y-4845761D01*
X7592110Y-4857140D01*
X7599172Y-4867656D01*
X7607655Y-4877054D01*
X7617409Y-4885232D01*
X7628128Y-4891938D01*
X7639710Y-4897120D01*
X7651902Y-4900574D01*
G37*
G36*
X8528050Y-4752695D02*
G01*
X8528050Y-4705350D01*
X8480704Y-4705350D01*
X8486444Y-4715814D01*
X8494522Y-4726787D01*
X8504021Y-4736592D01*
X8514740Y-4745075D01*
X8526475Y-4752035D01*
G37*
G36*
X8616950Y-4752695D02*
G01*
X8618524Y-4752035D01*
X8630259Y-4745075D01*
X8640978Y-4736592D01*
X8650478Y-4726787D01*
X8658555Y-4715814D01*
X8664295Y-4705350D01*
X8616950Y-4705350D01*
G37*
G36*
X7709662Y-4693666D02*
G01*
X7713472Y-4691938D01*
X7724241Y-4685233D01*
X7733944Y-4677054D01*
X7742428Y-4667656D01*
X7749489Y-4657140D01*
X7752740Y-4650536D01*
X7709662Y-4650536D01*
G37*
G36*
X8480856Y-4616450D02*
G01*
X8528050Y-4616450D01*
X8528050Y-4569256D01*
X8520480Y-4573066D01*
X8509254Y-4580788D01*
X8499094Y-4589932D01*
X8490305Y-4600346D01*
X8482990Y-4611827D01*
G37*
G36*
X8616950Y-4616450D02*
G01*
X8664143Y-4616450D01*
X8662009Y-4611827D01*
X8654694Y-4600346D01*
X8645906Y-4589932D01*
X8635746Y-4580788D01*
X8624519Y-4573066D01*
X8616950Y-4569256D01*
G37*
G36*
X7588707Y-4572863D02*
G01*
X7631938Y-4572863D01*
X7631938Y-4529683D01*
X7622641Y-4534611D01*
X7612380Y-4542078D01*
X7603286Y-4550867D01*
X7595463Y-4560874D01*
X7589113Y-4571847D01*
G37*
G36*
X7709662Y-4572863D02*
G01*
X7752892Y-4572863D01*
X7752486Y-4571847D01*
X7746136Y-4560874D01*
X7738364Y-4550867D01*
X7729220Y-4542078D01*
X7718958Y-4534611D01*
X7709662Y-4529683D01*
G37*
G36*
X10198100Y-4407408D02*
G01*
X10211409Y-4406493D01*
X10224516Y-4403902D01*
X10237165Y-4399635D01*
X10249154Y-4393692D01*
X10260228Y-4386275D01*
X10270286Y-4377486D01*
X10279075Y-4367428D01*
X10286492Y-4356354D01*
X10292435Y-4344365D01*
X10296702Y-4331716D01*
X10299293Y-4318609D01*
X10300208Y-4304944D01*
X10300208Y-4254855D01*
X10299293Y-4241190D01*
X10296702Y-4228084D01*
X10292435Y-4215434D01*
X10286492Y-4203446D01*
X10279075Y-4192371D01*
X10270286Y-4182313D01*
X10260228Y-4173524D01*
X10249154Y-4166108D01*
X10237165Y-4160164D01*
X10224516Y-4155897D01*
X10211409Y-4153306D01*
X10198100Y-4152392D01*
X10184790Y-4153306D01*
X10171684Y-4155897D01*
X10159034Y-4160164D01*
X10147046Y-4166108D01*
X10135971Y-4173524D01*
X10125913Y-4182313D01*
X10117124Y-4192371D01*
X10109708Y-4203446D01*
X10103764Y-4215434D01*
X10099497Y-4228084D01*
X10096906Y-4241190D01*
X10095992Y-4254855D01*
X10095992Y-4304944D01*
X10096906Y-4318609D01*
X10099497Y-4331716D01*
X10103764Y-4344365D01*
X10109708Y-4356354D01*
X10117124Y-4367428D01*
X10125913Y-4377486D01*
X10135971Y-4386275D01*
X10147046Y-4393692D01*
X10159034Y-4399635D01*
X10171684Y-4403902D01*
X10184790Y-4406493D01*
G37*
G36*
X9988550Y-4396943D02*
G01*
X9995154Y-4393692D01*
X10006228Y-4386275D01*
X10016286Y-4377486D01*
X10025075Y-4367428D01*
X10032492Y-4356354D01*
X10038435Y-4344365D01*
X10040874Y-4337050D01*
X9988550Y-4337050D01*
G37*
G36*
X9988550Y-4222750D02*
G01*
X10040874Y-4222750D01*
X10038435Y-4215434D01*
X10032492Y-4203446D01*
X10025075Y-4192371D01*
X10016286Y-4182313D01*
X10006228Y-4173524D01*
X9995154Y-4166108D01*
X9988550Y-4162856D01*
G37*
G36*
X9847326Y-4222750D02*
G01*
X9899650Y-4222750D01*
X9899650Y-4162856D01*
X9893046Y-4166108D01*
X9881971Y-4173524D01*
X9871913Y-4182313D01*
X9863124Y-4192371D01*
X9855708Y-4203446D01*
X9849764Y-4215434D01*
G37*
G36*
X9258300Y-3829558D02*
G01*
X9272473Y-3828592D01*
X9286341Y-3825849D01*
X9299803Y-3821277D01*
X9312503Y-3815029D01*
X9324289Y-3807104D01*
X9334957Y-3797757D01*
X9344304Y-3787089D01*
X9352229Y-3775303D01*
X9358477Y-3762603D01*
X9363049Y-3749141D01*
X9365792Y-3735273D01*
X9366758Y-3721100D01*
X9365792Y-3706926D01*
X9363049Y-3693058D01*
X9358477Y-3679596D01*
X9352229Y-3666896D01*
X9344304Y-3655110D01*
X9334957Y-3644442D01*
X9324289Y-3635095D01*
X9312503Y-3627170D01*
X9299803Y-3620922D01*
X9286341Y-3616350D01*
X9272473Y-3613607D01*
X9258300Y-3612642D01*
X9244126Y-3613607D01*
X9230258Y-3616350D01*
X9216796Y-3620922D01*
X9204096Y-3627170D01*
X9192310Y-3635095D01*
X9181642Y-3644442D01*
X9172295Y-3655110D01*
X9167012Y-3662984D01*
X9164726Y-3665372D01*
X9161830Y-3666947D01*
X9158528Y-3667506D01*
X8971330Y-3667506D01*
X8967368Y-3666693D01*
X8964015Y-3664407D01*
X8961831Y-3661003D01*
X8960815Y-3658311D01*
X8953804Y-3645306D01*
X8945270Y-3633266D01*
X8935364Y-3622344D01*
X8924137Y-3612743D01*
X8911844Y-3604615D01*
X8898636Y-3598011D01*
X8884716Y-3593084D01*
X8870289Y-3589934D01*
X8855608Y-3588613D01*
X8840825Y-3589020D01*
X8826246Y-3591306D01*
X8812072Y-3595370D01*
X8798458Y-3601110D01*
X8785707Y-3608476D01*
X8773922Y-3617366D01*
X8763304Y-3627628D01*
X8754059Y-3639159D01*
X8746286Y-3651707D01*
X8740140Y-3665118D01*
X8735669Y-3679139D01*
X8732926Y-3693668D01*
X8732012Y-3708400D01*
X8732926Y-3723132D01*
X8735669Y-3737660D01*
X8740140Y-3751681D01*
X8746286Y-3765092D01*
X8754059Y-3777640D01*
X8763304Y-3789172D01*
X8773922Y-3799433D01*
X8785707Y-3808323D01*
X8798458Y-3815689D01*
X8812072Y-3821429D01*
X8826246Y-3825494D01*
X8840825Y-3827779D01*
X8855608Y-3828237D01*
X8870289Y-3826865D01*
X8884716Y-3823715D01*
X8898636Y-3818788D01*
X8911844Y-3812184D01*
X8924137Y-3804056D01*
X8935364Y-3794455D01*
X8945270Y-3783533D01*
X8953804Y-3771493D01*
X8960815Y-3758488D01*
X8961831Y-3755796D01*
X8964015Y-3752392D01*
X8967368Y-3750106D01*
X8971330Y-3749294D01*
X9146336Y-3749294D01*
X9150400Y-3750157D01*
X9153804Y-3752596D01*
X9155938Y-3756202D01*
X9158122Y-3762603D01*
X9164370Y-3775303D01*
X9172295Y-3787089D01*
X9181642Y-3797757D01*
X9192310Y-3807104D01*
X9204096Y-3815029D01*
X9216796Y-3821277D01*
X9230258Y-3825849D01*
X9244126Y-3828592D01*
G37*
G36*
X7839608Y-3828237D02*
G01*
X7854289Y-3826865D01*
X7868716Y-3823715D01*
X7882636Y-3818788D01*
X7895844Y-3812184D01*
X7908137Y-3804056D01*
X7919364Y-3794455D01*
X7929270Y-3783533D01*
X7937804Y-3771493D01*
X7944815Y-3758488D01*
X7950149Y-3744722D01*
X7953705Y-3730447D01*
X7955534Y-3715765D01*
X7955534Y-3701034D01*
X7953705Y-3686352D01*
X7950149Y-3672078D01*
X7944815Y-3658311D01*
X7937804Y-3645306D01*
X7929270Y-3633266D01*
X7919364Y-3622344D01*
X7908137Y-3612743D01*
X7895844Y-3604615D01*
X7882636Y-3598011D01*
X7868716Y-3593084D01*
X7854289Y-3589934D01*
X7839608Y-3588613D01*
X7824825Y-3589020D01*
X7810246Y-3591306D01*
X7796072Y-3595370D01*
X7782458Y-3601110D01*
X7769707Y-3608476D01*
X7757922Y-3617366D01*
X7747304Y-3627628D01*
X7738059Y-3639159D01*
X7730286Y-3651707D01*
X7724140Y-3665118D01*
X7719669Y-3679139D01*
X7716926Y-3693668D01*
X7716012Y-3708400D01*
X7716926Y-3723132D01*
X7719669Y-3737660D01*
X7724140Y-3751681D01*
X7730286Y-3765092D01*
X7738059Y-3777640D01*
X7747304Y-3789172D01*
X7757922Y-3799433D01*
X7769707Y-3808323D01*
X7782458Y-3815689D01*
X7796072Y-3821429D01*
X7810246Y-3825494D01*
X7824825Y-3827779D01*
G37*
G36*
X9559950Y-3818280D02*
G01*
X9566503Y-3815029D01*
X9578289Y-3807104D01*
X9588957Y-3797757D01*
X9598304Y-3787089D01*
X9606229Y-3775303D01*
X9609480Y-3768750D01*
X9559950Y-3768750D01*
G37*
G36*
X9464700Y-3818280D02*
G01*
X9464700Y-3768750D01*
X9415119Y-3768750D01*
X9418370Y-3775303D01*
X9426295Y-3787089D01*
X9435642Y-3797757D01*
X9446310Y-3807104D01*
X9458096Y-3815029D01*
G37*
G36*
X9415119Y-3673500D02*
G01*
X9464700Y-3673500D01*
X9464700Y-3623919D01*
X9458096Y-3627170D01*
X9446310Y-3635095D01*
X9435642Y-3644442D01*
X9426295Y-3655110D01*
X9418370Y-3666896D01*
G37*
G36*
X9559950Y-3673500D02*
G01*
X9609480Y-3673500D01*
X9606229Y-3666896D01*
X9598304Y-3655110D01*
X9588957Y-3644442D01*
X9578289Y-3635095D01*
X9566503Y-3627170D01*
X9559950Y-3623919D01*
G37*
G36*
X11628678Y-2909366D02*
G01*
X11628678Y-2856941D01*
X11576354Y-2856941D01*
X11578437Y-2861462D01*
X11586260Y-2873705D01*
X11595557Y-2884932D01*
X11606123Y-2894888D01*
X11617909Y-2903474D01*
G37*
G36*
X11731345Y-2909366D02*
G01*
X11742115Y-2903474D01*
X11753900Y-2894888D01*
X11764467Y-2884932D01*
X11773763Y-2873705D01*
X11781586Y-2861462D01*
X11783669Y-2856941D01*
X11731345Y-2856941D01*
G37*
G36*
X11576354Y-2754274D02*
G01*
X11628678Y-2754274D01*
X11628678Y-2701848D01*
X11617909Y-2707741D01*
X11606123Y-2716326D01*
X11595557Y-2726283D01*
X11586260Y-2737510D01*
X11578437Y-2749753D01*
G37*
G36*
X11731345Y-2754274D02*
G01*
X11783669Y-2754274D01*
X11781586Y-2749753D01*
X11773763Y-2737510D01*
X11764467Y-2726283D01*
X11753900Y-2716326D01*
X11742115Y-2707741D01*
X11731345Y-2701848D01*
G37*
G36*
X11853621Y-2576118D02*
G01*
X11871706Y-2574747D01*
X11889486Y-2571496D01*
X11906910Y-2566416D01*
X11923674Y-2559608D01*
X11939625Y-2551074D01*
X11954662Y-2540965D01*
X11968581Y-2529382D01*
X11981230Y-2516428D01*
X11992457Y-2502204D01*
X12002160Y-2486914D01*
X12010288Y-2470759D01*
X12016638Y-2453792D01*
X12021261Y-2436266D01*
X12024055Y-2418384D01*
X12024969Y-2400300D01*
X12024055Y-2382215D01*
X12021261Y-2364333D01*
X12016638Y-2346807D01*
X12010288Y-2329840D01*
X12002160Y-2313686D01*
X11992457Y-2298395D01*
X11981230Y-2284171D01*
X11968581Y-2271217D01*
X11954662Y-2259634D01*
X11939625Y-2249525D01*
X11923674Y-2240991D01*
X11906910Y-2234184D01*
X11889486Y-2229104D01*
X11871706Y-2225852D01*
X11853621Y-2224481D01*
X11835536Y-2224938D01*
X11817553Y-2227275D01*
X11799925Y-2231390D01*
X11782856Y-2237384D01*
X11766448Y-2245055D01*
X11750903Y-2254351D01*
X11736425Y-2265222D01*
X11723116Y-2277516D01*
X11711178Y-2291130D01*
X11700662Y-2305913D01*
X11691772Y-2321661D01*
X11684508Y-2338273D01*
X11679021Y-2355494D01*
X11675313Y-2373223D01*
X11673433Y-2391257D01*
X11673433Y-2409342D01*
X11675313Y-2427376D01*
X11679021Y-2445105D01*
X11684508Y-2462326D01*
X11691772Y-2478938D01*
X11700662Y-2494686D01*
X11711178Y-2509469D01*
X11723116Y-2523083D01*
X11736425Y-2535377D01*
X11750903Y-2546248D01*
X11766448Y-2555544D01*
X11782856Y-2563215D01*
X11799925Y-2569210D01*
X11817553Y-2573324D01*
X11835536Y-2575661D01*
G37*
G36*
X6265621Y-2576118D02*
G01*
X6283706Y-2574747D01*
X6301486Y-2571496D01*
X6318910Y-2566416D01*
X6335674Y-2559608D01*
X6351625Y-2551074D01*
X6366662Y-2540965D01*
X6380581Y-2529382D01*
X6393230Y-2516428D01*
X6404457Y-2502204D01*
X6414160Y-2486914D01*
X6422288Y-2470759D01*
X6428638Y-2453792D01*
X6433261Y-2436266D01*
X6436055Y-2418384D01*
X6436969Y-2400300D01*
X6436055Y-2382215D01*
X6433261Y-2364333D01*
X6428638Y-2346807D01*
X6422288Y-2329840D01*
X6414160Y-2313686D01*
X6404457Y-2298395D01*
X6393230Y-2284171D01*
X6380581Y-2271217D01*
X6366662Y-2259634D01*
X6351625Y-2249525D01*
X6335674Y-2240991D01*
X6318910Y-2234184D01*
X6301486Y-2229104D01*
X6283706Y-2225852D01*
X6265621Y-2224481D01*
X6247536Y-2224938D01*
X6229553Y-2227275D01*
X6211925Y-2231390D01*
X6194856Y-2237384D01*
X6178448Y-2245055D01*
X6162903Y-2254351D01*
X6148425Y-2265222D01*
X6135116Y-2277516D01*
X6123178Y-2291130D01*
X6112662Y-2305913D01*
X6103772Y-2321661D01*
X6096508Y-2338273D01*
X6091021Y-2355494D01*
X6087313Y-2373223D01*
X6085433Y-2391257D01*
X6085433Y-2409342D01*
X6087313Y-2427376D01*
X6091021Y-2445105D01*
X6096508Y-2462326D01*
X6103772Y-2478938D01*
X6112662Y-2494686D01*
X6123178Y-2509469D01*
X6135116Y-2523083D01*
X6148425Y-2535377D01*
X6162903Y-2546248D01*
X6178448Y-2555544D01*
X6194856Y-2563215D01*
X6211925Y-2569210D01*
X6229553Y-2573324D01*
X6247536Y-2575661D01*
G37*

%LPD*%
D11*
X6311900Y-4724400D02*
G01*
X7583500Y-4724400D01*
X7670800Y-4811699D01*
X7802930Y-4132300D02*
G01*
X9288500Y-4132300D01*
X9436100Y-4279900D01*
D12*
X9640697Y-5199202D02*
G01*
X9640697Y-5038979D01*
X9640697Y-5038979D02*
G01*
X8696579Y-5038979D01*
X8572500Y-4914900D01*
X8420100Y-2755900D02*
G01*
X8175015Y-3000984D01*
X7850886Y-3000984D01*
D11*
X7696200Y-5408599D02*
G01*
X9371329Y-5408599D01*
X9410700Y-5369229D01*
X9755276Y-5380481D02*
G01*
X9937394Y-5562600D01*
X11874500Y-5562600D01*
X9410700Y-5369229D02*
G01*
X9421952Y-5380481D01*
X9755276Y-5380481D01*
X9755276Y-5380481D02*
G01*
X9755276Y-4724730D01*
X9635743Y-4605197D01*
X9410700Y-5199202D02*
G01*
X9410700Y-5369229D01*
X9410700Y-4605197D02*
G01*
X9635743Y-4605197D01*
X11874500Y-4927600D02*
G01*
X11337315Y-4927600D01*
X9794976Y-3385261D01*
X7525461Y-3385261D01*
X6896100Y-2755900D01*
D12*
X9182100Y-2755900D02*
G01*
X9321063Y-2616936D01*
X10991341Y-2616936D01*
X11180013Y-2805607D01*
X8851900Y-3708400D02*
G01*
X9245600Y-3708400D01*
X9258300Y-3721100D01*
X8826500Y-3238500D02*
G01*
X9232900Y-3238500D01*
X9245600Y-3251200D01*
X8674100Y-2755900D02*
G01*
X8966428Y-3048228D01*
X9972649Y-3048228D01*
X8928100Y-2755900D02*
G01*
X9075572Y-2903372D01*
X10572724Y-2903372D01*
X11680012Y-4010660D01*
X11680012Y-4255592D01*
D11*
X11874500Y-4800600D02*
G01*
X11850547Y-4800600D01*
X11771960Y-4722012D01*
X11771960Y-4394936D01*
X11819153Y-4347743D01*
X11819153Y-3243808D01*
X11127765Y-2552420D01*
X6845579Y-2552420D01*
X6642100Y-2755900D01*
X11874500Y-5054600D02*
G01*
X10504220Y-5054600D01*
X9882200Y-4432579D01*
X6794779Y-4432579D01*
X6642100Y-4279900D01*
X8931300Y-5588000D02*
G01*
X9385300Y-5588000D01*
X9410700Y-5562600D01*
D14*
G01*
X9180702Y-5199202D03*
G01*
X9410700Y-5199202D03*
G01*
X9640697Y-5199202D03*
G36*
X9590699Y-4722197D02*
G01*
X9230700Y-4722197D01*
X9230700Y-4488197D01*
X9590699Y-4488197D01*
G37*
D16*
G01*
X9410700Y-5562600D03*
G01*
X9664700Y-5562600D03*
G01*
X8572500Y-4914900D03*
G01*
X8572500Y-4660900D03*
D17*
G01*
X7670800Y-4811699D03*
G01*
X7670800Y-4611700D03*
G01*
X7696200Y-5408599D03*
G01*
X7696200Y-5208600D03*
D18*
G01*
X8061299Y-5588000D03*
G01*
X8931300Y-5588000D03*
D19*
G01*
X9245600Y-3251200D03*
G01*
X9499600Y-3251200D03*
G01*
X9258300Y-3721100D03*
G01*
X9512300Y-3721100D03*
D20*
G01*
X8826500Y-3238500D03*
G01*
X7810500Y-3238500D03*
G01*
X8851900Y-3708400D03*
G01*
X7835900Y-3708400D03*
D18*
G01*
X11180013Y-2805607D03*
G01*
X11680012Y-2805607D03*
G01*
X11180013Y-4255592D03*
G01*
X11430000Y-4255592D03*
G01*
X11680012Y-4255592D03*
D21*
G01*
X10198100Y-2755900D03*
G36*
X11874500Y-4724400D02*
G01*
X11868124Y-4723993D01*
X11861876Y-4722799D01*
X11855805Y-4720844D01*
X11850039Y-4718126D01*
X11844629Y-4714697D01*
X11839727Y-4710633D01*
X11835358Y-4705985D01*
X11831599Y-4700828D01*
X11828525Y-4695240D01*
X11826189Y-4689297D01*
X11824588Y-4683125D01*
X11823801Y-4676800D01*
X11823801Y-4670399D01*
X11824588Y-4664075D01*
X11826189Y-4657902D01*
X11828525Y-4651959D01*
X11831599Y-4646371D01*
X11835358Y-4641214D01*
X11839727Y-4636566D01*
X11844629Y-4632502D01*
X11850039Y-4629073D01*
X11855805Y-4626355D01*
X11861876Y-4624400D01*
X11868124Y-4623206D01*
X11874500Y-4622800D01*
X11976100Y-4622800D01*
X11982475Y-4623206D01*
X11988723Y-4624400D01*
X11994794Y-4626355D01*
X12000585Y-4629073D01*
X12005970Y-4632502D01*
X12010872Y-4636566D01*
X12015241Y-4641214D01*
X12019000Y-4646371D01*
X12022074Y-4651959D01*
X12024410Y-4657902D01*
X12026011Y-4664075D01*
X12026798Y-4670399D01*
X12026798Y-4676800D01*
X12026011Y-4683125D01*
X12024410Y-4689297D01*
X12022074Y-4695240D01*
X12019000Y-4700828D01*
X12015241Y-4705985D01*
X12010872Y-4710633D01*
X12005970Y-4714697D01*
X12000585Y-4718126D01*
X11994794Y-4720844D01*
X11988723Y-4722799D01*
X11982475Y-4723993D01*
X11976100Y-4724400D01*
G37*
G36*
X11874500Y-4851400D02*
G01*
X11868124Y-4850993D01*
X11861876Y-4849799D01*
X11855805Y-4847844D01*
X11850039Y-4845126D01*
X11844629Y-4841697D01*
X11839727Y-4837633D01*
X11835358Y-4832985D01*
X11831599Y-4827828D01*
X11828525Y-4822240D01*
X11826189Y-4816297D01*
X11824588Y-4810125D01*
X11823801Y-4803800D01*
X11823801Y-4797399D01*
X11824588Y-4791075D01*
X11826189Y-4784902D01*
X11828525Y-4778959D01*
X11831599Y-4773371D01*
X11835358Y-4768214D01*
X11839727Y-4763566D01*
X11844629Y-4759502D01*
X11850039Y-4756073D01*
X11855805Y-4753355D01*
X11861876Y-4751400D01*
X11868124Y-4750206D01*
X11874500Y-4749800D01*
X11976100Y-4749800D01*
X11982475Y-4750206D01*
X11988723Y-4751400D01*
X11994794Y-4753355D01*
X12000585Y-4756073D01*
X12005970Y-4759502D01*
X12010872Y-4763566D01*
X12015241Y-4768214D01*
X12019000Y-4773371D01*
X12022074Y-4778959D01*
X12024410Y-4784902D01*
X12026011Y-4791075D01*
X12026798Y-4797399D01*
X12026798Y-4803800D01*
X12026011Y-4810125D01*
X12024410Y-4816297D01*
X12022074Y-4822240D01*
X12019000Y-4827828D01*
X12015241Y-4832985D01*
X12010872Y-4837633D01*
X12005970Y-4841697D01*
X12000585Y-4845126D01*
X11994794Y-4847844D01*
X11988723Y-4849799D01*
X11982475Y-4850993D01*
X11976100Y-4851400D01*
G37*
G36*
X11874500Y-4978400D02*
G01*
X11868124Y-4977993D01*
X11861876Y-4976799D01*
X11855805Y-4974844D01*
X11850039Y-4972126D01*
X11844629Y-4968697D01*
X11839727Y-4964633D01*
X11835358Y-4959985D01*
X11831599Y-4954828D01*
X11828525Y-4949240D01*
X11826189Y-4943297D01*
X11824588Y-4937125D01*
X11823801Y-4930800D01*
X11823801Y-4924399D01*
X11824588Y-4918075D01*
X11826189Y-4911902D01*
X11828525Y-4905959D01*
X11831599Y-4900371D01*
X11835358Y-4895214D01*
X11839727Y-4890566D01*
X11844629Y-4886502D01*
X11850039Y-4883073D01*
X11855805Y-4880355D01*
X11861876Y-4878400D01*
X11868124Y-4877206D01*
X11874500Y-4876800D01*
X11976100Y-4876800D01*
X11982475Y-4877206D01*
X11988723Y-4878400D01*
X11994794Y-4880355D01*
X12000585Y-4883073D01*
X12005970Y-4886502D01*
X12010872Y-4890566D01*
X12015241Y-4895214D01*
X12019000Y-4900371D01*
X12022074Y-4905959D01*
X12024410Y-4911902D01*
X12026011Y-4918075D01*
X12026798Y-4924399D01*
X12026798Y-4930800D01*
X12026011Y-4937125D01*
X12024410Y-4943297D01*
X12022074Y-4949240D01*
X12019000Y-4954828D01*
X12015241Y-4959985D01*
X12010872Y-4964633D01*
X12005970Y-4968697D01*
X12000585Y-4972126D01*
X11994794Y-4974844D01*
X11988723Y-4976799D01*
X11982475Y-4977993D01*
X11976100Y-4978400D01*
G37*
G36*
X11874500Y-5105400D02*
G01*
X11868124Y-5104993D01*
X11861876Y-5103799D01*
X11855805Y-5101844D01*
X11850039Y-5099126D01*
X11844629Y-5095697D01*
X11839727Y-5091633D01*
X11835358Y-5086985D01*
X11831599Y-5081828D01*
X11828525Y-5076240D01*
X11826189Y-5070297D01*
X11824588Y-5064125D01*
X11823801Y-5057800D01*
X11823801Y-5051399D01*
X11824588Y-5045075D01*
X11826189Y-5038902D01*
X11828525Y-5032959D01*
X11831599Y-5027371D01*
X11835358Y-5022214D01*
X11839727Y-5017566D01*
X11844629Y-5013502D01*
X11850039Y-5010073D01*
X11855805Y-5007355D01*
X11861876Y-5005400D01*
X11868124Y-5004206D01*
X11874500Y-5003800D01*
X11976100Y-5003800D01*
X11982475Y-5004206D01*
X11988723Y-5005400D01*
X11994794Y-5007355D01*
X12000585Y-5010073D01*
X12005970Y-5013502D01*
X12010872Y-5017566D01*
X12015241Y-5022214D01*
X12019000Y-5027371D01*
X12022074Y-5032959D01*
X12024410Y-5038902D01*
X12026011Y-5045075D01*
X12026798Y-5051399D01*
X12026798Y-5057800D01*
X12026011Y-5064125D01*
X12024410Y-5070297D01*
X12022074Y-5076240D01*
X12019000Y-5081828D01*
X12015241Y-5086985D01*
X12010872Y-5091633D01*
X12005970Y-5095697D01*
X12000585Y-5099126D01*
X11994794Y-5101844D01*
X11988723Y-5103799D01*
X11982475Y-5104993D01*
X11976100Y-5105400D01*
G37*
G36*
X11874500Y-5232400D02*
G01*
X11868124Y-5231993D01*
X11861876Y-5230799D01*
X11855805Y-5228844D01*
X11850039Y-5226126D01*
X11844629Y-5222697D01*
X11839727Y-5218633D01*
X11835358Y-5213985D01*
X11831599Y-5208828D01*
X11828525Y-5203240D01*
X11826189Y-5197297D01*
X11824588Y-5191125D01*
X11823801Y-5184800D01*
X11823801Y-5178399D01*
X11824588Y-5172075D01*
X11826189Y-5165902D01*
X11828525Y-5159959D01*
X11831599Y-5154371D01*
X11835358Y-5149214D01*
X11839727Y-5144566D01*
X11844629Y-5140502D01*
X11850039Y-5137073D01*
X11855805Y-5134355D01*
X11861876Y-5132400D01*
X11868124Y-5131206D01*
X11874500Y-5130800D01*
X11976100Y-5130800D01*
X11982475Y-5131206D01*
X11988723Y-5132400D01*
X11994794Y-5134355D01*
X12000585Y-5137073D01*
X12005970Y-5140502D01*
X12010872Y-5144566D01*
X12015241Y-5149214D01*
X12019000Y-5154371D01*
X12022074Y-5159959D01*
X12024410Y-5165902D01*
X12026011Y-5172075D01*
X12026798Y-5178399D01*
X12026798Y-5184800D01*
X12026011Y-5191125D01*
X12024410Y-5197297D01*
X12022074Y-5203240D01*
X12019000Y-5208828D01*
X12015241Y-5213985D01*
X12010872Y-5218633D01*
X12005970Y-5222697D01*
X12000585Y-5226126D01*
X11994794Y-5228844D01*
X11988723Y-5230799D01*
X11982475Y-5231993D01*
X11976100Y-5232400D01*
G37*
G36*
X11874500Y-5359400D02*
G01*
X11868124Y-5358993D01*
X11861876Y-5357799D01*
X11855805Y-5355818D01*
X11850039Y-5353126D01*
X11844629Y-5349697D01*
X11839727Y-5345633D01*
X11835358Y-5340985D01*
X11831599Y-5335828D01*
X11828525Y-5330240D01*
X11826189Y-5324297D01*
X11824588Y-5318125D01*
X11823801Y-5311800D01*
X11823801Y-5305399D01*
X11824588Y-5299075D01*
X11826189Y-5292902D01*
X11828525Y-5286959D01*
X11831599Y-5281371D01*
X11835358Y-5276214D01*
X11839727Y-5271566D01*
X11844629Y-5267502D01*
X11850039Y-5264073D01*
X11855805Y-5261355D01*
X11861876Y-5259400D01*
X11868124Y-5258206D01*
X11874500Y-5257800D01*
X11976100Y-5257800D01*
X11982475Y-5258206D01*
X11988723Y-5259400D01*
X11994794Y-5261355D01*
X12000585Y-5264073D01*
X12005970Y-5267502D01*
X12010872Y-5271566D01*
X12015241Y-5276214D01*
X12019000Y-5281371D01*
X12022074Y-5286959D01*
X12024410Y-5292902D01*
X12026011Y-5299075D01*
X12026798Y-5305399D01*
X12026798Y-5311800D01*
X12026011Y-5318125D01*
X12024410Y-5324297D01*
X12022074Y-5330240D01*
X12019000Y-5335828D01*
X12015241Y-5340985D01*
X12010872Y-5345633D01*
X12005970Y-5349697D01*
X12000585Y-5353126D01*
X11994794Y-5355818D01*
X11988723Y-5357799D01*
X11982475Y-5358993D01*
X11976100Y-5359400D01*
G37*
G36*
X11874500Y-5486400D02*
G01*
X11868124Y-5485993D01*
X11861876Y-5484799D01*
X11855805Y-5482818D01*
X11850039Y-5480126D01*
X11844629Y-5476697D01*
X11839727Y-5472633D01*
X11835358Y-5467985D01*
X11831599Y-5462828D01*
X11828525Y-5457215D01*
X11826189Y-5451297D01*
X11824588Y-5445125D01*
X11823801Y-5438800D01*
X11823801Y-5432399D01*
X11824588Y-5426075D01*
X11826189Y-5419902D01*
X11828525Y-5413959D01*
X11831599Y-5408371D01*
X11835358Y-5403214D01*
X11839727Y-5398566D01*
X11844629Y-5394502D01*
X11850039Y-5391073D01*
X11855805Y-5388355D01*
X11861876Y-5386400D01*
X11868124Y-5385206D01*
X11874500Y-5384800D01*
X11976100Y-5384800D01*
X11982475Y-5385206D01*
X11988723Y-5386400D01*
X11994794Y-5388355D01*
X12000585Y-5391073D01*
X12005970Y-5394502D01*
X12010872Y-5398566D01*
X12015241Y-5403214D01*
X12019000Y-5408371D01*
X12022074Y-5413959D01*
X12024410Y-5419902D01*
X12026011Y-5426075D01*
X12026798Y-5432399D01*
X12026798Y-5438800D01*
X12026011Y-5445125D01*
X12024410Y-5451297D01*
X12022074Y-5457215D01*
X12019000Y-5462828D01*
X12015241Y-5467985D01*
X12010872Y-5472633D01*
X12005970Y-5476697D01*
X12000585Y-5480126D01*
X11994794Y-5482818D01*
X11988723Y-5484799D01*
X11982475Y-5485993D01*
X11976100Y-5486400D01*
G37*
G36*
X11874500Y-5613400D02*
G01*
X11868124Y-5612993D01*
X11861876Y-5611799D01*
X11855805Y-5609818D01*
X11850039Y-5607126D01*
X11844629Y-5603697D01*
X11839727Y-5599633D01*
X11835358Y-5594985D01*
X11831599Y-5589828D01*
X11828525Y-5584215D01*
X11826189Y-5578297D01*
X11824588Y-5572125D01*
X11823801Y-5565800D01*
X11823801Y-5559399D01*
X11824588Y-5553075D01*
X11826189Y-5546902D01*
X11828525Y-5540959D01*
X11831599Y-5535371D01*
X11835358Y-5530214D01*
X11839727Y-5525566D01*
X11844629Y-5521502D01*
X11850039Y-5518073D01*
X11855805Y-5515355D01*
X11861876Y-5513400D01*
X11868124Y-5512206D01*
X11874500Y-5511800D01*
X11976100Y-5511800D01*
X11982475Y-5512206D01*
X11988723Y-5513400D01*
X11994794Y-5515355D01*
X12000585Y-5518073D01*
X12005970Y-5521502D01*
X12010872Y-5525566D01*
X12015241Y-5530214D01*
X12019000Y-5535371D01*
X12022074Y-5540959D01*
X12024410Y-5546902D01*
X12026011Y-5553075D01*
X12026798Y-5559399D01*
X12026798Y-5565800D01*
X12026011Y-5572125D01*
X12024410Y-5578297D01*
X12022074Y-5584215D01*
X12019000Y-5589828D01*
X12015241Y-5594985D01*
X12010872Y-5599633D01*
X12005970Y-5603697D01*
X12000585Y-5607126D01*
X11994794Y-5609818D01*
X11988723Y-5611799D01*
X11982475Y-5612993D01*
X11976100Y-5613400D01*
G37*
D16*
G01*
X7061200Y-5524500D03*
G01*
X6807200Y-5524500D03*
G01*
X6553200Y-5524500D03*
G01*
X6299200Y-5524500D03*
G01*
X6311900Y-4978400D03*
G01*
X6311900Y-5232400D03*
G01*
X6311900Y-4724400D03*
D13*
G01*
X7802930Y-4132300D03*
G01*
X7850886Y-3000984D03*
G01*
X9972649Y-3048228D03*
D22*
X10859998Y-3435606D02*
G01*
X10859998Y-3575606D01*
X12000001Y-3435606D02*
G01*
X12000001Y-3575606D01*
D16*
X9944100Y-2730500D02*
G01*
X9944100Y-2781300D01*
X9690100Y-2730500D02*
G01*
X9690100Y-2781300D01*
X9436100Y-2730500D02*
G01*
X9436100Y-2781300D01*
X9182100Y-2730500D02*
G01*
X9182100Y-2781300D01*
X8928100Y-2730500D02*
G01*
X8928100Y-2781300D01*
X8674100Y-2730500D02*
G01*
X8674100Y-2781300D01*
X8420100Y-2730500D02*
G01*
X8420100Y-2781300D01*
X8166100Y-2730500D02*
G01*
X8166100Y-2781300D01*
X7912100Y-2730500D02*
G01*
X7912100Y-2781300D01*
X7658100Y-2730500D02*
G01*
X7658100Y-2781300D01*
X7404100Y-2730500D02*
G01*
X7404100Y-2781300D01*
X7150100Y-2730500D02*
G01*
X7150100Y-2781300D01*
X6896100Y-2730500D02*
G01*
X6896100Y-2781300D01*
X6642100Y-2730500D02*
G01*
X6642100Y-2781300D01*
X6642100Y-4254500D02*
G01*
X6642100Y-4305300D01*
X6896100Y-4254500D02*
G01*
X6896100Y-4305300D01*
X7150100Y-4254500D02*
G01*
X7150100Y-4305300D01*
X7404100Y-4254500D02*
G01*
X7404100Y-4305300D01*
X7658100Y-4254500D02*
G01*
X7658100Y-4305300D01*
X7912100Y-4254500D02*
G01*
X7912100Y-4305300D01*
X8166100Y-4254500D02*
G01*
X8166100Y-4305300D01*
X8420100Y-4254500D02*
G01*
X8420100Y-4305300D01*
X8674100Y-4254500D02*
G01*
X8674100Y-4305300D01*
X8928100Y-4254500D02*
G01*
X8928100Y-4305300D01*
X9182100Y-4254500D02*
G01*
X9182100Y-4305300D01*
X9436100Y-4254500D02*
G01*
X9436100Y-4305300D01*
X9690100Y-4254500D02*
G01*
X9690100Y-4305300D01*
X9944100Y-4254500D02*
G01*
X9944100Y-4305300D01*
X10198100Y-4254500D02*
G01*
X10198100Y-4305300D01*
M02*
