G04 Layer: TopSilkscreenLayer*
G04 EasyEDA v6.4.31, 2022-02-21 16:35:37*
G04 86a35107d0e148c68cbe8ff221d4d82a,63e7e6c6506342ae886175fa881d857f,10*
G04 Gerber Generator version 0.2*
G04 Scale: 100 percent, Rotated: No, Reflected: No *
G04 Dimensions in millimeters *
G04 leading zeros omitted , absolute positions ,4 integer and 5 decimal *
%FSLAX45Y45*%
%MOMM*%

%ADD10C,0.2540*%
%ADD12C,0.3000*%
%ADD25C,0.1524*%
%ADD26C,0.1270*%
%ADD27C,0.2032*%
%ADD28C,0.0650*%

%LPD*%
G36*
X11070844Y-2140661D02*
G01*
X11066322Y-2140762D01*
X11061344Y-2141728D01*
X11055654Y-2143607D01*
X11034979Y-2152396D01*
X11021669Y-2148840D01*
X11015218Y-2147519D01*
X11008410Y-2146858D01*
X11001603Y-2146858D01*
X10983569Y-2149043D01*
X10977422Y-2149398D01*
X10964265Y-2149348D01*
X10957102Y-2148992D01*
X10941304Y-2147468D01*
X10925657Y-2145588D01*
X10917123Y-2151989D01*
X10913262Y-2155545D01*
X10910214Y-2159812D01*
X10907979Y-2164689D01*
X10905388Y-2175205D01*
X10903610Y-2179574D01*
X10901426Y-2182977D01*
X10899089Y-2184958D01*
X10896396Y-2186889D01*
X10893196Y-2190089D01*
X10889843Y-2194001D01*
X10886744Y-2198319D01*
X10879988Y-2208834D01*
X10869726Y-2208834D01*
X10864392Y-2209241D01*
X10860074Y-2210460D01*
X10856772Y-2212340D01*
X10854436Y-2214778D01*
X10853064Y-2217572D01*
X10852658Y-2220722D01*
X10852838Y-2221788D01*
X10862767Y-2221788D01*
X10863427Y-2220976D01*
X10865002Y-2220214D01*
X10867339Y-2219604D01*
X10874552Y-2218791D01*
X10885170Y-2218385D01*
X10900511Y-2218334D01*
X10907877Y-2217928D01*
X10913872Y-2217318D01*
X10918444Y-2216353D01*
X10921593Y-2215083D01*
X10923422Y-2213508D01*
X10923879Y-2211628D01*
X10923016Y-2209444D01*
X10921187Y-2208428D01*
X10917580Y-2207869D01*
X10912703Y-2207717D01*
X10901578Y-2208479D01*
X10897108Y-2208530D01*
X10894110Y-2208174D01*
X10892993Y-2207463D01*
X10893958Y-2205736D01*
X10896650Y-2202484D01*
X10911128Y-2187651D01*
X10915040Y-2182418D01*
X10917224Y-2177643D01*
X10917936Y-2173020D01*
X10919612Y-2166162D01*
X10924032Y-2160422D01*
X10930483Y-2156510D01*
X10938154Y-2155037D01*
X10941812Y-2155850D01*
X10947146Y-2158085D01*
X10953394Y-2161438D01*
X10957668Y-2164130D01*
X10977778Y-2164130D01*
X10978134Y-2162810D01*
X10980318Y-2161387D01*
X10984433Y-2159812D01*
X10990376Y-2158238D01*
X10998555Y-2156663D01*
X11005159Y-2156053D01*
X11010696Y-2156409D01*
X11024514Y-2160168D01*
X11033252Y-2160778D01*
X11041481Y-2159660D01*
X11049000Y-2156764D01*
X11053876Y-2154529D01*
X11058601Y-2153107D01*
X11063224Y-2152446D01*
X11067796Y-2152599D01*
X11072266Y-2153564D01*
X11076736Y-2155342D01*
X11081207Y-2157882D01*
X11085677Y-2161286D01*
X11096701Y-2170582D01*
X11135055Y-2166620D01*
X11144199Y-2173528D01*
X11149584Y-2176780D01*
X11156340Y-2179370D01*
X11164773Y-2181301D01*
X11175288Y-2182774D01*
X11226292Y-2188362D01*
X11248694Y-2190496D01*
X11260023Y-2191867D01*
X11270640Y-2193747D01*
X11279581Y-2195982D01*
X11283086Y-2197150D01*
X11291620Y-2200554D01*
X11299596Y-2202586D01*
X11308689Y-2204161D01*
X11329162Y-2206345D01*
X11332667Y-2207056D01*
X11334851Y-2207768D01*
X11335816Y-2208530D01*
X11335461Y-2209241D01*
X11333988Y-2209850D01*
X11331346Y-2210409D01*
X11322761Y-2211120D01*
X11299799Y-2210917D01*
X11292738Y-2211425D01*
X11288369Y-2212695D01*
X11285982Y-2214778D01*
X11277142Y-2228037D01*
X11210899Y-2226360D01*
X11194643Y-2217369D01*
X11189106Y-2214930D01*
X11183874Y-2213000D01*
X11178895Y-2211679D01*
X11174171Y-2210917D01*
X11169700Y-2210765D01*
X11165484Y-2211171D01*
X11161522Y-2212187D01*
X11152581Y-2215184D01*
X11121085Y-2199386D01*
X11087354Y-2203399D01*
X11063528Y-2183434D01*
X11047425Y-2183434D01*
X11039043Y-2183028D01*
X11032083Y-2181707D01*
X11025682Y-2179167D01*
X11012728Y-2171547D01*
X11006531Y-2169007D01*
X11000384Y-2167432D01*
X10994237Y-2166924D01*
X10987481Y-2166721D01*
X10982452Y-2166112D01*
X10979200Y-2165248D01*
X10977778Y-2164130D01*
X10957668Y-2164130D01*
X10975187Y-2175916D01*
X10989868Y-2175916D01*
X10996422Y-2176272D01*
X11001806Y-2177135D01*
X11005921Y-2178608D01*
X11008614Y-2180640D01*
X11011763Y-2183739D01*
X11015472Y-2186482D01*
X11019637Y-2188819D01*
X11024108Y-2190699D01*
X11028832Y-2192121D01*
X11033709Y-2192985D01*
X11038586Y-2193290D01*
X11043361Y-2192985D01*
X11055502Y-2191410D01*
X11074704Y-2205329D01*
X11079886Y-2208682D01*
X11084356Y-2211070D01*
X11088370Y-2212644D01*
X11092180Y-2213406D01*
X11095939Y-2213406D01*
X11099901Y-2212797D01*
X11114989Y-2208225D01*
X11147044Y-2224176D01*
X11176152Y-2220315D01*
X11192916Y-2228494D01*
X11200993Y-2231948D01*
X11208766Y-2234488D01*
X11216132Y-2235962D01*
X11222939Y-2236419D01*
X11228070Y-2236520D01*
X11232286Y-2236876D01*
X11235131Y-2237435D01*
X11236198Y-2238197D01*
X11234216Y-2244140D01*
X11223647Y-2269083D01*
X11235182Y-2269083D01*
X11248186Y-2240229D01*
X11271554Y-2237790D01*
X11280952Y-2235657D01*
X11286591Y-2232558D01*
X11289893Y-2228088D01*
X11293348Y-2220772D01*
X11315496Y-2220671D01*
X11325453Y-2220366D01*
X11333530Y-2219502D01*
X11339626Y-2218080D01*
X11346840Y-2214473D01*
X11350955Y-2213102D01*
X11355527Y-2212136D01*
X11360048Y-2211832D01*
X11370360Y-2211832D01*
X11370716Y-2221992D01*
X11370411Y-2231136D01*
X11369548Y-2243023D01*
X11369344Y-2249119D01*
X11369548Y-2254199D01*
X11370208Y-2258415D01*
X11371326Y-2262073D01*
X11373002Y-2265324D01*
X11375237Y-2268423D01*
X11381435Y-2275179D01*
X11383873Y-2278735D01*
X11385499Y-2282393D01*
X11386261Y-2286406D01*
X11386210Y-2291029D01*
X11385346Y-2296414D01*
X11383721Y-2302865D01*
X11375898Y-2326995D01*
X11392712Y-2365298D01*
X11388496Y-2405430D01*
X11342268Y-2386076D01*
X11326368Y-2380030D01*
X11312093Y-2375154D01*
X11306098Y-2373325D01*
X11297412Y-2371293D01*
X11282883Y-2369413D01*
X11276685Y-2374747D01*
X11274298Y-2377186D01*
X11272316Y-2379726D01*
X11270996Y-2382113D01*
X11270538Y-2384094D01*
X11272164Y-2391918D01*
X11276126Y-2401163D01*
X11280902Y-2408834D01*
X11284915Y-2412085D01*
X11287912Y-2410561D01*
X11289131Y-2406802D01*
X11288471Y-2402230D01*
X11284610Y-2396286D01*
X11283746Y-2393696D01*
X11283391Y-2390749D01*
X11283492Y-2387752D01*
X11284559Y-2380691D01*
X11297361Y-2381758D01*
X11304168Y-2383231D01*
X11312601Y-2385669D01*
X11322405Y-2389022D01*
X11333429Y-2393188D01*
X11345418Y-2398064D01*
X11371681Y-2409647D01*
X11385448Y-2416098D01*
X11413388Y-2430068D01*
X11440515Y-2444750D01*
X11453215Y-2452116D01*
X11510772Y-2486812D01*
X11531295Y-2499918D01*
X11568328Y-2525268D01*
X11578945Y-2531770D01*
X11587276Y-2536088D01*
X11590324Y-2537256D01*
X11592356Y-2537663D01*
X11596878Y-2537866D01*
X11601805Y-2538476D01*
X11606987Y-2539441D01*
X11618112Y-2542336D01*
X11629644Y-2546248D01*
X11640972Y-2551023D01*
X11651589Y-2556357D01*
X11660886Y-2561996D01*
X11664848Y-2564892D01*
X11668252Y-2567736D01*
X11671046Y-2570581D01*
X11675211Y-2575560D01*
X11677853Y-2579166D01*
X11679021Y-2581452D01*
X11678818Y-2582367D01*
X11677294Y-2581859D01*
X11674449Y-2579979D01*
X11670436Y-2576677D01*
X11656568Y-2564231D01*
X11649862Y-2559812D01*
X11644782Y-2558643D01*
X11640921Y-2560370D01*
X11641378Y-2562199D01*
X11644020Y-2565806D01*
X11648389Y-2570683D01*
X11659158Y-2581402D01*
X11663527Y-2586583D01*
X11667134Y-2591714D01*
X11669877Y-2596692D01*
X11671757Y-2601366D01*
X11672722Y-2605582D01*
X11672620Y-2609291D01*
X11671503Y-2612288D01*
X11668506Y-2615031D01*
X11665153Y-2613914D01*
X11661038Y-2608681D01*
X11652504Y-2593035D01*
X11648846Y-2587599D01*
X11644934Y-2582722D01*
X11640820Y-2578557D01*
X11636654Y-2575153D01*
X11632488Y-2572664D01*
X11628424Y-2571038D01*
X11624564Y-2570530D01*
X11621363Y-2571140D01*
X11620652Y-2574747D01*
X11622786Y-2583789D01*
X11628018Y-2600807D01*
X11629898Y-2607818D01*
X11631066Y-2614168D01*
X11631523Y-2619806D01*
X11631320Y-2624582D01*
X11630406Y-2628392D01*
X11628831Y-2631084D01*
X11626596Y-2632557D01*
X11623751Y-2632710D01*
X11621160Y-2631389D01*
X11619179Y-2628290D01*
X11617655Y-2623058D01*
X11615369Y-2607868D01*
X11613946Y-2601061D01*
X11612168Y-2594813D01*
X11609984Y-2589072D01*
X11607393Y-2583789D01*
X11604345Y-2578963D01*
X11600789Y-2574544D01*
X11596725Y-2570480D01*
X11592102Y-2566670D01*
X11586972Y-2563164D01*
X11581180Y-2559862D01*
X11574729Y-2556713D01*
X11568226Y-2553970D01*
X11562334Y-2551938D01*
X11556847Y-2550617D01*
X11551666Y-2549956D01*
X11546535Y-2550058D01*
X11541302Y-2550820D01*
X11535765Y-2552242D01*
X11529771Y-2554325D01*
X11517426Y-2559050D01*
X11513312Y-2571496D01*
X11511076Y-2577287D01*
X11508740Y-2581148D01*
X11506098Y-2583281D01*
X11502948Y-2583942D01*
X11496751Y-2583942D01*
X11497259Y-2573528D01*
X11498224Y-2568092D01*
X11500459Y-2562910D01*
X11503914Y-2558034D01*
X11508486Y-2553563D01*
X11514124Y-2549601D01*
X11520728Y-2546146D01*
X11528196Y-2543251D01*
X11543792Y-2539187D01*
X11549481Y-2537155D01*
X11553139Y-2535174D01*
X11554460Y-2533294D01*
X11554104Y-2532329D01*
X11551259Y-2529281D01*
X11545824Y-2524912D01*
X11538153Y-2519375D01*
X11528501Y-2512872D01*
X11504269Y-2497480D01*
X11475415Y-2480005D01*
X11444173Y-2461818D01*
X11412880Y-2444242D01*
X11383670Y-2428494D01*
X11370614Y-2421686D01*
X11348923Y-2411171D01*
X11340846Y-2407767D01*
X11335004Y-2405786D01*
X11333022Y-2405430D01*
X11327536Y-2405989D01*
X11324590Y-2408326D01*
X11324844Y-2411374D01*
X11328755Y-2413914D01*
X11335156Y-2416403D01*
X11357254Y-2426411D01*
X11381486Y-2438298D01*
X11394998Y-2445562D01*
X11398199Y-2447645D01*
X11400383Y-2449830D01*
X11401602Y-2452522D01*
X11402009Y-2456281D01*
X11401755Y-2461564D01*
X11397691Y-2492552D01*
X11404295Y-2503322D01*
X11408410Y-2511806D01*
X11410543Y-2520238D01*
X11410543Y-2527858D01*
X11408308Y-2533954D01*
X11405362Y-2535783D01*
X11399266Y-2537917D01*
X11390884Y-2540152D01*
X11376914Y-2542794D01*
X11353292Y-2545689D01*
X11316055Y-2549042D01*
X11288674Y-2550922D01*
X11278158Y-2551379D01*
X11270945Y-2551430D01*
X11267846Y-2551023D01*
X11267795Y-2549601D01*
X11268456Y-2546604D01*
X11273840Y-2532278D01*
X11275314Y-2527655D01*
X11276177Y-2523540D01*
X11276380Y-2519629D01*
X11275974Y-2515717D01*
X11274856Y-2511501D01*
X11273078Y-2506776D01*
X11264544Y-2488031D01*
X11271046Y-2463495D01*
X11272062Y-2457348D01*
X11272418Y-2451862D01*
X11271961Y-2446782D01*
X11270742Y-2441854D01*
X11268710Y-2436926D01*
X11265763Y-2431745D01*
X11261953Y-2426055D01*
X11253724Y-2414625D01*
X11259210Y-2394458D01*
X11260328Y-2388362D01*
X11260836Y-2382977D01*
X11260734Y-2378151D01*
X11259921Y-2373680D01*
X11258448Y-2369515D01*
X11256264Y-2365400D01*
X11250371Y-2357018D01*
X11248186Y-2352954D01*
X11246713Y-2348839D01*
X11246002Y-2344521D01*
X11246053Y-2339746D01*
X11246764Y-2334412D01*
X11248186Y-2328214D01*
X11255044Y-2306167D01*
X11235182Y-2269083D01*
X11223647Y-2269083D01*
X11222634Y-2271420D01*
X11236248Y-2292502D01*
X11238992Y-2297379D01*
X11240820Y-2301595D01*
X11241735Y-2305608D01*
X11241836Y-2309723D01*
X11241176Y-2314397D01*
X11235842Y-2332939D01*
X11234775Y-2338222D01*
X11234420Y-2343048D01*
X11234826Y-2347569D01*
X11235994Y-2352090D01*
X11237976Y-2356764D01*
X11240820Y-2361844D01*
X11252708Y-2379370D01*
X11241735Y-2414117D01*
X11246561Y-2423007D01*
X11248847Y-2426817D01*
X11251387Y-2430475D01*
X11253978Y-2433624D01*
X11256264Y-2435809D01*
X11258245Y-2438146D01*
X11259667Y-2441498D01*
X11260582Y-2445715D01*
X11260988Y-2450744D01*
X11260886Y-2456434D01*
X11260277Y-2462682D01*
X11259108Y-2469286D01*
X11257432Y-2476195D01*
X11253673Y-2489606D01*
X11258956Y-2500274D01*
X11261039Y-2505151D01*
X11262664Y-2510637D01*
X11263731Y-2515971D01*
X11264036Y-2520543D01*
X11262766Y-2530246D01*
X11259921Y-2540203D01*
X11256416Y-2547924D01*
X11253063Y-2551023D01*
X11220754Y-2549956D01*
X11161369Y-2547213D01*
X11109756Y-2544013D01*
X11061649Y-2540254D01*
X11039703Y-2538222D01*
X10995761Y-2533599D01*
X11004804Y-2529941D01*
X11009833Y-2527604D01*
X11014710Y-2524709D01*
X11019485Y-2521305D01*
X11024057Y-2517394D01*
X11028426Y-2513076D01*
X11032591Y-2508402D01*
X11036503Y-2503373D01*
X11040110Y-2498090D01*
X11043412Y-2492552D01*
X11046358Y-2486812D01*
X11048949Y-2480919D01*
X11051133Y-2474925D01*
X11052860Y-2468880D01*
X11054181Y-2462784D01*
X11054943Y-2456789D01*
X11055451Y-2444089D01*
X11056213Y-2439517D01*
X11057534Y-2436825D01*
X11059414Y-2436012D01*
X11061496Y-2435504D01*
X11064087Y-2434183D01*
X11066830Y-2432253D01*
X11069370Y-2429916D01*
X11075111Y-2423820D01*
X11069320Y-2408682D01*
X11067288Y-2404516D01*
X11062208Y-2395931D01*
X11055908Y-2387142D01*
X11048492Y-2378252D01*
X11040059Y-2369413D01*
X11030712Y-2360726D01*
X11020602Y-2352344D01*
X11009833Y-2344369D01*
X11000638Y-2337968D01*
X11020907Y-2338120D01*
X11027562Y-2337968D01*
X11033963Y-2337308D01*
X11040160Y-2336241D01*
X11045901Y-2334768D01*
X11051184Y-2333040D01*
X11055908Y-2331008D01*
X11059871Y-2328722D01*
X11063071Y-2326335D01*
X11065408Y-2323795D01*
X11066678Y-2321204D01*
X11066881Y-2318613D01*
X11064951Y-2313076D01*
X11064138Y-2307844D01*
X11063528Y-2301087D01*
X11063020Y-2274570D01*
X11080191Y-2274570D01*
X11093907Y-2274062D01*
X11103660Y-2272690D01*
X11109452Y-2270404D01*
X11111382Y-2267204D01*
X11110772Y-2266238D01*
X11108791Y-2265375D01*
X11105337Y-2264613D01*
X11100358Y-2263902D01*
X11085169Y-2262733D01*
X11049558Y-2261260D01*
X11026190Y-2259787D01*
X11015167Y-2258822D01*
X10993577Y-2256180D01*
X10971428Y-2252522D01*
X10947298Y-2247595D01*
X10919714Y-2241245D01*
X10901832Y-2236825D01*
X10887354Y-2232863D01*
X10876178Y-2229358D01*
X10868355Y-2226360D01*
X10865713Y-2225040D01*
X10863884Y-2223820D01*
X10862919Y-2222754D01*
X10862767Y-2221788D01*
X10852838Y-2221788D01*
X10853216Y-2224024D01*
X10854791Y-2227376D01*
X10857280Y-2230628D01*
X10860735Y-2233726D01*
X10865154Y-2236470D01*
X10870539Y-2238806D01*
X10883900Y-2243531D01*
X10877499Y-2251354D01*
X10875428Y-2254300D01*
X10888319Y-2254300D01*
X10889996Y-2252980D01*
X10892332Y-2251710D01*
X10894974Y-2250592D01*
X10904270Y-2248255D01*
X10905591Y-2248103D01*
X10904778Y-2249322D01*
X10903762Y-2250338D01*
X10898936Y-2253132D01*
X10892942Y-2255215D01*
X10888472Y-2255824D01*
X10888319Y-2254300D01*
X10875428Y-2254300D01*
X10872419Y-2259584D01*
X10870438Y-2264156D01*
X10868890Y-2269642D01*
X10892993Y-2269642D01*
X10892993Y-2264460D01*
X10896955Y-2269693D01*
X10901172Y-2272690D01*
X10905998Y-2272995D01*
X10910011Y-2270912D01*
X10911687Y-2266797D01*
X10911941Y-2265172D01*
X10912602Y-2263851D01*
X10913618Y-2262936D01*
X10914837Y-2262632D01*
X10916056Y-2263089D01*
X10917021Y-2264359D01*
X10917682Y-2266238D01*
X10917936Y-2268524D01*
X10917428Y-2271217D01*
X10915954Y-2273401D01*
X10913465Y-2275128D01*
X10910163Y-2276348D01*
X10903153Y-2277211D01*
X10897768Y-2276297D01*
X10894212Y-2273706D01*
X10892993Y-2269642D01*
X10868890Y-2269642D01*
X10867984Y-2273960D01*
X10878921Y-2273960D01*
X10880750Y-2275484D01*
X10890554Y-2286863D01*
X10904728Y-2285949D01*
X10911890Y-2285136D01*
X10917224Y-2283612D01*
X10921339Y-2281021D01*
X10924997Y-2277160D01*
X10928705Y-2270353D01*
X10929061Y-2264054D01*
X10926216Y-2258466D01*
X10920222Y-2254097D01*
X10913262Y-2250643D01*
X10928959Y-2253488D01*
X10938560Y-2255824D01*
X10942218Y-2256993D01*
X10947908Y-2259990D01*
X10950702Y-2264003D01*
X10950600Y-2269337D01*
X10945876Y-2280310D01*
X10944352Y-2284882D01*
X10943285Y-2289403D01*
X10942918Y-2294991D01*
X10953089Y-2294991D01*
X10953546Y-2288743D01*
X10955629Y-2282748D01*
X10959236Y-2277313D01*
X10964468Y-2272588D01*
X10968278Y-2270252D01*
X10970107Y-2270302D01*
X10970006Y-2272944D01*
X10968177Y-2278329D01*
X10966297Y-2286101D01*
X10966789Y-2289098D01*
X10979048Y-2289098D01*
X10980013Y-2288387D01*
X10981791Y-2287930D01*
X10987227Y-2287524D01*
X10989614Y-2286508D01*
X10991291Y-2284730D01*
X10992256Y-2282393D01*
X10993424Y-2276754D01*
X10985449Y-2278227D01*
X10982452Y-2278583D01*
X10980267Y-2278532D01*
X10979048Y-2278024D01*
X10979048Y-2277160D01*
X10982756Y-2274976D01*
X10988497Y-2274722D01*
X10994542Y-2276144D01*
X10999063Y-2279040D01*
X11002924Y-2283561D01*
X10999063Y-2288032D01*
X10994593Y-2290927D01*
X10988548Y-2292350D01*
X10982756Y-2292146D01*
X10979099Y-2290064D01*
X10979048Y-2289098D01*
X10966789Y-2289098D01*
X10967364Y-2292604D01*
X10971225Y-2297734D01*
X10977778Y-2301240D01*
X10982299Y-2302205D01*
X10987125Y-2302408D01*
X10992104Y-2301748D01*
X10996930Y-2300478D01*
X11001502Y-2298496D01*
X11005566Y-2296007D01*
X11008969Y-2293010D01*
X11011509Y-2289606D01*
X11015116Y-2283155D01*
X11005210Y-2268677D01*
X11024768Y-2270455D01*
X11034064Y-2271623D01*
X11041075Y-2273198D01*
X11046155Y-2275382D01*
X11049762Y-2278227D01*
X11053165Y-2283256D01*
X11054842Y-2288844D01*
X11054791Y-2294686D01*
X11053165Y-2300681D01*
X11050066Y-2306523D01*
X11045444Y-2312111D01*
X11039551Y-2317191D01*
X11032337Y-2321560D01*
X11026597Y-2323744D01*
X11019332Y-2325319D01*
X11010544Y-2326182D01*
X11000028Y-2326436D01*
X10977575Y-2326386D01*
X10966602Y-2318359D01*
X10960912Y-2313228D01*
X10956747Y-2307488D01*
X10954156Y-2301341D01*
X10953089Y-2294991D01*
X10942918Y-2294991D01*
X10942878Y-2301494D01*
X10930026Y-2301494D01*
X10924286Y-2300884D01*
X10916970Y-2299309D01*
X10908792Y-2296972D01*
X10900511Y-2294178D01*
X10892840Y-2291130D01*
X10886440Y-2288184D01*
X10882122Y-2285492D01*
X10880496Y-2283409D01*
X10879886Y-2280107D01*
X10878464Y-2275586D01*
X10878159Y-2273960D01*
X10867984Y-2273960D01*
X10867237Y-2277516D01*
X10849508Y-2264511D01*
X10841075Y-2258720D01*
X10833760Y-2254046D01*
X10827308Y-2250440D01*
X10821720Y-2247798D01*
X10816793Y-2246071D01*
X10812475Y-2245258D01*
X10808614Y-2245207D01*
X10803585Y-2246071D01*
X10799622Y-2247595D01*
X10796625Y-2249678D01*
X10794542Y-2252319D01*
X10793425Y-2255367D01*
X10793301Y-2259330D01*
X10804499Y-2259330D01*
X10804702Y-2255520D01*
X10808106Y-2253843D01*
X10812932Y-2254554D01*
X10819841Y-2257806D01*
X10829442Y-2263851D01*
X10860430Y-2284323D01*
X10870946Y-2290775D01*
X10879836Y-2295702D01*
X10888319Y-2299868D01*
X10919510Y-2313279D01*
X10903559Y-2313178D01*
X10898428Y-2312568D01*
X10892840Y-2311603D01*
X10880648Y-2308656D01*
X10867694Y-2304643D01*
X10854690Y-2299716D01*
X10848390Y-2297074D01*
X10836554Y-2291384D01*
X10831220Y-2288438D01*
X10826394Y-2285492D01*
X10822178Y-2282545D01*
X10818622Y-2279700D01*
X10812373Y-2272944D01*
X10807344Y-2265629D01*
X10804499Y-2259330D01*
X10793301Y-2259330D01*
X10793882Y-2262682D01*
X10795355Y-2266746D01*
X10797641Y-2271014D01*
X10800740Y-2275433D01*
X10804550Y-2279954D01*
X10809122Y-2284476D01*
X10814405Y-2288946D01*
X10820349Y-2293315D01*
X10826902Y-2297480D01*
X10834116Y-2301443D01*
X10853470Y-2311349D01*
X10840331Y-2315718D01*
X10919510Y-2315718D01*
X10937240Y-2311552D01*
X10942523Y-2310942D01*
X10945672Y-2311552D01*
X10947603Y-2313432D01*
X10947349Y-2314651D01*
X10944961Y-2315514D01*
X10940643Y-2316022D01*
X10934496Y-2316073D01*
X10919510Y-2315718D01*
X10840331Y-2315718D01*
X10828782Y-2319528D01*
X10803737Y-2326538D01*
X10775594Y-2333345D01*
X10767771Y-2335479D01*
X10753242Y-2340254D01*
X10746536Y-2342845D01*
X10740237Y-2345588D01*
X10734395Y-2348433D01*
X10724032Y-2354478D01*
X10719562Y-2357678D01*
X10715599Y-2360930D01*
X10712145Y-2364232D01*
X10709249Y-2367635D01*
X10706862Y-2371090D01*
X10705033Y-2374595D01*
X10703814Y-2378100D01*
X10703407Y-2382164D01*
X10703998Y-2385314D01*
X10713872Y-2385314D01*
X10716920Y-2377033D01*
X10718546Y-2373680D01*
X10720984Y-2370378D01*
X10724134Y-2367076D01*
X10728045Y-2363876D01*
X10732668Y-2360777D01*
X10738002Y-2357729D01*
X10743996Y-2354783D01*
X10757966Y-2349246D01*
X10765942Y-2346655D01*
X10783570Y-2341880D01*
X10798657Y-2338120D01*
X10814964Y-2333752D01*
X10830509Y-2329281D01*
X10853877Y-2322118D01*
X10863224Y-2319731D01*
X10870387Y-2318359D01*
X10874248Y-2318308D01*
X10878312Y-2319172D01*
X10895736Y-2321610D01*
X10915142Y-2323795D01*
X10929721Y-2325725D01*
X10942523Y-2327910D01*
X10953902Y-2330500D01*
X10964164Y-2333498D01*
X10973663Y-2337104D01*
X10982858Y-2341422D01*
X10992002Y-2346502D01*
X11002822Y-2353310D01*
X11014151Y-2361234D01*
X11024260Y-2369312D01*
X11028934Y-2373376D01*
X11037570Y-2381859D01*
X11045393Y-2390800D01*
X11052606Y-2400350D01*
X11056061Y-2405532D01*
X11058601Y-2410104D01*
X11060226Y-2414016D01*
X11061039Y-2417318D01*
X11060887Y-2420010D01*
X11059871Y-2422093D01*
X11057890Y-2423566D01*
X11055045Y-2424531D01*
X11051235Y-2424836D01*
X11046510Y-2424633D01*
X11040821Y-2423871D01*
X11024006Y-2420315D01*
X11024006Y-2425090D01*
X11024768Y-2427224D01*
X11026800Y-2429256D01*
X11030000Y-2431034D01*
X11034166Y-2432405D01*
X11044326Y-2434996D01*
X11043716Y-2457246D01*
X11043056Y-2462834D01*
X11042142Y-2468219D01*
X11040821Y-2473452D01*
X11039195Y-2478430D01*
X11037265Y-2483256D01*
X11034979Y-2487828D01*
X11032337Y-2492248D01*
X11029391Y-2496413D01*
X11026140Y-2500426D01*
X11022533Y-2504186D01*
X11018621Y-2507742D01*
X11013592Y-2511755D01*
X11008512Y-2515311D01*
X11003330Y-2518410D01*
X10997996Y-2521102D01*
X10992358Y-2523388D01*
X10986414Y-2525318D01*
X10980064Y-2526893D01*
X10973257Y-2528112D01*
X10965891Y-2529027D01*
X10957915Y-2529636D01*
X10949228Y-2529992D01*
X10907014Y-2529941D01*
X10881512Y-2519680D01*
X10870082Y-2514295D01*
X10859262Y-2508300D01*
X10849102Y-2501798D01*
X10839653Y-2494737D01*
X10830966Y-2487269D01*
X10822990Y-2479344D01*
X10815878Y-2471013D01*
X10809579Y-2462377D01*
X10804194Y-2453386D01*
X10799673Y-2444089D01*
X10796117Y-2434590D01*
X10792764Y-2422194D01*
X10803077Y-2423261D01*
X10809884Y-2423515D01*
X10818266Y-2423312D01*
X10827461Y-2422702D01*
X10836757Y-2421788D01*
X10845342Y-2420569D01*
X10852505Y-2419299D01*
X10857484Y-2417927D01*
X10859516Y-2416556D01*
X10858804Y-2415895D01*
X10856417Y-2415184D01*
X10847019Y-2413914D01*
X10831931Y-2412796D01*
X10763504Y-2410256D01*
X10744860Y-2403703D01*
X10737138Y-2400655D01*
X10729874Y-2397302D01*
X10723880Y-2394000D01*
X10720019Y-2391206D01*
X10713872Y-2385314D01*
X10703998Y-2385314D01*
X10704169Y-2386228D01*
X10706049Y-2390292D01*
X10708944Y-2394356D01*
X10712856Y-2398268D01*
X10717682Y-2402027D01*
X10723372Y-2405583D01*
X10729823Y-2408936D01*
X10736986Y-2411933D01*
X10744809Y-2414625D01*
X10753191Y-2416911D01*
X10769295Y-2420264D01*
X10775188Y-2421737D01*
X10779201Y-2423109D01*
X10780674Y-2424125D01*
X10777829Y-2425852D01*
X10758424Y-2434996D01*
X10727791Y-2448560D01*
X10694517Y-2462885D01*
X10667136Y-2474214D01*
X10658297Y-2477566D01*
X10653115Y-2478735D01*
X10646308Y-2478887D01*
X10637418Y-2478074D01*
X10619689Y-2475179D01*
X10606481Y-2473502D01*
X10592866Y-2472436D01*
X10579150Y-2472029D01*
X10565739Y-2472182D01*
X10552836Y-2472893D01*
X10540796Y-2474163D01*
X10529976Y-2475941D01*
X10525048Y-2477008D01*
X10516565Y-2479598D01*
X10513060Y-2481072D01*
X10510062Y-2482646D01*
X10506710Y-2485593D01*
X10502696Y-2490470D01*
X10498480Y-2496667D01*
X10494619Y-2503474D01*
X10491520Y-2510028D01*
X10489488Y-2515463D01*
X10488854Y-2518562D01*
X10499852Y-2518562D01*
X10500309Y-2515920D01*
X10501782Y-2513431D01*
X10504424Y-2511196D01*
X10508234Y-2509012D01*
X10513466Y-2506929D01*
X10520172Y-2504795D01*
X10528452Y-2502662D01*
X10548112Y-2498191D01*
X10555935Y-2496108D01*
X10561878Y-2494127D01*
X10565892Y-2492349D01*
X10567924Y-2490724D01*
X10567924Y-2489352D01*
X10565841Y-2488234D01*
X10561574Y-2487422D01*
X10557154Y-2487422D01*
X10550347Y-2488082D01*
X10542168Y-2489250D01*
X10526115Y-2492095D01*
X10520426Y-2492756D01*
X10516565Y-2492908D01*
X10514533Y-2492502D01*
X10514482Y-2491638D01*
X10516514Y-2490419D01*
X10520781Y-2488895D01*
X10532059Y-2485999D01*
X10541812Y-2484170D01*
X10551820Y-2482900D01*
X10562285Y-2482138D01*
X10573156Y-2481884D01*
X10584586Y-2482189D01*
X10596676Y-2483053D01*
X10609529Y-2484424D01*
X10652607Y-2490317D01*
X10669981Y-2484018D01*
X10686999Y-2477160D01*
X10774578Y-2439924D01*
X10784332Y-2436164D01*
X10785246Y-2436520D01*
X10786160Y-2437587D01*
X10786973Y-2439212D01*
X10787532Y-2441244D01*
X10786872Y-2444292D01*
X10783062Y-2447798D01*
X10775492Y-2452217D01*
X10756544Y-2461158D01*
X10726572Y-2474214D01*
X10698226Y-2485847D01*
X10686491Y-2490419D01*
X10677296Y-2493721D01*
X10671403Y-2495550D01*
X10665155Y-2496921D01*
X10663275Y-2499868D01*
X10664393Y-2503627D01*
X10668558Y-2507488D01*
X10672318Y-2510028D01*
X10681716Y-2517546D01*
X10686288Y-2521559D01*
X10696397Y-2531059D01*
X10696397Y-2544673D01*
X10696092Y-2551379D01*
X10695127Y-2556103D01*
X10693247Y-2559304D01*
X10690352Y-2561437D01*
X10683798Y-2564079D01*
X10679938Y-2563164D01*
X10678160Y-2557983D01*
X10677702Y-2547772D01*
X10677702Y-2531059D01*
X10668406Y-2522778D01*
X10664088Y-2519426D01*
X10658957Y-2516428D01*
X10653115Y-2513888D01*
X10646664Y-2511704D01*
X10639704Y-2510028D01*
X10632236Y-2508758D01*
X10624413Y-2507996D01*
X10616234Y-2507742D01*
X10608818Y-2507894D01*
X10602112Y-2508504D01*
X10595864Y-2509570D01*
X10589768Y-2511247D01*
X10583621Y-2513584D01*
X10577068Y-2516682D01*
X10569905Y-2520594D01*
X10553954Y-2530246D01*
X10547146Y-2534056D01*
X10541304Y-2536901D01*
X10536377Y-2538831D01*
X10532211Y-2539898D01*
X10528858Y-2540050D01*
X10526115Y-2539441D01*
X10523931Y-2537968D01*
X10522610Y-2535834D01*
X10522864Y-2533396D01*
X10524591Y-2530703D01*
X10527792Y-2527757D01*
X10532364Y-2524556D01*
X10538358Y-2521204D01*
X10545775Y-2517648D01*
X10562285Y-2510586D01*
X10568482Y-2507640D01*
X10573054Y-2505049D01*
X10576001Y-2502865D01*
X10577220Y-2501138D01*
X10576712Y-2499817D01*
X10574477Y-2499055D01*
X10570464Y-2498750D01*
X10566095Y-2499512D01*
X10559542Y-2501442D01*
X10551668Y-2504287D01*
X10543235Y-2507691D01*
X10535056Y-2511298D01*
X10527893Y-2514803D01*
X10522559Y-2517851D01*
X10519867Y-2520086D01*
X10515549Y-2522321D01*
X10508792Y-2522677D01*
X10502595Y-2521356D01*
X10499852Y-2518562D01*
X10488854Y-2518562D01*
X10488574Y-2519934D01*
X10488879Y-2523642D01*
X10490301Y-2526639D01*
X10492994Y-2529078D01*
X10496956Y-2531160D01*
X10506100Y-2534462D01*
X10509504Y-2536545D01*
X10512044Y-2538831D01*
X10513364Y-2541168D01*
X10516565Y-2545943D01*
X10522559Y-2549093D01*
X10530230Y-2550261D01*
X10538663Y-2549194D01*
X10543997Y-2547112D01*
X10551668Y-2543251D01*
X10560608Y-2538171D01*
X10569905Y-2532430D01*
X10591901Y-2518206D01*
X10616844Y-2518460D01*
X10626344Y-2518765D01*
X10634827Y-2519578D01*
X10642295Y-2520848D01*
X10648746Y-2522575D01*
X10654284Y-2524810D01*
X10658856Y-2527554D01*
X10662462Y-2530754D01*
X10665104Y-2534462D01*
X10666374Y-2537917D01*
X10667390Y-2542946D01*
X10668050Y-2548991D01*
X10668304Y-2555240D01*
X10668304Y-2570276D01*
X10674350Y-2573375D01*
X10679582Y-2574798D01*
X10685221Y-2574290D01*
X10690961Y-2572105D01*
X10696498Y-2568549D01*
X10701375Y-2563876D01*
X10705338Y-2558389D01*
X10707928Y-2552344D01*
X10708894Y-2546045D01*
X10708538Y-2541981D01*
X10707624Y-2537612D01*
X10706049Y-2533040D01*
X10704017Y-2528366D01*
X10701426Y-2523693D01*
X10698429Y-2519070D01*
X10695025Y-2514650D01*
X10691266Y-2510485D01*
X10683748Y-2502712D01*
X10722254Y-2487066D01*
X10771124Y-2465730D01*
X10789412Y-2458059D01*
X10792764Y-2456942D01*
X10794034Y-2457754D01*
X10795965Y-2460040D01*
X10798352Y-2463444D01*
X10802975Y-2471064D01*
X10805718Y-2474823D01*
X10812627Y-2482951D01*
X10821162Y-2491486D01*
X10830864Y-2500122D01*
X10841431Y-2508504D01*
X10846866Y-2512517D01*
X10859160Y-2521000D01*
X10864799Y-2525623D01*
X10868812Y-2529535D01*
X10870488Y-2532227D01*
X10869980Y-2534920D01*
X10867898Y-2538831D01*
X10864545Y-2543454D01*
X10852454Y-2557373D01*
X10847984Y-2565501D01*
X10847392Y-2569159D01*
X10858906Y-2569159D01*
X10859262Y-2566568D01*
X10861141Y-2563114D01*
X10864596Y-2558745D01*
X10873841Y-2548737D01*
X10877296Y-2544064D01*
X10879632Y-2539949D01*
X10880496Y-2537002D01*
X10880902Y-2533345D01*
X10883188Y-2532075D01*
X10888776Y-2533091D01*
X10902746Y-2537460D01*
X10911687Y-2539136D01*
X10922508Y-2540406D01*
X10934496Y-2541066D01*
X10953089Y-2541422D01*
X10961319Y-2542032D01*
X10965738Y-2543149D01*
X10966653Y-2544673D01*
X10963605Y-2552903D01*
X10951870Y-2587752D01*
X10922000Y-2594762D01*
X10910163Y-2597251D01*
X10888116Y-2572715D01*
X10873384Y-2572969D01*
X10867339Y-2572867D01*
X10862919Y-2572258D01*
X10860125Y-2571038D01*
X10858906Y-2569159D01*
X10847392Y-2569159D01*
X10846866Y-2572410D01*
X10849305Y-2577947D01*
X10853115Y-2582367D01*
X10841685Y-2586532D01*
X10821619Y-2595575D01*
X10780217Y-2615387D01*
X10769650Y-2620060D01*
X10760506Y-2623413D01*
X10756239Y-2624734D01*
X10747502Y-2626715D01*
X10737900Y-2628087D01*
X10726369Y-2629154D01*
X10697413Y-2631338D01*
X10684205Y-2632913D01*
X10673791Y-2634640D01*
X10670133Y-2635453D01*
X10667695Y-2636266D01*
X10664545Y-2638094D01*
X10661700Y-2640584D01*
X10659110Y-2643733D01*
X10656773Y-2647543D01*
X10654792Y-2651963D01*
X10653115Y-2656992D01*
X10651744Y-2662580D01*
X10650728Y-2668778D01*
X10650474Y-2673400D01*
X10650832Y-2675788D01*
X10662716Y-2675788D01*
X10666526Y-2671470D01*
X10679988Y-2665272D01*
X10683595Y-2661666D01*
X10683849Y-2658516D01*
X10680039Y-2657144D01*
X10678617Y-2656941D01*
X10678261Y-2656382D01*
X10678972Y-2655417D01*
X10685475Y-2651099D01*
X10673384Y-2642260D01*
X10688980Y-2641549D01*
X10757255Y-2637028D01*
X10814050Y-2610561D01*
X10834471Y-2601264D01*
X10851286Y-2593949D01*
X10864545Y-2588615D01*
X10874197Y-2585161D01*
X10877651Y-2584196D01*
X10880191Y-2583738D01*
X10881868Y-2583738D01*
X10883087Y-2584196D01*
X10884255Y-2585110D01*
X10885271Y-2586278D01*
X10885932Y-2587599D01*
X10885424Y-2589174D01*
X10883239Y-2591003D01*
X10879734Y-2592882D01*
X10870895Y-2596032D01*
X10860227Y-2600248D01*
X10847679Y-2605836D01*
X10834217Y-2612288D01*
X10820908Y-2619197D01*
X10808614Y-2625953D01*
X10796574Y-2633116D01*
X10790580Y-2636316D01*
X10785957Y-2638450D01*
X10783316Y-2639263D01*
X10781995Y-2639872D01*
X10781284Y-2641600D01*
X10781182Y-2644394D01*
X10782300Y-2652217D01*
X10781792Y-2655519D01*
X10779861Y-2658160D01*
X10776051Y-2660345D01*
X10770006Y-2662224D01*
X10761268Y-2663952D01*
X10749483Y-2665730D01*
X10726369Y-2668778D01*
X10711281Y-2671114D01*
X10698124Y-2673553D01*
X10688523Y-2675788D01*
X10680852Y-2678430D01*
X10676026Y-2679852D01*
X10671606Y-2680766D01*
X10668203Y-2681122D01*
X10663072Y-2679547D01*
X10662716Y-2675788D01*
X10650832Y-2675788D01*
X10651083Y-2677464D01*
X10652404Y-2681020D01*
X10654487Y-2684018D01*
X10657230Y-2686405D01*
X10660583Y-2688234D01*
X10664494Y-2689453D01*
X10668965Y-2690012D01*
X10673892Y-2689961D01*
X10679277Y-2689199D01*
X10685068Y-2687777D01*
X10694009Y-2684678D01*
X10702594Y-2682595D01*
X10713923Y-2680512D01*
X10726521Y-2678734D01*
X10754817Y-2675382D01*
X10763504Y-2674010D01*
X10770870Y-2672588D01*
X10776966Y-2670962D01*
X10781893Y-2669184D01*
X10785754Y-2667203D01*
X10788700Y-2664917D01*
X10790783Y-2662275D01*
X10792155Y-2659278D01*
X10792917Y-2655874D01*
X10793120Y-2652014D01*
X10794390Y-2648915D01*
X10798048Y-2645156D01*
X10804144Y-2640736D01*
X10812627Y-2635707D01*
X10825734Y-2628646D01*
X10839196Y-2621737D01*
X10852404Y-2615285D01*
X10864646Y-2609646D01*
X10875365Y-2605024D01*
X10883849Y-2601823D01*
X10895330Y-2597962D01*
X10905286Y-2607462D01*
X10932312Y-2602738D01*
X10938764Y-2601925D01*
X10943386Y-2601569D01*
X10945418Y-2601772D01*
X10945266Y-2604109D01*
X10943945Y-2609494D01*
X10935614Y-2635402D01*
X10933480Y-2643174D01*
X10933173Y-2644952D01*
X10944809Y-2644952D01*
X10944910Y-2643682D01*
X10947095Y-2635707D01*
X10951413Y-2621838D01*
X10957356Y-2603754D01*
X10977930Y-2543606D01*
X10990834Y-2543606D01*
X10997438Y-2543860D01*
X11015065Y-2545588D01*
X11031880Y-2548128D01*
X11043361Y-2550464D01*
X11045494Y-2551226D01*
X11045698Y-2552395D01*
X11045596Y-2559253D01*
X11043869Y-2585618D01*
X11042613Y-2600401D01*
X11053673Y-2600401D01*
X11055705Y-2549347D01*
X11062309Y-2551023D01*
X11079429Y-2552344D01*
X11110569Y-2554122D01*
X11225072Y-2559761D01*
X11257178Y-2561996D01*
X11260734Y-2573324D01*
X11262512Y-2579674D01*
X11263630Y-2585466D01*
X11264087Y-2590749D01*
X11263884Y-2595575D01*
X11263020Y-2600045D01*
X11261496Y-2604262D01*
X11259261Y-2608173D01*
X11256314Y-2611983D01*
X11252504Y-2615996D01*
X11248898Y-2619095D01*
X11246549Y-2620518D01*
X11267287Y-2620518D01*
X11267592Y-2617063D01*
X11271504Y-2608884D01*
X11277904Y-2596438D01*
X11268608Y-2562301D01*
X11310620Y-2559608D01*
X11344097Y-2556662D01*
X11359337Y-2554986D01*
X11398453Y-2550007D01*
X11400840Y-2550972D01*
X11403228Y-2554427D01*
X11405717Y-2560624D01*
X11408308Y-2569667D01*
X11410442Y-2578862D01*
X11411508Y-2586126D01*
X11411559Y-2591511D01*
X11410543Y-2595067D01*
X11407597Y-2600401D01*
X11386515Y-2600401D01*
X11376101Y-2600756D01*
X11367414Y-2601823D01*
X11359946Y-2603754D01*
X11353088Y-2606598D01*
X11340693Y-2612745D01*
X11316716Y-2609646D01*
X11309502Y-2608986D01*
X11303203Y-2608834D01*
X11297666Y-2609088D01*
X11292738Y-2609850D01*
X11288217Y-2611069D01*
X11283899Y-2612847D01*
X11273679Y-2618333D01*
X11304270Y-2618333D01*
X11307775Y-2618638D01*
X11312245Y-2619552D01*
X11316970Y-2620822D01*
X11321542Y-2622448D01*
X11324031Y-2623769D01*
X11327282Y-2625902D01*
X11335410Y-2632354D01*
X11344859Y-2640888D01*
X11364214Y-2660192D01*
X11373916Y-2668879D01*
X11378387Y-2672588D01*
X11382451Y-2675636D01*
X11385956Y-2677972D01*
X11388801Y-2679496D01*
X11395964Y-2682036D01*
X11407038Y-2685389D01*
X11420398Y-2688996D01*
X11468760Y-2700528D01*
X11468171Y-2703474D01*
X11478158Y-2703474D01*
X11478260Y-2702153D01*
X11481003Y-2702560D01*
X11485727Y-2704896D01*
X11487404Y-2706116D01*
X11488521Y-2707284D01*
X11489029Y-2708351D01*
X11488826Y-2709113D01*
X11487759Y-2709316D01*
X11486032Y-2708859D01*
X11483746Y-2707792D01*
X11481308Y-2706268D01*
X11478158Y-2703474D01*
X11468171Y-2703474D01*
X11467795Y-2705354D01*
X11467998Y-2707589D01*
X11469420Y-2710180D01*
X11471757Y-2712821D01*
X11477853Y-2717342D01*
X11480342Y-2719628D01*
X11482070Y-2721813D01*
X11482679Y-2723540D01*
X11482120Y-2724404D01*
X11480647Y-2724150D01*
X11478412Y-2722981D01*
X11467795Y-2714752D01*
X11461038Y-2710992D01*
X11455908Y-2709824D01*
X11452809Y-2711399D01*
X11453520Y-2714955D01*
X11457533Y-2719781D01*
X11462918Y-2723997D01*
X11468760Y-2726131D01*
X11469522Y-2726791D01*
X11470030Y-2727756D01*
X11470182Y-2728925D01*
X11467947Y-2731414D01*
X11462054Y-2731719D01*
X11453977Y-2729941D01*
X11444986Y-2726232D01*
X11440160Y-2723896D01*
X11434978Y-2721711D01*
X11429339Y-2719679D01*
X11415725Y-2715768D01*
X11397488Y-2711551D01*
X11376101Y-2706928D01*
X11365992Y-2704084D01*
X11357000Y-2701137D01*
X11350244Y-2698343D01*
X11337645Y-2692196D01*
X11351564Y-2683865D01*
X11358727Y-2679090D01*
X11329720Y-2647950D01*
X11311839Y-2629814D01*
X11305794Y-2624277D01*
X11303965Y-2622854D01*
X11297208Y-2618333D01*
X11273679Y-2618333D01*
X11271097Y-2619756D01*
X11267287Y-2620518D01*
X11246549Y-2620518D01*
X11245291Y-2621280D01*
X11241582Y-2622550D01*
X11237518Y-2623007D01*
X11232896Y-2622651D01*
X11227663Y-2621584D01*
X11207800Y-2615641D01*
X11201450Y-2614117D01*
X11195304Y-2612898D01*
X11189360Y-2612034D01*
X11183518Y-2611475D01*
X11177676Y-2611221D01*
X11171834Y-2611272D01*
X11165840Y-2611628D01*
X11159642Y-2612288D01*
X11146383Y-2614472D01*
X11120526Y-2619603D01*
X11102289Y-2610002D01*
X11092992Y-2605481D01*
X11084763Y-2602534D01*
X11076940Y-2600909D01*
X11068862Y-2600401D01*
X11042613Y-2600401D01*
X11040262Y-2624836D01*
X11038840Y-2637129D01*
X11037620Y-2645003D01*
X11035741Y-2654198D01*
X11006226Y-2653944D01*
X10992967Y-2653080D01*
X10978591Y-2651607D01*
X10964926Y-2649728D01*
X10953597Y-2647696D01*
X10949330Y-2646730D01*
X10946333Y-2645816D01*
X10944809Y-2644952D01*
X10933173Y-2644952D01*
X10932515Y-2648762D01*
X10932769Y-2651302D01*
X10935208Y-2652623D01*
X10939221Y-2653995D01*
X10944656Y-2655417D01*
X10958677Y-2658211D01*
X10975543Y-2660853D01*
X10993526Y-2663088D01*
X11010849Y-2664663D01*
X11025835Y-2665425D01*
X11031880Y-2665425D01*
X11036706Y-2665171D01*
X11040008Y-2664561D01*
X11041989Y-2663698D01*
X11043615Y-2662275D01*
X11045037Y-2660040D01*
X11046256Y-2656840D01*
X11047323Y-2652420D01*
X11048390Y-2646578D01*
X11050574Y-2629662D01*
X11052505Y-2612644D01*
X11058804Y-2610713D01*
X11062716Y-2609951D01*
X11067288Y-2609850D01*
X11072418Y-2610307D01*
X11077905Y-2611323D01*
X11083696Y-2612847D01*
X11089589Y-2614930D01*
X11095482Y-2617470D01*
X11101273Y-2620467D01*
X11114786Y-2628036D01*
X11143742Y-2624836D01*
X11161725Y-2623108D01*
X11175238Y-2622346D01*
X11180775Y-2622296D01*
X11190478Y-2623007D01*
X11199622Y-2624683D01*
X11224666Y-2631592D01*
X11231016Y-2633116D01*
X11236756Y-2634234D01*
X11241989Y-2634996D01*
X11246713Y-2635402D01*
X11251082Y-2635453D01*
X11255146Y-2635148D01*
X11259058Y-2634488D01*
X11262817Y-2633472D01*
X11266525Y-2632100D01*
X11275771Y-2628087D01*
X11281156Y-2626410D01*
X11285778Y-2625598D01*
X11289030Y-2625750D01*
X11291519Y-2626969D01*
X11295075Y-2629458D01*
X11304778Y-2637790D01*
X11317478Y-2650185D01*
X11342065Y-2676194D01*
X11335918Y-2680309D01*
X11331448Y-2684780D01*
X11330076Y-2689910D01*
X11331905Y-2695448D01*
X11336832Y-2701137D01*
X11340744Y-2704388D01*
X11344656Y-2707081D01*
X11348872Y-2709418D01*
X11353850Y-2711500D01*
X11359946Y-2713431D01*
X11377066Y-2717596D01*
X11395760Y-2721559D01*
X11409781Y-2725013D01*
X11422888Y-2728722D01*
X11433454Y-2732227D01*
X11443919Y-2736545D01*
X11450116Y-2738526D01*
X11455958Y-2739898D01*
X11461496Y-2740507D01*
X11466830Y-2740456D01*
X11471960Y-2739745D01*
X11476990Y-2738323D01*
X11482070Y-2736240D01*
X11488928Y-2731363D01*
X11495176Y-2724251D01*
X11499646Y-2716377D01*
X11501424Y-2709265D01*
X11500662Y-2706370D01*
X11498427Y-2703474D01*
X11494770Y-2700629D01*
X11489690Y-2697835D01*
X11483187Y-2695092D01*
X11475364Y-2692400D01*
X11466118Y-2689809D01*
X11435080Y-2682443D01*
X11421414Y-2678887D01*
X11409680Y-2675585D01*
X11385143Y-2667762D01*
X11342420Y-2622905D01*
X11354054Y-2617063D01*
X11360353Y-2614472D01*
X11367262Y-2612745D01*
X11375085Y-2611831D01*
X11391798Y-2611577D01*
X11398758Y-2610916D01*
X11404904Y-2609646D01*
X11410188Y-2607919D01*
X11414607Y-2605582D01*
X11418112Y-2602788D01*
X11420652Y-2599436D01*
X11422176Y-2595626D01*
X11422583Y-2591206D01*
X11422075Y-2584754D01*
X11420856Y-2577236D01*
X11416588Y-2560116D01*
X11415522Y-2553055D01*
X11415674Y-2547416D01*
X11418620Y-2537460D01*
X11419687Y-2532024D01*
X11420094Y-2526385D01*
X11419941Y-2520543D01*
X11419230Y-2514701D01*
X11417909Y-2508859D01*
X11416030Y-2503170D01*
X11413540Y-2497632D01*
X11406835Y-2484374D01*
X11412474Y-2465324D01*
X11415115Y-2458008D01*
X11415776Y-2456942D01*
X11418468Y-2458212D01*
X11434419Y-2467406D01*
X11459718Y-2482494D01*
X11502542Y-2508656D01*
X11536426Y-2529738D01*
X11523268Y-2533446D01*
X11517833Y-2535275D01*
X11512702Y-2537561D01*
X11507978Y-2540254D01*
X11503609Y-2543302D01*
X11499646Y-2546705D01*
X11496141Y-2550464D01*
X11493093Y-2554528D01*
X11490553Y-2558796D01*
X11488521Y-2563317D01*
X11487048Y-2568041D01*
X11486134Y-2572918D01*
X11485829Y-2577896D01*
X11485829Y-2588564D01*
X11493398Y-2591866D01*
X11497919Y-2593441D01*
X11502186Y-2594102D01*
X11506200Y-2593898D01*
X11509908Y-2592781D01*
X11513261Y-2590800D01*
X11516309Y-2587955D01*
X11518950Y-2584196D01*
X11523472Y-2574950D01*
X11525910Y-2571038D01*
X11528602Y-2567889D01*
X11531701Y-2565450D01*
X11535257Y-2563672D01*
X11539372Y-2562453D01*
X11544147Y-2561742D01*
X11549684Y-2561539D01*
X11555374Y-2561844D01*
X11560911Y-2562707D01*
X11566347Y-2564180D01*
X11571630Y-2566212D01*
X11576761Y-2568854D01*
X11581739Y-2572054D01*
X11586616Y-2575814D01*
X11591290Y-2580182D01*
X11601602Y-2590596D01*
X11605768Y-2613456D01*
X11607698Y-2622702D01*
X11609832Y-2630932D01*
X11611965Y-2637282D01*
X11613743Y-2640787D01*
X11618417Y-2644140D01*
X11623903Y-2645003D01*
X11629796Y-2643327D01*
X11635587Y-2639263D01*
X11637924Y-2636164D01*
X11639753Y-2632049D01*
X11641074Y-2627122D01*
X11641785Y-2621635D01*
X11641886Y-2615793D01*
X11641429Y-2609900D01*
X11640312Y-2604109D01*
X11636857Y-2593797D01*
X11636146Y-2590698D01*
X11636349Y-2589276D01*
X11637314Y-2589479D01*
X11638991Y-2591155D01*
X11641175Y-2594254D01*
X11643766Y-2598724D01*
X11646662Y-2604465D01*
X11652250Y-2614574D01*
X11657838Y-2621686D01*
X11663578Y-2625902D01*
X11669471Y-2627274D01*
X11674043Y-2625699D01*
X11678208Y-2621483D01*
X11681206Y-2615692D01*
X11682374Y-2609342D01*
X11682628Y-2605836D01*
X11683288Y-2602738D01*
X11684304Y-2600299D01*
X11685473Y-2598877D01*
X11688114Y-2594254D01*
X11688368Y-2586278D01*
X11686387Y-2576931D01*
X11682374Y-2568194D01*
X11678767Y-2563672D01*
X11673636Y-2558643D01*
X11667591Y-2553665D01*
X11661343Y-2549398D01*
X11657025Y-2547061D01*
X11645646Y-2541879D01*
X11631879Y-2536647D01*
X11617452Y-2531872D01*
X11604091Y-2528112D01*
X11598351Y-2526792D01*
X11593474Y-2525979D01*
X11586921Y-2525318D01*
X11584025Y-2524302D01*
X11581333Y-2522829D01*
X11578082Y-2519883D01*
X11573459Y-2516276D01*
X11556746Y-2504744D01*
X11532565Y-2489047D01*
X11504168Y-2471166D01*
X11467439Y-2448763D01*
X11440922Y-2433167D01*
X11413693Y-2418181D01*
X11408562Y-2414981D01*
X11404904Y-2411831D01*
X11402466Y-2408326D01*
X11400993Y-2404059D01*
X11400383Y-2398623D01*
X11400434Y-2391664D01*
X11402314Y-2359253D01*
X11393068Y-2338984D01*
X11391188Y-2333904D01*
X11389969Y-2329434D01*
X11389461Y-2325166D01*
X11389664Y-2320848D01*
X11390528Y-2316226D01*
X11392052Y-2310942D01*
X11396167Y-2298903D01*
X11397335Y-2293569D01*
X11397742Y-2288692D01*
X11397284Y-2284171D01*
X11396065Y-2279853D01*
X11393982Y-2275636D01*
X11391036Y-2271420D01*
X11387226Y-2267102D01*
X11379047Y-2258618D01*
X11381587Y-2232253D01*
X11381740Y-2226462D01*
X11381486Y-2221230D01*
X11380825Y-2216556D01*
X11379708Y-2212441D01*
X11378082Y-2208784D01*
X11375948Y-2205583D01*
X11373307Y-2202891D01*
X11370106Y-2200605D01*
X11366296Y-2198725D01*
X11361877Y-2197252D01*
X11356848Y-2196084D01*
X11351107Y-2195322D01*
X11344656Y-2194814D01*
X11337493Y-2194610D01*
X11303304Y-2195271D01*
X11283797Y-2186787D01*
X11279581Y-2185314D01*
X11270437Y-2182926D01*
X11260582Y-2181199D01*
X11250218Y-2180234D01*
X11226546Y-2178761D01*
X11211560Y-2177389D01*
X11206378Y-2176576D01*
X11202365Y-2175662D01*
X11199114Y-2174595D01*
X11196320Y-2173325D01*
X11192408Y-2171903D01*
X11187531Y-2171141D01*
X11181943Y-2170988D01*
X11176000Y-2171496D01*
X11162893Y-2173325D01*
X11141100Y-2157831D01*
X11099139Y-2158847D01*
X11088014Y-2149449D01*
X11083391Y-2145842D01*
X11079124Y-2143201D01*
X11075009Y-2141474D01*
G37*
G36*
X10971174Y-2210714D02*
G01*
X10969701Y-2211070D01*
X10967618Y-2213864D01*
X10967466Y-2216505D01*
X10969345Y-2218944D01*
X10973308Y-2221280D01*
X10979353Y-2223465D01*
X10987532Y-2225548D01*
X10997946Y-2227580D01*
X11010595Y-2229561D01*
X11030102Y-2231948D01*
X11037265Y-2232507D01*
X11042904Y-2232609D01*
X11047120Y-2232253D01*
X11049965Y-2231440D01*
X11051590Y-2230221D01*
X11052098Y-2228494D01*
X11051743Y-2227021D01*
X11050524Y-2225700D01*
X11048136Y-2224582D01*
X11044377Y-2223516D01*
X11031524Y-2221433D01*
X11001959Y-2217928D01*
X10993882Y-2216505D01*
X10986668Y-2214829D01*
X10977372Y-2211832D01*
X10973866Y-2210968D01*
G37*
G36*
X10965942Y-2227122D02*
G01*
X10962436Y-2227884D01*
X10962386Y-2230475D01*
X10963910Y-2233015D01*
X10966653Y-2235301D01*
X10970768Y-2237384D01*
X10976203Y-2239213D01*
X10983010Y-2240838D01*
X10991240Y-2242261D01*
X11000943Y-2243531D01*
X11012170Y-2244598D01*
X11026546Y-2245563D01*
X11037265Y-2245817D01*
X11044428Y-2245360D01*
X11048136Y-2244140D01*
X11050930Y-2240432D01*
X11048542Y-2237790D01*
X11040821Y-2236216D01*
X11023142Y-2235555D01*
X11012881Y-2234895D01*
X11002162Y-2233726D01*
X10992307Y-2232152D01*
X10974070Y-2228240D01*
G37*
G36*
X11076228Y-2335022D02*
G01*
X11072215Y-2335276D01*
X11069218Y-2337460D01*
X11068608Y-2339035D01*
X11068608Y-2340762D01*
X11069167Y-2342489D01*
X11070285Y-2344013D01*
X11074196Y-2345690D01*
X11078616Y-2345131D01*
X11081918Y-2342896D01*
X11082528Y-2339594D01*
X11080089Y-2336546D01*
G37*
G36*
X11043716Y-2340610D02*
G01*
X11042142Y-2341880D01*
X11040821Y-2344674D01*
X11040110Y-2348890D01*
X11041380Y-2352243D01*
X11044478Y-2354478D01*
X11049152Y-2355291D01*
X11053470Y-2353614D01*
X11055197Y-2349703D01*
X11054181Y-2345334D01*
X11050270Y-2342134D01*
X11046155Y-2340813D01*
G37*
G36*
X10855909Y-2341473D02*
G01*
X10840313Y-2341778D01*
X10825988Y-2342489D01*
X10813694Y-2343556D01*
X10804042Y-2345080D01*
X10790428Y-2348484D01*
X10777067Y-2352649D01*
X10764875Y-2357323D01*
X10754563Y-2362098D01*
X10750397Y-2364435D01*
X10746994Y-2366670D01*
X10744504Y-2368804D01*
X10742930Y-2370734D01*
X10741558Y-2374087D01*
X10741336Y-2376932D01*
X10752582Y-2376932D01*
X10756036Y-2373223D01*
X10764113Y-2368042D01*
X10773257Y-2363368D01*
X10779810Y-2361336D01*
X10781436Y-2361946D01*
X10783062Y-2363724D01*
X10784433Y-2366314D01*
X10785564Y-2369972D01*
X10796524Y-2369972D01*
X10796574Y-2365654D01*
X10796930Y-2361844D01*
X10797540Y-2358898D01*
X10798352Y-2357272D01*
X10800892Y-2355646D01*
X10803229Y-2355443D01*
X10804906Y-2356612D01*
X10805464Y-2358999D01*
X10805058Y-2361184D01*
X10802721Y-2367940D01*
X10796778Y-2380691D01*
X10796524Y-2369972D01*
X10785564Y-2369972D01*
X10788345Y-2382926D01*
X10788446Y-2385364D01*
X10787481Y-2386990D01*
X10785297Y-2387904D01*
X10781842Y-2388158D01*
X10773359Y-2386939D01*
X10763758Y-2383891D01*
X10755833Y-2380183D01*
X10752582Y-2376932D01*
X10741336Y-2376932D01*
X10742168Y-2380437D01*
X10744098Y-2383383D01*
X10747146Y-2386126D01*
X10751210Y-2388666D01*
X10756392Y-2391105D01*
X10759130Y-2392070D01*
X10805820Y-2392070D01*
X10810900Y-2377186D01*
X10814913Y-2366721D01*
X10820908Y-2352700D01*
X10837976Y-2350770D01*
X10851438Y-2349957D01*
X10858144Y-2349804D01*
X10871911Y-2350160D01*
X10886287Y-2351227D01*
X10905439Y-2353157D01*
X10905439Y-2366975D01*
X10914938Y-2366975D01*
X10915040Y-2363825D01*
X10915446Y-2360980D01*
X10916107Y-2358644D01*
X10916920Y-2357272D01*
X10919206Y-2355799D01*
X10921593Y-2355342D01*
X10923422Y-2355951D01*
X10924082Y-2357526D01*
X10923676Y-2358999D01*
X10921238Y-2364181D01*
X10915040Y-2374696D01*
X10914938Y-2366975D01*
X10905439Y-2366975D01*
X10905439Y-2380691D01*
X10924844Y-2380691D01*
X10930788Y-2369464D01*
X10933430Y-2365146D01*
X10936224Y-2361590D01*
X10938764Y-2359152D01*
X10940796Y-2358288D01*
X10944402Y-2359253D01*
X10951260Y-2361793D01*
X10970818Y-2370328D01*
X10988802Y-2379167D01*
X10993983Y-2382164D01*
X10995558Y-2383586D01*
X10993882Y-2383790D01*
X10990326Y-2383536D01*
X10972139Y-2380640D01*
X10963148Y-2379878D01*
X10953648Y-2379573D01*
X10944758Y-2379675D01*
X10924844Y-2380691D01*
X10905439Y-2380691D01*
X10905439Y-2384399D01*
X10890656Y-2386787D01*
X10880699Y-2387803D01*
X10851845Y-2389784D01*
X10805820Y-2392070D01*
X10759130Y-2392070D01*
X10762589Y-2393289D01*
X10769854Y-2395321D01*
X10778083Y-2397099D01*
X10787380Y-2398725D01*
X10802061Y-2400554D01*
X10811408Y-2401265D01*
X10821416Y-2401570D01*
X10832185Y-2401519D01*
X10843615Y-2401062D01*
X10855807Y-2400300D01*
X10868660Y-2399182D01*
X10882274Y-2397658D01*
X10911687Y-2393543D01*
X10947603Y-2387701D01*
X10977067Y-2391867D01*
X10998454Y-2395778D01*
X11007242Y-2397760D01*
X11020145Y-2401011D01*
X11026140Y-2401366D01*
X11029340Y-2399639D01*
X11030254Y-2395728D01*
X11029594Y-2393899D01*
X11027613Y-2391613D01*
X11024514Y-2388920D01*
X11020450Y-2385872D01*
X11009680Y-2379014D01*
X10996371Y-2371598D01*
X10981537Y-2364181D01*
X10966246Y-2357272D01*
X10951464Y-2351430D01*
X10944555Y-2349093D01*
X10938205Y-2347214D01*
X10934192Y-2346248D01*
X10923778Y-2344623D01*
X10910824Y-2343302D01*
X10896092Y-2342337D01*
X10880293Y-2341727D01*
G37*
G36*
X11075568Y-2360320D02*
G01*
X11071606Y-2360422D01*
X11068405Y-2362860D01*
X11067846Y-2366111D01*
X11069726Y-2369007D01*
X11073739Y-2370226D01*
X11076228Y-2370023D01*
X11078565Y-2369464D01*
X11080394Y-2368600D01*
X11081512Y-2367584D01*
X11081613Y-2364740D01*
X11079276Y-2362047D01*
G37*
G36*
X10972292Y-2594508D02*
G01*
X10969142Y-2595778D01*
X10967872Y-2598724D01*
X10968075Y-2600502D01*
X10968583Y-2602179D01*
X10969396Y-2603601D01*
X10970361Y-2604516D01*
X10973714Y-2604973D01*
X10977067Y-2603398D01*
X10979200Y-2600655D01*
X10978997Y-2597759D01*
X10975949Y-2595168D01*
G37*
G36*
X10988141Y-2603398D02*
G01*
X10986312Y-2603754D01*
X10984839Y-2604719D01*
X10983823Y-2606141D01*
X10983468Y-2607868D01*
X10983823Y-2609596D01*
X10984839Y-2611018D01*
X10986312Y-2611983D01*
X10988141Y-2612339D01*
X10989970Y-2611983D01*
X10991443Y-2611018D01*
X10992459Y-2609596D01*
X10992815Y-2607868D01*
X10992459Y-2606141D01*
X10991443Y-2604719D01*
X10989970Y-2603754D01*
G37*
G36*
X10975898Y-2624328D02*
G01*
X10974019Y-2624683D01*
X10972444Y-2625699D01*
X10971377Y-2627223D01*
X10970971Y-2629052D01*
X10971276Y-2630779D01*
X10972088Y-2632049D01*
X10973257Y-2632659D01*
X10974679Y-2632608D01*
X10978083Y-2630525D01*
X10979556Y-2627782D01*
X10978845Y-2625344D01*
G37*
D27*
X6538468Y-4682489D02*
G01*
X6538468Y-4805171D01*
X6477000Y-4743704D02*
G01*
X6599681Y-4743704D01*
X6726427Y-4661915D02*
G01*
X6658356Y-4661915D01*
X6651497Y-4723384D01*
X6658356Y-4716526D01*
X6678929Y-4709668D01*
X6699250Y-4709668D01*
X6719824Y-4716526D01*
X6733286Y-4730242D01*
X6740143Y-4750562D01*
X6740143Y-4764278D01*
X6733286Y-4784597D01*
X6719824Y-4798313D01*
X6699250Y-4805171D01*
X6678929Y-4805171D01*
X6658356Y-4798313D01*
X6651497Y-4791455D01*
X6644640Y-4777739D01*
X6785102Y-4661915D02*
G01*
X6839711Y-4805171D01*
X6894322Y-4661915D02*
G01*
X6839711Y-4805171D01*
X6489700Y-4915915D02*
G01*
X6489700Y-5059171D01*
X6489700Y-4915915D02*
G01*
X6537452Y-4915915D01*
X6557772Y-4922773D01*
X6571488Y-4936489D01*
X6578345Y-4949952D01*
X6585204Y-4970526D01*
X6585204Y-5004562D01*
X6578345Y-5025136D01*
X6571488Y-5038597D01*
X6557772Y-5052313D01*
X6537452Y-5059171D01*
X6489700Y-5059171D01*
X6711950Y-4963668D02*
G01*
X6711950Y-5059171D01*
X6711950Y-4984242D02*
G01*
X6698234Y-4970526D01*
X6684772Y-4963668D01*
X6664197Y-4963668D01*
X6650736Y-4970526D01*
X6637020Y-4984242D01*
X6630161Y-5004562D01*
X6630161Y-5018278D01*
X6637020Y-5038597D01*
X6650736Y-5052313D01*
X6664197Y-5059171D01*
X6684772Y-5059171D01*
X6698234Y-5052313D01*
X6711950Y-5038597D01*
X6777481Y-4915915D02*
G01*
X6777481Y-5031739D01*
X6784340Y-5052313D01*
X6797802Y-5059171D01*
X6811518Y-5059171D01*
X6756908Y-4963668D02*
G01*
X6804659Y-4963668D01*
X6938263Y-4963668D02*
G01*
X6938263Y-5059171D01*
X6938263Y-4984242D02*
G01*
X6924802Y-4970526D01*
X6911086Y-4963668D01*
X6890511Y-4963668D01*
X6877050Y-4970526D01*
X6863334Y-4984242D01*
X6856475Y-5004562D01*
X6856475Y-5018278D01*
X6863334Y-5038597D01*
X6877050Y-5052313D01*
X6890511Y-5059171D01*
X6911086Y-5059171D01*
X6924802Y-5052313D01*
X6938263Y-5038597D01*
X6983222Y-4915915D02*
G01*
X6983222Y-5059171D01*
X6983222Y-5059171D02*
G01*
X7065263Y-5059171D01*
X7110222Y-5004562D02*
G01*
X7192009Y-5004562D01*
X7192009Y-4990845D01*
X7185152Y-4977384D01*
X7178293Y-4970526D01*
X7164577Y-4963668D01*
X7144258Y-4963668D01*
X7130541Y-4970526D01*
X7117079Y-4984242D01*
X7110222Y-5004562D01*
X7110222Y-5018278D01*
X7117079Y-5038597D01*
X7130541Y-5052313D01*
X7144258Y-5059171D01*
X7164577Y-5059171D01*
X7178293Y-5052313D01*
X7192009Y-5038597D01*
X7318756Y-4915915D02*
G01*
X7318756Y-5059171D01*
X7318756Y-4984242D02*
G01*
X7305040Y-4970526D01*
X7291577Y-4963668D01*
X7271004Y-4963668D01*
X7257541Y-4970526D01*
X7243825Y-4984242D01*
X7236968Y-5004562D01*
X7236968Y-5018278D01*
X7243825Y-5038597D01*
X7257541Y-5052313D01*
X7271004Y-5059171D01*
X7291577Y-5059171D01*
X7305040Y-5052313D01*
X7318756Y-5038597D01*
X6617461Y-5203952D02*
G01*
X6610604Y-5190489D01*
X6596888Y-5176773D01*
X6583172Y-5169915D01*
X6555993Y-5169915D01*
X6542277Y-5176773D01*
X6528815Y-5190489D01*
X6521958Y-5203952D01*
X6515100Y-5224526D01*
X6515100Y-5258562D01*
X6521958Y-5279136D01*
X6528815Y-5292597D01*
X6542277Y-5306313D01*
X6555993Y-5313171D01*
X6583172Y-5313171D01*
X6596888Y-5306313D01*
X6610604Y-5292597D01*
X6617461Y-5279136D01*
X6617461Y-5258562D01*
X6583172Y-5258562D02*
G01*
X6617461Y-5258562D01*
X6662420Y-5169915D02*
G01*
X6662420Y-5313171D01*
X6662420Y-5169915D02*
G01*
X6757924Y-5313171D01*
X6757924Y-5169915D02*
G01*
X6757924Y-5313171D01*
X6802881Y-5169915D02*
G01*
X6802881Y-5313171D01*
X6802881Y-5169915D02*
G01*
X6850634Y-5169915D01*
X6870954Y-5176773D01*
X6884670Y-5190489D01*
X6891527Y-5203952D01*
X6898386Y-5224526D01*
X6898386Y-5258562D01*
X6891527Y-5279136D01*
X6884670Y-5292597D01*
X6870954Y-5306313D01*
X6850634Y-5313171D01*
X6802881Y-5313171D01*
X7128509Y-5810504D02*
G01*
X7142225Y-5796787D01*
X7149084Y-5776468D01*
X7149084Y-5749036D01*
X7142225Y-5728715D01*
X7128509Y-5715000D01*
X7115047Y-5715000D01*
X7101331Y-5721857D01*
X7094474Y-5728715D01*
X7087615Y-5742178D01*
X7074154Y-5783071D01*
X7067295Y-5796787D01*
X7060438Y-5803645D01*
X7046722Y-5810504D01*
X7026402Y-5810504D01*
X7012686Y-5796787D01*
X7005827Y-5776468D01*
X7005827Y-5749036D01*
X7012686Y-5728715D01*
X7026402Y-5715000D01*
X7115047Y-5957823D02*
G01*
X7128509Y-5950965D01*
X7142225Y-5937250D01*
X7149084Y-5923534D01*
X7149084Y-5896355D01*
X7142225Y-5882639D01*
X7128509Y-5869178D01*
X7115047Y-5862320D01*
X7094474Y-5855462D01*
X7060438Y-5855462D01*
X7039863Y-5862320D01*
X7026402Y-5869178D01*
X7012686Y-5882639D01*
X7005827Y-5896355D01*
X7005827Y-5923534D01*
X7012686Y-5937250D01*
X7026402Y-5950965D01*
X7039863Y-5957823D01*
X7149084Y-6002781D02*
G01*
X7005827Y-6002781D01*
X7005827Y-6002781D02*
G01*
X7005827Y-6084570D01*
X6849109Y-5810504D02*
G01*
X6862825Y-5796787D01*
X6869684Y-5776468D01*
X6869684Y-5749036D01*
X6862825Y-5728715D01*
X6849109Y-5715000D01*
X6835647Y-5715000D01*
X6821931Y-5721857D01*
X6815074Y-5728715D01*
X6808215Y-5742178D01*
X6794754Y-5783071D01*
X6787895Y-5796787D01*
X6781038Y-5803645D01*
X6767322Y-5810504D01*
X6747002Y-5810504D01*
X6733286Y-5796787D01*
X6726427Y-5776468D01*
X6726427Y-5749036D01*
X6733286Y-5728715D01*
X6747002Y-5715000D01*
X6869684Y-5855462D02*
G01*
X6726427Y-5855462D01*
X6869684Y-5855462D02*
G01*
X6869684Y-5903213D01*
X6862825Y-5923534D01*
X6849109Y-5937250D01*
X6835647Y-5944107D01*
X6815074Y-5950965D01*
X6781038Y-5950965D01*
X6760463Y-5944107D01*
X6747002Y-5937250D01*
X6733286Y-5923534D01*
X6726427Y-5903213D01*
X6726427Y-5855462D01*
X6869684Y-6050534D02*
G01*
X6726427Y-5995923D01*
X6869684Y-6050534D02*
G01*
X6726427Y-6104889D01*
X6774179Y-6016244D02*
G01*
X6774179Y-6084570D01*
X6594347Y-5817362D02*
G01*
X6607809Y-5810504D01*
X6621525Y-5796787D01*
X6628384Y-5783071D01*
X6628384Y-5755894D01*
X6621525Y-5742178D01*
X6607809Y-5728715D01*
X6594347Y-5721857D01*
X6573774Y-5715000D01*
X6539738Y-5715000D01*
X6519163Y-5721857D01*
X6505702Y-5728715D01*
X6491986Y-5742178D01*
X6485127Y-5755894D01*
X6485127Y-5783071D01*
X6491986Y-5796787D01*
X6505702Y-5810504D01*
X6519163Y-5817362D01*
X6539738Y-5817362D01*
X6539738Y-5783071D02*
G01*
X6539738Y-5817362D01*
X6628384Y-5862320D02*
G01*
X6485127Y-5862320D01*
X6628384Y-5862320D02*
G01*
X6485127Y-5957823D01*
X6628384Y-5957823D02*
G01*
X6485127Y-5957823D01*
X6628384Y-6002781D02*
G01*
X6485127Y-6002781D01*
X6628384Y-6002781D02*
G01*
X6628384Y-6050534D01*
X6621525Y-6070854D01*
X6607809Y-6084570D01*
X6594347Y-6091428D01*
X6573774Y-6098286D01*
X6539738Y-6098286D01*
X6519163Y-6091428D01*
X6505702Y-6084570D01*
X6491986Y-6070854D01*
X6485127Y-6050534D01*
X6485127Y-6002781D01*
X6068568Y-5749289D02*
G01*
X6068568Y-5871971D01*
X6007100Y-5810504D02*
G01*
X6129781Y-5810504D01*
X6256527Y-5728715D02*
G01*
X6188456Y-5728715D01*
X6181597Y-5790184D01*
X6188456Y-5783326D01*
X6209029Y-5776468D01*
X6229350Y-5776468D01*
X6249924Y-5783326D01*
X6263386Y-5797042D01*
X6270243Y-5817362D01*
X6270243Y-5831078D01*
X6263386Y-5851397D01*
X6249924Y-5865113D01*
X6229350Y-5871971D01*
X6209029Y-5871971D01*
X6188456Y-5865113D01*
X6181597Y-5858255D01*
X6174740Y-5844539D01*
X6315202Y-5728715D02*
G01*
X6369811Y-5871971D01*
X6424422Y-5728715D02*
G01*
X6369811Y-5871971D01*
X9703561Y-5788152D02*
G01*
X9696704Y-5774689D01*
X9682988Y-5760973D01*
X9669272Y-5754115D01*
X9642093Y-5754115D01*
X9628377Y-5760973D01*
X9614915Y-5774689D01*
X9608058Y-5788152D01*
X9601200Y-5808726D01*
X9601200Y-5842762D01*
X9608058Y-5863336D01*
X9614915Y-5876797D01*
X9628377Y-5890513D01*
X9642093Y-5897371D01*
X9669272Y-5897371D01*
X9682988Y-5890513D01*
X9696704Y-5876797D01*
X9703561Y-5863336D01*
X9703561Y-5842762D01*
X9669272Y-5842762D02*
G01*
X9703561Y-5842762D01*
X9748520Y-5754115D02*
G01*
X9748520Y-5897371D01*
X9748520Y-5754115D02*
G01*
X9844024Y-5897371D01*
X9844024Y-5754115D02*
G01*
X9844024Y-5897371D01*
X9888981Y-5754115D02*
G01*
X9888981Y-5897371D01*
X9888981Y-5754115D02*
G01*
X9936734Y-5754115D01*
X9957054Y-5760973D01*
X9970770Y-5774689D01*
X9977627Y-5788152D01*
X9984486Y-5808726D01*
X9984486Y-5842762D01*
X9977627Y-5863336D01*
X9970770Y-5876797D01*
X9957054Y-5890513D01*
X9936734Y-5897371D01*
X9888981Y-5897371D01*
X9053068Y-5761989D02*
G01*
X9053068Y-5884671D01*
X8991600Y-5823204D02*
G01*
X9114281Y-5823204D01*
X9159240Y-5768594D02*
G01*
X9172956Y-5761989D01*
X9193529Y-5741415D01*
X9193529Y-5884671D01*
X9245345Y-5775452D02*
G01*
X9245345Y-5768594D01*
X9251950Y-5755131D01*
X9258808Y-5748273D01*
X9272524Y-5741415D01*
X9299702Y-5741415D01*
X9313418Y-5748273D01*
X9320275Y-5755131D01*
X9327134Y-5768594D01*
X9327134Y-5782310D01*
X9320275Y-5796026D01*
X9306559Y-5816345D01*
X9238488Y-5884671D01*
X9333991Y-5884671D01*
X9378950Y-5741415D02*
G01*
X9433306Y-5884671D01*
X9487915Y-5741415D02*
G01*
X9433306Y-5884671D01*
X8450072Y-2401315D02*
G01*
X8450072Y-2510536D01*
X8443468Y-2530855D01*
X8436609Y-2537713D01*
X8422893Y-2544571D01*
X8409177Y-2544571D01*
X8395715Y-2537713D01*
X8388858Y-2530855D01*
X8382000Y-2510536D01*
X8382000Y-2496820D01*
X8495284Y-2401315D02*
G01*
X8495284Y-2544571D01*
X8495284Y-2401315D02*
G01*
X8583929Y-2401315D01*
X8495284Y-2469642D02*
G01*
X8549640Y-2469642D01*
X8495284Y-2544571D02*
G01*
X8583929Y-2544571D01*
X8628888Y-2401315D02*
G01*
X8628888Y-2544571D01*
X8628888Y-2401315D02*
G01*
X8690102Y-2401315D01*
X8710675Y-2408173D01*
X8717534Y-2415031D01*
X8724391Y-2428494D01*
X8724391Y-2442210D01*
X8717534Y-2455926D01*
X8710675Y-2462784D01*
X8690102Y-2469642D01*
X8628888Y-2469642D02*
G01*
X8690102Y-2469642D01*
X8710675Y-2476245D01*
X8717534Y-2483104D01*
X8724391Y-2496820D01*
X8724391Y-2517139D01*
X8717534Y-2530855D01*
X8710675Y-2537713D01*
X8690102Y-2544571D01*
X8628888Y-2544571D01*
X8823706Y-2401315D02*
G01*
X8769350Y-2544571D01*
X8823706Y-2401315D02*
G01*
X8878315Y-2544571D01*
X8789670Y-2496820D02*
G01*
X8857995Y-2496820D01*
X9025636Y-2435352D02*
G01*
X9018777Y-2421889D01*
X9005061Y-2408173D01*
X8991600Y-2401315D01*
X8964168Y-2401315D01*
X8950706Y-2408173D01*
X8936990Y-2421889D01*
X8930131Y-2435352D01*
X8923274Y-2455926D01*
X8923274Y-2489962D01*
X8930131Y-2510536D01*
X8936990Y-2523997D01*
X8950706Y-2537713D01*
X8964168Y-2544571D01*
X8991600Y-2544571D01*
X9005061Y-2537713D01*
X9018777Y-2523997D01*
X9025636Y-2510536D01*
X9175750Y-2401315D02*
G01*
X9175750Y-2544571D01*
X9175750Y-2401315D02*
G01*
X9236963Y-2401315D01*
X9257538Y-2408173D01*
X9264395Y-2415031D01*
X9271000Y-2428494D01*
X9271000Y-2449068D01*
X9264395Y-2462784D01*
X9257538Y-2469642D01*
X9236963Y-2476245D01*
X9175750Y-2476245D01*
X9316211Y-2401315D02*
G01*
X9316211Y-2544571D01*
X9456420Y-2421889D02*
G01*
X9442958Y-2408173D01*
X9422384Y-2401315D01*
X9395206Y-2401315D01*
X9374631Y-2408173D01*
X9361170Y-2421889D01*
X9361170Y-2435352D01*
X9368027Y-2449068D01*
X9374631Y-2455926D01*
X9388347Y-2462784D01*
X9429241Y-2476245D01*
X9442958Y-2483104D01*
X9449815Y-2489962D01*
X9456420Y-2503678D01*
X9456420Y-2523997D01*
X9442958Y-2537713D01*
X9422384Y-2544571D01*
X9395206Y-2544571D01*
X9374631Y-2537713D01*
X9361170Y-2523997D01*
D25*
X8127491Y-4709921D02*
G01*
X8117077Y-4715255D01*
X8106663Y-4725670D01*
X8101584Y-4735829D01*
X8101584Y-4756657D01*
X8106663Y-4767071D01*
X8117077Y-4777486D01*
X8127491Y-4782820D01*
X8143240Y-4787900D01*
X8169147Y-4787900D01*
X8184641Y-4782820D01*
X8195056Y-4777486D01*
X8205470Y-4767071D01*
X8210550Y-4756657D01*
X8210550Y-4735829D01*
X8205470Y-4725670D01*
X8195056Y-4715255D01*
X8184641Y-4709921D01*
X8122411Y-4675631D02*
G01*
X8117077Y-4665218D01*
X8101584Y-4649723D01*
X8210550Y-4649723D01*
X7302012Y-4655957D02*
G01*
X7291598Y-4661291D01*
X7281184Y-4671705D01*
X7276104Y-4681865D01*
X7276104Y-4702693D01*
X7281184Y-4713107D01*
X7291598Y-4723521D01*
X7302012Y-4728855D01*
X7317760Y-4733935D01*
X7343668Y-4733935D01*
X7359162Y-4728855D01*
X7369576Y-4723521D01*
X7379990Y-4713107D01*
X7385070Y-4702693D01*
X7385070Y-4681865D01*
X7379990Y-4671705D01*
X7369576Y-4661291D01*
X7359162Y-4655957D01*
X7302012Y-4616587D02*
G01*
X7296932Y-4616587D01*
X7286518Y-4611253D01*
X7281184Y-4606173D01*
X7276104Y-4595759D01*
X7276104Y-4574931D01*
X7281184Y-4564517D01*
X7286518Y-4559437D01*
X7296932Y-4554103D01*
X7307346Y-4554103D01*
X7317760Y-4559437D01*
X7333254Y-4569851D01*
X7385070Y-4621667D01*
X7385070Y-4549023D01*
X7327412Y-5252857D02*
G01*
X7316998Y-5258191D01*
X7306584Y-5268605D01*
X7301504Y-5278765D01*
X7301504Y-5299593D01*
X7306584Y-5310007D01*
X7316998Y-5320421D01*
X7327412Y-5325755D01*
X7343160Y-5330835D01*
X7369068Y-5330835D01*
X7384562Y-5325755D01*
X7394976Y-5320421D01*
X7405390Y-5310007D01*
X7410470Y-5299593D01*
X7410470Y-5278765D01*
X7405390Y-5268605D01*
X7394976Y-5258191D01*
X7384562Y-5252857D01*
X7301504Y-5208153D02*
G01*
X7301504Y-5151003D01*
X7343160Y-5182245D01*
X7343160Y-5166751D01*
X7348240Y-5156337D01*
X7353320Y-5151003D01*
X7369068Y-5145923D01*
X7379482Y-5145923D01*
X7394976Y-5151003D01*
X7405390Y-5161417D01*
X7410470Y-5177165D01*
X7410470Y-5192659D01*
X7405390Y-5208153D01*
X7400310Y-5213487D01*
X7389896Y-5218567D01*
X8432800Y-5536184D02*
G01*
X8432800Y-5645150D01*
X8432800Y-5536184D02*
G01*
X8469122Y-5536184D01*
X8484870Y-5541263D01*
X8495029Y-5551678D01*
X8500363Y-5562092D01*
X8505443Y-5577839D01*
X8505443Y-5603747D01*
X8500363Y-5619242D01*
X8495029Y-5629655D01*
X8484870Y-5640070D01*
X8469122Y-5645150D01*
X8432800Y-5645150D01*
X8539734Y-5557012D02*
G01*
X8550147Y-5551678D01*
X8565895Y-5536184D01*
X8565895Y-5645150D01*
X9015984Y-3416300D02*
G01*
X9124950Y-3416300D01*
X9124950Y-3416300D02*
G01*
X9124950Y-3354070D01*
X9015984Y-3319779D02*
G01*
X9124950Y-3319779D01*
X9015984Y-3319779D02*
G01*
X9015984Y-3252215D01*
X9067800Y-3319779D02*
G01*
X9067800Y-3278123D01*
X9124950Y-3319779D02*
G01*
X9124950Y-3252215D01*
X9015984Y-3217926D02*
G01*
X9124950Y-3217926D01*
X9015984Y-3217926D02*
G01*
X9015984Y-3181350D01*
X9021063Y-3165855D01*
X9031477Y-3155442D01*
X9041891Y-3150362D01*
X9057640Y-3145028D01*
X9083547Y-3145028D01*
X9099041Y-3150362D01*
X9109456Y-3155442D01*
X9119870Y-3165855D01*
X9124950Y-3181350D01*
X9124950Y-3217926D01*
X9036811Y-3110737D02*
G01*
X9031477Y-3100323D01*
X9015984Y-3084829D01*
X9124950Y-3084829D01*
X9028684Y-3898900D02*
G01*
X9137650Y-3898900D01*
X9137650Y-3898900D02*
G01*
X9137650Y-3836670D01*
X9028684Y-3802379D02*
G01*
X9137650Y-3802379D01*
X9028684Y-3802379D02*
G01*
X9028684Y-3734815D01*
X9080500Y-3802379D02*
G01*
X9080500Y-3760723D01*
X9137650Y-3802379D02*
G01*
X9137650Y-3734815D01*
X9028684Y-3700526D02*
G01*
X9137650Y-3700526D01*
X9028684Y-3700526D02*
G01*
X9028684Y-3663950D01*
X9033763Y-3648455D01*
X9044177Y-3638042D01*
X9054591Y-3632962D01*
X9070340Y-3627628D01*
X9096247Y-3627628D01*
X9111741Y-3632962D01*
X9122156Y-3638042D01*
X9132570Y-3648455D01*
X9137650Y-3663950D01*
X9137650Y-3700526D01*
X9054591Y-3588257D02*
G01*
X9049511Y-3588257D01*
X9039097Y-3582923D01*
X9033763Y-3577844D01*
X9028684Y-3567429D01*
X9028684Y-3546602D01*
X9033763Y-3536187D01*
X9039097Y-3531107D01*
X9049511Y-3525773D01*
X9059925Y-3525773D01*
X9070340Y-3531107D01*
X9085834Y-3541521D01*
X9137650Y-3593337D01*
X9137650Y-3520694D01*
X8318500Y-3506215D02*
G01*
X8318500Y-3397250D01*
X8318500Y-3506215D02*
G01*
X8271763Y-3506215D01*
X8256270Y-3501136D01*
X8250936Y-3495802D01*
X8245856Y-3485387D01*
X8245856Y-3474973D01*
X8250936Y-3464560D01*
X8256270Y-3459479D01*
X8271763Y-3454400D01*
X8318500Y-3454400D01*
X8282177Y-3454400D02*
G01*
X8245856Y-3397250D01*
X8211565Y-3485387D02*
G01*
X8201152Y-3490721D01*
X8185404Y-3506215D01*
X8185404Y-3397250D01*
X8343900Y-3976115D02*
G01*
X8343900Y-3867150D01*
X8343900Y-3976115D02*
G01*
X8297163Y-3976115D01*
X8281670Y-3971036D01*
X8276336Y-3965702D01*
X8271256Y-3955287D01*
X8271256Y-3944873D01*
X8276336Y-3934460D01*
X8281670Y-3929379D01*
X8297163Y-3924300D01*
X8343900Y-3924300D01*
X8307577Y-3924300D02*
G01*
X8271256Y-3867150D01*
X8231631Y-3950207D02*
G01*
X8231631Y-3955287D01*
X8226552Y-3965702D01*
X8221218Y-3971036D01*
X8210804Y-3976115D01*
X8190229Y-3976115D01*
X8179815Y-3971036D01*
X8174481Y-3965702D01*
X8169402Y-3955287D01*
X8169402Y-3944873D01*
X8174481Y-3934460D01*
X8184895Y-3918965D01*
X8236965Y-3867150D01*
X8164068Y-3867150D01*
X11337543Y-2554478D02*
G01*
X11327129Y-2544063D01*
X11311636Y-2538984D01*
X11290808Y-2538984D01*
X11275313Y-2544063D01*
X11264900Y-2554478D01*
X11264900Y-2564892D01*
X11269979Y-2575305D01*
X11275313Y-2580639D01*
X11285727Y-2585720D01*
X11316970Y-2596134D01*
X11327129Y-2601213D01*
X11332463Y-2606547D01*
X11337543Y-2616962D01*
X11337543Y-2632455D01*
X11327129Y-2642870D01*
X11311636Y-2647950D01*
X11290808Y-2647950D01*
X11275313Y-2642870D01*
X11264900Y-2632455D01*
X11371834Y-2538984D02*
G01*
X11397995Y-2647950D01*
X11423904Y-2538984D02*
G01*
X11397995Y-2647950D01*
X11423904Y-2538984D02*
G01*
X11449811Y-2647950D01*
X11475720Y-2538984D02*
G01*
X11449811Y-2647950D01*
X11510009Y-2559812D02*
G01*
X11520424Y-2554478D01*
X11536172Y-2538984D01*
X11536172Y-2647950D01*
D10*
X6958329Y-3856228D02*
G01*
X7103618Y-3911600D01*
X6958329Y-3856228D02*
G01*
X7103618Y-3800855D01*
X7055104Y-3890771D02*
G01*
X7055104Y-3821429D01*
X7006590Y-3755136D02*
G01*
X7103618Y-3755136D01*
X7048245Y-3755136D02*
G01*
X7027418Y-3748023D01*
X7013702Y-3734307D01*
X7006590Y-3720337D01*
X7006590Y-3699510D01*
X6958329Y-3570731D02*
G01*
X7103618Y-3570731D01*
X7027418Y-3570731D02*
G01*
X7013702Y-3584702D01*
X7006590Y-3598418D01*
X7006590Y-3619245D01*
X7013702Y-3633215D01*
X7027418Y-3646931D01*
X7048245Y-3653789D01*
X7062215Y-3653789D01*
X7082790Y-3646931D01*
X7096759Y-3633215D01*
X7103618Y-3619245D01*
X7103618Y-3598418D01*
X7096759Y-3584702D01*
X7082790Y-3570731D01*
X7006590Y-3525012D02*
G01*
X7075931Y-3525012D01*
X7096759Y-3518154D01*
X7103618Y-3504184D01*
X7103618Y-3483610D01*
X7096759Y-3469639D01*
X7075931Y-3448812D01*
X7006590Y-3448812D02*
G01*
X7103618Y-3448812D01*
X6958329Y-3403092D02*
G01*
X6965188Y-3396234D01*
X6958329Y-3389376D01*
X6951218Y-3396234D01*
X6958329Y-3403092D01*
X7006590Y-3396234D02*
G01*
X7103618Y-3396234D01*
X7006590Y-3343655D02*
G01*
X7103618Y-3343655D01*
X7034529Y-3343655D02*
G01*
X7013702Y-3322828D01*
X7006590Y-3308857D01*
X7006590Y-3288029D01*
X7013702Y-3274313D01*
X7034529Y-3267455D01*
X7103618Y-3267455D01*
X7006590Y-3186937D02*
G01*
X7013702Y-3200907D01*
X7027418Y-3214623D01*
X7048245Y-3221736D01*
X7062215Y-3221736D01*
X7082790Y-3214623D01*
X7096759Y-3200907D01*
X7103618Y-3186937D01*
X7103618Y-3166110D01*
X7096759Y-3152394D01*
X7082790Y-3138423D01*
X7062215Y-3131565D01*
X7048245Y-3131565D01*
X7027418Y-3138423D01*
X7013702Y-3152394D01*
X7006590Y-3166110D01*
X7006590Y-3186937D01*
X7199629Y-3771900D02*
G01*
X7344918Y-3771900D01*
X7199629Y-3771900D02*
G01*
X7344918Y-3674871D01*
X7199629Y-3674871D02*
G01*
X7344918Y-3674871D01*
X7247890Y-3546094D02*
G01*
X7344918Y-3546094D01*
X7268718Y-3546094D02*
G01*
X7255002Y-3559810D01*
X7247890Y-3573779D01*
X7247890Y-3594607D01*
X7255002Y-3608323D01*
X7268718Y-3622294D01*
X7289545Y-3629152D01*
X7303515Y-3629152D01*
X7324090Y-3622294D01*
X7338059Y-3608323D01*
X7344918Y-3594607D01*
X7344918Y-3573779D01*
X7338059Y-3559810D01*
X7324090Y-3546094D01*
X7247890Y-3500373D02*
G01*
X7344918Y-3500373D01*
X7275829Y-3500373D02*
G01*
X7255002Y-3479545D01*
X7247890Y-3465829D01*
X7247890Y-3445002D01*
X7255002Y-3431031D01*
X7275829Y-3424173D01*
X7344918Y-3424173D01*
X7247890Y-3343910D02*
G01*
X7255002Y-3357626D01*
X7268718Y-3371595D01*
X7289545Y-3378454D01*
X7303515Y-3378454D01*
X7324090Y-3371595D01*
X7338059Y-3357626D01*
X7344918Y-3343910D01*
X7344918Y-3323081D01*
X7338059Y-3309112D01*
X7324090Y-3295395D01*
X7303515Y-3288284D01*
X7289545Y-3288284D01*
X7268718Y-3295395D01*
X7255002Y-3309112D01*
X7247890Y-3323081D01*
X7247890Y-3343910D01*
D25*
X5967984Y-3517900D02*
G01*
X6045961Y-3517900D01*
X6061456Y-3512820D01*
X6071870Y-3502405D01*
X6076950Y-3486657D01*
X6076950Y-3476244D01*
X6071870Y-3460750D01*
X6061456Y-3450336D01*
X6045961Y-3445255D01*
X5967984Y-3445255D01*
X5967984Y-3400552D02*
G01*
X5967984Y-3343402D01*
X6009640Y-3374389D01*
X6009640Y-3358895D01*
X6014720Y-3348481D01*
X6019800Y-3343402D01*
X6035547Y-3338068D01*
X6045961Y-3338068D01*
X6061456Y-3343402D01*
X6071870Y-3353815D01*
X6076950Y-3369310D01*
X6076950Y-3384804D01*
X6071870Y-3400552D01*
X6066790Y-3405631D01*
X6056375Y-3410965D01*
X9334500Y-4824984D02*
G01*
X9334500Y-4902962D01*
X9339579Y-4918455D01*
X9349993Y-4928870D01*
X9365741Y-4933950D01*
X9376156Y-4933950D01*
X9391650Y-4928870D01*
X9402063Y-4918455D01*
X9407143Y-4902962D01*
X9407143Y-4824984D01*
X9503918Y-4824984D02*
G01*
X9451847Y-4824984D01*
X9446768Y-4871720D01*
X9451847Y-4866639D01*
X9467595Y-4861305D01*
X9483090Y-4861305D01*
X9498584Y-4866639D01*
X9508997Y-4876800D01*
X9514331Y-4892547D01*
X9514331Y-4902962D01*
X9508997Y-4918455D01*
X9498584Y-4928870D01*
X9483090Y-4933950D01*
X9467595Y-4933950D01*
X9451847Y-4928870D01*
X9446768Y-4923789D01*
X9441434Y-4913376D01*
X9955784Y-4648200D02*
G01*
X10064750Y-4648200D01*
X9955784Y-4648200D02*
G01*
X10064750Y-4606544D01*
X9955784Y-4565142D02*
G01*
X10064750Y-4606544D01*
X9955784Y-4565142D02*
G01*
X10064750Y-4565142D01*
X9976611Y-4530852D02*
G01*
X9971277Y-4520437D01*
X9955784Y-4504689D01*
X10064750Y-4504689D01*
D28*
X11765534Y-5647181D02*
G01*
X11724893Y-5647181D01*
X11746991Y-5617718D01*
X11736070Y-5617718D01*
X11728450Y-5613907D01*
X11724893Y-5610097D01*
X11721084Y-5599176D01*
X11721084Y-5591810D01*
X11724893Y-5580634D01*
X11732259Y-5573268D01*
X11743436Y-5569457D01*
X11754358Y-5569457D01*
X11765534Y-5573268D01*
X11769090Y-5577078D01*
X11772900Y-5584444D01*
X11696700Y-5647181D02*
G01*
X11667236Y-5569457D01*
X11637772Y-5647181D02*
G01*
X11667236Y-5569457D01*
X11606022Y-5647181D02*
G01*
X11565381Y-5647181D01*
X11587479Y-5617718D01*
X11576304Y-5617718D01*
X11568938Y-5613907D01*
X11565381Y-5610097D01*
X11561572Y-5599176D01*
X11561572Y-5591810D01*
X11565381Y-5580634D01*
X11572747Y-5573268D01*
X11583670Y-5569457D01*
X11594845Y-5569457D01*
X11606022Y-5573268D01*
X11609577Y-5577078D01*
X11613388Y-5584444D01*
X11717527Y-5501639D02*
G01*
X11721084Y-5509005D01*
X11728450Y-5516371D01*
X11736070Y-5520181D01*
X11750802Y-5520181D01*
X11758168Y-5516371D01*
X11765534Y-5509005D01*
X11769090Y-5501639D01*
X11772900Y-5490718D01*
X11772900Y-5472176D01*
X11769090Y-5461000D01*
X11765534Y-5453634D01*
X11758168Y-5446268D01*
X11750802Y-5442457D01*
X11736070Y-5442457D01*
X11728450Y-5446268D01*
X11721084Y-5453634D01*
X11717527Y-5461000D01*
X11717527Y-5472176D01*
X11736070Y-5472176D02*
G01*
X11717527Y-5472176D01*
X11693143Y-5520181D02*
G01*
X11693143Y-5442457D01*
X11693143Y-5520181D02*
G01*
X11641327Y-5442457D01*
X11641327Y-5520181D02*
G01*
X11641327Y-5442457D01*
X11616943Y-5520181D02*
G01*
X11616943Y-5442457D01*
X11616943Y-5520181D02*
G01*
X11591036Y-5520181D01*
X11580113Y-5516371D01*
X11572747Y-5509005D01*
X11568938Y-5501639D01*
X11565381Y-5490718D01*
X11565381Y-5472176D01*
X11568938Y-5461000D01*
X11572747Y-5453634D01*
X11580113Y-5446268D01*
X11591036Y-5442457D01*
X11616943Y-5442457D01*
X11717527Y-5374639D02*
G01*
X11721084Y-5382005D01*
X11728450Y-5389371D01*
X11736070Y-5393181D01*
X11750802Y-5393181D01*
X11758168Y-5389371D01*
X11765534Y-5382005D01*
X11769090Y-5374639D01*
X11772900Y-5363718D01*
X11772900Y-5345176D01*
X11769090Y-5334000D01*
X11765534Y-5326634D01*
X11758168Y-5319268D01*
X11750802Y-5315457D01*
X11736070Y-5315457D01*
X11728450Y-5319268D01*
X11721084Y-5326634D01*
X11717527Y-5334000D01*
X11693143Y-5393181D02*
G01*
X11693143Y-5315457D01*
X11693143Y-5393181D02*
G01*
X11645138Y-5393181D01*
X11693143Y-5356097D02*
G01*
X11663425Y-5356097D01*
X11693143Y-5315457D02*
G01*
X11645138Y-5315457D01*
X11717527Y-5247639D02*
G01*
X11721084Y-5255005D01*
X11728450Y-5262371D01*
X11736070Y-5266181D01*
X11750802Y-5266181D01*
X11758168Y-5262371D01*
X11765534Y-5255005D01*
X11769090Y-5247639D01*
X11772900Y-5236718D01*
X11772900Y-5218176D01*
X11769090Y-5207000D01*
X11765534Y-5199634D01*
X11758168Y-5192268D01*
X11750802Y-5188457D01*
X11736070Y-5188457D01*
X11728450Y-5192268D01*
X11721084Y-5199634D01*
X11717527Y-5207000D01*
X11641327Y-5255005D02*
G01*
X11648693Y-5262371D01*
X11659870Y-5266181D01*
X11674602Y-5266181D01*
X11685777Y-5262371D01*
X11693143Y-5255005D01*
X11693143Y-5247639D01*
X11689334Y-5240273D01*
X11685777Y-5236718D01*
X11678411Y-5232907D01*
X11656059Y-5225542D01*
X11648693Y-5221731D01*
X11645138Y-5218176D01*
X11641327Y-5210810D01*
X11641327Y-5199634D01*
X11648693Y-5192268D01*
X11659870Y-5188457D01*
X11674602Y-5188457D01*
X11685777Y-5192268D01*
X11693143Y-5199634D01*
X11616943Y-5266181D02*
G01*
X11616943Y-5188457D01*
X11616943Y-5266181D02*
G01*
X11565381Y-5188457D01*
X11565381Y-5266181D02*
G01*
X11565381Y-5188457D01*
X11721084Y-5128005D02*
G01*
X11728450Y-5135371D01*
X11739625Y-5139181D01*
X11754358Y-5139181D01*
X11765534Y-5135371D01*
X11772900Y-5128005D01*
X11772900Y-5120639D01*
X11769090Y-5113273D01*
X11765534Y-5109718D01*
X11758168Y-5105907D01*
X11736070Y-5098542D01*
X11728450Y-5094731D01*
X11724893Y-5091176D01*
X11721084Y-5083810D01*
X11721084Y-5072634D01*
X11728450Y-5065268D01*
X11739625Y-5061457D01*
X11754358Y-5061457D01*
X11765534Y-5065268D01*
X11772900Y-5072634D01*
X11641327Y-5120639D02*
G01*
X11645138Y-5128005D01*
X11652504Y-5135371D01*
X11659870Y-5139181D01*
X11674602Y-5139181D01*
X11681968Y-5135371D01*
X11689334Y-5128005D01*
X11693143Y-5120639D01*
X11696700Y-5109718D01*
X11696700Y-5091176D01*
X11693143Y-5080000D01*
X11689334Y-5072634D01*
X11681968Y-5065268D01*
X11674602Y-5061457D01*
X11659870Y-5061457D01*
X11652504Y-5065268D01*
X11645138Y-5072634D01*
X11641327Y-5080000D01*
X11616943Y-5139181D02*
G01*
X11616943Y-5061457D01*
X11565381Y-5139181D02*
G01*
X11616943Y-5087365D01*
X11598402Y-5105907D02*
G01*
X11565381Y-5061457D01*
X11772900Y-5012181D02*
G01*
X11772900Y-4934457D01*
X11772900Y-5012181D02*
G01*
X11743436Y-4934457D01*
X11713718Y-5012181D02*
G01*
X11743436Y-4934457D01*
X11713718Y-5012181D02*
G01*
X11713718Y-4934457D01*
X11667236Y-5012181D02*
G01*
X11674602Y-5008371D01*
X11681968Y-5001005D01*
X11685777Y-4993639D01*
X11689334Y-4982718D01*
X11689334Y-4964176D01*
X11685777Y-4953000D01*
X11681968Y-4945634D01*
X11674602Y-4938268D01*
X11667236Y-4934457D01*
X11652504Y-4934457D01*
X11645138Y-4938268D01*
X11637772Y-4945634D01*
X11633961Y-4953000D01*
X11630406Y-4964176D01*
X11630406Y-4982718D01*
X11633961Y-4993639D01*
X11637772Y-5001005D01*
X11645138Y-5008371D01*
X11652504Y-5012181D01*
X11667236Y-5012181D01*
X11554206Y-5001005D02*
G01*
X11561572Y-5008371D01*
X11572747Y-5012181D01*
X11587479Y-5012181D01*
X11598402Y-5008371D01*
X11606022Y-5001005D01*
X11606022Y-4993639D01*
X11602211Y-4986273D01*
X11598402Y-4982718D01*
X11591036Y-4978907D01*
X11568938Y-4971542D01*
X11561572Y-4967731D01*
X11557761Y-4964176D01*
X11554206Y-4956810D01*
X11554206Y-4945634D01*
X11561572Y-4938268D01*
X11572747Y-4934457D01*
X11587479Y-4934457D01*
X11598402Y-4938268D01*
X11606022Y-4945634D01*
X11529822Y-5012181D02*
G01*
X11529822Y-4934457D01*
X11772900Y-4885181D02*
G01*
X11772900Y-4807457D01*
X11772900Y-4885181D02*
G01*
X11743436Y-4807457D01*
X11713718Y-4885181D02*
G01*
X11743436Y-4807457D01*
X11713718Y-4885181D02*
G01*
X11713718Y-4807457D01*
X11689334Y-4885181D02*
G01*
X11689334Y-4807457D01*
X11613388Y-4874005D02*
G01*
X11620754Y-4881371D01*
X11631675Y-4885181D01*
X11646661Y-4885181D01*
X11657584Y-4881371D01*
X11664950Y-4874005D01*
X11664950Y-4866639D01*
X11661393Y-4859273D01*
X11657584Y-4855718D01*
X11650218Y-4851907D01*
X11628120Y-4844542D01*
X11620754Y-4840731D01*
X11616943Y-4837176D01*
X11613388Y-4829810D01*
X11613388Y-4818634D01*
X11620754Y-4811268D01*
X11631675Y-4807457D01*
X11646661Y-4807457D01*
X11657584Y-4811268D01*
X11664950Y-4818634D01*
X11566652Y-4885181D02*
G01*
X11574018Y-4881371D01*
X11581638Y-4874005D01*
X11585193Y-4866639D01*
X11589004Y-4855718D01*
X11589004Y-4837176D01*
X11585193Y-4826000D01*
X11581638Y-4818634D01*
X11574018Y-4811268D01*
X11566652Y-4807457D01*
X11551920Y-4807457D01*
X11544554Y-4811268D01*
X11537188Y-4818634D01*
X11533377Y-4826000D01*
X11529822Y-4837176D01*
X11529822Y-4855718D01*
X11533377Y-4866639D01*
X11537188Y-4874005D01*
X11544554Y-4881371D01*
X11551920Y-4885181D01*
X11566652Y-4885181D01*
X11772900Y-4758181D02*
G01*
X11772900Y-4680457D01*
X11748515Y-4758181D02*
G01*
X11748515Y-4680457D01*
X11748515Y-4758181D02*
G01*
X11715241Y-4758181D01*
X11704065Y-4754371D01*
X11700509Y-4750815D01*
X11696700Y-4743450D01*
X11696700Y-4736084D01*
X11700509Y-4728718D01*
X11704065Y-4724907D01*
X11715241Y-4721097D01*
X11748515Y-4721097D01*
X11722608Y-4721097D02*
G01*
X11696700Y-4680457D01*
X11650218Y-4758181D02*
G01*
X11657584Y-4754371D01*
X11664950Y-4747005D01*
X11668759Y-4739639D01*
X11672315Y-4728718D01*
X11672315Y-4710176D01*
X11668759Y-4699000D01*
X11664950Y-4691634D01*
X11657584Y-4684268D01*
X11650218Y-4680457D01*
X11635486Y-4680457D01*
X11628120Y-4684268D01*
X11620754Y-4691634D01*
X11616943Y-4699000D01*
X11613388Y-4710176D01*
X11613388Y-4728718D01*
X11616943Y-4739639D01*
X11620754Y-4747005D01*
X11628120Y-4754371D01*
X11635486Y-4758181D01*
X11650218Y-4758181D01*
X11639041Y-4695444D02*
G01*
X11616943Y-4673092D01*
D25*
X7328915Y-5397500D02*
G01*
X7219950Y-5397500D01*
X7219950Y-5397500D02*
G01*
X7219950Y-5459729D01*
X7303008Y-5571997D02*
G01*
X7313422Y-5566918D01*
X7323836Y-5556504D01*
X7328915Y-5546089D01*
X7328915Y-5525262D01*
X7323836Y-5514847D01*
X7313422Y-5504434D01*
X7303008Y-5499354D01*
X7287259Y-5494020D01*
X7261352Y-5494020D01*
X7245858Y-5499354D01*
X7235443Y-5504434D01*
X7225029Y-5514847D01*
X7219950Y-5525262D01*
X7219950Y-5546089D01*
X7225029Y-5556504D01*
X7235443Y-5566918D01*
X7245858Y-5571997D01*
X7328915Y-5606287D02*
G01*
X7219950Y-5606287D01*
X7328915Y-5606287D02*
G01*
X7328915Y-5642610D01*
X7323836Y-5658357D01*
X7313422Y-5668771D01*
X7303008Y-5673852D01*
X7287259Y-5679186D01*
X7261352Y-5679186D01*
X7245858Y-5673852D01*
X7235443Y-5668771D01*
X7225029Y-5658357D01*
X7219950Y-5642610D01*
X7219950Y-5606287D01*
X6184900Y-4456684D02*
G01*
X6184900Y-4565650D01*
X6184900Y-4565650D02*
G01*
X6247129Y-4565650D01*
X6281420Y-4456684D02*
G01*
X6281420Y-4565650D01*
X6281420Y-4456684D02*
G01*
X6348984Y-4456684D01*
X6281420Y-4508500D02*
G01*
X6323075Y-4508500D01*
X6281420Y-4565650D02*
G01*
X6348984Y-4565650D01*
X6383274Y-4456684D02*
G01*
X6383274Y-4565650D01*
X6383274Y-4456684D02*
G01*
X6419850Y-4456684D01*
X6435343Y-4461763D01*
X6445758Y-4472178D01*
X6450838Y-4482592D01*
X6456172Y-4498339D01*
X6456172Y-4524247D01*
X6450838Y-4539742D01*
X6445758Y-4550155D01*
X6435343Y-4560570D01*
X6419850Y-4565650D01*
X6383274Y-4565650D01*
G36*
X8568537Y-4470450D02*
G01*
X8552688Y-4471060D01*
X8536889Y-4472482D01*
X8521242Y-4474718D01*
X8505647Y-4477715D01*
X8490305Y-4481576D01*
X8475116Y-4486198D01*
X8460232Y-4491583D01*
X8445601Y-4497730D01*
X8431326Y-4504639D01*
X8417458Y-4512259D01*
X8403945Y-4520590D01*
X8390940Y-4529632D01*
X8378342Y-4539284D01*
X8366302Y-4549597D01*
X8354822Y-4560519D01*
X8343900Y-4572000D01*
X8801100Y-4572000D01*
X8790178Y-4560519D01*
X8778697Y-4549597D01*
X8766657Y-4539284D01*
X8754059Y-4529632D01*
X8741054Y-4520590D01*
X8727541Y-4512259D01*
X8713673Y-4504639D01*
X8699398Y-4497730D01*
X8684768Y-4491583D01*
X8669883Y-4486198D01*
X8654694Y-4481576D01*
X8639352Y-4477715D01*
X8623757Y-4474718D01*
X8608110Y-4472482D01*
X8592312Y-4471060D01*
X8576462Y-4470450D01*
G37*
G36*
X7670800Y-4461713D02*
G01*
X7657134Y-4462119D01*
X7643520Y-4463338D01*
X7630007Y-4465370D01*
X7616647Y-4468215D01*
X7603490Y-4471873D01*
X7596987Y-4473956D01*
X7584186Y-4478782D01*
X7571689Y-4484319D01*
X7559548Y-4490618D01*
X7547813Y-4497628D01*
X7536535Y-4505350D01*
X7525715Y-4513732D01*
X7515453Y-4522724D01*
X7505700Y-4532274D01*
X7835900Y-4532274D01*
X7826146Y-4522724D01*
X7815884Y-4513732D01*
X7805064Y-4505350D01*
X7793786Y-4497628D01*
X7782052Y-4490618D01*
X7769910Y-4484319D01*
X7757414Y-4478782D01*
X7744663Y-4473956D01*
X7731556Y-4469942D01*
X7718298Y-4466691D01*
X7704836Y-4464253D01*
X7691272Y-4462627D01*
X7677658Y-4461814D01*
G37*
G36*
X7696200Y-5058613D02*
G01*
X7682534Y-5059019D01*
X7668920Y-5060238D01*
X7655407Y-5062270D01*
X7642047Y-5065115D01*
X7628890Y-5068773D01*
X7622387Y-5070856D01*
X7609586Y-5075682D01*
X7597089Y-5081219D01*
X7584948Y-5087518D01*
X7573213Y-5094528D01*
X7561935Y-5102250D01*
X7551115Y-5110632D01*
X7540853Y-5119624D01*
X7531100Y-5129174D01*
X7861300Y-5129174D01*
X7851546Y-5119624D01*
X7841284Y-5110632D01*
X7830464Y-5102250D01*
X7819186Y-5094528D01*
X7807452Y-5087518D01*
X7795310Y-5081219D01*
X7782814Y-5075682D01*
X7770063Y-5070856D01*
X7756956Y-5066842D01*
X7743698Y-5063591D01*
X7730236Y-5061153D01*
X7716672Y-5059527D01*
X7703058Y-5058714D01*
G37*
D10*
X9283700Y-5435600D02*
G01*
X9791700Y-5435600D01*
X9791700Y-5689600D01*
X9283700Y-5689600D01*
X9283700Y-5435600D01*
X8420100Y-4965700D02*
G01*
X8420100Y-4864100D01*
X8369300Y-4914900D02*
G01*
X8470900Y-4914900D01*
X7476182Y-4777127D02*
G01*
X7556182Y-4777127D01*
X7516182Y-4817127D02*
G01*
X7516182Y-4737127D01*
X7501582Y-5374027D02*
G01*
X7581582Y-5374027D01*
X7541582Y-5414027D02*
G01*
X7541582Y-5334027D01*
X8236300Y-5448000D02*
G01*
X8756299Y-5448000D01*
X8756299Y-5448000D02*
G01*
X8756299Y-5727999D01*
X8236300Y-5727999D02*
G01*
X8756299Y-5727999D01*
X8236300Y-5448000D02*
G01*
X8236300Y-5727999D01*
X8332226Y-5448000D02*
G01*
X8332226Y-5727999D01*
X9540747Y-3378200D02*
G01*
X9541281Y-3123412D01*
X9553447Y-3848100D02*
G01*
X9553981Y-3593312D01*
X8633459Y-3119120D02*
G01*
X8633459Y-3357879D01*
X8633459Y-3357879D02*
G01*
X8003540Y-3357879D01*
X8003540Y-3357879D02*
G01*
X8003540Y-3119120D01*
X8003540Y-3119120D02*
G01*
X8633459Y-3119120D01*
X8658859Y-3589020D02*
G01*
X8658859Y-3827779D01*
X8658859Y-3827779D02*
G01*
X8028940Y-3827779D01*
X8028940Y-3827779D02*
G01*
X8028940Y-3589020D01*
X8028940Y-3589020D02*
G01*
X8658859Y-3589020D01*
X11557000Y-3632603D02*
G01*
X11303000Y-3632603D01*
X10805010Y-4175607D02*
G01*
X10805010Y-3720609D01*
X12055017Y-4175607D02*
G01*
X12055017Y-3720609D01*
X10805007Y-3290603D02*
G01*
X10805007Y-2835605D01*
X12055015Y-3290600D02*
G01*
X12055015Y-2835602D01*
X11800027Y-2835602D02*
G01*
X12055043Y-2835602D01*
X11770022Y-4175607D02*
G01*
X12055010Y-4175607D01*
X11521998Y-4175607D02*
G01*
X11592001Y-4175607D01*
X11269997Y-4175607D02*
G01*
X11340000Y-4175607D01*
X10805007Y-4175607D02*
G01*
X11090000Y-4175607D01*
X11302502Y-2835602D02*
G01*
X11557495Y-2835602D01*
X10805007Y-2835602D02*
G01*
X11060000Y-2835602D01*
X10071100Y-3835400D02*
G01*
X10071100Y-3898900D01*
X10579100Y-3898900D01*
X10579100Y-3136900D01*
X10071100Y-3136900D01*
X10071100Y-3898900D01*
X6261100Y-3835400D02*
G01*
X6261100Y-4406900D01*
X10579100Y-4406900D01*
X10579100Y-2628900D01*
X6261100Y-2628900D01*
X6261100Y-3200400D01*
X6134100Y-3263900D02*
G01*
X6134100Y-3644900D01*
X6134100Y-3835400D01*
X6515100Y-3835400D01*
X6134100Y-3835400D02*
G01*
X6134100Y-3200400D01*
X6896100Y-3200400D01*
X6896100Y-3835400D01*
X6134100Y-3835400D01*
D25*
X9078079Y-4745057D02*
G01*
X9743320Y-4745057D01*
X9743320Y-5039337D01*
X9078079Y-5039337D01*
X9078079Y-4745057D01*
D26*
X11938000Y-5626100D02*
G01*
X11938000Y-5753100D01*
X10890250Y-5753100D01*
X10890250Y-4483100D01*
X11938000Y-4483100D01*
X11938000Y-4610100D01*
D10*
X7188200Y-5397500D02*
G01*
X7188200Y-5651500D01*
X6172200Y-5651500D01*
X6172200Y-5397500D01*
X7188200Y-5397500D01*
X6184900Y-4597400D02*
G01*
X6438900Y-4597400D01*
X6438900Y-5359400D01*
X6184900Y-5359400D01*
X6184900Y-4597400D01*
G75*
G01*
X9540748Y-3124657D02*
G03*
X9540748Y-3378149I-154710J-126746D01*
G75*
G01*
X9553448Y-3594557D02*
G03*
X9553448Y-3848049I-154710J-126746D01*
G75*
G01*
X11557000Y-3632604D02*
G03*
X11303000Y-3632604I-127000J127001D01*
G75*
G01*
X10388600Y-3263900D02*
G03*
X10388605Y-3263212I63500J-124D01*
G75*
G01*
X10388600Y-3517900D02*
G03*
X10388605Y-3517212I63500J-124D01*
G75*
G01*
X10388600Y-3771900D02*
G03*
X10388605Y-3771212I63500J-124D01*
G75*
G01*
X10134600Y-3263900D02*
G03*
X10134605Y-3263212I63500J-124D01*
G75*
G01*
X10134600Y-3517900D02*
G03*
X10134605Y-3517212I63500J-124D01*
G75*
G01*
X10134600Y-3771900D02*
G03*
X10134605Y-3771212I63500J-124D01*
G75*
G01
X8887460Y-4787900D02*
G03X8887460Y-4787900I-314960J0D01*
D12*
G75*
G01
X7920812Y-4711700D02*
G03X7920812Y-4711700I-250012J0D01*
G75*
G01
X7946212Y-5308600D02*
G03X7946212Y-5308600I-250012J0D01*
D10*
G75*
G01
X11729999Y-3505606D02*
G03X11729999Y-3505606I-299999J0D01*
M02*
